G04*
G04 #@! TF.GenerationSoftware,Altium Limited,Altium Designer,18.0.12 (696)*
G04*
G04 Layer_Physical_Order=1*
G04 Layer_Color=255*
%FSLAX25Y25*%
%MOIN*%
G70*
G01*
G75*
%ADD10C,0.00500*%
%ADD14C,0.01000*%
%ADD20R,0.03937X0.02756*%
%ADD21R,0.07165X0.04764*%
%ADD22R,0.03543X0.03347*%
%ADD23R,0.03347X0.03543*%
%ADD24R,0.07087X0.04331*%
%ADD25R,0.01772X0.03937*%
%ADD26R,0.06890X0.11614*%
%ADD27O,0.05709X0.01201*%
%ADD28R,0.10630X0.14173*%
%ADD29R,0.11024X0.02165*%
%ADD30R,0.05512X0.03937*%
%ADD31R,0.03937X0.05512*%
%ADD32R,0.01772X0.05709*%
%ADD33O,0.06299X0.01181*%
%ADD34R,0.04803X0.02362*%
%ADD35R,0.02362X0.04803*%
%ADD36R,0.02441X0.04803*%
%ADD37R,0.03150X0.03150*%
%ADD38R,0.06614X0.07559*%
%ADD39R,0.02756X0.03937*%
%ADD40R,0.04764X0.07165*%
%ADD72C,0.02500*%
%ADD73C,0.03937*%
%ADD74C,0.03000*%
%ADD75C,0.02000*%
%ADD76C,0.06000*%
%ADD77C,0.12205*%
%ADD78R,0.05512X0.05512*%
%ADD79C,0.05512*%
%ADD80C,0.09449*%
%ADD81C,0.12795*%
%ADD82R,0.05118X0.05118*%
%ADD83C,0.05118*%
%ADD84C,0.01772*%
%ADD85C,0.02362*%
%ADD86C,0.01968*%
G36*
X37000Y375000D02*
X28000Y366000D01*
Y361000D01*
X21000D01*
Y382500D01*
X37000D01*
Y375000D01*
D02*
G37*
G36*
X28000Y356500D02*
Y330000D01*
X21000D01*
Y357000D01*
X28000D01*
Y356500D01*
D02*
G37*
G36*
X35000Y316500D02*
X28000Y309500D01*
Y302000D01*
X21500D01*
Y322500D01*
X35000D01*
Y316500D01*
D02*
G37*
G36*
X26500Y382879D02*
X21000D01*
X20732Y382768D01*
X20621Y382500D01*
Y361000D01*
X20732Y360732D01*
X21000Y360621D01*
X21406Y360531D01*
Y357469D01*
X21000Y357379D01*
X20732Y357268D01*
X20621Y357000D01*
Y352347D01*
X20327Y351969D01*
X20121Y351969D01*
X18449D01*
Y349000D01*
Y346031D01*
X20121D01*
X20327Y346031D01*
X20621Y345653D01*
Y330000D01*
X20732Y329732D01*
X21000Y329621D01*
X26500D01*
Y322879D01*
X21500D01*
X21232Y322768D01*
X21121Y322500D01*
Y302000D01*
X21225Y301750D01*
X21406Y301309D01*
X21406Y301309D01*
X21406Y301309D01*
Y298379D01*
X21000D01*
X20732Y298268D01*
X20621Y298000D01*
Y293125D01*
X20327Y292747D01*
X20121Y292747D01*
X18449D01*
Y289778D01*
Y286810D01*
X20121D01*
X20327Y286810D01*
X20621Y286432D01*
Y278000D01*
X16673D01*
Y281278D01*
X9909D01*
Y278000D01*
X1631D01*
X1338Y278500D01*
X1463Y279128D01*
X1463Y392525D01*
X26500D01*
Y382879D01*
D02*
G37*
G36*
X28000Y297500D02*
Y271000D01*
X21000D01*
Y298000D01*
X27500D01*
X28000Y297500D01*
D02*
G37*
G36*
X44121Y100500D02*
X44232Y100232D01*
X44500Y100121D01*
X55067D01*
Y100119D01*
X62933D01*
Y100121D01*
X65067D01*
Y100119D01*
X72346D01*
X78034Y94430D01*
X77842Y93968D01*
X77449D01*
Y91500D01*
X79327D01*
Y92484D01*
X79789Y92676D01*
X81121Y91343D01*
Y87283D01*
X77409D01*
Y83004D01*
X81217D01*
Y84041D01*
X81717Y84248D01*
X85732Y80232D01*
X86000Y80121D01*
X88485D01*
X88753Y80232D01*
X88846Y80457D01*
X90956Y80457D01*
X91456Y80457D01*
X93515Y80457D01*
X94015Y80457D01*
X96074D01*
Y82795D01*
X100610D01*
X100942Y82861D01*
X101192Y83028D01*
X104122D01*
Y83842D01*
X106067D01*
Y81977D01*
X113633D01*
X113933Y81977D01*
X114133Y81560D01*
Y76440D01*
X113933Y76023D01*
X113633Y76023D01*
X106067D01*
Y70560D01*
X109133D01*
Y50359D01*
X73341Y14566D01*
X72879Y14758D01*
Y26843D01*
X88768Y42732D01*
X88879Y43000D01*
Y56547D01*
X89323Y56682D01*
Y56682D01*
X92779D01*
Y61237D01*
X93190Y61533D01*
X94926Y59798D01*
Y56878D01*
X98972D01*
Y61122D01*
X96053D01*
X95152Y62022D01*
X95344Y62484D01*
X96724D01*
Y65839D01*
X94839D01*
Y66339D01*
X94339D01*
Y70193D01*
X92953D01*
Y69897D01*
X92599Y69543D01*
X91044Y69543D01*
X90544Y69543D01*
X88846D01*
X88753Y69768D01*
X88485Y69879D01*
X83157D01*
X80768Y72268D01*
X80500Y72379D01*
X73000D01*
X72732Y72268D01*
X72621Y72000D01*
Y53657D01*
X67732Y48768D01*
X67621Y48500D01*
Y14207D01*
X67159Y14015D01*
X65972Y15202D01*
Y18122D01*
X61926D01*
Y16867D01*
X59779D01*
Y18318D01*
X56323D01*
Y13681D01*
X59779D01*
Y15133D01*
X61926D01*
Y13878D01*
X64845D01*
X66836Y11887D01*
X67117Y11699D01*
X67449Y11633D01*
X72030D01*
X72244Y11151D01*
X72021Y10867D01*
X58308D01*
X53879Y15296D01*
Y48843D01*
X60768Y55732D01*
X60879Y56000D01*
Y71000D01*
X60768Y71268D01*
X60500Y71379D01*
X1538D01*
Y114500D01*
X2011Y115000D01*
X35676D01*
X35943Y114500D01*
X35757Y114222D01*
X35614Y113500D01*
X35751Y112808D01*
X35776Y112319D01*
X35776Y112319D01*
X35776Y112319D01*
Y107682D01*
X41988D01*
Y112319D01*
X41988D01*
X41803Y112819D01*
X41886Y113236D01*
Y113500D01*
X41743Y114222D01*
X41557Y114500D01*
X41824Y115000D01*
X44121D01*
Y100500D01*
D02*
G37*
G36*
X87500Y101000D02*
Y89000D01*
X88500Y88000D01*
Y86866D01*
X88485D01*
Y80500D01*
X86000D01*
X81500Y85000D01*
Y91500D01*
X72500Y100500D01*
X44500D01*
Y125000D01*
X63500D01*
X87500Y101000D01*
D02*
G37*
G36*
X536000Y75000D02*
X507307D01*
X507000Y75061D01*
X506693Y75000D01*
X504807D01*
X504500Y75061D01*
X504193Y75000D01*
X502307D01*
X502000Y75061D01*
X501693Y75000D01*
X500000D01*
X500000Y85000D01*
X508500Y93500D01*
X536000D01*
X536000Y75000D01*
D02*
G37*
G36*
X507233Y74628D02*
X507271Y74636D01*
X507307Y74621D01*
X535500D01*
Y70513D01*
X535000Y70414D01*
X534750Y71017D01*
X534109Y71853D01*
X533273Y72494D01*
X532300Y72897D01*
X531756Y72969D01*
Y69000D01*
Y65031D01*
X532300Y65103D01*
X533273Y65506D01*
X534109Y66147D01*
X534750Y66983D01*
X535000Y67586D01*
X535500Y67487D01*
Y63379D01*
X507000D01*
X506732Y63268D01*
X500462Y56998D01*
X500000Y57189D01*
Y66409D01*
X504000D01*
Y69791D01*
Y73173D01*
X500000D01*
Y74621D01*
X501693D01*
X501729Y74636D01*
X501767Y74628D01*
X502000Y74675D01*
X502233Y74628D01*
X502271Y74636D01*
X502307Y74621D01*
X504193D01*
X504229Y74636D01*
X504267Y74628D01*
X504500Y74675D01*
X504733Y74628D01*
X504771Y74636D01*
X504807Y74621D01*
X506693D01*
X506729Y74636D01*
X506767Y74628D01*
X507000Y74675D01*
X507233Y74628D01*
D02*
G37*
G36*
X113933Y70559D02*
X114133Y70143D01*
Y52859D01*
X111367Y50092D01*
X110867Y50299D01*
Y70560D01*
X113933Y70559D01*
D02*
G37*
G36*
X535500Y45500D02*
X500000D01*
Y56000D01*
X507000Y63000D01*
X535500D01*
Y45500D01*
D02*
G37*
G36*
Y40513D02*
X535000Y40413D01*
X534750Y41017D01*
X534109Y41853D01*
X533273Y42494D01*
X532300Y42897D01*
X531756Y42969D01*
Y39000D01*
X531256D01*
Y38500D01*
X527287D01*
X527359Y37956D01*
X527762Y36983D01*
X528403Y36147D01*
X529239Y35506D01*
X529253Y35500D01*
X529154Y35000D01*
X523358D01*
X523259Y35500D01*
X523273Y35506D01*
X524109Y36147D01*
X524750Y36983D01*
X525153Y37956D01*
X525225Y38500D01*
X521256D01*
X517287D01*
X517359Y37956D01*
X517762Y36983D01*
X518403Y36147D01*
X519239Y35506D01*
X519253Y35500D01*
X519154Y35000D01*
X500000D01*
Y36409D01*
X504000D01*
Y39791D01*
Y43173D01*
X500000D01*
Y45121D01*
X535500D01*
Y40513D01*
D02*
G37*
G36*
X124000Y38000D02*
X116000D01*
Y69000D01*
X124000D01*
Y38000D01*
D02*
G37*
G36*
X132367Y74462D02*
X132720Y74109D01*
X132701Y74090D01*
X133089Y73793D01*
X133089Y73793D01*
X133096Y73787D01*
X133597Y73403D01*
X138000Y69000D01*
Y1538D01*
X53879D01*
Y12191D01*
X54341Y12382D01*
X57336Y9387D01*
X57617Y9199D01*
X57949Y9133D01*
X72500D01*
X72832Y9199D01*
X73113Y9387D01*
X115121Y51395D01*
X115621Y51188D01*
Y38000D01*
X115732Y37732D01*
X116000Y37621D01*
X124000D01*
X124268Y37732D01*
X124379Y38000D01*
Y69000D01*
X124268Y69268D01*
X124000Y69379D01*
X116000D01*
X115867Y69468D01*
Y88500D01*
X115801Y88832D01*
X115613Y89113D01*
X107062Y97664D01*
X106781Y97852D01*
X106449Y97918D01*
X104122D01*
Y99074D01*
X99878D01*
Y95028D01*
X104122D01*
Y96184D01*
X106090D01*
X114133Y88141D01*
Y87857D01*
X113933Y87441D01*
X113633Y87441D01*
X106067D01*
Y85575D01*
X104122D01*
Y87074D01*
X102867D01*
Y88926D01*
X104122D01*
Y92972D01*
X99878D01*
Y88926D01*
X101133D01*
Y87074D01*
X99878D01*
Y84528D01*
X96074D01*
Y86866D01*
X93850Y86866D01*
X93642Y87366D01*
X95202Y88926D01*
X98122D01*
Y92972D01*
X93878D01*
Y90053D01*
X92691Y88865D01*
X92318Y89200D01*
Y92629D01*
X87879D01*
Y93133D01*
X92949D01*
X93281Y93199D01*
X93562Y93387D01*
X95202Y95028D01*
X98122D01*
Y99074D01*
X93878D01*
Y96155D01*
X93430Y95707D01*
X92968Y95899D01*
Y96504D01*
X90000D01*
Y97004D01*
X89500D01*
Y99382D01*
X87879D01*
Y101000D01*
X87768Y101268D01*
X74498Y114538D01*
X74689Y115000D01*
X91829D01*
X132367Y74462D01*
D02*
G37*
G36*
X83000Y69500D02*
X88485D01*
Y63134D01*
X88500D01*
Y43000D01*
X72500Y27000D01*
Y13726D01*
X72274Y13500D01*
X68000D01*
Y48500D01*
X73000Y53500D01*
Y72000D01*
X80500D01*
X83000Y69500D01*
D02*
G37*
G36*
X60500Y56000D02*
X53500Y49000D01*
Y1538D01*
X1538D01*
X1538Y71000D01*
X60500D01*
Y56000D01*
D02*
G37*
%LPC*%
G36*
X16673Y381583D02*
X13791D01*
Y377500D01*
X16673D01*
Y381583D01*
D02*
G37*
G36*
X12791D02*
X9909D01*
Y377500D01*
X12791D01*
Y381583D01*
D02*
G37*
G36*
Y376500D02*
X9909D01*
Y372417D01*
X12791D01*
Y376500D01*
D02*
G37*
G36*
X16673D02*
X13791D01*
Y372417D01*
X14447D01*
X14571Y371969D01*
X14571Y371917D01*
Y369500D01*
X16949D01*
X19327D01*
Y371969D01*
X16797D01*
X16673Y372417D01*
X16673Y372468D01*
Y376500D01*
D02*
G37*
G36*
X19327Y368500D02*
X17449D01*
Y366032D01*
X19327D01*
Y368500D01*
D02*
G37*
G36*
X16449D02*
X14571D01*
Y366032D01*
X16449D01*
Y368500D01*
D02*
G37*
G36*
X17244Y364921D02*
X14343D01*
Y363240D01*
X17244D01*
Y364921D01*
D02*
G37*
G36*
X13342D02*
X10441D01*
Y363240D01*
X13342D01*
Y364921D01*
D02*
G37*
G36*
X17244Y362240D02*
X13842D01*
X10441D01*
Y360559D01*
Y359500D01*
X13842D01*
X17244D01*
Y360559D01*
Y362240D01*
D02*
G37*
G36*
Y358500D02*
X13842D01*
X10441D01*
Y356819D01*
X10603D01*
X11091Y356791D01*
X11091Y356319D01*
Y353729D01*
X16594D01*
X16594Y356791D01*
X17083Y356819D01*
X17244D01*
Y358500D01*
D02*
G37*
G36*
X17449Y351969D02*
X15571D01*
Y349500D01*
X17449D01*
Y351969D01*
D02*
G37*
G36*
Y348500D02*
X15571D01*
Y346083D01*
X15571Y346031D01*
X15447Y345583D01*
X13791D01*
Y341500D01*
X16673D01*
Y345532D01*
X16673Y345583D01*
X16797Y346031D01*
X17449D01*
Y348500D01*
D02*
G37*
G36*
X12791Y345583D02*
X9909D01*
Y341500D01*
X12791D01*
Y345583D01*
D02*
G37*
G36*
X16673Y340500D02*
X13791D01*
Y336417D01*
X16673D01*
Y340500D01*
D02*
G37*
G36*
X12791D02*
X9909D01*
Y336417D01*
X12791D01*
Y340500D01*
D02*
G37*
G36*
X16988Y335318D02*
X10776D01*
Y330681D01*
X11996D01*
Y330163D01*
X11666Y329834D01*
X11257Y329222D01*
X11114Y328500D01*
X11257Y327778D01*
X11666Y327166D01*
X12278Y326757D01*
X13000Y326614D01*
X15500D01*
X16222Y326757D01*
X16834Y327166D01*
X17243Y327778D01*
X17386Y328500D01*
X17243Y329222D01*
X16834Y329834D01*
X16313Y330182D01*
X16376Y330631D01*
X16397Y330681D01*
X16988D01*
Y335318D01*
D02*
G37*
G36*
X16673Y322361D02*
X13791D01*
Y318278D01*
X16673D01*
Y322361D01*
D02*
G37*
G36*
X12791D02*
X9909D01*
Y318278D01*
X12791D01*
Y322361D01*
D02*
G37*
G36*
Y317278D02*
X9909D01*
Y313196D01*
X12791D01*
Y317278D01*
D02*
G37*
G36*
X16673D02*
X13791D01*
Y313196D01*
X14447D01*
X14571Y312747D01*
X14571Y312696D01*
Y310278D01*
X16949D01*
X19327D01*
Y312747D01*
X16797D01*
X16673Y313196D01*
X16673Y313247D01*
Y317278D01*
D02*
G37*
G36*
X19327Y309278D02*
X17449D01*
Y306810D01*
X19327D01*
Y309278D01*
D02*
G37*
G36*
X16449D02*
X14571D01*
Y306810D01*
X16449D01*
Y309278D01*
D02*
G37*
G36*
X17244Y305700D02*
X14343D01*
Y304018D01*
X17244D01*
Y305700D01*
D02*
G37*
G36*
X13342D02*
X10441D01*
Y304018D01*
X13342D01*
Y305700D01*
D02*
G37*
G36*
X17244Y303018D02*
X13842D01*
X10441D01*
Y301337D01*
Y300278D01*
X13842D01*
X17244D01*
Y301337D01*
Y303018D01*
D02*
G37*
G36*
Y299278D02*
X13842D01*
X10441D01*
Y297597D01*
X10603D01*
X11091Y297569D01*
X11091Y297097D01*
Y294507D01*
X16594D01*
X16594Y297569D01*
X17083Y297597D01*
X17244D01*
Y299278D01*
D02*
G37*
G36*
X17449Y292747D02*
X15571D01*
Y290278D01*
X17449D01*
Y292747D01*
D02*
G37*
G36*
Y289278D02*
X15571D01*
Y286861D01*
X15571Y286810D01*
X15447Y286361D01*
X13791D01*
Y282278D01*
X16673D01*
Y286310D01*
X16673Y286361D01*
X16797Y286810D01*
X17449D01*
Y289278D01*
D02*
G37*
G36*
X12791Y286361D02*
X9909D01*
Y282278D01*
X12791D01*
Y286361D01*
D02*
G37*
G36*
X30500Y100928D02*
Y98500D01*
X32928D01*
X32892Y98775D01*
X32593Y99497D01*
X32117Y100117D01*
X31497Y100593D01*
X30775Y100892D01*
X30500Y100928D01*
D02*
G37*
G36*
X29500D02*
X29225Y100892D01*
X28503Y100593D01*
X27883Y100117D01*
X27407Y99497D01*
X27108Y98775D01*
X27072Y98500D01*
X29500D01*
Y100928D01*
D02*
G37*
G36*
X32928Y97500D02*
X30500D01*
Y95072D01*
X30775Y95108D01*
X31497Y95407D01*
X32117Y95883D01*
X32593Y96503D01*
X32892Y97225D01*
X32928Y97500D01*
D02*
G37*
G36*
X29500D02*
X27072D01*
X27108Y97225D01*
X27407Y96503D01*
X27883Y95883D01*
X28503Y95407D01*
X29225Y95108D01*
X29500Y95072D01*
Y97500D01*
D02*
G37*
G36*
X73583Y94815D02*
X69500D01*
Y91933D01*
X73583D01*
Y94815D01*
D02*
G37*
G36*
X63583D02*
X59500D01*
Y91933D01*
X63583D01*
Y94815D01*
D02*
G37*
G36*
X58500D02*
X54417D01*
Y91933D01*
X58500D01*
Y94815D01*
D02*
G37*
G36*
X68500D02*
X64417D01*
Y91933D01*
X68500D01*
Y94815D01*
D02*
G37*
G36*
X76449Y93968D02*
X74571D01*
Y91500D01*
X76449D01*
Y93968D01*
D02*
G37*
G36*
X73583Y90933D02*
X69500D01*
Y88051D01*
X73583D01*
Y90933D01*
D02*
G37*
G36*
X68500D02*
X64417D01*
Y88051D01*
X68500D01*
Y90933D01*
D02*
G37*
G36*
X63583D02*
X59500D01*
Y88051D01*
X63583D01*
Y90933D01*
D02*
G37*
G36*
X58500D02*
X54417D01*
Y88051D01*
X58500D01*
Y90933D01*
D02*
G37*
G36*
X79327Y90500D02*
X77449D01*
Y88032D01*
X79327D01*
Y90500D01*
D02*
G37*
G36*
X76449D02*
X74571D01*
Y88032D01*
X76449D01*
Y90500D01*
D02*
G37*
G36*
X76410Y87283D02*
X72602D01*
Y83004D01*
X76410D01*
Y87283D01*
D02*
G37*
G36*
X104772Y81622D02*
X102500D01*
Y79449D01*
X104772D01*
Y81622D01*
D02*
G37*
G36*
X101500D02*
X99228D01*
Y79449D01*
X101500D01*
Y81622D01*
D02*
G37*
G36*
X44583Y81090D02*
X40500D01*
Y78209D01*
X44583D01*
Y81090D01*
D02*
G37*
G36*
X49500D02*
X45417D01*
Y78209D01*
X49500D01*
Y81090D01*
D02*
G37*
G36*
X39500D02*
X35417D01*
Y78209D01*
X39500D01*
Y81090D01*
D02*
G37*
G36*
X81217Y82004D02*
X77409D01*
Y77724D01*
X81217D01*
Y82004D01*
D02*
G37*
G36*
X76410D02*
X72602D01*
Y77724D01*
X76410D01*
Y82004D01*
D02*
G37*
G36*
X104772Y78449D02*
X102500D01*
Y76276D01*
X104772D01*
Y78449D01*
D02*
G37*
G36*
X101500D02*
X99228D01*
Y76276D01*
X101500D01*
Y78449D01*
D02*
G37*
G36*
X58500Y77429D02*
Y75551D01*
X60969D01*
Y77429D01*
X58500D01*
D02*
G37*
G36*
X44583Y77209D02*
X40500D01*
Y74327D01*
X44583D01*
Y77209D01*
D02*
G37*
G36*
X39500D02*
X35417D01*
Y74327D01*
X39500D01*
Y77209D01*
D02*
G37*
G36*
X49500D02*
X45417D01*
Y74327D01*
X49500D01*
Y77209D01*
D02*
G37*
G36*
X60969Y74551D02*
X58500D01*
Y72673D01*
X60969D01*
Y74551D01*
D02*
G37*
G36*
X54583Y81090D02*
X50500D01*
Y77709D01*
Y74327D01*
X54532D01*
X54583Y74327D01*
X55032Y74203D01*
Y72673D01*
X57500D01*
Y75051D01*
Y77429D01*
X55083D01*
X55032Y77429D01*
X54583Y77553D01*
Y81090D01*
D02*
G37*
G36*
X96724Y70193D02*
X95339D01*
Y66839D01*
X96724D01*
Y70193D01*
D02*
G37*
G36*
X105724Y61772D02*
X103551D01*
Y59500D01*
X105724D01*
Y61772D01*
D02*
G37*
G36*
X102551D02*
X100378D01*
Y59500D01*
X102551D01*
Y61772D01*
D02*
G37*
G36*
X105724Y58500D02*
X103551D01*
Y56228D01*
X105724D01*
Y58500D01*
D02*
G37*
G36*
X102551D02*
X100378D01*
Y56228D01*
X102551D01*
Y58500D01*
D02*
G37*
G36*
X515469Y73327D02*
X513000D01*
Y71449D01*
X515469D01*
Y73327D01*
D02*
G37*
G36*
X521756Y72969D02*
Y69500D01*
X525225D01*
X525153Y70044D01*
X524750Y71017D01*
X524109Y71853D01*
X523273Y72494D01*
X522300Y72897D01*
X521756Y72969D01*
D02*
G37*
G36*
X530756Y72969D02*
X530212Y72897D01*
X529239Y72494D01*
X528403Y71853D01*
X527762Y71017D01*
X527359Y70044D01*
X527287Y69500D01*
X530756D01*
Y72969D01*
D02*
G37*
G36*
X520756D02*
X520212Y72897D01*
X519239Y72494D01*
X518403Y71853D01*
X517762Y71017D01*
X517359Y70044D01*
X517287Y69500D01*
X520756D01*
Y72969D01*
D02*
G37*
G36*
X515469Y70449D02*
X513000D01*
Y68571D01*
X515469D01*
Y70449D01*
D02*
G37*
G36*
X512000Y73327D02*
X509531D01*
Y73297D01*
X509083Y73173D01*
X509031Y73173D01*
X505000D01*
Y69791D01*
Y66409D01*
X509083D01*
Y68447D01*
X509531Y68571D01*
X509583Y68571D01*
X512000D01*
Y70949D01*
Y73327D01*
D02*
G37*
G36*
X525225Y68500D02*
X521756D01*
Y65031D01*
X522300Y65103D01*
X523273Y65506D01*
X524109Y66147D01*
X524750Y66983D01*
X525153Y67956D01*
X525225Y68500D01*
D02*
G37*
G36*
X530756D02*
X527287D01*
X527359Y67956D01*
X527762Y66983D01*
X528403Y66147D01*
X529239Y65506D01*
X530212Y65103D01*
X530756Y65031D01*
Y68500D01*
D02*
G37*
G36*
X520756D02*
X517287D01*
X517359Y67956D01*
X517762Y66983D01*
X518403Y66147D01*
X519239Y65506D01*
X520212Y65103D01*
X520756Y65031D01*
Y68500D01*
D02*
G37*
G36*
X515469Y43327D02*
X513000D01*
Y41449D01*
X515469D01*
Y43327D01*
D02*
G37*
G36*
X521756Y42969D02*
Y39500D01*
X525225D01*
X525153Y40044D01*
X524750Y41017D01*
X524109Y41853D01*
X523273Y42494D01*
X522300Y42897D01*
X521756Y42969D01*
D02*
G37*
G36*
X530756Y42969D02*
X530212Y42897D01*
X529239Y42494D01*
X528403Y41853D01*
X527762Y41017D01*
X527359Y40044D01*
X527287Y39500D01*
X530756D01*
Y42969D01*
D02*
G37*
G36*
X520756D02*
X520212Y42897D01*
X519239Y42494D01*
X518403Y41853D01*
X517762Y41017D01*
X517359Y40044D01*
X517287Y39500D01*
X520756D01*
Y42969D01*
D02*
G37*
G36*
X515469Y40449D02*
X513000D01*
Y38571D01*
X515469D01*
Y40449D01*
D02*
G37*
G36*
X512000Y43327D02*
X509531D01*
Y43297D01*
X509083Y43173D01*
X509031Y43173D01*
X505000D01*
Y39791D01*
Y36409D01*
X509083D01*
Y38447D01*
X509531Y38571D01*
X509583Y38571D01*
X512000D01*
Y40949D01*
Y43327D01*
D02*
G37*
G36*
X92968Y99382D02*
X90500D01*
Y97504D01*
X92968D01*
Y99382D01*
D02*
G37*
G36*
X134091Y60583D02*
X131209D01*
Y56500D01*
X134091D01*
Y60583D01*
D02*
G37*
G36*
X130209D02*
X127327D01*
Y56500D01*
X130209D01*
Y60583D01*
D02*
G37*
G36*
X134091Y55500D02*
X130709D01*
X127327D01*
Y51468D01*
X127327Y51417D01*
X127203Y50968D01*
X125673D01*
Y48500D01*
X128051D01*
X130429D01*
Y50917D01*
X130429Y50968D01*
X130553Y51417D01*
X134091D01*
Y55500D01*
D02*
G37*
G36*
X130429Y47500D02*
X128051D01*
X125673D01*
Y45031D01*
X126453D01*
X126520Y44559D01*
X126520Y44532D01*
Y41658D01*
X128740D01*
X130961D01*
Y44559D01*
X130496D01*
X130429Y45031D01*
X130429Y45059D01*
Y47500D01*
D02*
G37*
G36*
X130961Y40657D02*
X129240D01*
Y37756D01*
X130961D01*
Y40657D01*
D02*
G37*
G36*
X128240D02*
X126520D01*
Y37756D01*
X128240D01*
Y40657D01*
D02*
G37*
G36*
X127181Y34244D02*
X125500D01*
Y30843D01*
X124500D01*
Y34244D01*
X122819D01*
Y33879D01*
X119500D01*
X119232Y33768D01*
X116843Y31379D01*
X100000D01*
X99732Y31268D01*
X99621Y31000D01*
Y23500D01*
X99732Y23232D01*
X100000Y23121D01*
X126000D01*
X126268Y23232D01*
X130768Y27732D01*
X130879Y28000D01*
Y33500D01*
X130768Y33768D01*
X130500Y33879D01*
X127181D01*
Y34244D01*
D02*
G37*
G36*
X122968Y21327D02*
X120500D01*
Y19449D01*
X122968D01*
Y21327D01*
D02*
G37*
G36*
X111500Y19673D02*
X107417D01*
Y16791D01*
X111500D01*
Y19673D01*
D02*
G37*
G36*
X122968Y18449D02*
X120500D01*
Y16571D01*
X122968D01*
Y18449D01*
D02*
G37*
G36*
X119500Y21327D02*
X117032D01*
Y19797D01*
X116583Y19673D01*
X116532Y19673D01*
X112500D01*
Y16291D01*
Y12910D01*
X116583D01*
Y16447D01*
X117032Y16571D01*
X117083Y16571D01*
X119500D01*
Y18949D01*
Y21327D01*
D02*
G37*
G36*
X111500Y15791D02*
X107417D01*
Y12910D01*
X111500D01*
Y15791D01*
D02*
G37*
G36*
X105318Y19988D02*
X100681D01*
Y14678D01*
X100166Y14334D01*
X99757Y13722D01*
X99614Y13000D01*
X99757Y12278D01*
X100166Y11666D01*
X100778Y11257D01*
X101500Y11114D01*
X104000D01*
X104722Y11257D01*
X105334Y11666D01*
X105743Y12278D01*
X105886Y13000D01*
X105743Y13722D01*
X105334Y14334D01*
X105318Y14344D01*
Y19988D01*
D02*
G37*
%LPD*%
G36*
X130500Y28000D02*
X126000Y23500D01*
X100000D01*
Y31000D01*
X117000D01*
X119500Y33500D01*
X123469D01*
Y28091D01*
X126531D01*
Y33500D01*
X130500D01*
Y28000D01*
D02*
G37*
%LPC*%
G36*
X18000Y26044D02*
X17241Y25944D01*
X16533Y25651D01*
X15925Y25185D01*
X15459Y24577D01*
X15166Y23870D01*
X15066Y23110D01*
X15166Y22351D01*
X15459Y21643D01*
X15925Y21035D01*
X16533Y20569D01*
X17241Y20276D01*
X18000Y20176D01*
X18759Y20276D01*
X19467Y20569D01*
X20075Y21035D01*
X20541Y21643D01*
X20834Y22351D01*
X20934Y23110D01*
X20834Y23870D01*
X20541Y24577D01*
X20075Y25185D01*
X19467Y25651D01*
X18759Y25944D01*
X18000Y26044D01*
D02*
G37*
%LPD*%
D10*
X-8550Y233500D02*
G03*
X-8500Y233550I0J50D01*
G01*
X-9500D02*
G03*
X-9450Y233500I50J0D01*
G01*
X-9500Y236800D02*
G03*
X-9550Y236850I-50J0D01*
G01*
X-10450D02*
G03*
X-10500Y236800I0J-50D01*
G01*
X-9000Y250650D02*
G03*
X-9050Y250700I-50J0D01*
G01*
X-9950D02*
G03*
X-10000Y250650I0J-50D01*
G01*
X-10050Y247350D02*
G03*
X-10000Y247400I0J50D01*
G01*
X-11000D02*
G03*
X-10950Y247350I50J0D01*
G01*
X-11000Y250650D02*
G03*
X-11050Y250700I-50J0D01*
G01*
X-11950D02*
G03*
X-12000Y250650I0J-50D01*
G01*
X147689Y174189D02*
X149000Y175500D01*
Y190303D01*
X147303Y192000D02*
X149000Y190303D01*
X45303Y192000D02*
X147303D01*
X803Y236500D02*
X45303Y192000D01*
X-6000Y236500D02*
X803D01*
X-15516D02*
X-11000D01*
X-8500D02*
X-6000D01*
X-8500Y233550D02*
Y236500D01*
X-9450Y233500D02*
X-8550D01*
X-9500Y233550D02*
Y236500D01*
Y236800D01*
X-10450Y236850D02*
X-9550D01*
X-10500Y236500D02*
Y236800D01*
X-11000Y236500D02*
X-10500D01*
X142195Y223689D02*
X145299D01*
X141811Y223305D02*
X142195Y223689D01*
X21195Y223305D02*
X141811D01*
X-3200Y247700D02*
X21195Y223305D01*
X-7500Y247700D02*
X-3200D01*
X-14700D02*
X-12500D01*
X-9000D02*
X-7500D01*
X-9000D02*
Y250650D01*
X-9950Y250700D02*
X-9050D01*
X-10000Y247700D02*
Y250650D01*
Y247400D02*
Y247700D01*
X-10950Y247350D02*
X-10050D01*
X-11000Y247400D02*
Y247700D01*
Y250650D01*
X-11950Y250700D02*
X-11050D01*
X-12000Y247700D02*
Y250650D01*
X-12500Y247700D02*
X-12000D01*
X-18719Y254781D02*
X-18000D01*
X-20000Y253500D02*
X-18719Y254781D01*
X-20000Y249000D02*
Y253500D01*
Y249000D02*
X-17432Y246431D01*
X-13069D01*
X-13000Y246500D01*
X-16000Y249000D02*
X-14700Y247700D01*
X206049Y327971D02*
X206299Y328221D01*
X200522Y327971D02*
X206049D01*
X194000Y321449D02*
X200522Y327971D01*
X206997Y285200D02*
X212349Y279849D01*
X189700Y285200D02*
X206997D01*
X189527Y323900D02*
X191978Y321449D01*
X194000D01*
X176000Y323900D02*
X189527D01*
X163100Y311000D02*
X176000Y323900D01*
X151500Y311000D02*
X163100D01*
X149500Y309000D02*
X151500Y311000D01*
X149500Y292817D02*
Y309000D01*
X212349Y279849D02*
Y279849D01*
X212700Y265658D02*
Y279497D01*
X212349Y279849D02*
X212700Y279497D01*
X209782Y262740D02*
X212700Y265658D01*
X207799Y262740D02*
X209782D01*
X207549Y262490D02*
X207799Y262740D01*
X196990Y262490D02*
X207549D01*
X186800Y252300D02*
X196990Y262490D01*
X176000Y271500D02*
X189700Y285200D01*
X161800Y252300D02*
X186800D01*
X150500Y241000D02*
X161800Y252300D01*
X150500Y224000D02*
Y241000D01*
X144299Y290721D02*
X147404D01*
X149500Y292817D01*
X144049Y290471D02*
X144299Y290721D01*
X140471Y290471D02*
X144049D01*
X149000Y271500D02*
X176000D01*
X137000Y283500D02*
X149000Y271500D01*
X137000Y287000D02*
X140471Y290471D01*
X137000Y283500D02*
Y287000D01*
X-13000Y246500D02*
X-4051D01*
X148404Y221903D02*
X150500Y224000D01*
X141561Y221855D02*
X141811Y222105D01*
X142195Y221721D01*
X145299D02*
X148404D01*
Y221903D01*
X142195Y221721D02*
X145299D01*
X-4051Y246500D02*
X20595Y221855D01*
X141561D01*
X198659Y330189D02*
X206299D01*
X196022Y327551D02*
X198659Y330189D01*
X194000Y327551D02*
X196022D01*
X206500Y284000D02*
X211500Y279000D01*
X191978Y327551D02*
X194000D01*
X190197Y284000D02*
X206500D01*
X175503Y325100D02*
X189527D01*
X191978Y327551D01*
X162603Y312200D02*
X175503Y325100D01*
X148300Y309497D02*
X151003Y312200D01*
X176848Y270652D02*
X176848D01*
X190197Y284000D01*
X151003Y312200D02*
X162603D01*
X148300Y293585D02*
Y309497D01*
X211500Y266426D02*
Y279000D01*
X210032Y264959D02*
X211500Y266426D01*
X208049Y264959D02*
X210032D01*
X207799Y264709D02*
X208049Y264959D01*
X207549Y264459D02*
X207799Y264709D01*
X197262Y264459D02*
X207549D01*
X186303Y253500D02*
X197262Y264459D01*
X176497Y270300D02*
X176848Y270652D01*
X161303Y253500D02*
X186303D01*
X148503Y270300D02*
X176497D01*
X149652Y241848D02*
X161303Y253500D01*
X149652Y241848D02*
Y241848D01*
X149300Y241497D02*
X149652Y241848D01*
X149300Y224497D02*
Y241497D01*
X148492Y223689D02*
X149300Y224497D01*
X144299Y292689D02*
X147404D01*
X148300Y293585D01*
X144049Y292439D02*
X144299Y292689D01*
X148152Y270652D02*
X148152D01*
X148503Y270300D01*
X140742Y292439D02*
X144049D01*
X136152Y282651D02*
X148152Y270652D01*
X136152Y287848D02*
X140742Y292439D01*
X136152Y287848D02*
Y287848D01*
X135800Y287497D02*
X136152Y287848D01*
X135800Y283003D02*
Y287497D01*
Y283003D02*
X136152Y282651D01*
Y282651D02*
Y282651D01*
X145299Y223689D02*
X148492D01*
X147500Y104000D02*
Y104220D01*
X-16000Y237716D02*
X-15984Y237700D01*
X-16000Y237716D02*
X-16000Y237716D01*
X-16352Y238068D02*
X-16000Y237716D01*
X145549Y106439D02*
X145640Y106349D01*
X-16000Y236016D02*
X-15516Y236500D01*
X-16000Y236016D02*
X-16000Y236016D01*
X210697Y162500D02*
X214700Y158497D01*
Y143517D02*
Y158497D01*
X210197Y163000D02*
X210697Y162500D01*
X210697D01*
X209799Y141720D02*
X212903D01*
X214700Y143517D01*
X198352Y89851D02*
X212846D01*
X198400Y163000D02*
X210197D01*
X198251Y162852D02*
X198400Y163000D01*
X198251Y162852D02*
X198251D01*
X191900Y156500D02*
X198251Y162852D01*
X206311Y142105D02*
X206695Y141720D01*
X209799D01*
X202500Y142105D02*
X206311D01*
X193895Y133500D02*
X202500Y142105D01*
X213197Y89500D02*
X214700Y87997D01*
Y70674D02*
Y87997D01*
X212846Y89851D02*
X213197Y89500D01*
X213197D01*
X210049Y68006D02*
X212032D01*
X214700Y70674D01*
X209799Y67756D02*
X210049Y68006D01*
X198000Y89500D02*
X198352Y89851D01*
X209549Y67506D02*
X209799Y67756D01*
X198000Y89500D02*
X198000D01*
X196200Y87700D02*
X198000Y89500D01*
X204057Y67506D02*
X209549D01*
X197500Y60949D02*
X204057Y67506D01*
X150200Y175003D02*
Y190800D01*
X147417Y172221D02*
X150200Y175003D01*
X145299Y172221D02*
X147417D01*
X141220D02*
X145299D01*
X140000Y171000D02*
X141220Y172221D01*
X163500Y133500D02*
X193895D01*
X150500Y120500D02*
X163500Y133500D01*
X140000Y164500D02*
X148000Y156500D01*
X191900D01*
X150500Y107000D02*
Y120500D01*
X147500Y104000D02*
X150500Y107000D01*
X143300Y87700D02*
X196200D01*
X145299Y104220D02*
X147500D01*
X140000Y164500D02*
Y171000D01*
X139720Y104220D02*
X145299D01*
X137500Y93500D02*
Y102000D01*
Y93500D02*
X143300Y87700D01*
X137500Y102000D02*
X139720Y104220D01*
X209700Y161800D02*
X213500Y158000D01*
Y144285D02*
Y158000D01*
X198897Y161800D02*
X209700D01*
X209799Y143689D02*
X212903D01*
X213500Y144285D01*
X206695Y143689D02*
X209799D01*
X206311Y143305D02*
X206695Y143689D01*
X192397Y155300D02*
X198897Y161800D01*
X202003Y143305D02*
X206311D01*
X193398Y134700D02*
X202003Y143305D01*
X163003Y134700D02*
X193398D01*
X149652Y121349D02*
X163003Y134700D01*
X212349Y88652D02*
X213500Y87500D01*
Y71442D02*
Y87500D01*
X198848Y88652D02*
X212349D01*
X212032Y69974D02*
X213500Y71442D01*
X210049Y69974D02*
X212032D01*
X209799Y69724D02*
X210049Y69974D01*
X202195Y69724D02*
X209799D01*
X149652Y121349D02*
Y121349D01*
X149300Y120997D02*
X149652Y121349D01*
X149300Y107497D02*
Y120997D01*
X148152Y106349D02*
X149300Y107497D01*
X197500Y67051D02*
X199522D01*
X202195Y69724D01*
X196697Y86500D02*
X198848Y88652D01*
X145299Y174189D02*
X147689D01*
X141492D02*
X145299D01*
X139152Y171848D02*
X141492Y174189D01*
X147503Y155300D02*
X192397D01*
X139152Y171848D02*
Y171848D01*
X138800Y171497D02*
X139152Y171848D01*
X138800Y164003D02*
Y171497D01*
X145299Y106189D02*
X145549Y106439D01*
X138800Y164003D02*
X147503Y155300D01*
X145640Y106349D02*
X148152D01*
X142803Y86500D02*
X196697D01*
X139992Y106189D02*
X145299D01*
X141651Y87651D02*
X142803Y86500D01*
X136652Y102848D02*
X139992Y106189D01*
X136652Y102848D02*
Y102848D01*
X136300Y102497D02*
X136652Y102848D01*
X136300Y93003D02*
Y102497D01*
X136652Y92651D02*
X141651Y87651D01*
X141651D01*
X136300Y93003D02*
X136652Y92651D01*
Y92651D02*
Y92651D01*
X-15984Y237700D02*
X1300D01*
X45800Y193200D01*
X147800D01*
X150200Y190800D01*
D14*
X283500Y301100D02*
G03*
X283600Y301000I100J0D01*
G01*
X286724Y300900D02*
G03*
X286624Y301000I-100J0D01*
G01*
Y299000D02*
G03*
X286724Y299100I0J100D01*
G01*
X283600Y299000D02*
G03*
X283500Y298900I0J-100D01*
G01*
X277065Y286278D02*
G03*
X277206Y286278I71J71D01*
G01*
X279114Y288044D02*
G03*
X278973Y288044I-71J-71D01*
G01*
X280387Y286629D02*
G03*
X280387Y286771I-71J71D01*
G01*
X278621Y284863D02*
G03*
X278621Y284722I71J-71D01*
G01*
X268954Y273600D02*
G03*
X268854Y273700I-100J0D01*
G01*
X268954Y271150D02*
G03*
X269054Y271050I100J0D01*
G01*
X270854D02*
G03*
X270954Y271150I0J100D01*
G01*
X271054Y273700D02*
G03*
X270954Y273600I0J-100D01*
G01*
X282500Y252400D02*
G03*
X282400Y252500I-100J0D01*
G01*
X282500Y250518D02*
G03*
X282600Y250418I100J0D01*
G01*
X284400D02*
G03*
X284500Y250518I0J100D01*
G01*
X284600Y252500D02*
G03*
X284500Y252400I0J-100D01*
G01*
X277000Y157742D02*
G03*
X277100Y157642I100J0D01*
G01*
X279735Y157542D02*
G03*
X279635Y157642I-100J0D01*
G01*
Y155642D02*
G03*
X279735Y155742I0J100D01*
G01*
X277100Y155642D02*
G03*
X277000Y155542I0J-100D01*
G01*
X280126Y133874D02*
G03*
X280267Y133874I71J71D01*
G01*
X282406Y135871D02*
G03*
X282264Y135871I-71J-71D01*
G01*
X283679Y134457D02*
G03*
X283679Y134598I-71J71D01*
G01*
X281682Y132460D02*
G03*
X281682Y132318I71J-71D01*
G01*
X281000Y116406D02*
G03*
X280900Y116506I-100J0D01*
G01*
X281000Y114572D02*
G03*
X281100Y114472I100J0D01*
G01*
X282900D02*
G03*
X283000Y114572I0J100D01*
G01*
X283100Y116506D02*
G03*
X283000Y116406I0J-100D01*
G01*
X287975Y101833D02*
G03*
X287833Y101833I-71J-71D01*
G01*
X290156Y99651D02*
G03*
X290298Y99651I71J71D01*
G01*
X291570Y100924D02*
G03*
X291570Y101066I-71J71D01*
G01*
X289389Y103389D02*
G03*
X289389Y103247I71J-71D01*
G01*
X295938Y108200D02*
G03*
X288867Y105271I0J-10000D01*
G01*
X260051Y77756D02*
G03*
X261254Y78254I0J1701D01*
G01*
X194551Y306720D02*
G03*
X201119Y304000I6568J6568D01*
G01*
X287369Y273570D02*
G03*
X289946Y272502I2577J2577D01*
G01*
X298798D02*
G03*
X300000Y273000I0J1700D01*
G01*
X182500Y332192D02*
G03*
X182400Y332292I-100J0D01*
G01*
X182500Y330610D02*
G03*
X182600Y330510I100J0D01*
G01*
X184400D02*
G03*
X184500Y330610I0J100D01*
G01*
X184600Y332292D02*
G03*
X184500Y332192I0J-100D01*
G01*
X186500D02*
G03*
X186400Y332292I-100J0D01*
G01*
X186500Y330610D02*
G03*
X186600Y330510I100J0D01*
G01*
X188400D02*
G03*
X188500Y330610I0J100D01*
G01*
X188600Y332292D02*
G03*
X188500Y332192I0J-100D01*
G01*
X127500Y293161D02*
G03*
X127600Y293061I100J0D01*
G01*
X129400D02*
G03*
X129500Y293161I0J100D01*
G01*
X129600Y294792D02*
G03*
X129500Y294692I0J-100D01*
G01*
X131500D02*
G03*
X131400Y294792I-100J0D01*
G01*
X131500Y293161D02*
G03*
X131600Y293061I100J0D01*
G01*
X133400D02*
G03*
X133500Y293161I0J100D01*
G01*
X133600Y294792D02*
G03*
X133500Y294692I0J-100D01*
G01*
X182500Y266711D02*
G03*
X182400Y266811I-100J0D01*
G01*
X182500Y265390D02*
G03*
X182600Y265290I100J0D01*
G01*
X184400D02*
G03*
X184500Y265390I0J100D01*
G01*
X184600Y266811D02*
G03*
X184500Y266711I0J-100D01*
G01*
X186500D02*
G03*
X186400Y266811I-100J0D01*
G01*
X186500Y265390D02*
G03*
X186600Y265290I100J0D01*
G01*
X188400D02*
G03*
X188500Y265390I0J100D01*
G01*
X188600Y266811D02*
G03*
X188500Y266711I0J-100D01*
G01*
X123500Y225692D02*
G03*
X123400Y225792I-100J0D01*
G01*
X123500Y225047D02*
G03*
X123600Y224947I100J0D01*
G01*
X125400D02*
G03*
X125500Y225047I0J100D01*
G01*
X125600Y225792D02*
G03*
X125500Y225692I0J-100D01*
G01*
X127500D02*
G03*
X127400Y225792I-100J0D01*
G01*
X127500Y225047D02*
G03*
X127600Y224947I100J0D01*
G01*
X129400D02*
G03*
X129500Y225047I0J100D01*
G01*
X129600Y225792D02*
G03*
X129500Y225692I0J-100D01*
G01*
X126400Y177992D02*
G03*
X126500Y178092I0J100D01*
G01*
X126600Y180316D02*
G03*
X126500Y180216I0J-100D01*
G01*
X128500D02*
G03*
X128400Y180316I-100J0D01*
G01*
X128500Y178092D02*
G03*
X128600Y177992I100J0D01*
G01*
X188900Y147626D02*
G03*
X189000Y147726I0J100D01*
G01*
X189100Y149762D02*
G03*
X189000Y149662I0J-100D01*
G01*
X191000D02*
G03*
X190900Y149762I-100J0D01*
G01*
X191000Y147226D02*
G03*
X191100Y147126I100J0D01*
G01*
X192900D02*
G03*
X193000Y147226I0J100D01*
G01*
X193100Y147626D02*
G03*
X193000Y147526I0J-100D01*
G01*
X126900Y110126D02*
G03*
X127000Y110226I0J100D01*
G01*
X127100Y112039D02*
G03*
X127000Y111939I0J-100D01*
G01*
X129000D02*
G03*
X128900Y112039I-100J0D01*
G01*
X129000Y109726D02*
G03*
X129100Y109626I100J0D01*
G01*
X130900D02*
G03*
X131000Y109726I0J100D01*
G01*
X131100Y110126D02*
G03*
X131000Y110026I0J-100D01*
G01*
X185900Y73527D02*
G03*
X186000Y73627I0J100D01*
G01*
X186100Y74027D02*
G03*
X186000Y73927I0J-100D01*
G01*
X188000D02*
G03*
X187900Y74027I-100J0D01*
G01*
X188000Y71547D02*
G03*
X188100Y71447I100J0D01*
G01*
X189900D02*
G03*
X190000Y71547I0J100D01*
G01*
X190100Y73527D02*
G03*
X190000Y73427I0J-100D01*
G01*
X240500Y77605D02*
G03*
X240400Y77705I-100J0D01*
G01*
X240500Y76863D02*
G03*
X240600Y76763I100J0D01*
G01*
X242400D02*
G03*
X242500Y76863I0J100D01*
G01*
X242600Y77705D02*
G03*
X242500Y77605I0J-100D01*
G01*
X176500Y114069D02*
G03*
X176400Y114169I-100J0D01*
G01*
X176500Y113327D02*
G03*
X176600Y113227I100J0D01*
G01*
X178400D02*
G03*
X178500Y113327I0J100D01*
G01*
X178600Y114169D02*
G03*
X178500Y114069I0J-100D01*
G01*
X240500Y151569D02*
G03*
X240400Y151669I-100J0D01*
G01*
X240500Y150827D02*
G03*
X240600Y150727I100J0D01*
G01*
X242400D02*
G03*
X242500Y150827I0J100D01*
G01*
X242600Y151669D02*
G03*
X242500Y151569I0J-100D01*
G01*
X176000Y182069D02*
G03*
X175900Y182169I-100J0D01*
G01*
X176000Y181327D02*
G03*
X176100Y181227I100J0D01*
G01*
X177900D02*
G03*
X178000Y181327I0J100D01*
G01*
X178100Y182169D02*
G03*
X178000Y182069I0J-100D01*
G01*
X238500Y272589D02*
G03*
X238400Y272689I-100J0D01*
G01*
X238500Y271847D02*
G03*
X238600Y271747I100J0D01*
G01*
X240400D02*
G03*
X240500Y271847I0J100D01*
G01*
X240600Y272689D02*
G03*
X240500Y272589I0J-100D01*
G01*
X237500Y337963D02*
G03*
X237400Y338063I-100J0D01*
G01*
X237500Y337242D02*
G03*
X237600Y337142I100J0D01*
G01*
X239400D02*
G03*
X239500Y337242I0J100D01*
G01*
X239600Y338063D02*
G03*
X239500Y337963I0J-100D01*
G01*
X175500Y300569D02*
G03*
X175400Y300669I-100J0D01*
G01*
X175500Y299827D02*
G03*
X175600Y299727I100J0D01*
G01*
X177400D02*
G03*
X177500Y299827I0J100D01*
G01*
X177600Y300669D02*
G03*
X177500Y300569I0J-100D01*
G01*
X177000Y231621D02*
G03*
X176900Y231720I-100J0D01*
G01*
X177000Y230900D02*
G03*
X177100Y230800I100J0D01*
G01*
X178900D02*
G03*
X179000Y230900I0J100D01*
G01*
X179100Y231720D02*
G03*
X179000Y231621I0J-100D01*
G01*
X403900Y131700D02*
G03*
X404000Y131800I0J100D01*
G01*
X404100Y132557D02*
G03*
X404000Y132457I0J-100D01*
G01*
X406000D02*
G03*
X405900Y132557I-100J0D01*
G01*
X406000Y131800D02*
G03*
X406100Y131700I100J0D01*
G01*
X401900Y157100D02*
G03*
X402000Y157200I0J100D01*
G01*
X402100Y157915D02*
G03*
X402000Y157816I0J-100D01*
G01*
X404000D02*
G03*
X403900Y157915I-100J0D01*
G01*
X404000Y157200D02*
G03*
X404100Y157100I100J0D01*
G01*
X402900Y182350D02*
G03*
X403000Y182450I0J100D01*
G01*
X403100Y182915D02*
G03*
X403000Y182816I0J-100D01*
G01*
X405000D02*
G03*
X404900Y182915I-100J0D01*
G01*
X405000Y182450D02*
G03*
X405100Y182350I100J0D01*
G01*
X403400Y290350D02*
G03*
X403500Y290450I0J100D01*
G01*
X403600Y290900D02*
G03*
X403500Y290800I0J-100D01*
G01*
X405500D02*
G03*
X405400Y290900I-100J0D01*
G01*
X405500Y290450D02*
G03*
X405600Y290350I100J0D01*
G01*
X404500Y212050D02*
G03*
X404400Y212150I-100J0D01*
G01*
X404500Y211277D02*
G03*
X404600Y211177I100J0D01*
G01*
X406400D02*
G03*
X406500Y211277I0J100D01*
G01*
X406600Y212150D02*
G03*
X406500Y212050I0J-100D01*
G01*
X405500Y237550D02*
G03*
X405400Y237650I-100J0D01*
G01*
X405500Y236777D02*
G03*
X405600Y236677I100J0D01*
G01*
X407400D02*
G03*
X407500Y236777I0J100D01*
G01*
X407600Y237650D02*
G03*
X407500Y237550I0J-100D01*
G01*
X405500Y263050D02*
G03*
X405400Y263150I-100J0D01*
G01*
X405500Y262352D02*
G03*
X405600Y262252I100J0D01*
G01*
X407400D02*
G03*
X407500Y262352I0J100D01*
G01*
X407600Y263150D02*
G03*
X407500Y263050I0J-100D01*
G01*
X523065Y142065D02*
G03*
X523065Y142207I-71J71D01*
G01*
X521481Y143933D02*
G03*
X521481Y143791I71J-71D01*
G01*
X522895Y145205D02*
G03*
X522754Y145205I-71J-71D01*
G01*
X524479Y143621D02*
G03*
X524621Y143621I71J71D01*
G01*
X525894Y144894D02*
G03*
X525894Y145035I-71J71D01*
G01*
X524309Y146761D02*
G03*
X524309Y146620I71J-71D01*
G01*
X525724Y148034D02*
G03*
X525582Y148034I-71J-71D01*
G01*
X527308Y146449D02*
G03*
X527449Y146449I71J71D01*
G01*
X520621Y158979D02*
G03*
X520479Y158979I-71J-71D01*
G01*
X522434Y157167D02*
G03*
X522576Y157167I71J71D01*
G01*
X523848Y158439D02*
G03*
X523848Y158581I-71J71D01*
G01*
X522035Y160535D02*
G03*
X522035Y160394I71J-71D01*
G01*
X523449Y161808D02*
G03*
X523308Y161808I-71J-71D01*
G01*
X524003Y161255D02*
G03*
X524144Y161255I71J71D01*
G01*
X525417Y162528D02*
G03*
X525417Y162669I-71J71D01*
G01*
X524864Y163364D02*
G03*
X524864Y163222I71J-71D01*
G01*
X516400Y213850D02*
G03*
X516500Y213950I0J100D01*
G01*
X516600Y217108D02*
G03*
X516500Y217008I0J-100D01*
G01*
X518500D02*
G03*
X518400Y217108I-100J0D01*
G01*
X518500Y213950D02*
G03*
X518600Y213850I100J0D01*
G01*
X520400D02*
G03*
X520500Y213950I0J100D01*
G01*
X520600Y217108D02*
G03*
X520500Y217008I0J-100D01*
G01*
X522500D02*
G03*
X522400Y217108I-100J0D01*
G01*
X522500Y213950D02*
G03*
X522600Y213850I100J0D01*
G01*
X524516Y234551D02*
G03*
X524516Y234692I-71J71D01*
G01*
X522797Y232831D02*
G03*
X522797Y232690I71J-71D01*
G01*
X524069Y231417D02*
G03*
X524211Y231417I71J71D01*
G01*
X526072Y233136D02*
G03*
X525930Y233136I-71J-71D01*
G01*
X516558Y237550D02*
G03*
X516458Y237650I-100J0D01*
G01*
X516558Y235118D02*
G03*
X516658Y235018I100J0D01*
G01*
X518458D02*
G03*
X518558Y235118I0J100D01*
G01*
X518658Y237650D02*
G03*
X518558Y237550I0J-100D01*
G01*
X516308Y246051D02*
G03*
X516308Y246192I-71J71D01*
G01*
X514867Y244610D02*
G03*
X514867Y244468I71J-71D01*
G01*
X516140Y243196D02*
G03*
X516281Y243196I71J71D01*
G01*
X517864Y244636D02*
G03*
X517722Y244636I-71J-71D01*
G01*
X525394Y245465D02*
G03*
X525394Y245606I-71J71D01*
G01*
X524823Y244894D02*
G03*
X524823Y244752I71J-71D01*
G01*
X526095Y243479D02*
G03*
X526237Y243479I71J71D01*
G01*
X526949Y244051D02*
G03*
X526808Y244051I-71J-71D01*
G01*
X206238Y77598D02*
G03*
X206000Y77500I0J-336D01*
G01*
X209799Y79567D02*
G03*
X208754Y80000I-1046J-1046D01*
G01*
X205500D02*
G03*
X202590Y78795I0J-4115D01*
G01*
X206958Y75630D02*
G03*
X206542Y75458I0J-588D01*
G01*
X205437Y75000D02*
G03*
X206542Y75458I0J1563D01*
G01*
X203643Y75562D02*
G03*
X205000Y75000I1357J1358D01*
G01*
X258051Y278740D02*
G03*
X264667Y276000I6615J6615D01*
G01*
X277664Y270432D02*
G03*
X277500Y270500I-164J-164D01*
G01*
X282798Y265298D02*
G03*
X289553Y262500I6755J6755D01*
G01*
X346340Y116558D02*
G03*
X342630Y118095I-3710J-3710D01*
G01*
X196337Y119435D02*
G03*
X203408Y116506I7071J7071D01*
G01*
X296000Y106500D02*
G03*
X290025Y104025I0J-8450D01*
G01*
X265000Y83800D02*
G03*
X273194Y87194I0J11588D01*
G01*
X260158Y83800D02*
G03*
X260051Y83756I0J-151D01*
G01*
X346315Y106582D02*
G03*
X342605Y108119I-3710J-3710D01*
G01*
X330432Y137779D02*
G03*
X330756Y137914I0J458D01*
G01*
X346898Y136000D02*
G03*
X342277Y137914I-4620J-4620D01*
G01*
X345967Y131000D02*
G03*
X343846Y130122I0J-2999D01*
G01*
X343000Y129771D02*
G03*
X343846Y130122I0J1197D01*
G01*
X330756Y129771D02*
G03*
X330432Y129905I-324J-324D01*
G01*
X267209Y148792D02*
G03*
X260137Y151720I-7071J-7071D01*
G01*
X274000Y141314D02*
G03*
X274929Y139071I3172J0D01*
G01*
X283732Y130268D02*
G03*
X288719Y128202I4987J4987D01*
G01*
X262131Y180273D02*
G03*
X253858Y183700I-8273J-8273D01*
G01*
X277000Y160558D02*
G03*
X273573Y168831I-11700J0D01*
G01*
X199123Y183700D02*
G03*
X195551Y182220I0J-5051D01*
G01*
X285500Y140000D02*
G03*
X289841Y138202I4341J4341D01*
G01*
X277000Y152642D02*
G03*
X279929Y145571I10000J0D01*
G01*
X343551Y139614D02*
G03*
X346898Y141000I0J4733D01*
G01*
X330756Y139614D02*
G03*
X330432Y139748I-324J-324D01*
G01*
X74422Y151482D02*
G03*
X78000Y150000I3578J3578D01*
G01*
X10288Y215616D02*
G03*
X2557Y218818I-7730J-7730D01*
G01*
X298798Y283002D02*
G03*
X300000Y283500I0J1700D01*
G01*
X265209Y341291D02*
G03*
X258137Y344220I-7071J-7071D01*
G01*
X281800Y291000D02*
G03*
X283711Y286384I6528J0D01*
G01*
X281800Y318058D02*
G03*
X278871Y325129I-10000J0D01*
G01*
X285798Y284298D02*
G03*
X288926Y283002I3128J3128D01*
G01*
X10500Y245081D02*
G03*
X11903Y244500I1403J1403D01*
G01*
X12000D02*
G03*
X18992Y247396I0J9888D01*
G01*
X109730Y333992D02*
G03*
X102659Y331063I0J-10000D01*
G01*
X11903Y242800D02*
G03*
X10500Y242219I0J-1984D01*
G01*
X12000Y242800D02*
G03*
X20194Y246194I0J11588D01*
G01*
X111138Y332292D02*
G03*
X102865Y328865I0J-11700D01*
G01*
X81730Y296492D02*
G03*
X74659Y293563I0J-10000D01*
G01*
X17000Y237000D02*
G03*
X18871Y237775I0J2646D01*
G01*
X83138Y294792D02*
G03*
X74865Y291365I0J-11700D01*
G01*
X17000Y235300D02*
G03*
X20073Y236573I0J4346D01*
G01*
X16500Y237581D02*
G03*
X16557Y237443I196J0D01*
G01*
Y234857D02*
G03*
X16500Y234719I138J-138D01*
G01*
X65249Y268511D02*
G03*
X58178Y265582I0J-10000D01*
G01*
X66658Y266811D02*
G03*
X58385Y263385I0J-11700D01*
G01*
X269702Y336702D02*
G03*
X263672Y339200I-6030J-6030D01*
G01*
X258916D02*
G03*
X256551Y338221I0J-3344D01*
G01*
X267854Y336146D02*
G03*
X267000Y336500I-854J-854D01*
G01*
X283500Y318058D02*
G03*
X280073Y326331I-11700J0D01*
G01*
X283500Y291000D02*
G03*
X284914Y287586I4828J0D01*
G01*
X287000Y285500D02*
G03*
X288926Y284702I1926J1926D01*
G01*
X198123Y302200D02*
G03*
X194551Y300721I0J-5051D01*
G01*
X262602Y298337D02*
G03*
X261000Y299000I-1602J-1602D01*
G01*
X264569Y298773D02*
G03*
X256296Y302200I-8273J-8273D01*
G01*
X288571Y274772D02*
G03*
X289946Y274202I1375J1375D01*
G01*
X195551Y237720D02*
G03*
X200188Y235800I4636J4636D01*
G01*
X199847Y233500D02*
G03*
X195551Y231720I0J-6076D01*
G01*
X236603Y238000D02*
G03*
X238298Y238702I0J2397D01*
G01*
X257938Y254200D02*
G03*
X250867Y251271I0J-10000D01*
G01*
X235396Y235800D02*
G03*
X239500Y237500I0J5804D01*
G01*
X259346Y252500D02*
G03*
X251073Y249073I0J-11700D01*
G01*
X260368Y273700D02*
G03*
X258051Y272740I0J-3277D01*
G01*
X280227Y270273D02*
G03*
X271954Y273700I-8273J-8273D01*
G01*
X284000Y266500D02*
G03*
X289553Y264200I5553J5553D01*
G01*
X50079Y180921D02*
G03*
X57150Y177992I7071J7071D01*
G01*
X51276Y182128D02*
G03*
X54000Y181000I2724J2724D01*
G01*
X141811Y176292D02*
G03*
X142135Y176157I324J324D01*
G01*
X59704Y176292D02*
G03*
X59000Y176000I0J-996D01*
G01*
X8564Y224840D02*
G03*
X291Y228267I-8273J-8273D01*
G01*
X142135Y178126D02*
G03*
X141811Y177992I0J-458D01*
G01*
X7362Y223638D02*
G03*
X291Y226567I-7071J-7071D01*
G01*
X72945Y150555D02*
G03*
X80016Y147626I7071J7071D01*
G01*
X9310Y214190D02*
G03*
X2239Y217119I-7071J-7071D01*
G01*
X12236Y206168D02*
G03*
X4506Y209370I-7730J-7730D01*
G01*
X103000Y113000D02*
G03*
X109939Y110126I6938J6938D01*
G01*
X11259Y204741D02*
G03*
X4188Y207670I-7071J-7071D01*
G01*
X103629Y114775D02*
G03*
X105500Y114000I1871J1871D01*
G01*
X206311Y71827D02*
G03*
X206635Y71693I324J324D01*
G01*
X134535Y75924D02*
G03*
X134536Y75923I1024J1024D01*
G01*
D02*
G03*
X135559Y75500I1023J1025D01*
G01*
X13740Y196719D02*
G03*
X6010Y199921I-7730J-7730D01*
G01*
X206635Y73661D02*
G03*
X206311Y73527I0J-458D01*
G01*
X133334Y74721D02*
G03*
X136283Y73500I2950J2951D01*
G01*
X133333Y74722D02*
G03*
X133334Y74721I2950J2950D01*
G01*
X12763Y195292D02*
G03*
X5692Y198221I-7071J-7071D01*
G01*
X195551Y188221D02*
G03*
X200912Y186000I5361J5361D01*
G01*
X260207Y179793D02*
G03*
X258500Y180500I-1707J-1707D01*
G01*
X275300Y160558D02*
G03*
X272371Y167629I-10000J0D01*
G01*
X275300Y152642D02*
G03*
X278727Y144369I11700J0D01*
G01*
X284298Y138798D02*
G03*
X289841Y136502I5543J5543D01*
G01*
X298298D02*
G03*
X299500Y137000I0J1700D01*
G01*
X268000Y155000D02*
G03*
X261432Y157720I-6568J-6568D01*
G01*
X270300Y149447D02*
G03*
X268000Y155000I-7853J0D01*
G01*
X270300Y146142D02*
G03*
X273727Y137869I11700J0D01*
G01*
X298798Y126502D02*
G03*
X300000Y127000I0J1700D01*
G01*
X282530Y129066D02*
G03*
X288719Y126502I6189J6189D01*
G01*
X199500Y114000D02*
G03*
X198968Y114220I-532J-532D01*
G01*
X330432Y127937D02*
G03*
X330756Y128071I0J458D01*
G01*
X346118Y126780D02*
G03*
X343000Y128071I-3118J-3118D01*
G01*
X344046Y109819D02*
G03*
X346898Y111000I0J4033D01*
G01*
X344046Y119819D02*
G03*
X346898Y121000I0J4033D01*
G01*
X283500Y307500D02*
Y318058D01*
Y291000D02*
Y296000D01*
Y301100D02*
Y307500D01*
X283600Y301000D02*
X286624D01*
X286724Y299100D02*
Y300900D01*
X283600Y299000D02*
X286624D01*
X283500Y297000D02*
Y298900D01*
Y296000D02*
Y297000D01*
X280671Y282671D02*
X288571Y274772D01*
X264569Y298773D02*
X269671Y293671D01*
X277065Y286278D01*
X277206D02*
X278973Y288044D01*
X279114D02*
X280387Y286771D01*
X278621Y284863D02*
X280387Y286629D01*
X278621Y284722D02*
X279964Y283378D01*
X280671Y282671D01*
X260368Y273700D02*
X263500D01*
X268854D01*
X268954Y271150D02*
Y273600D01*
X269054Y271050D02*
X270854D01*
X270954Y271150D02*
Y273600D01*
X271054Y273700D02*
X271954D01*
X299835Y252500D02*
X301327Y253992D01*
X285500Y252500D02*
X299835D01*
X259346D02*
X280000D01*
X282400D01*
X282500Y250518D02*
Y252400D01*
X282600Y250418D02*
X284400D01*
X284500Y250518D02*
Y252400D01*
X284600Y252500D02*
X285500D01*
X277000Y158500D02*
Y160558D01*
Y157742D02*
Y158500D01*
X277100Y157642D02*
X279635D01*
X279735Y155742D02*
Y157542D01*
X277100Y155642D02*
X279635D01*
X277000Y153642D02*
Y155542D01*
Y152642D02*
Y153642D01*
X274929Y139071D02*
X278000Y136000D01*
X280126Y133874D01*
X280267D02*
X282264Y135871D01*
X282406D02*
X283679Y134598D01*
X281682Y132460D02*
X283679Y134457D01*
X281682Y132318D02*
X283025Y130975D01*
X283732Y130268D01*
X284000Y116506D02*
X298994D01*
X203408D02*
X278500D01*
X280900D01*
X281000Y114572D02*
Y116406D01*
X281100Y114472D02*
X282900D01*
X283000Y114572D02*
Y116406D01*
X283100Y116506D02*
X284000D01*
X273194Y87194D02*
X286750Y100750D01*
X287833Y101833D01*
X287975D02*
X290156Y99651D01*
X290298D02*
X291570Y100924D01*
X289389Y103247D02*
X291570Y101066D01*
X289389Y103389D02*
X290025Y104025D01*
X270500Y89000D02*
X272596D01*
X295938Y108200D02*
X297211D01*
X272596Y89000D02*
X288867Y105271D01*
X261254Y78254D02*
X264500Y81500D01*
X309000Y303000D02*
X311345Y305345D01*
X304976Y273946D02*
X308308D01*
X300000Y273000D02*
X300677Y273677D01*
X201119Y304000D02*
X257500D01*
X289946Y272502D02*
X298798D01*
X257500Y304000D02*
X258000Y304500D01*
X189500Y332292D02*
X202811D01*
X111138D02*
X179500D01*
X182400D01*
X182500Y330610D02*
Y332192D01*
X182600Y330510D02*
X184400D01*
X184500Y330610D02*
Y332192D01*
X184600Y332292D02*
X186400D01*
X186500Y330610D02*
Y332192D01*
X186600Y330510D02*
X188400D01*
X188500Y330610D02*
Y332192D01*
X188600Y332292D02*
X189500D01*
X134500Y294792D02*
X140811D01*
X83138D02*
X127500D01*
Y293161D02*
Y294792D01*
X127600Y293061D02*
X129400D01*
X129500Y293161D02*
Y294692D01*
X129600Y294792D02*
X131400D01*
X131500Y293161D02*
Y294692D01*
X131600Y293061D02*
X133400D01*
X133500Y293161D02*
Y294692D01*
X133600Y294792D02*
X134500D01*
X189500Y266811D02*
X204311D01*
X66658D02*
X180500D01*
X182400D01*
X182500Y265390D02*
Y266711D01*
X182600Y265290D02*
X184400D01*
X184500Y265390D02*
Y266711D01*
X184600Y266811D02*
X186400D01*
X186500Y265390D02*
Y266711D01*
X186600Y265290D02*
X188400D01*
X188500Y265390D02*
Y266711D01*
X188600Y266811D02*
X189500D01*
X130500Y225792D02*
X141811D01*
X31876D02*
X122000D01*
X123400D01*
X123500Y225047D02*
Y225692D01*
X123600Y224947D02*
X125400D01*
X125500Y225047D02*
Y225692D01*
X125600Y225792D02*
X127400D01*
X127500Y225047D02*
Y225692D01*
X127600Y224947D02*
X129400D01*
X129500Y225047D02*
Y225692D01*
X129600Y225792D02*
X130500D01*
X131500Y177992D02*
X141811D01*
X57150D02*
X122000D01*
X124500D01*
X126400D01*
X126500Y178092D02*
Y180216D01*
X126600Y180316D02*
X128400D01*
X128500Y178092D02*
Y180216D01*
X128600Y177992D02*
X130500D01*
X131500D01*
X194000Y147626D02*
X209799D01*
X80016D02*
X187500D01*
X188900D01*
X189000Y147726D02*
Y149662D01*
X189100Y149762D02*
X190900D01*
X191000Y147626D02*
Y149662D01*
Y147226D02*
Y147626D01*
X191100Y147126D02*
X192900D01*
X193000Y147226D02*
Y147526D01*
X193100Y147626D02*
X194000D01*
X132000Y110126D02*
X145299D01*
X109939D02*
X126500D01*
X126900D01*
X127000Y110226D02*
Y111939D01*
X127100Y112039D02*
X128900D01*
X129000Y110126D02*
Y111939D01*
Y109726D02*
Y110126D01*
X129100Y109626D02*
X130900D01*
X131000Y109726D02*
Y110026D01*
X131100Y110126D02*
X132000D01*
X191000Y73527D02*
X206311D01*
X182527D02*
X185000D01*
X185900D01*
X186000Y73627D02*
Y73927D01*
X186100Y74027D02*
X187900D01*
X188000Y73527D02*
Y73927D01*
Y71547D02*
Y73527D01*
X188100Y71447D02*
X189900D01*
X190000Y71547D02*
Y73427D01*
X190100Y73527D02*
X191000D01*
X243500Y77705D02*
X248000D01*
X228606D02*
X240000D01*
X240400D01*
X240500Y76863D02*
Y77605D01*
X240600Y76763D02*
X242400D01*
X242500Y76863D02*
Y77605D01*
X242600Y77705D02*
X243500D01*
X179500Y114169D02*
X183500D01*
X167461D02*
X176000D01*
X176400D01*
X176500Y113327D02*
Y114069D01*
X176600Y113227D02*
X178400D01*
X178500Y113327D02*
Y114069D01*
X178600Y114169D02*
X179500D01*
X243500Y151669D02*
X248000D01*
X228606D02*
X239000D01*
X240400D01*
X240500Y150827D02*
Y151569D01*
X240600Y150727D02*
X242400D01*
X242500Y150827D02*
Y151569D01*
X242600Y151669D02*
X243500D01*
X179000Y182169D02*
X183500D01*
X164106D02*
X174500D01*
X175900D01*
X176000Y181327D02*
Y182069D01*
X176100Y181227D02*
X177900D01*
X178000Y181327D02*
Y182069D01*
X178100Y182169D02*
X179000D01*
X241500Y272689D02*
X246000D01*
X226606D02*
X237500D01*
X238400D01*
X238500Y271847D02*
Y272589D01*
X238600Y271747D02*
X240400D01*
X240500Y271847D02*
Y272589D01*
X240600Y272689D02*
X241500D01*
X240500Y338063D02*
X244394D01*
X225000D02*
X235500D01*
X237400D01*
X237500Y337242D02*
Y337963D01*
X237600Y337142D02*
X239400D01*
X239500Y337242D02*
Y337963D01*
X239600Y338063D02*
X240500D01*
X178500Y300669D02*
X182500D01*
X163106D02*
X174500D01*
X175400D01*
X175500Y299827D02*
Y300569D01*
X175600Y299727D02*
X177400D01*
X177500Y299827D02*
Y300569D01*
X177600Y300669D02*
X178500D01*
X180000Y231720D02*
X189449D01*
X164157D02*
X176500D01*
X176900D01*
X177000Y230900D02*
Y231621D01*
X177100Y230800D02*
X178900D01*
X179000Y230900D02*
Y231621D01*
X179100Y231720D02*
X180000D01*
X409000Y131700D02*
X410149D01*
X367700D02*
X403000D01*
X403900D01*
X404000Y131800D02*
Y132457D01*
X404100Y132557D02*
X405900D01*
X406000Y131800D02*
Y132457D01*
X406100Y131700D02*
X408000D01*
X409000D01*
X357000Y121000D02*
X367700Y131700D01*
X353000Y121000D02*
X357000D01*
X407000Y157100D02*
X410049D01*
X381273D02*
X397000D01*
X401900D01*
X402000Y157200D02*
Y157816D01*
X402100Y157915D02*
X403900D01*
X404000Y157200D02*
Y157816D01*
X404100Y157100D02*
X406000D01*
X407000D01*
X355173Y131000D02*
X381273Y157100D01*
X409799Y182350D02*
X411949Y184500D01*
X408000Y182350D02*
X409799D01*
X397446D02*
X402500D01*
X402900D01*
X403000Y182450D02*
Y182816D01*
X403100Y182915D02*
X404900D01*
X405000Y182450D02*
Y182816D01*
X405100Y182350D02*
X407000D01*
X408000D01*
X356096Y141000D02*
X397446Y182350D01*
X353000Y141000D02*
X356096D01*
X409799Y290350D02*
X411949Y292500D01*
X408500Y290350D02*
X409799D01*
X361446D02*
X403000D01*
X403400D01*
X403500Y290450D02*
Y290800D01*
X403600Y290900D02*
X405400D01*
X405500Y290450D02*
Y290800D01*
X405600Y290350D02*
X407500D01*
X408500D01*
X357798Y286702D02*
X361446Y290350D01*
X355262Y286702D02*
X357798D01*
X409799Y212150D02*
X411949Y210000D01*
X407500Y212150D02*
X409799D01*
X396446D02*
X403500D01*
X404400D01*
X404500Y211277D02*
Y212050D01*
X404600Y211177D02*
X406400D01*
X406500Y211277D02*
Y212050D01*
X406600Y212150D02*
X407500D01*
X356856Y251740D02*
X396446Y212150D01*
X353051Y251740D02*
X356856D01*
X409799Y237650D02*
X411949Y235500D01*
X408500Y237650D02*
X409799D01*
X379315D02*
X403500D01*
X405400D01*
X405500Y236777D02*
Y237550D01*
X405600Y236677D02*
X407400D01*
X407500Y236777D02*
Y237550D01*
X407600Y237650D02*
X408500D01*
X355224Y261740D02*
X379315Y237650D01*
X409799Y263150D02*
X411949Y261000D01*
X408500Y263150D02*
X409799D01*
X366446D02*
X403000D01*
X405400D01*
X405500Y262352D02*
Y263050D01*
X405600Y262252D02*
X407400D01*
X407500Y262352D02*
Y263050D01*
X407600Y263150D02*
X408500D01*
X357798Y271798D02*
X366446Y263150D01*
X355282Y271798D02*
X357798D01*
X529500Y148500D02*
Y152000D01*
X486850Y105850D02*
X521000Y140000D01*
X523065Y142065D01*
X521481Y143791D02*
X523065Y142207D01*
X521481Y143933D02*
X522754Y145205D01*
X522895D02*
X524479Y143621D01*
X524621D02*
X525894Y144894D01*
X524309Y146620D02*
X525894Y145035D01*
X524309Y146761D02*
X525582Y148034D01*
X525724D02*
X527308Y146449D01*
X527449D02*
X528793Y147793D01*
X529500Y148500D01*
X431556Y105850D02*
X486850D01*
X426500Y110906D02*
X431556Y105850D01*
X525500Y164000D02*
X529500Y168000D01*
X491150Y129650D02*
X520250Y158750D01*
X520479Y158979D01*
X520621D02*
X522434Y157167D01*
X522576D02*
X523848Y158439D01*
X522035Y160394D02*
X523848Y158581D01*
X522035Y160535D02*
X523308Y161808D01*
X523449D02*
X524003Y161255D01*
X524144D02*
X525417Y162528D01*
X524864Y163222D02*
X525417Y162669D01*
X524864Y163364D02*
X525500Y164000D01*
X431556Y129650D02*
X491150D01*
X426500Y124594D02*
X431556Y129650D01*
X521850Y182350D02*
X522500Y183000D01*
X431556Y182350D02*
X521850D01*
X426500Y187406D02*
X431556Y182350D01*
X525500Y213850D02*
X529350D01*
X431556D02*
X515500D01*
X516400D01*
X516500Y213950D02*
Y217008D01*
X516600Y217108D02*
X518400D01*
X518500Y213950D02*
Y217008D01*
X518600Y213850D02*
X520400D01*
X520500Y213950D02*
Y217008D01*
X520600Y217108D02*
X522400D01*
X522500Y213950D02*
Y217008D01*
X522600Y213850D02*
X524500D01*
X525500D01*
X426500Y218905D02*
X431556Y213850D01*
X526708Y232500D02*
X529208Y230000D01*
X521558Y237650D02*
X521758Y237450D01*
X523173Y236035D01*
X524516Y234692D01*
X522797Y232831D02*
X524516Y234551D01*
X522797Y232690D02*
X524069Y231417D01*
X524211D02*
X525930Y233136D01*
X526072D02*
X526708Y232500D01*
X431556Y237650D02*
X516000D01*
X516458D01*
X516558Y235118D02*
Y237550D01*
X516658Y235018D02*
X518458D01*
X518558Y235118D02*
Y237550D01*
X518658Y237650D02*
X520558D01*
X521558D01*
X426500Y232594D02*
X431556Y237650D01*
X518500Y244000D02*
X519500Y243000D01*
X499401Y263099D02*
X515000Y247500D01*
X516308Y246192D01*
X514867Y244610D02*
X516308Y246051D01*
X514867Y244468D02*
X516140Y243196D01*
X516281D02*
X517722Y244636D01*
X517864D02*
X518500Y244000D01*
X431556Y263099D02*
X499401D01*
X426500Y258043D02*
X431556Y263099D01*
X533000Y242000D02*
X536500D01*
X529000D02*
X530000D01*
X532000D01*
X533000D01*
X482350Y288650D02*
X524250Y246750D01*
X525394Y245606D01*
X524823Y244894D02*
X525394Y245465D01*
X524823Y244752D02*
X526095Y243479D01*
X526237D02*
X526808Y244051D01*
X526949D02*
X528293Y242707D01*
X529000Y242000D01*
X431556Y288650D02*
X482350D01*
X426500Y283594D02*
X431556Y288650D01*
Y290350D02*
X483054D01*
X528404Y245000D01*
X529500D01*
X519500Y242000D02*
Y243000D01*
X500201Y264799D02*
X523000Y242000D01*
X431556Y239350D02*
X522262D01*
X528006Y233606D01*
X529208Y230000D02*
X529500D01*
X528006Y233606D02*
X530994D01*
X536500Y228099D01*
Y226000D02*
Y228099D01*
X431556Y212150D02*
X526251D01*
X528006Y210394D01*
X531394D01*
X536500Y215500D01*
Y218000D01*
X529350Y213850D02*
X529500Y214000D01*
X431556Y104150D02*
X487554D01*
X536500Y153096D01*
Y156000D01*
X431556Y131350D02*
X490446D01*
X521542Y162446D01*
Y163458D01*
X431556Y156850D02*
X509446D01*
X511500Y158904D01*
Y160000D01*
X431556Y155150D02*
X510150D01*
X527000Y172000D01*
X536500D01*
X535850Y180650D02*
X536500Y180000D01*
X431556Y180650D02*
X535850D01*
X426500Y175594D02*
X431556Y180650D01*
X423595Y184500D02*
X426500Y187406D01*
X418051Y184500D02*
X423595D01*
X338500Y271291D02*
X341051Y268740D01*
X216634Y336094D02*
X225000D01*
X293000Y269791D02*
X294209Y271000D01*
X218134Y270614D02*
X226500D01*
X338500Y145000D02*
X339000D01*
X338500Y135000D02*
X339000D01*
X338500Y125000D02*
X339000D01*
X337500Y136000D02*
X338500Y135000D01*
X337500Y126000D02*
X338500Y125000D01*
X337500Y116000D02*
X338500Y115000D01*
X339000D01*
X220134Y149594D02*
X228500D01*
X220134Y75630D02*
X228500D01*
X154634Y298594D02*
X163000D01*
X177051Y219721D02*
Y222949D01*
X155634Y229594D02*
X164000D01*
X-45161Y263638D02*
X-42012Y260488D01*
X-41800Y254200D02*
Y254300D01*
X-49000Y254189D02*
X-41811D01*
X-42193Y222693D02*
X-42100Y222600D01*
X-42205Y203795D02*
X-42100Y203900D01*
X-49000Y247890D02*
X-42010D01*
X-49000Y241590D02*
X-41809D01*
X-49000Y232142D02*
X-42058D01*
X-49000Y222693D02*
X-42193D01*
X155634Y180095D02*
X164000D01*
X206238Y77598D02*
X209799D01*
X205500Y77500D02*
X206000D01*
X155634Y112094D02*
X164000D01*
X141500Y114000D02*
X141563Y114063D01*
X485051Y344449D02*
X488000D01*
X205500Y80000D02*
X208754D01*
X206958Y75630D02*
X209799D01*
X201500Y77705D02*
X203643Y75562D01*
X205000Y75000D02*
X205437D01*
X201500Y77705D02*
X202590Y78795D01*
X215650Y335110D02*
X216634Y336094D01*
X153650Y297610D02*
X154634Y298594D01*
X217150Y269630D02*
X218134Y270614D01*
X154650Y111110D02*
X155634Y112094D01*
X154650Y228610D02*
X155634Y229594D01*
X154650Y179110D02*
X155634Y180095D01*
X219150Y148610D02*
X220134Y149594D01*
X219150Y74646D02*
X220134Y75630D01*
X228500Y81535D02*
Y84000D01*
X301500Y250000D02*
X302953D01*
X298500D02*
X301500D01*
X301958Y104500D02*
X302642D01*
X299000D02*
X301958D01*
X337941Y281559D02*
X338500Y281000D01*
X332559Y281559D02*
X337941D01*
X330583Y279583D02*
X332559Y281559D01*
X327024Y279583D02*
X330583D01*
X337941Y271559D02*
X338500Y271000D01*
X332059Y271559D02*
X337941D01*
X330240Y269740D02*
X332059Y271559D01*
X327024Y269740D02*
X330240D01*
X299500Y281000D02*
X300917Y279583D01*
X304976D01*
X293209Y280000D02*
X294209Y281000D01*
X299500D01*
X300051Y281551D01*
X304976D01*
X300500Y271000D02*
X301760Y269740D01*
X304976D01*
X294209Y271000D02*
X300500D01*
X301209Y271709D01*
X304976D01*
X301000Y261000D02*
X302102Y259898D01*
X304976D01*
X293209Y260000D02*
X294209Y261000D01*
X301000D01*
X301866Y261866D01*
X304976D01*
X301500Y250000D02*
X303500Y252000D01*
X302953Y250000D02*
X304976Y252024D01*
X299131Y254200D02*
X300891Y255961D01*
X257938Y254200D02*
X299131D01*
X332500Y136000D02*
X337500D01*
X330343Y133843D02*
X332500Y136000D01*
X326972Y133843D02*
X330343D01*
X332500Y126000D02*
X337500D01*
X330500Y124000D02*
X332500Y126000D01*
X326972Y124000D02*
X330500D01*
X332500Y116000D02*
X337500D01*
X330658Y114157D02*
X332500Y116000D01*
X326972Y114157D02*
X330658D01*
X302642Y104500D02*
X304425Y106283D01*
X299001Y108381D02*
X300840Y110221D01*
X297392Y108381D02*
X299001D01*
X297211Y108200D02*
X297392Y108381D01*
X299705Y106681D02*
X301276Y108252D01*
X298097Y106681D02*
X299705D01*
X297916Y106500D02*
X298097Y106681D01*
X296000Y106500D02*
X297916D01*
X301958Y104500D02*
X302243Y104785D01*
X300000Y135000D02*
X301157Y133843D01*
X304925D01*
X293500Y134000D02*
X294500Y135000D01*
X300000D01*
X300811Y135811D01*
X304925D01*
X300612Y125092D02*
X301705Y124000D01*
X304925D01*
X300513Y115150D02*
X301505Y114157D01*
X304925D01*
X293500Y114000D02*
X294650Y115150D01*
X300513D01*
X293500Y124000D02*
X294592Y125092D01*
X300612D01*
X423500Y286500D02*
X426500Y283500D01*
Y295406D02*
X431556Y290350D01*
X289553Y262500D02*
X299992D01*
X264667Y276000D02*
X273500D01*
X277664Y270432D02*
X282798Y265298D01*
X277000Y270500D02*
X277500D01*
X311547Y235047D02*
X312949Y236449D01*
X309500Y237093D02*
X311547Y235047D01*
X309500Y237093D02*
Y244096D01*
X307800Y236389D02*
Y244800D01*
X326972Y118095D02*
X342630D01*
X346340Y116558D02*
X346898Y116000D01*
X323000Y91404D02*
Y98000D01*
X320798Y89202D02*
X323000Y91404D01*
X319000Y91000D02*
X320798Y89202D01*
X324700Y90700D02*
Y98704D01*
X319000Y85000D02*
X324700Y90700D01*
X195551Y120220D02*
X196337Y119435D01*
X309000Y91904D02*
Y98000D01*
Y91904D02*
X311401Y89503D01*
X312898Y91000D01*
X307300Y91200D02*
X312898Y85602D01*
X307300Y91200D02*
Y98704D01*
X260158Y83800D02*
X265000D01*
X310802Y65500D02*
X311398D01*
X305500Y70802D02*
X310802Y65500D01*
X305500Y70802D02*
Y99596D01*
X303800Y70098D02*
Y100300D01*
X330319Y108119D02*
X342605D01*
X346316Y106582D02*
X346898Y106000D01*
X326428Y70832D02*
Y99800D01*
X320798Y65202D02*
X326428Y70832D01*
X319000Y67000D02*
X320798Y65202D01*
X328128Y70128D02*
Y100504D01*
X319000Y61000D02*
X328128Y70128D01*
X330756Y137914D02*
X342277D01*
X326972Y137779D02*
X330432D01*
X320798Y182798D02*
X326000Y177596D01*
X323316Y137779D02*
X326972D01*
X320800Y140296D02*
X323316Y137779D01*
X323752Y139748D02*
X326972D01*
X322500Y141000D02*
X323752Y139748D01*
X345967Y131000D02*
X346898D01*
X326972Y129905D02*
X330432D01*
X330756Y129771D02*
X343000D01*
X322500Y149500D02*
Y156296D01*
X320398Y158398D02*
X322500Y156296D01*
X319000Y157000D02*
X320398Y158398D01*
X324200Y148700D02*
Y157000D01*
X288719Y128202D02*
X298798D01*
X267209Y148792D02*
X268000Y148000D01*
X260051Y151720D02*
X260137D01*
X274000Y141314D02*
Y141500D01*
X311302Y159000D02*
X311500D01*
X309500Y157198D02*
X311302Y159000D01*
X309500Y149404D02*
Y157198D01*
X307800Y148700D02*
Y157902D01*
X262131Y180273D02*
X273573Y168831D01*
X199123Y183700D02*
X253858D01*
X289841Y138202D02*
X298298D01*
X279929Y145571D02*
X285500Y140000D01*
X311602Y182898D02*
X312898Y181602D01*
X306000Y177296D02*
X311602Y182898D01*
X306000Y147904D02*
Y177296D01*
X304300Y147200D02*
Y178000D01*
X326972Y139748D02*
X330432D01*
X330756Y139614D02*
X343551D01*
X326000Y148000D02*
Y177596D01*
X319000Y181000D02*
X320798Y182798D01*
X327700Y147200D02*
Y178300D01*
X301746Y104785D02*
X303244Y106283D01*
X301746Y104785D02*
X302243D01*
X303244Y106283D02*
X304925D01*
X506500Y47000D02*
X507000D01*
X431556Y264799D02*
X500201D01*
X426500Y269854D02*
X431556Y264799D01*
X423543Y261000D02*
X426500Y258043D01*
X353051Y286740D02*
X355224D01*
X355262Y286702D01*
X353051Y281740D02*
X353551Y282240D01*
X355740D01*
X362150Y288650D01*
X409799D01*
X411949Y286500D01*
X353051Y276740D02*
X353551Y276240D01*
X355760D01*
X367150Y264850D01*
X353051Y271740D02*
X355224D01*
X355282Y271798D01*
X367150Y264850D02*
X409799D01*
X411949Y267000D01*
X353051Y266740D02*
X380441Y239350D01*
X409799D01*
X411949Y241500D01*
X353051Y261740D02*
X355224D01*
X354760Y256240D02*
X397150Y213850D01*
X353551Y256240D02*
X354760D01*
X353051Y256740D02*
X353551Y256240D01*
X397150Y213850D02*
X409799D01*
X411949Y216000D01*
X426500Y244406D02*
X431556Y239350D01*
X426500Y207095D02*
X431556Y212150D01*
X354000Y136500D02*
X398150Y180650D01*
X353500Y136500D02*
X354000D01*
X353000Y136000D02*
X353500Y136500D01*
X398150Y180650D02*
X409799D01*
X411949Y178500D01*
X353000Y126000D02*
X382400Y155400D01*
X410049D01*
X353000Y131000D02*
X355173D01*
X410049Y157100D02*
X411949Y159000D01*
X410049Y155400D02*
X411949Y153500D01*
X410149Y131700D02*
X411949Y133500D01*
X368404Y130000D02*
X409949D01*
X411949Y128000D01*
X354904Y116500D02*
X368404Y130000D01*
X353500Y116500D02*
X354904D01*
X353000Y116000D02*
X353500Y116500D01*
X405000Y109350D02*
X408500Y105850D01*
X356823Y109350D02*
X405000D01*
X404296Y107650D02*
X407796Y104150D01*
X355173Y111000D02*
X356823Y109350D01*
X353000Y111000D02*
X355173D01*
X356823Y107650D02*
X404296D01*
X355173Y106000D02*
X356823Y107650D01*
X353000Y106000D02*
X355173D01*
X408500Y105850D02*
X409799D01*
X411949Y108000D01*
X407796Y104150D02*
X409799D01*
X411949Y102000D01*
Y216000D02*
X413721Y217772D01*
Y221858D01*
X416280D01*
X411161Y209213D02*
X411949Y210000D01*
X411161Y204142D02*
Y209213D01*
Y204142D02*
X413721D01*
X411949Y184500D02*
X413721Y186272D01*
Y190358D01*
X416280D01*
X411161Y177713D02*
X411949Y178500D01*
X411161Y172642D02*
Y177713D01*
Y172642D02*
X413721D01*
X411949Y159000D02*
X413721Y160772D01*
Y164858D01*
X416280D01*
X411161Y152713D02*
X411949Y153500D01*
X411161Y147142D02*
Y152713D01*
Y147142D02*
X413721D01*
X411949Y133500D02*
X413721Y135272D01*
Y139358D01*
X416280D01*
X411161Y127213D02*
X411949Y128000D01*
X411161Y121642D02*
Y127213D01*
Y121642D02*
X413721D01*
Y113858D02*
X416280D01*
X411949Y108000D02*
X413721Y109772D01*
Y113858D01*
X411161Y96142D02*
Y101213D01*
X411949Y102000D01*
X411161Y96142D02*
X413721D01*
X411161Y285713D02*
X411949Y286500D01*
X411161Y280642D02*
Y285713D01*
Y280642D02*
X413721D01*
X416280D02*
Y284728D01*
X418051Y286500D01*
X423500D01*
X426500Y283500D02*
Y283594D01*
X418051Y292500D02*
X423595D01*
X426500Y295406D01*
X418051Y292500D02*
X418839Y293287D01*
Y298358D01*
X411949Y292500D02*
X413721Y294272D01*
Y298358D01*
X416280D01*
X406551Y298500D02*
X406693Y298358D01*
X411161D01*
X403000Y300000D02*
Y300500D01*
X401500Y298500D02*
X403000Y300000D01*
X400449Y298500D02*
X401500D01*
X404000Y297000D02*
X405051D01*
X406551Y298500D01*
X421000Y279000D02*
Y279500D01*
X419858Y280642D02*
X421000Y279500D01*
X418839Y280642D02*
X419858D01*
X419410Y255090D02*
X421000Y253500D01*
X418839Y255090D02*
X419410D01*
X419358Y229642D02*
X421000Y228000D01*
X418839Y229642D02*
X419358D01*
Y204142D02*
X421000Y202500D01*
X418839Y204142D02*
X419358D01*
Y172642D02*
X421000Y171000D01*
X418839Y172642D02*
X419358D01*
X420480Y145500D02*
X421000D01*
X418839Y147142D02*
X420480Y145500D01*
X401000Y273000D02*
X403000Y275000D01*
X400449Y273000D02*
X401000D01*
X404000Y271500D02*
X405051D01*
X406551Y273000D01*
X406744Y272807D01*
X411161D01*
X411949Y267000D02*
X413721Y268772D01*
Y272807D01*
X416280D01*
X411161Y260213D02*
X411949Y261000D01*
X411161Y255090D02*
Y260213D01*
Y255090D02*
X413721D01*
X418051Y267000D02*
X423646D01*
X426500Y269854D01*
X418051Y267000D02*
X418839Y267787D01*
Y272807D01*
X416280Y255090D02*
Y259228D01*
X418051Y261000D01*
X423543D01*
X403000Y249000D02*
Y249500D01*
X401500Y247500D02*
X403000Y249000D01*
X400449Y247500D02*
X401500D01*
X404000Y245500D02*
Y246000D01*
X405500Y247500D01*
X406551D01*
X406693Y247358D01*
X411161D01*
X413721D02*
X416280D01*
X413721Y243272D02*
Y247358D01*
X411949Y241500D02*
X413721Y243272D01*
X411161Y234713D02*
X411949Y235500D01*
X411161Y229642D02*
Y234713D01*
Y229642D02*
X413721D01*
X418051Y241500D02*
X418839Y242287D01*
Y247358D01*
X418051Y241500D02*
X423595D01*
X426500Y244406D01*
X416280Y229642D02*
Y233728D01*
X418051Y235500D01*
X423595D01*
X426500Y232594D01*
X401000Y222000D02*
X403000Y224000D01*
X400449Y222000D02*
X401000D01*
X404000Y220500D02*
X405500Y222000D01*
X406551D01*
X406693Y221858D01*
X411161D01*
X418051Y216000D02*
X418839Y216787D01*
Y221858D01*
X418051Y216000D02*
X423595D01*
X426500Y218905D01*
X416280Y204142D02*
Y208228D01*
X418051Y210000D01*
X423595D01*
X426500Y207095D01*
X401000Y190500D02*
X403000Y192500D01*
X400449Y190500D02*
X401000D01*
X404000Y189000D02*
X405500Y190500D01*
X406551D01*
X401000Y165000D02*
X403000Y167000D01*
X400449Y165000D02*
X401000D01*
X404000Y163000D02*
X406000Y165000D01*
X406551D01*
X426500Y161906D02*
X431556Y156850D01*
X426500Y150094D02*
X431556Y155150D01*
X423095Y153500D02*
X426500Y150094D01*
Y136406D02*
X431556Y131350D01*
X423095Y128000D02*
X426500Y124594D01*
Y99094D02*
X431556Y104150D01*
X419858Y96142D02*
X421000Y95000D01*
X418839Y96142D02*
X419858D01*
Y121642D02*
X421000Y120500D01*
X418839Y121642D02*
X419858D01*
X401000Y139500D02*
X403000Y141500D01*
X400449Y139500D02*
X401000D01*
X404000Y137500D02*
X406000Y139500D01*
X406551D01*
X401000Y114000D02*
X403000Y116000D01*
X400449Y114000D02*
X401000D01*
X404000Y112000D02*
X406000Y114000D01*
X406551D01*
Y190500D02*
X406693Y190358D01*
X411161D01*
X418839Y185287D02*
Y190358D01*
X418051Y184500D02*
X418839Y185287D01*
X416280Y172642D02*
Y176728D01*
X418051Y178500D01*
X423595D01*
X426500Y175594D01*
X406551Y165000D02*
X406693Y164858D01*
X411161D01*
X418051Y159000D02*
X418839Y159787D01*
Y164858D01*
X418051Y159000D02*
X423595D01*
X426500Y161906D01*
X416280Y147142D02*
Y151728D01*
X418051Y153500D01*
X423095D01*
X406551Y139500D02*
X406693Y139358D01*
X411161D01*
X418051Y133500D02*
X418839Y134287D01*
Y139358D01*
X418051Y133500D02*
X423595D01*
X426500Y136406D01*
X416280Y121642D02*
Y126228D01*
X418051Y128000D01*
X423095D01*
X411020Y114000D02*
X411161Y113858D01*
X406551Y114000D02*
X411020D01*
X418051Y108000D02*
X418839Y108787D01*
Y113858D01*
X418051Y108000D02*
X423595D01*
X426500Y110906D01*
X416280Y96142D02*
Y100228D01*
X418051Y102000D01*
X423595D01*
X426500Y99094D01*
X-42263Y218818D02*
X2557D01*
X10288Y215616D02*
X74422Y151482D01*
X82500Y145300D02*
X82858Y145658D01*
X335500Y112000D02*
X335750Y112250D01*
X335500Y112000D02*
X337500D01*
X335898Y132000D02*
X337500D01*
X300000Y283500D02*
X300020Y283520D01*
X288926Y283002D02*
X298798D01*
X256551Y344220D02*
X258137D01*
X265209Y341291D02*
X265500Y341000D01*
X283711Y286384D02*
X285798Y284298D01*
X281800Y291000D02*
Y318058D01*
X267900Y336100D02*
X278871Y325129D01*
X266900Y336100D02*
X267900D01*
X258500Y180000D02*
Y180500D01*
X236500Y238103D02*
Y238500D01*
Y238103D02*
X236603Y238000D01*
X-49000Y260488D02*
X-42012D01*
X198500Y344272D02*
Y347000D01*
X139272Y306772D02*
X139500Y307000D01*
X136000Y306772D02*
X139272D01*
X229000Y320000D02*
Y320272D01*
X227000Y322272D02*
X229000Y320272D01*
X203000Y280500D02*
Y281000D01*
X201291Y278791D02*
X203000Y280500D01*
X199500Y278791D02*
X201291D01*
X195320Y152819D02*
X198501Y156000D01*
X200128D01*
X201900Y157772D01*
X140272Y237772D02*
X140500Y238000D01*
X137000Y237772D02*
X140272D01*
X140228Y120272D02*
X140500Y120000D01*
X136500Y120272D02*
X140228D01*
Y188272D02*
X140500Y188000D01*
X136500Y188272D02*
X140228D01*
X196320Y83819D02*
X196501Y84000D01*
X197500D01*
X197693Y83807D01*
X201500D01*
X167500Y96000D02*
Y96772D01*
X166000Y98272D02*
X167500Y96772D01*
Y164000D02*
Y164772D01*
X166000Y166272D02*
X167500Y164772D01*
X166000Y215000D02*
X167500Y213500D01*
X166000Y215000D02*
Y215772D01*
X166500Y282500D02*
Y283272D01*
X165000Y284772D02*
X166500Y283272D01*
X228500Y320000D02*
X229000D01*
X230000Y254500D02*
Y255291D01*
X228500Y256791D02*
X230000Y255291D01*
X232000Y133500D02*
Y134272D01*
X230500Y135772D02*
X232000Y134272D01*
X230500Y61000D02*
X232000Y59500D01*
X230500Y61000D02*
Y61807D01*
X485000Y344500D02*
X485051Y344449D01*
X458000Y341000D02*
Y344449D01*
X195000Y338500D02*
X195331Y338169D01*
X198500D01*
Y151500D02*
X198669Y151669D01*
X201900D01*
X196000Y272500D02*
X196189Y272689D01*
X199500D01*
X133000Y300500D02*
X133169Y300669D01*
X136000D01*
X133500Y231500D02*
X133669Y231669D01*
X137000D01*
X133000Y182500D02*
X133331Y182169D01*
X136500D01*
X133000Y114000D02*
X133169Y114169D01*
X136500D01*
X198500Y77500D02*
X198705Y77705D01*
X201500D01*
X206000Y344500D02*
X206299Y344201D01*
Y342000D02*
Y344201D01*
X144000Y307000D02*
X144299Y306701D01*
Y304500D02*
Y306701D01*
X145299Y237799D02*
X145500Y238000D01*
X145299Y235500D02*
Y237799D01*
X145000Y188500D02*
X145299Y188201D01*
Y186000D02*
Y188201D01*
X209000Y157500D02*
Y158000D01*
Y157500D02*
X209799Y156701D01*
Y155500D02*
Y156701D01*
X145000Y120500D02*
X145299Y120201D01*
Y118000D02*
Y120201D01*
X209799Y83299D02*
X210000Y83500D01*
X209799Y81535D02*
Y83299D01*
X53000Y151000D02*
X81500Y122500D01*
X-3000Y151000D02*
X53000D01*
X207500Y278500D02*
X207799Y278201D01*
Y276520D02*
Y278201D01*
X43000Y159000D02*
X44000Y160000D01*
X-3000Y159000D02*
X43000D01*
X-7850Y169150D02*
X-7000Y170000D01*
X-49000Y169150D02*
X-7850D01*
X-9551Y175449D02*
X-7000Y178000D01*
X-49000Y175449D02*
X-9551D01*
X-14402Y178598D02*
X-7000Y186000D01*
X-49000Y178598D02*
X-14402D01*
X-28000Y159000D02*
X-23051D01*
X-3051Y159051D02*
X-3000Y159000D01*
X-11000Y159051D02*
X-3051D01*
X-11051Y159000D02*
X-11000Y159051D01*
X-16949Y159000D02*
X-11051D01*
X-4949Y152949D02*
X-3000Y151000D01*
X-11000Y152949D02*
X-4949D01*
X-11051Y153000D02*
X-11000Y152949D01*
X-16949Y153000D02*
X-11051D01*
X-27000D02*
X-23051D01*
X-40000Y166000D02*
X-27000Y153000D01*
X-49000Y166000D02*
X-40000D01*
X31403Y225319D02*
X31876Y225792D01*
X28633Y225319D02*
X31403D01*
X11903Y244500D02*
X12000D01*
X18992Y247396D02*
X102659Y331063D01*
X109730Y333992D02*
X202811D01*
X11903Y242800D02*
X12000D01*
X20194Y246194D02*
X102865Y328865D01*
X202811Y333992D02*
X202945Y334126D01*
X206299D01*
X202945Y332157D02*
X206299D01*
X202811Y332292D02*
X202945Y332157D01*
X81730Y296492D02*
X140811D01*
X18871Y237775D02*
X74659Y293563D01*
X16557Y237443D02*
X17000Y237000D01*
X20073Y236573D02*
X74865Y291365D01*
X16557Y234857D02*
X17000Y235300D01*
X140945Y296626D02*
X144299D01*
X140811Y296492D02*
X140945Y296626D01*
Y294657D02*
X144299D01*
X140811Y294792D02*
X140945Y294657D01*
X65249Y268511D02*
X204311D01*
X22096Y229500D02*
X58178Y265582D01*
X24181Y229181D02*
X58385Y263385D01*
X204445Y268646D02*
X207799D01*
X204311Y268511D02*
X204445Y268646D01*
X22000Y229500D02*
X22096D01*
X204445Y266677D02*
X207799D01*
X204311Y266811D02*
X204445Y266677D01*
X24181Y228597D02*
Y229181D01*
X22222Y226638D02*
X24181Y228597D01*
X22000Y226638D02*
X22222D01*
X141811Y225792D02*
X141945Y225658D01*
X145299D01*
X28476Y225476D02*
X28633Y225319D01*
X141811Y227492D02*
X141945Y227626D01*
X145299D01*
X30500Y227500D02*
X30508Y227492D01*
X141811D01*
X-18000Y255000D02*
X-16000Y257000D01*
X-18000Y254781D02*
Y255000D01*
Y251000D02*
X-16000Y249000D01*
X-18000Y251000D02*
Y251919D01*
X-16000Y237716D02*
Y241000D01*
X-42263Y237716D02*
X-16000D01*
X-42988Y238441D02*
X-42263Y237716D01*
X-49000Y238441D02*
X-42988D01*
X-42263Y236016D02*
X-16000D01*
X-42988Y235291D02*
X-42263Y236016D01*
X-16000Y233000D02*
Y236016D01*
X-49000Y235291D02*
X-42988D01*
X258916Y339200D02*
X263672D01*
X269702Y336702D02*
X280073Y326331D01*
X284914Y287586D02*
X287000Y285500D01*
X288926Y284702D02*
X298798D01*
X312949Y333740D02*
Y339740D01*
X312336Y333740D02*
X312949D01*
X309000Y287000D02*
Y288029D01*
X308976Y286976D02*
X309000Y287000D01*
X308976Y286860D02*
Y286976D01*
X307604Y285488D02*
X308976Y286860D01*
X303300Y324704D02*
X312336Y333740D01*
X303300Y293729D02*
X309000Y288029D01*
X303300Y293729D02*
Y324704D01*
X304976Y285488D02*
X307604D01*
X311689Y329000D02*
X312949Y327740D01*
X310000Y329000D02*
X311689D01*
X312949Y321740D02*
Y327740D01*
X310700Y286180D02*
Y288734D01*
X308040Y283520D02*
X310700Y286180D01*
X305000Y324000D02*
X310000Y329000D01*
X305000Y294433D02*
Y324000D01*
Y294433D02*
X310700Y288734D01*
X304976Y283520D02*
X308040D01*
X298798Y284702D02*
X299584Y285488D01*
X304976D01*
X300020Y283520D02*
X304976D01*
X198123Y302200D02*
X256296D01*
X289946Y274202D02*
X298798D01*
X262602Y298337D02*
X287369Y273570D01*
X312949Y309740D02*
Y315740D01*
X307000Y303791D02*
X312949Y309740D01*
X313000Y281042D02*
Y289000D01*
X307604Y275646D02*
X313000Y281042D01*
X307000Y295000D02*
Y303791D01*
Y295000D02*
X313000Y289000D01*
X304976Y275646D02*
X307604D01*
X311345Y305345D02*
X312949Y303740D01*
Y297740D02*
Y303740D01*
X309000Y295404D02*
X314700Y289704D01*
Y280337D02*
Y289704D01*
X309000Y295404D02*
Y303000D01*
X308308Y273946D02*
X314700Y280337D01*
X304976Y273677D02*
Y273946D01*
X298798Y274202D02*
X300241Y275646D01*
X304976D01*
X300677Y273677D02*
X304976D01*
X337669Y261831D02*
X338500Y261000D01*
X332331Y261831D02*
X337669D01*
X330398Y259898D02*
X332331Y261831D01*
X327024Y259898D02*
X330398D01*
X200188Y235800D02*
X235396D01*
X199847Y233500D02*
X231000D01*
X238298Y238702D02*
X250867Y251271D01*
X239500Y237500D02*
X251073Y249073D01*
X309000Y251000D02*
Y253000D01*
X312356Y207240D02*
X312949D01*
X308008Y253992D02*
X309000Y253000D01*
X312949Y201240D02*
Y207240D01*
X304976Y253992D02*
X308008D01*
X304000Y246000D02*
X309000Y251000D01*
X304000Y215596D02*
Y246000D01*
Y215596D02*
X312356Y207240D01*
X306000Y245596D02*
X310700Y250296D01*
X308539Y255961D02*
X310700Y253800D01*
Y250296D02*
Y253800D01*
X312949Y213240D02*
Y219240D01*
X311709Y212000D02*
X312949Y213240D01*
X310000Y212000D02*
X311709D01*
X304976Y255961D02*
X308539D01*
X306000Y216000D02*
X310000Y212000D01*
X306000Y216000D02*
Y245596D01*
X300891Y255961D02*
X304976D01*
X301327Y253992D02*
X304976D01*
X280227Y270273D02*
X284000Y266500D01*
X314200Y248796D02*
Y260204D01*
X309500Y244096D02*
X314200Y248796D01*
X312949Y237240D02*
Y243240D01*
Y236449D02*
Y237240D01*
X304976Y265803D02*
X308601D01*
X300891D02*
X304976D01*
X299288Y264200D02*
X300891Y265803D01*
X308601D02*
X314200Y260204D01*
X289553Y264200D02*
X299288D01*
X312500Y249500D02*
Y259500D01*
X308165Y263835D02*
X312500Y259500D01*
X307800Y236389D02*
X312949Y231240D01*
Y225240D02*
Y231240D01*
X304976Y263835D02*
X308165D01*
X301327D02*
X304976D01*
X299992Y262500D02*
X301327Y263835D01*
X307800Y244800D02*
X312500Y249500D01*
X203903Y340032D02*
X206299D01*
X203329Y340606D02*
X203903Y340032D01*
X203150Y340606D02*
X203329D01*
X202756Y341000D02*
X203150Y340606D01*
X201331Y341000D02*
X202756D01*
X198500Y338169D02*
X201331Y341000D01*
X200575Y336094D02*
X206299D01*
X198500Y338169D02*
X200575Y336094D01*
X202425Y338425D02*
X202787Y338063D01*
X206299D01*
X221000Y322272D02*
Y328782D01*
X222407Y330189D01*
X225000D01*
X227000Y322272D02*
X229000Y324272D01*
Y331000D01*
X227842Y332157D02*
X229000Y331000D01*
X225000Y332157D02*
X227842D01*
X231949Y323051D02*
X232000Y323000D01*
X231949Y323051D02*
Y326220D01*
Y332221D01*
X230043Y334126D02*
X231949Y332221D01*
X225000Y334126D02*
X230043D01*
X225000Y326000D02*
Y328221D01*
Y342000D02*
Y344500D01*
X228223Y340032D02*
X232412Y344220D01*
X250449D01*
X225000Y340032D02*
X228223D01*
X244394Y338063D02*
X244500Y338169D01*
X244551Y338221D01*
X250449D01*
Y332221D02*
Y338221D01*
Y344220D02*
Y350220D01*
X259279D02*
X260000Y349500D01*
X256551Y350220D02*
X259279D01*
X259720Y332221D02*
X260000Y332500D01*
X256551Y332221D02*
X259720D01*
X238000Y326272D02*
X238051Y326220D01*
X238000Y326272D02*
Y329000D01*
X238051Y329051D01*
Y332221D01*
X224169Y316169D02*
X227000D01*
X224000Y316000D02*
X224169Y316169D01*
X223831D02*
X224000Y316000D01*
X221000Y316169D02*
X223831D01*
X163000Y304500D02*
Y307000D01*
Y288500D02*
Y290721D01*
X141553Y302532D02*
X144299D01*
X140585Y303500D02*
X141553Y302532D01*
X139000Y303500D02*
X140585D01*
X136169Y300669D02*
X139000Y303500D01*
X136000Y300669D02*
X136169D01*
X138075Y298594D02*
X144299D01*
X136000Y300669D02*
X138075Y298594D01*
X140000Y301000D02*
X140437Y300563D01*
X144299D01*
X159000Y284772D02*
Y291106D01*
X160583Y292689D01*
X163000D01*
X165000Y284772D02*
X167000Y286772D01*
Y293500D01*
X165842Y294657D02*
X167000Y293500D01*
X163000Y294657D02*
X165842D01*
X169949Y285551D02*
X170000Y285500D01*
X169949Y285551D02*
Y288720D01*
Y294721D01*
X168043Y296626D02*
X169949Y294721D01*
X163000Y296626D02*
X168043D01*
X166223Y302532D02*
X170463Y306772D01*
X163000Y302532D02*
X166223D01*
X170463Y306772D02*
X182500D01*
X182551Y306720D01*
X188449D01*
Y312720D01*
X163000Y300563D02*
X163106Y300669D01*
X182500D02*
X182551Y300721D01*
X188449D01*
Y294721D02*
Y300721D01*
X197280Y312720D02*
X197500Y312500D01*
X194551Y312720D02*
X197280D01*
Y294721D02*
X197500Y294500D01*
X194551Y294721D02*
X197280D01*
X176000Y288772D02*
X176051Y288720D01*
X176000Y288772D02*
Y291500D01*
X176051Y291551D01*
Y294721D01*
X164831Y278500D02*
X165000Y278669D01*
X162000Y278500D02*
X164831D01*
X161831Y278669D02*
X162000Y278500D01*
X159000Y278669D02*
X161831D01*
X205463Y274551D02*
X207799D01*
X204514Y275500D02*
X205463Y274551D01*
X202311Y275500D02*
X204514D01*
X199500Y272689D02*
X202311Y275500D01*
X201575Y270614D02*
X207799D01*
X199500Y272689D02*
X201575Y270614D01*
X203500Y273000D02*
X203917Y272583D01*
X207799D01*
X226500Y276520D02*
Y279000D01*
Y260500D02*
Y262740D01*
X222500Y256791D02*
X222739Y257030D01*
Y263365D01*
X224083Y264709D01*
X226500D01*
X228500Y256791D02*
X230500Y258791D01*
Y265500D01*
X229323Y266677D02*
X230500Y265500D01*
X226500Y266677D02*
X229323D01*
X233449Y257551D02*
X233500Y257500D01*
X233449Y257551D02*
Y260740D01*
Y266740D01*
X231543Y268646D02*
X233449Y266740D01*
X226500Y268646D02*
X231543D01*
X229723Y274551D02*
X233963Y278791D01*
X226500Y274551D02*
X229723D01*
X233963Y278791D02*
X246000D01*
X246051Y278740D01*
X251949D01*
Y284740D01*
X226500Y272583D02*
X226606Y272689D01*
X246000D02*
X246051Y272740D01*
X251949D01*
Y266740D02*
Y272740D01*
X260740Y284740D02*
X261000Y285000D01*
X258051Y284740D02*
X260740D01*
X260760Y266740D02*
X261000Y266500D01*
X258051Y266740D02*
X260760D01*
X239500Y260791D02*
X239551Y260740D01*
X239500Y260791D02*
Y263500D01*
X239551Y263551D01*
Y266740D01*
X228311Y250500D02*
X228500Y250689D01*
X225500Y250500D02*
X228311D01*
X225311Y250689D02*
X225500Y250500D01*
X222500Y250689D02*
X225311D01*
X137000Y231669D02*
X137585D01*
X140097Y234181D01*
X142313D01*
X142963Y233531D01*
X145299D01*
X139075Y229594D02*
X145299D01*
X137000Y231669D02*
X139075Y229594D01*
X141000Y232000D02*
X141437Y231563D01*
X145299D01*
X198280Y243721D02*
X198500Y243500D01*
X195551Y243721D02*
X198280D01*
X167223Y233531D02*
X171412Y237720D01*
X189449D01*
X164000Y233531D02*
X167223D01*
X189449Y237720D02*
Y243721D01*
X164000Y231563D02*
X164157Y231720D01*
X189449Y225721D02*
Y231720D01*
X198221Y225721D02*
X198500Y226000D01*
X195551Y225721D02*
X198221D01*
X164000Y235500D02*
Y238000D01*
Y219500D02*
Y221721D01*
X160000Y215772D02*
Y222106D01*
X161583Y223689D01*
X164000D01*
X166000Y215772D02*
X168000Y217772D01*
Y224500D01*
X166842Y225658D02*
X168000Y224500D01*
X164000Y225658D02*
X166842D01*
X170949Y216551D02*
X171000Y216500D01*
X170949Y216551D02*
Y219721D01*
Y225721D01*
X169043Y227626D02*
X170949Y225721D01*
X164000Y227626D02*
X169043D01*
X177000Y223000D02*
Y225669D01*
X177051Y225721D01*
X177000Y222500D02*
Y223000D01*
X177051Y222949D01*
X163000Y209669D02*
X166000D01*
X160000D02*
X163000D01*
X7362Y223638D02*
X49500Y181500D01*
X50079Y180921D01*
X8564Y224840D02*
X51276Y182128D01*
X60500Y176292D02*
X141811Y176292D01*
X142135Y176157D02*
X145299D01*
X59704Y176292D02*
X60500D01*
X142135Y178126D02*
X145299D01*
X-42263Y228267D02*
X291D01*
X-49000Y228992D02*
X-42988D01*
X-42263Y228267D01*
X-42263Y226567D02*
X291D01*
X-49000Y225842D02*
X-42988D01*
X-42263Y226567D01*
X82858Y145658D02*
X87000D01*
X82500Y145500D02*
X82874Y145874D01*
X9310Y214190D02*
X72945Y150555D01*
X87000Y145658D02*
X209799Y145658D01*
X-42988Y219543D02*
X-42263Y218818D01*
X-49000Y219543D02*
X-42988D01*
X-42263Y217119D02*
X2239D01*
X-42988Y216394D02*
X-42263Y217119D01*
X-49000Y216394D02*
X-42988D01*
X11259Y204741D02*
X103000Y113000D01*
X113500Y108158D02*
X145299D01*
X12236Y206168D02*
X103629Y114775D01*
X-42263Y209370D02*
X4506D01*
X-42988Y210094D02*
X-42263Y209370D01*
X-49000Y210094D02*
X-42988D01*
X-42263Y207670D02*
X4188D01*
X-42988Y206945D02*
X-42263Y207670D01*
X-49000Y206945D02*
X-42988D01*
X197790Y71827D02*
X206311D01*
X206635Y71693D02*
X209799D01*
X13740Y196719D02*
X134535Y75924D01*
X135559Y75500D02*
X191000D01*
X134535Y75924D02*
X134536Y75923D01*
X206635Y73661D02*
X209799D01*
X136283Y73500D02*
X182500D01*
X133333Y74722D02*
X133334Y74721D01*
X12763Y195292D02*
X133333Y74722D01*
X197500Y71537D02*
X197790Y71827D01*
X197500Y71500D02*
Y71537D01*
X182500Y73500D02*
X182527Y73527D01*
X-42263Y199921D02*
X6010D01*
X-42988Y200646D02*
X-42263Y199921D01*
X-49000Y200646D02*
X-42988D01*
X-42263Y198221D02*
X5692D01*
X-42988Y197496D02*
X-42263Y198221D01*
X-49000Y197496D02*
X-42988D01*
X200912Y186000D02*
X253000D01*
X260207Y179793D02*
X272371Y167629D01*
X275300Y152642D02*
Y160558D01*
X278727Y144369D02*
X284298Y138798D01*
X289841Y136502D02*
X298298D01*
X299500Y137000D02*
X300279Y137779D01*
X312898Y187000D02*
Y193000D01*
Y186598D02*
Y187000D01*
X304300Y178000D02*
X312898Y186598D01*
X309000Y141000D02*
Y142500D01*
X307748Y139748D02*
X309000Y141000D01*
X304300Y147200D02*
X309000Y142500D01*
X304925Y139748D02*
X307748D01*
X312898Y181000D02*
Y181602D01*
Y175000D02*
Y181000D01*
X310700Y140296D02*
Y143204D01*
X308184Y137779D02*
X310700Y140296D01*
X306000Y147904D02*
X310700Y143204D01*
X304925Y137779D02*
X308184D01*
X298298Y138202D02*
X299844Y139748D01*
X304925D01*
X300279Y137779D02*
X304925D01*
X136500Y182169D02*
X139012Y184681D01*
X142313D01*
X142963Y184031D01*
X145299D01*
X138575Y180095D02*
X145299D01*
X136500Y182169D02*
X138575Y180095D01*
X141000Y182500D02*
X141450D01*
X141513Y182563D01*
X142013Y182063D01*
X145299D01*
X160777Y174189D02*
X164000D01*
X160000Y173412D02*
X160777Y174189D01*
X160000Y166272D02*
Y173412D01*
X166000Y166272D02*
X168000Y168272D01*
Y175000D01*
X166842Y176157D02*
X168000Y175000D01*
X164000Y176157D02*
X166842D01*
X164000Y186000D02*
Y188500D01*
Y170500D02*
Y172221D01*
X170949Y167051D02*
X171000Y167000D01*
X170949Y167051D02*
Y170220D01*
Y176221D01*
X169043Y178126D02*
X170949Y176221D01*
X164000Y178126D02*
X169043D01*
X166778Y184031D02*
X171019Y188272D01*
X164000Y184031D02*
X166778D01*
X171019Y188272D02*
X183500D01*
X164000Y182063D02*
X164106Y182169D01*
X183500D02*
X183551Y182220D01*
X189449D01*
Y176221D02*
Y182220D01*
X183500Y188272D02*
X183551Y188221D01*
X189449D01*
Y194220D01*
X198280D02*
X198500Y194000D01*
X195551Y194220D02*
X198280D01*
X198221Y176221D02*
X198500Y176500D01*
X195551Y176221D02*
X198221D01*
X177000Y176169D02*
X177051Y176221D01*
X177000Y173000D02*
Y176169D01*
Y173000D02*
X177051Y172949D01*
Y170220D02*
Y172949D01*
X165831Y160000D02*
X166000Y160169D01*
X163000Y160000D02*
X165831D01*
X162831Y160169D02*
X163000Y160000D01*
X160000Y160169D02*
X162831D01*
X300612Y125092D02*
X301488Y125969D01*
X304925D01*
X300513Y115150D02*
X301488Y116126D01*
X304925D01*
X270300Y146142D02*
Y149447D01*
X260051Y157720D02*
X261432D01*
X300000Y127000D02*
X300937Y127937D01*
X288719Y126502D02*
X298798D01*
X311500Y159000D02*
X312898Y157602D01*
Y157000D02*
Y157602D01*
X309500Y149404D02*
X314200Y144704D01*
Y133296D02*
Y144704D01*
X312898Y151000D02*
Y157000D01*
X308841Y127937D02*
X314200Y133296D01*
X304925Y127937D02*
X308841D01*
X300937D02*
X304925D01*
X312898Y163000D02*
Y169000D01*
X307800Y157902D02*
X312898Y163000D01*
X312500Y134000D02*
Y144000D01*
X308405Y129905D02*
X312500Y134000D01*
X307800Y148700D02*
X312500Y144000D01*
X304925Y129905D02*
X308405D01*
X300501D02*
X304925D01*
X298798Y128202D02*
X300501Y129905D01*
X273727Y137869D02*
X282530Y129066D01*
X225277Y143689D02*
X228500D01*
X224500Y142912D02*
X225277Y143689D01*
X224500Y135772D02*
Y142912D01*
X228500Y145658D02*
X231723D01*
X232286Y145094D01*
Y137558D02*
Y145094D01*
X230500Y135772D02*
X232286Y137558D01*
X228500Y155500D02*
Y158000D01*
Y139500D02*
Y141720D01*
Y151563D02*
X228606Y151669D01*
X231723Y153532D02*
X235963Y157772D01*
X228500Y153532D02*
X231723D01*
X235963Y157772D02*
X248000D01*
X248051Y157720D01*
X253949D01*
X248000Y151669D02*
X248051Y151720D01*
X253949D01*
Y157720D02*
Y163721D01*
Y145721D02*
Y151720D01*
X262280Y163721D02*
X263000Y163000D01*
X260051Y163721D02*
X262280D01*
X262720Y145721D02*
X263000Y146000D01*
X260051Y145721D02*
X262720D01*
X241551D02*
X241600Y145672D01*
Y142700D02*
Y145672D01*
X241551Y142651D02*
X241600Y142700D01*
X241551Y139720D02*
Y142651D01*
X235400Y136600D02*
X235449Y136649D01*
Y139720D01*
Y145721D01*
X233543Y147626D02*
X235449Y145721D01*
X228500Y147626D02*
X233543D01*
X206968Y153532D02*
X209799D01*
X206400Y154100D02*
X206968Y153532D01*
X204331Y154100D02*
X206400D01*
X201900Y151669D02*
X204331Y154100D01*
X209624Y149419D02*
X209799Y149594D01*
X204150Y149419D02*
X209624D01*
X201900Y151669D02*
X204150Y149419D01*
X205800Y151600D02*
X205837Y151563D01*
X209799D01*
X230495Y55700D02*
X230500Y55705D01*
X227400Y55700D02*
X230495D01*
X227395Y55705D02*
X227400Y55700D01*
X224500Y55705D02*
X227395D01*
X165969Y92200D02*
X166000Y92169D01*
X162700Y92200D02*
X165969D01*
X160000Y92169D02*
X162669D01*
X162700Y92200D01*
X230431Y129600D02*
X230500Y129669D01*
X227500Y129600D02*
X230431D01*
X227431Y129669D02*
X227500Y129600D01*
X224500Y129669D02*
X227431D01*
X-49000Y263638D02*
X-45161D01*
X-41811Y254189D02*
X-41800Y254200D01*
X-42010Y247890D02*
X-42000Y247900D01*
X-41809Y241590D02*
X-41700Y241700D01*
X-42058Y232142D02*
X-42000Y232200D01*
X-42256Y213244D02*
X-42200Y213300D01*
X-49000Y213244D02*
X-42256D01*
X-49000Y203795D02*
X-42205D01*
X207500Y118206D02*
X298983D01*
X195551Y114220D02*
X198968D01*
X308906Y118095D02*
X312500Y114500D01*
Y103904D02*
Y114500D01*
X312898Y85000D02*
Y85602D01*
Y79000D02*
Y85000D01*
X304925Y118095D02*
X308906D01*
X307300Y98704D02*
X312500Y103904D01*
X309437Y120063D02*
X314200Y115300D01*
Y103200D02*
Y115300D01*
X312898Y91000D02*
Y97000D01*
X304925Y120063D02*
X309437D01*
X309000Y98000D02*
X314200Y103200D01*
X298994Y116506D02*
X299000Y116500D01*
X298983Y118206D02*
X300840Y120063D01*
X304925D01*
X299000Y116500D02*
X299681D01*
X301276Y118095D01*
X304925D01*
X177000Y102272D02*
X177051Y102220D01*
X177000Y102272D02*
Y105000D01*
X177051Y105051D01*
Y108221D01*
X167354Y116032D02*
X171595Y120272D01*
X183500D02*
X183551Y120220D01*
X189449D01*
Y126221D01*
X183500Y114169D02*
X183551Y114220D01*
X189449D01*
Y108221D02*
Y114220D01*
X164000Y116032D02*
X167354D01*
X171595Y120272D02*
X183500D01*
X164000Y114063D02*
X167354D01*
X167461Y114169D01*
X198280Y126221D02*
X198500Y126000D01*
X195551Y126221D02*
X198280D01*
Y108221D02*
X198500Y108000D01*
X195551Y108221D02*
X198280D01*
X164000Y118000D02*
Y120500D01*
X138575Y112094D02*
X145299D01*
X136500Y114169D02*
X138575Y112094D01*
X142963Y116032D02*
X145299D01*
X141994Y117000D02*
X142963Y116032D01*
X139331Y117000D02*
X141994D01*
X136500Y114169D02*
X139331Y117000D01*
X141000Y114500D02*
X141500Y114000D01*
X141563Y114063D02*
X145299D01*
X164000Y102000D02*
Y104220D01*
X160777Y106189D02*
X164000D01*
X160000Y105412D02*
X160777Y106189D01*
X160000Y98272D02*
Y105412D01*
X164000Y108158D02*
X166778D01*
X167762Y107174D01*
Y100033D02*
Y107174D01*
X166000Y98272D02*
X167762Y100033D01*
X170949Y99051D02*
X171000Y99000D01*
X170949Y99051D02*
Y102220D01*
Y108221D01*
X169043Y110126D02*
X170949Y108221D01*
X164000Y110126D02*
X169043D01*
X488000Y350551D02*
Y356350D01*
X473000Y350551D02*
Y356350D01*
X458000Y350551D02*
Y356350D01*
X228500Y65000D02*
Y67756D01*
X225277Y69724D02*
X228500D01*
X224500Y68947D02*
X225277Y69724D01*
X224500Y61807D02*
Y68947D01*
X228500Y71693D02*
X231307D01*
X232500Y70500D01*
Y63807D02*
Y70500D01*
X230500Y61807D02*
X232500Y63807D01*
X-28000Y122500D02*
X-27606Y122106D01*
X-23900D01*
X-18000Y119000D02*
Y122106D01*
X-9106D02*
X-9000Y122000D01*
X-12149Y122106D02*
X-9106D01*
X-49000Y128205D02*
X-12153D01*
X-12149Y128209D01*
X51949Y16000D02*
X57949Y10000D01*
X72500D01*
X115000Y52500D01*
Y88500D01*
X106449Y97051D02*
X115000Y88500D01*
X102000Y97051D02*
X106449D01*
X110000Y50000D02*
Y73291D01*
X72500Y12500D02*
X110000Y50000D01*
X67449Y12500D02*
X72500D01*
X63949Y16000D02*
X67449Y12500D01*
X100610Y83661D02*
X102000Y85051D01*
X94839Y83661D02*
X100610D01*
X102000Y85051D02*
X102342Y84709D01*
X110000D01*
X102000Y85051D02*
Y90949D01*
X86000Y94000D02*
X92949D01*
X96000Y97051D01*
X92279Y87228D02*
X96000Y90949D01*
X92279Y83661D02*
Y87228D01*
X89720Y90622D02*
X90000Y90902D01*
X89720Y83661D02*
Y90622D01*
X92279Y63669D02*
X96949Y59000D01*
X92279Y63669D02*
Y66339D01*
X89720Y60331D02*
X91051Y59000D01*
X89720Y60331D02*
Y66339D01*
X58051Y16000D02*
X63949D01*
X310625Y104721D02*
Y107584D01*
X307989Y110221D02*
X310625Y107584D01*
X305500Y99596D02*
X310625Y104721D01*
X312898Y67000D02*
Y73000D01*
X311398Y65500D02*
X312898Y67000D01*
X304925Y110221D02*
X307989D01*
X300840D02*
X304925D01*
X308925Y105425D02*
Y106880D01*
X307553Y108252D02*
X308925Y106880D01*
X303800Y100300D02*
X308925Y105425D01*
X304925Y108252D02*
X307553D01*
X303800Y70098D02*
X312898Y61000D01*
Y55000D02*
Y61000D01*
X301276Y108252D02*
X304925D01*
X262244Y89756D02*
X262500Y89500D01*
X260051Y89756D02*
X262244D01*
X262256Y71756D02*
X262500Y72000D01*
X260051Y71756D02*
X262256D01*
X228500Y79567D02*
X231532D01*
X235500Y83535D01*
X235772Y83807D01*
X248000D01*
X248051Y83756D01*
X253949D01*
Y89756D01*
X228500Y77598D02*
X228606Y77705D01*
X248000D02*
X248051Y77756D01*
X253949D01*
Y71756D02*
Y77756D01*
X241551Y68500D02*
Y71756D01*
X235449Y62551D02*
X235500Y62500D01*
X235449Y62551D02*
Y65756D01*
Y71756D01*
X233543Y73661D02*
X235449Y71756D01*
X228500Y73661D02*
X233543D01*
X473000Y344449D02*
Y347000D01*
X345260Y281740D02*
X346949D01*
X343480Y283520D02*
X345260Y281740D01*
X327024Y283520D02*
X343480D01*
X327024Y285488D02*
X327193Y285319D01*
X343354D02*
X344776Y286740D01*
X327193Y285319D02*
X343354D01*
X322000Y329000D02*
X326596Y324404D01*
Y295000D02*
Y324404D01*
X320311Y329000D02*
X322000D01*
X323076Y283520D02*
X327024D01*
X319051Y327740D02*
X320311Y329000D01*
X319051Y321740D02*
Y327740D01*
X320300Y288704D02*
X326596Y295000D01*
X320300Y286296D02*
X323076Y283520D01*
X320300Y286296D02*
Y288704D01*
X328296Y294296D02*
Y325108D01*
X322000Y288000D02*
X328296Y294296D01*
X323512Y285488D02*
X327024D01*
X319051Y333740D02*
Y339740D01*
Y333740D02*
X319664D01*
X328296Y325108D01*
X322000Y287000D02*
X323512Y285488D01*
X322000Y287000D02*
Y288000D01*
X344776Y286740D02*
X346949D01*
X322650Y273946D02*
X326755D01*
X321000Y305000D02*
X323000Y303000D01*
Y296404D02*
Y303000D01*
X326755Y273946D02*
X327024Y273677D01*
X320311Y305000D02*
X321000D01*
X319051Y303740D02*
X320311Y305000D01*
X319051Y297740D02*
Y303740D01*
X316800Y290204D02*
X323000Y296404D01*
X316800Y279796D02*
X322650Y273946D01*
X316800Y279796D02*
Y290204D01*
X319051Y309353D02*
Y309740D01*
X324700Y295700D02*
Y303704D01*
X323354Y275646D02*
X327024D01*
X319051Y309353D02*
X324700Y303704D01*
X319051Y309740D02*
Y315740D01*
X318500Y289500D02*
X324700Y295700D01*
X318500Y280500D02*
X323354Y275646D01*
X318500Y280500D02*
Y289500D01*
X344776Y271740D02*
X346949D01*
X343016Y273500D02*
X344776Y271740D01*
Y276740D02*
X346949D01*
X343235Y275200D02*
X344776Y276740D01*
X331555Y275200D02*
X343235D01*
X330850Y273500D02*
X343016D01*
X331109Y275646D02*
X331555Y275200D01*
X327024Y275646D02*
X331109D01*
X330673Y273677D02*
X330850Y273500D01*
X327024Y273677D02*
X330673D01*
X344260Y261740D02*
X346949D01*
X342819Y263181D02*
X344260Y261740D01*
X331327Y263181D02*
X342819D01*
X330673Y263835D02*
X331327Y263181D01*
X331109Y265803D02*
X332031Y264881D01*
X342916D02*
X344776Y266740D01*
X332031Y264881D02*
X342916D01*
X323835Y263835D02*
X327024D01*
X324000Y236189D02*
Y245404D01*
X319051Y225240D02*
Y231240D01*
X319000Y259000D02*
X323835Y263835D01*
X319000Y250404D02*
X324000Y245404D01*
X319000Y250404D02*
Y259000D01*
X319051Y231240D02*
X324000Y236189D01*
X322803Y265803D02*
X327024D01*
X322000Y237000D02*
Y245000D01*
X321000Y236000D02*
X322000Y237000D01*
X320000Y236000D02*
X321000D01*
X317300Y260300D02*
X322803Y265803D01*
X317300Y249700D02*
X322000Y245000D01*
X317300Y249700D02*
Y260300D01*
X319051Y236949D02*
X320000Y236000D01*
X319051Y237240D02*
Y243240D01*
Y236949D02*
Y237240D01*
X344776Y266740D02*
X346949D01*
X327024Y265803D02*
X331109D01*
X327024Y263835D02*
X330673D01*
X323992Y253992D02*
X327024D01*
X323000Y251000D02*
X327700Y246300D01*
Y215889D02*
Y246300D01*
X323000Y253000D02*
X323992Y253992D01*
X319051Y207240D02*
X327700Y215889D01*
X323000Y251000D02*
Y253000D01*
X319051Y201240D02*
Y207240D01*
X323556Y255961D02*
X327024D01*
X321300Y250296D02*
X326000Y245596D01*
X321300Y250296D02*
Y253704D01*
X326000Y217000D02*
Y245596D01*
X321300Y253704D02*
X323556Y255961D01*
X321000Y212000D02*
X326000Y217000D01*
X319051Y213240D02*
Y219240D01*
X320291Y212000D02*
X321000D01*
X319051Y213240D02*
X320291Y212000D01*
X344776Y251740D02*
X346949D01*
X343516Y253000D02*
X344776Y251740D01*
Y256740D02*
X346949D01*
X342735Y254700D02*
X344776Y256740D01*
X332369Y254700D02*
X342735D01*
X331109Y255961D02*
X332369Y254700D01*
X327024Y255961D02*
X331109D01*
X331665Y253000D02*
X343516D01*
X330673Y253992D02*
X331665Y253000D01*
X327024Y253992D02*
X330673D01*
X338500Y291000D02*
X338791D01*
X341051Y288740D01*
X336189Y287500D02*
X337500D01*
X334949Y288740D02*
X336189Y287500D01*
X338500Y281000D02*
X338791D01*
X341051Y278740D01*
X336189Y277500D02*
X337500D01*
X334949Y278740D02*
X336189Y277500D01*
X338500Y271000D02*
Y271291D01*
X336189Y267500D02*
X337500D01*
X334949Y268740D02*
X336189Y267500D01*
X338500Y261000D02*
X338791D01*
X341051Y258740D01*
X336189Y257500D02*
X337500D01*
X334949Y258740D02*
X336189Y257500D01*
X334138Y257929D02*
X334949Y258740D01*
X327024Y257929D02*
X334138D01*
X333980Y267772D02*
X334949Y268740D01*
X327024Y267772D02*
X333980D01*
X333823Y277614D02*
X334949Y278740D01*
X327024Y277614D02*
X333823D01*
X333665Y287457D02*
X334949Y288740D01*
X327024Y287457D02*
X333665D01*
X293209Y290000D02*
X293500D01*
X290949Y287740D02*
X293209Y290000D01*
X290949Y277740D02*
X293209Y280000D01*
X293000Y269791D02*
X293209D01*
X290949Y267740D02*
X293000Y269791D01*
X290949Y257740D02*
X293209Y260000D01*
X294500Y257000D02*
X296311D01*
X297051Y257740D01*
X297240Y257929D01*
X304976D01*
X294000Y267000D02*
X294500D01*
X295689D01*
X296000Y266689D01*
X297051Y267740D01*
X297083Y267772D01*
X304976D01*
X294500Y277000D02*
X296311D01*
X297051Y277740D01*
X297177Y277614D01*
X304976D01*
X294500Y287000D02*
X296311D01*
X297051Y287740D01*
X297335Y287457D01*
X304976D01*
X339000Y145000D02*
X341000Y143000D01*
X339000Y135000D02*
X341000Y133000D01*
X339000Y125000D02*
X341000Y123000D01*
X339000Y115000D02*
X341000Y113000D01*
X292898Y114000D02*
X293500D01*
X290898Y112000D02*
X292898Y114000D01*
Y124000D02*
X293500D01*
X290898Y122000D02*
X292898Y124000D01*
Y134000D02*
X293500D01*
X290898Y132000D02*
X292898Y134000D01*
Y144000D02*
X293500D01*
X290898Y142000D02*
X292898Y144000D01*
X294500Y141000D02*
X296000D01*
X297000Y142000D01*
X294500Y131000D02*
X296000D01*
X297000Y132000D01*
X294500Y121000D02*
X296000D01*
X297000Y122000D01*
X294500Y111000D02*
X296000D01*
X297000Y112000D01*
Y142000D02*
X297284Y141717D01*
X304925D01*
X297000Y132000D02*
X297126Y131874D01*
X304925D01*
X297000Y122000D02*
X297031Y122031D01*
X304925D01*
X297000Y112000D02*
X297189Y112189D01*
X304925D01*
X319000Y187000D02*
X327700Y178300D01*
X322500Y142000D02*
X327700Y147200D01*
X320800Y142800D02*
X326000Y148000D01*
X320800Y140296D02*
Y142800D01*
X322500Y141000D02*
Y142000D01*
X330756Y128071D02*
X343000D01*
X326972Y127937D02*
X330432D01*
X317300Y133700D02*
Y144300D01*
X322500Y149500D01*
X319000Y134500D02*
Y143500D01*
X324200Y148700D01*
X319000Y162200D02*
X324200Y157000D01*
X319000Y162200D02*
Y163000D01*
Y187000D02*
Y193000D01*
Y175000D02*
Y181000D01*
Y163000D02*
Y169000D01*
Y151000D02*
Y157000D01*
X317300Y133700D02*
X323063Y127937D01*
X326972D01*
X319000Y134500D02*
X323594Y129905D01*
X326972D01*
X322973Y105660D02*
X328128Y100504D01*
X317800Y103200D02*
Y114204D01*
X323390Y119794D01*
X326704D01*
X326972Y120063D01*
X319500Y113500D02*
X324095Y118095D01*
X319500Y103904D02*
Y113500D01*
Y103904D02*
X324700Y98704D01*
X317800Y103200D02*
X323000Y98000D01*
X331024Y109819D02*
X344046D01*
X321273Y104955D02*
Y107677D01*
Y104955D02*
X326428Y99800D01*
X321273Y107677D02*
X323816Y110221D01*
X322973Y106973D02*
X324252Y108252D01*
X322973Y105660D02*
Y106973D01*
X324095Y118095D02*
X326972D01*
X323816Y110221D02*
X326972D01*
X324252Y108252D02*
X326972D01*
X319000Y67000D02*
Y73000D01*
X326972Y110221D02*
X330622D01*
X331024Y109819D01*
X319000Y55000D02*
Y61000D01*
X330186Y108252D02*
X330319Y108119D01*
X326972Y108252D02*
X330186D01*
X319000Y79000D02*
Y85000D01*
Y91000D02*
Y97000D01*
X346118Y126780D02*
X346898Y126000D01*
X330866Y119819D02*
X344046D01*
X326972Y120063D02*
X330622D01*
X330866Y119819D01*
X335000Y113000D02*
X335750Y112250D01*
X334898Y113000D02*
X335000D01*
X335898Y122000D02*
X337500D01*
X334898Y123000D02*
X335898Y122000D01*
Y142000D02*
X337500D01*
X334898Y143000D02*
X335898Y142000D01*
X334898Y133000D02*
X335898Y132000D01*
X333614Y141717D02*
X334898Y143000D01*
X326972Y141717D02*
X333614D01*
X333772Y131874D02*
X334898Y133000D01*
X326972Y131874D02*
X333772D01*
X334087Y112189D02*
X334898Y113000D01*
X326972Y112189D02*
X334087D01*
X333929Y122031D02*
X334898Y123000D01*
X326972Y122031D02*
X333929D01*
D20*
X512500Y100949D02*
D03*
Y107051D02*
D03*
Y77051D02*
D03*
Y70949D02*
D03*
X137000Y237772D02*
D03*
Y231669D02*
D03*
X201500Y83807D02*
D03*
Y77705D02*
D03*
X136500Y120272D02*
D03*
Y114169D02*
D03*
X199500Y278791D02*
D03*
Y272689D02*
D03*
X201900Y157772D02*
D03*
Y151669D02*
D03*
X136000Y306772D02*
D03*
Y300669D02*
D03*
X136500Y188272D02*
D03*
Y182169D02*
D03*
X198500Y344272D02*
D03*
Y338169D02*
D03*
X166000Y209669D02*
D03*
Y215772D02*
D03*
X230500Y55705D02*
D03*
Y61807D02*
D03*
X166000Y92169D02*
D03*
Y98272D02*
D03*
X228500Y250689D02*
D03*
Y256791D02*
D03*
X230500Y129669D02*
D03*
Y135772D02*
D03*
X165000Y278669D02*
D03*
Y284772D02*
D03*
X166000Y160169D02*
D03*
Y166272D02*
D03*
X227000Y316169D02*
D03*
Y322272D02*
D03*
X183500Y237772D02*
D03*
Y231669D02*
D03*
X248000Y83807D02*
D03*
Y77705D02*
D03*
X183500Y120272D02*
D03*
Y114169D02*
D03*
X246000Y278791D02*
D03*
Y272689D02*
D03*
X248000Y157772D02*
D03*
Y151669D02*
D03*
X182500Y306772D02*
D03*
Y300669D02*
D03*
X183500Y188272D02*
D03*
Y182169D02*
D03*
X244500Y344272D02*
D03*
Y338169D02*
D03*
X58000Y68949D02*
D03*
Y75051D02*
D03*
X90000Y97004D02*
D03*
Y90902D02*
D03*
X120000Y18949D02*
D03*
Y25051D02*
D03*
X512500Y47051D02*
D03*
Y40949D02*
D03*
D21*
X504000Y97791D02*
D03*
Y109209D02*
D03*
X504500Y51209D02*
D03*
Y39791D02*
D03*
Y69791D02*
D03*
Y81209D02*
D03*
X59000Y91433D02*
D03*
Y102850D02*
D03*
X69000Y91433D02*
D03*
Y102850D02*
D03*
X110000Y84709D02*
D03*
Y73291D02*
D03*
X40000Y77709D02*
D03*
Y66291D02*
D03*
X50000Y77709D02*
D03*
Y66291D02*
D03*
X112000Y16291D02*
D03*
Y27709D02*
D03*
D22*
X488000Y351051D02*
D03*
Y344949D02*
D03*
X458000Y350551D02*
D03*
Y344449D02*
D03*
X473000D02*
D03*
Y350551D02*
D03*
X160000Y215772D02*
D03*
Y209669D02*
D03*
X224500Y55705D02*
D03*
Y61807D02*
D03*
X160000Y98272D02*
D03*
Y92169D02*
D03*
X222500Y250689D02*
D03*
Y256791D02*
D03*
X224500Y135772D02*
D03*
Y129669D02*
D03*
X159000Y278669D02*
D03*
Y284772D02*
D03*
X160000Y166272D02*
D03*
Y160169D02*
D03*
X221000Y316169D02*
D03*
Y322272D02*
D03*
X197500Y60949D02*
D03*
Y67051D02*
D03*
X194000Y327551D02*
D03*
Y321449D02*
D03*
X-12149Y128209D02*
D03*
Y122106D02*
D03*
X-23900Y128209D02*
D03*
Y122106D02*
D03*
X-18000Y128209D02*
D03*
Y122106D02*
D03*
X96000Y97051D02*
D03*
Y90949D02*
D03*
X102000D02*
D03*
Y97051D02*
D03*
Y78949D02*
D03*
Y85051D02*
D03*
X-11000Y159051D02*
D03*
Y152949D02*
D03*
D23*
X411949Y286500D02*
D03*
Y292500D02*
D03*
Y261000D02*
D03*
Y267000D02*
D03*
Y235500D02*
D03*
Y241500D02*
D03*
X353051Y261740D02*
D03*
Y266740D02*
D03*
Y251740D02*
D03*
Y256740D02*
D03*
X411949Y210000D02*
D03*
Y216000D02*
D03*
X353000Y136000D02*
D03*
Y141000D02*
D03*
X411949Y178500D02*
D03*
Y184500D02*
D03*
X353000Y131000D02*
D03*
X411949Y153500D02*
D03*
Y159000D02*
D03*
Y128000D02*
D03*
Y133500D02*
D03*
X353000Y116000D02*
D03*
Y121000D02*
D03*
Y106000D02*
D03*
Y111000D02*
D03*
X411949Y102000D02*
D03*
Y108000D02*
D03*
X418051Y286500D02*
D03*
Y241500D02*
D03*
Y235500D02*
D03*
Y216000D02*
D03*
Y210000D02*
D03*
Y178500D02*
D03*
Y133500D02*
D03*
Y128000D02*
D03*
Y102000D02*
D03*
Y108000D02*
D03*
X346898Y106000D02*
D03*
X346949Y251740D02*
D03*
X312898Y61000D02*
D03*
X319000D02*
D03*
X319051Y207240D02*
D03*
X312949D02*
D03*
X346898Y111000D02*
D03*
X346949Y256740D02*
D03*
X312898Y67000D02*
D03*
X319000D02*
D03*
X319051Y213240D02*
D03*
X312949D02*
D03*
X418051Y153500D02*
D03*
Y261000D02*
D03*
Y159000D02*
D03*
Y267000D02*
D03*
Y184500D02*
D03*
Y292500D02*
D03*
X346898Y116000D02*
D03*
X346949Y261740D02*
D03*
X312898Y85000D02*
D03*
X319000D02*
D03*
X319051Y231240D02*
D03*
X312949D02*
D03*
X346898Y121000D02*
D03*
X346949Y266740D02*
D03*
X312898Y91000D02*
D03*
X319000D02*
D03*
X319051Y237240D02*
D03*
X312949D02*
D03*
X346898Y126000D02*
D03*
X353000D02*
D03*
X353051Y271740D02*
D03*
X346949D02*
D03*
X312898Y157000D02*
D03*
X319000D02*
D03*
X319051Y303740D02*
D03*
X312949D02*
D03*
X346898Y131000D02*
D03*
X346949Y276740D02*
D03*
X353051D02*
D03*
X312898Y163000D02*
D03*
X319000D02*
D03*
X319051Y309740D02*
D03*
X312949D02*
D03*
X346898Y136000D02*
D03*
X353051Y281740D02*
D03*
X346949D02*
D03*
X312898Y181000D02*
D03*
X319000D02*
D03*
X319051Y327740D02*
D03*
X312949D02*
D03*
X346898Y141000D02*
D03*
X346949Y286740D02*
D03*
X353051D02*
D03*
X312898Y187000D02*
D03*
X319000D02*
D03*
X319051Y333740D02*
D03*
X312949D02*
D03*
X189449Y231720D02*
D03*
X195551D02*
D03*
X260051Y77756D02*
D03*
X253949D02*
D03*
X189449Y114220D02*
D03*
X195551D02*
D03*
X258051Y272740D02*
D03*
X251949D02*
D03*
X253949Y151720D02*
D03*
X260051D02*
D03*
X194551Y300721D02*
D03*
X188449D02*
D03*
X189449Y182220D02*
D03*
X195551D02*
D03*
X256551Y338221D02*
D03*
X250449D02*
D03*
X189449Y237720D02*
D03*
X195551D02*
D03*
X260051Y83756D02*
D03*
X253949D02*
D03*
X189449Y120220D02*
D03*
X195551D02*
D03*
X258051Y278740D02*
D03*
X251949D02*
D03*
X253949Y157720D02*
D03*
X260051D02*
D03*
X194551Y306720D02*
D03*
X188449D02*
D03*
X189449Y188221D02*
D03*
X195551D02*
D03*
X256551Y344220D02*
D03*
X250449D02*
D03*
X63949Y16000D02*
D03*
X70051D02*
D03*
X96949Y59000D02*
D03*
X103051D02*
D03*
X-23051Y159000D02*
D03*
X-16949D02*
D03*
X-23051Y153000D02*
D03*
X-16949D02*
D03*
D24*
X426500Y175594D02*
D03*
Y187406D02*
D03*
Y150094D02*
D03*
Y161906D02*
D03*
Y124594D02*
D03*
Y136406D02*
D03*
Y99094D02*
D03*
Y110906D02*
D03*
Y218905D02*
D03*
Y207095D02*
D03*
Y244406D02*
D03*
Y232594D02*
D03*
Y269854D02*
D03*
Y258043D02*
D03*
Y295406D02*
D03*
Y283594D02*
D03*
D25*
X418839Y221858D02*
D03*
X416280D02*
D03*
X413721D02*
D03*
X411161D02*
D03*
X418839Y204142D02*
D03*
X416280D02*
D03*
X413721D02*
D03*
X411161D02*
D03*
X418839Y298358D02*
D03*
X416280D02*
D03*
X413721D02*
D03*
X411161D02*
D03*
X418839Y280642D02*
D03*
X416280D02*
D03*
X413721D02*
D03*
X411161D02*
D03*
X418839Y190358D02*
D03*
X416280D02*
D03*
X413721D02*
D03*
X411161D02*
D03*
X418839Y172642D02*
D03*
X416280D02*
D03*
X413721D02*
D03*
X411161D02*
D03*
X418839Y272807D02*
D03*
X416280D02*
D03*
X413721D02*
D03*
X411161D02*
D03*
X418839Y255090D02*
D03*
X416280D02*
D03*
X413721D02*
D03*
X411161D02*
D03*
X418839Y164858D02*
D03*
X416280D02*
D03*
X413721D02*
D03*
X411161D02*
D03*
X418839Y147142D02*
D03*
X416280D02*
D03*
X413721D02*
D03*
X411161D02*
D03*
X418839Y247358D02*
D03*
X416280D02*
D03*
X413721D02*
D03*
X411161D02*
D03*
X418839Y229642D02*
D03*
X416280D02*
D03*
X413721D02*
D03*
X411161D02*
D03*
X418839Y139358D02*
D03*
X416280D02*
D03*
X413721D02*
D03*
X411161D02*
D03*
X418839Y121642D02*
D03*
X416280D02*
D03*
X413721D02*
D03*
X411161D02*
D03*
Y96142D02*
D03*
X413721D02*
D03*
X416280D02*
D03*
X418839D02*
D03*
X411161Y113858D02*
D03*
X413721D02*
D03*
X416280D02*
D03*
X418839D02*
D03*
D26*
X154650Y228610D02*
D03*
X219150Y74646D02*
D03*
X154650Y111110D02*
D03*
X217150Y269630D02*
D03*
X219150Y148610D02*
D03*
X153650Y297610D02*
D03*
X154650Y179110D02*
D03*
X215650Y335110D02*
D03*
D27*
X145299Y235500D02*
D03*
Y233531D02*
D03*
Y231563D02*
D03*
Y229594D02*
D03*
Y227626D02*
D03*
Y225658D02*
D03*
Y223689D02*
D03*
Y221721D02*
D03*
X164000Y235500D02*
D03*
Y233531D02*
D03*
Y231563D02*
D03*
Y229594D02*
D03*
Y227626D02*
D03*
Y225658D02*
D03*
Y223689D02*
D03*
Y221721D02*
D03*
X228500Y67756D02*
D03*
Y69724D02*
D03*
Y71693D02*
D03*
Y73661D02*
D03*
Y75630D02*
D03*
Y77598D02*
D03*
Y79567D02*
D03*
Y81535D02*
D03*
X209799Y67756D02*
D03*
Y69724D02*
D03*
Y71693D02*
D03*
Y73661D02*
D03*
Y75630D02*
D03*
Y77598D02*
D03*
Y79567D02*
D03*
Y81535D02*
D03*
X145299Y118000D02*
D03*
Y116032D02*
D03*
Y114063D02*
D03*
Y112094D02*
D03*
Y110126D02*
D03*
Y108158D02*
D03*
Y106189D02*
D03*
Y104220D02*
D03*
X164000Y118000D02*
D03*
Y116032D02*
D03*
Y114063D02*
D03*
Y112094D02*
D03*
Y110126D02*
D03*
Y108158D02*
D03*
Y106189D02*
D03*
Y104220D02*
D03*
X226500Y262740D02*
D03*
Y264709D02*
D03*
Y266677D02*
D03*
Y268646D02*
D03*
Y270614D02*
D03*
Y272583D02*
D03*
Y274551D02*
D03*
Y276520D02*
D03*
X207799Y262740D02*
D03*
Y264709D02*
D03*
Y266677D02*
D03*
Y268646D02*
D03*
Y270614D02*
D03*
Y272583D02*
D03*
Y274551D02*
D03*
Y276520D02*
D03*
X209799Y155500D02*
D03*
Y153532D02*
D03*
Y151563D02*
D03*
Y149594D02*
D03*
Y147626D02*
D03*
Y145658D02*
D03*
Y143689D02*
D03*
Y141720D02*
D03*
X228500Y155500D02*
D03*
Y153532D02*
D03*
Y151563D02*
D03*
Y149594D02*
D03*
Y147626D02*
D03*
Y145658D02*
D03*
Y143689D02*
D03*
Y141720D02*
D03*
X163000Y290721D02*
D03*
Y292689D02*
D03*
Y294657D02*
D03*
Y296626D02*
D03*
Y298594D02*
D03*
Y300563D02*
D03*
Y302532D02*
D03*
Y304500D02*
D03*
X144299Y290721D02*
D03*
Y292689D02*
D03*
Y294657D02*
D03*
Y296626D02*
D03*
Y298594D02*
D03*
Y300563D02*
D03*
Y302532D02*
D03*
Y304500D02*
D03*
X145299Y186000D02*
D03*
Y184031D02*
D03*
Y182063D02*
D03*
Y180095D02*
D03*
Y178126D02*
D03*
Y176157D02*
D03*
Y174189D02*
D03*
Y172221D02*
D03*
X164000Y186000D02*
D03*
Y184031D02*
D03*
Y182063D02*
D03*
Y180095D02*
D03*
Y178126D02*
D03*
Y176157D02*
D03*
Y174189D02*
D03*
Y172221D02*
D03*
X225000Y328221D02*
D03*
Y330189D02*
D03*
Y332157D02*
D03*
Y334126D02*
D03*
Y336094D02*
D03*
Y338063D02*
D03*
Y340032D02*
D03*
Y342000D02*
D03*
X206299Y328221D02*
D03*
Y330189D02*
D03*
Y332157D02*
D03*
Y334126D02*
D03*
Y336094D02*
D03*
Y338063D02*
D03*
Y340032D02*
D03*
Y342000D02*
D03*
D28*
X42252Y41000D02*
D03*
X73748D02*
D03*
D29*
X-49000Y128205D02*
D03*
Y131354D02*
D03*
Y134504D02*
D03*
Y137654D02*
D03*
Y140803D02*
D03*
Y143953D02*
D03*
Y147102D02*
D03*
Y150252D02*
D03*
Y153402D02*
D03*
Y156551D02*
D03*
Y159701D02*
D03*
Y162850D02*
D03*
Y166000D02*
D03*
Y169150D02*
D03*
Y172299D02*
D03*
Y175449D02*
D03*
Y178598D02*
D03*
Y181748D02*
D03*
Y197496D02*
D03*
Y200646D02*
D03*
Y203795D02*
D03*
Y206945D02*
D03*
Y210094D02*
D03*
Y213244D02*
D03*
Y216394D02*
D03*
Y219543D02*
D03*
Y222693D02*
D03*
Y225842D02*
D03*
Y228992D02*
D03*
Y232142D02*
D03*
Y235291D02*
D03*
Y238441D02*
D03*
Y241590D02*
D03*
Y244740D02*
D03*
Y247890D02*
D03*
Y251039D02*
D03*
Y254189D02*
D03*
Y257339D02*
D03*
Y260488D02*
D03*
Y263638D02*
D03*
D30*
X38882Y110000D02*
D03*
X49118D02*
D03*
X13882Y273778D02*
D03*
X24118D02*
D03*
X13882Y333000D02*
D03*
X24118D02*
D03*
D31*
X103000Y16882D02*
D03*
Y27118D02*
D03*
D32*
X87161Y66339D02*
D03*
X89720D02*
D03*
X92279D02*
D03*
X94839D02*
D03*
X87161Y83661D02*
D03*
X89720D02*
D03*
X92279D02*
D03*
X94839D02*
D03*
D33*
X326972Y106283D02*
D03*
Y108252D02*
D03*
Y110221D02*
D03*
Y112189D02*
D03*
Y114157D02*
D03*
Y116126D02*
D03*
Y118095D02*
D03*
Y120063D02*
D03*
Y122031D02*
D03*
Y124000D02*
D03*
Y125969D02*
D03*
Y127937D02*
D03*
Y129905D02*
D03*
Y131874D02*
D03*
Y133843D02*
D03*
Y135811D02*
D03*
Y137779D02*
D03*
Y139748D02*
D03*
Y141717D02*
D03*
X304925Y106283D02*
D03*
Y108252D02*
D03*
Y110221D02*
D03*
Y112189D02*
D03*
Y114157D02*
D03*
Y116126D02*
D03*
Y118095D02*
D03*
Y120063D02*
D03*
Y122031D02*
D03*
Y124000D02*
D03*
Y125969D02*
D03*
Y127937D02*
D03*
Y129905D02*
D03*
Y131874D02*
D03*
Y133843D02*
D03*
Y135811D02*
D03*
Y137779D02*
D03*
Y139748D02*
D03*
Y141717D02*
D03*
X327024Y252024D02*
D03*
Y253992D02*
D03*
Y255961D02*
D03*
Y257929D02*
D03*
Y259898D02*
D03*
Y261866D02*
D03*
Y263835D02*
D03*
Y265803D02*
D03*
Y267772D02*
D03*
Y269740D02*
D03*
Y271709D02*
D03*
Y273677D02*
D03*
Y275646D02*
D03*
Y277614D02*
D03*
Y279583D02*
D03*
Y281551D02*
D03*
Y283520D02*
D03*
Y285488D02*
D03*
Y287457D02*
D03*
X304976Y252024D02*
D03*
Y253992D02*
D03*
Y255961D02*
D03*
Y257929D02*
D03*
Y259898D02*
D03*
Y261866D02*
D03*
Y263835D02*
D03*
Y265803D02*
D03*
Y267772D02*
D03*
Y269740D02*
D03*
Y271709D02*
D03*
Y273677D02*
D03*
Y275646D02*
D03*
Y277614D02*
D03*
Y279583D02*
D03*
Y281551D02*
D03*
Y283520D02*
D03*
Y285488D02*
D03*
Y287457D02*
D03*
D34*
X13842Y303519D02*
D03*
Y299778D02*
D03*
Y296038D02*
D03*
X24158D02*
D03*
Y299778D02*
D03*
Y303519D02*
D03*
X13842Y362740D02*
D03*
Y359000D02*
D03*
Y355260D02*
D03*
X24158D02*
D03*
Y359000D02*
D03*
Y362740D02*
D03*
D35*
X121260Y30843D02*
D03*
X125000D02*
D03*
X128740D02*
D03*
D36*
Y41157D02*
D03*
X121260D02*
D03*
D37*
X458000Y356350D02*
D03*
Y362650D02*
D03*
X473000Y356350D02*
D03*
Y362650D02*
D03*
X488000Y356350D02*
D03*
Y362650D02*
D03*
D38*
X76910Y67701D02*
D03*
Y82504D02*
D03*
D39*
X312898Y55000D02*
D03*
X319000D02*
D03*
X312949Y201240D02*
D03*
X319051D02*
D03*
X312898Y73000D02*
D03*
X319000D02*
D03*
X312949Y219240D02*
D03*
X319051D02*
D03*
X312898Y79000D02*
D03*
X319000D02*
D03*
X312949Y225240D02*
D03*
X319051D02*
D03*
X312898Y97000D02*
D03*
X319000D02*
D03*
X312949Y243240D02*
D03*
X319051D02*
D03*
X312898Y151000D02*
D03*
X319000D02*
D03*
X312949Y297740D02*
D03*
X319051D02*
D03*
X312898Y169000D02*
D03*
X319000D02*
D03*
X312949Y315740D02*
D03*
X319051D02*
D03*
X312898Y175000D02*
D03*
X319000D02*
D03*
X312949Y321740D02*
D03*
X319051D02*
D03*
X312898Y193000D02*
D03*
X319000D02*
D03*
X312949Y339740D02*
D03*
X319051D02*
D03*
X341000Y143000D02*
D03*
X334898D02*
D03*
X341051Y288740D02*
D03*
X334949D02*
D03*
X341000Y133000D02*
D03*
X334898D02*
D03*
X341051Y278740D02*
D03*
X334949D02*
D03*
X341000Y123000D02*
D03*
X334898D02*
D03*
X341051Y268740D02*
D03*
X334949D02*
D03*
X341000Y113000D02*
D03*
X334898D02*
D03*
X341051Y258740D02*
D03*
X334949D02*
D03*
X290898Y142000D02*
D03*
X297000D02*
D03*
X290949Y287740D02*
D03*
X297051D02*
D03*
X290898Y132000D02*
D03*
X297000D02*
D03*
X290949Y277740D02*
D03*
X297051D02*
D03*
X290898Y122000D02*
D03*
X297000D02*
D03*
X290949Y267740D02*
D03*
X297051D02*
D03*
X290898Y112000D02*
D03*
X297000D02*
D03*
X290949Y257740D02*
D03*
X297051D02*
D03*
X400449Y114000D02*
D03*
X406551D02*
D03*
X400449Y222000D02*
D03*
X406551D02*
D03*
X400449Y139500D02*
D03*
X406551D02*
D03*
X400449Y247500D02*
D03*
X406551D02*
D03*
X400449Y165000D02*
D03*
X406551D02*
D03*
X400449Y273000D02*
D03*
X406551D02*
D03*
X400449Y190500D02*
D03*
X406551D02*
D03*
X400449Y298500D02*
D03*
X406551D02*
D03*
X177051Y225721D02*
D03*
X170949D02*
D03*
X241551Y71756D02*
D03*
X235449D02*
D03*
X177051Y108221D02*
D03*
X170949D02*
D03*
X239551Y266740D02*
D03*
X233449D02*
D03*
X241551Y145721D02*
D03*
X235449D02*
D03*
X176051Y294721D02*
D03*
X169949D02*
D03*
X177051Y176221D02*
D03*
X170949D02*
D03*
X238051Y332221D02*
D03*
X231949D02*
D03*
X177051Y219721D02*
D03*
X170949D02*
D03*
X241551Y65756D02*
D03*
X235449D02*
D03*
X177051Y102220D02*
D03*
X170949D02*
D03*
X239551Y260740D02*
D03*
X233449D02*
D03*
X241551Y139720D02*
D03*
X235449D02*
D03*
X176051Y288720D02*
D03*
X169949D02*
D03*
X177051Y170220D02*
D03*
X170949D02*
D03*
X238051Y326220D02*
D03*
X231949D02*
D03*
X189449Y225721D02*
D03*
X195551D02*
D03*
X253949Y71756D02*
D03*
X260051D02*
D03*
X189449Y108221D02*
D03*
X195551D02*
D03*
X251949Y266740D02*
D03*
X258051D02*
D03*
X253949Y145721D02*
D03*
X260051D02*
D03*
X188449Y294721D02*
D03*
X194551D02*
D03*
X189449Y176221D02*
D03*
X195551D02*
D03*
X250449Y332221D02*
D03*
X256551D02*
D03*
X195551Y243721D02*
D03*
X189449D02*
D03*
X260051Y89756D02*
D03*
X253949D02*
D03*
X195551Y126221D02*
D03*
X189449D02*
D03*
X258051Y284740D02*
D03*
X251949D02*
D03*
X260051Y163721D02*
D03*
X253949D02*
D03*
X194551Y312720D02*
D03*
X188449D02*
D03*
X195551Y194220D02*
D03*
X189449D02*
D03*
X256551Y350220D02*
D03*
X250449D02*
D03*
X84949Y59000D02*
D03*
X91051D02*
D03*
X58051Y16000D02*
D03*
X51949D02*
D03*
X76949Y91000D02*
D03*
X83051D02*
D03*
X128051Y48000D02*
D03*
X121949D02*
D03*
X17949Y289778D02*
D03*
X24051D02*
D03*
X16949Y309778D02*
D03*
X23051D02*
D03*
X17949Y349000D02*
D03*
X24051D02*
D03*
X16949Y369000D02*
D03*
X23051D02*
D03*
D40*
X130709Y56000D02*
D03*
X119291D02*
D03*
X13291Y281778D02*
D03*
X24709D02*
D03*
X13291Y317778D02*
D03*
X24709D02*
D03*
X13291Y341000D02*
D03*
X24709D02*
D03*
X13291Y377000D02*
D03*
X24709D02*
D03*
D72*
X-42390Y257339D02*
G03*
X-42000Y257500I0J551D01*
G01*
X-49000Y257339D02*
X-42390D01*
D73*
X171000Y114000D02*
D03*
X235500Y77535D02*
D03*
X170000Y300500D02*
D03*
X232000Y338000D02*
D03*
X171000Y182000D02*
D03*
X235500Y151500D02*
D03*
X233500Y272520D02*
D03*
X232000Y344000D02*
D03*
X235500Y157500D02*
D03*
X233500Y278520D02*
D03*
X171000Y231500D02*
D03*
X171000Y237500D02*
D03*
Y188000D02*
D03*
X170000Y306500D02*
D03*
X171000Y120000D02*
D03*
X235500Y83535D02*
D03*
X-16000Y233000D02*
D03*
Y241000D02*
D03*
Y249000D02*
D03*
Y257000D02*
D03*
X-7000Y186000D02*
D03*
Y178000D02*
D03*
Y170000D02*
D03*
X-3000Y159000D02*
D03*
X-3000Y151000D02*
D03*
X50000Y122000D02*
D03*
X30000Y98000D02*
D03*
X9000Y63500D02*
D03*
X119000Y65000D02*
D03*
X32000Y318778D02*
D03*
X33000Y379000D02*
D03*
D74*
X500100Y105000D02*
Y105309D01*
X504000Y109209D01*
X498000Y105000D02*
X500100D01*
X498000Y101650D02*
X500141D01*
X504000Y97791D01*
X521256Y99000D02*
X531256D01*
X519307Y100949D02*
X521256Y99000D01*
X512500Y100949D02*
X519307D01*
X507158D02*
X512500D01*
X504000Y97791D02*
X507158Y100949D01*
X521256Y109000D02*
X531256D01*
X519307Y107051D02*
X521256Y109000D01*
X512500Y107051D02*
X519307D01*
X506157D02*
X512500D01*
X504000Y109209D02*
X506157Y107051D01*
X37500Y113500D02*
X38882Y112118D01*
X40000Y113236D01*
Y113500D01*
X13882Y329382D02*
Y333000D01*
X13000Y328500D02*
X13882Y329382D01*
X13000Y328500D02*
X15500D01*
X12500Y269000D02*
X15000D01*
X13882Y270118D02*
X15000Y269000D01*
X13882Y270118D02*
Y273778D01*
X103000Y13000D02*
X104000D01*
X101500D02*
X103000D01*
Y16882D01*
D75*
X504500Y71000D02*
X507000Y73500D01*
X504500Y41000D02*
X507000Y43500D01*
X502000D02*
X504500Y41000D01*
X502000Y73500D02*
X504500Y71000D01*
X-42004Y134504D02*
X-42000Y134500D01*
X-49000Y134504D02*
X-42004D01*
X-42047Y143953D02*
X-42000Y144000D01*
X-49000Y143953D02*
X-42047D01*
X-42098Y153402D02*
X-42000Y153500D01*
X-49000Y153402D02*
X-42098D01*
X-42150Y162850D02*
X-42000Y163000D01*
X-49000Y162850D02*
X-42150D01*
X-42201Y172299D02*
X-42000Y172500D01*
X-49000Y172299D02*
X-42201D01*
X-42252Y181748D02*
X-42000Y182000D01*
X-49000Y181748D02*
X-42252D01*
X488000Y362650D02*
Y365000D01*
X473000Y362650D02*
Y365000D01*
X458000Y362650D02*
Y365000D01*
X504500Y39791D02*
Y41000D01*
X505657Y40949D02*
X512500D01*
X504500Y69791D02*
X505657Y70949D01*
X512500D01*
X504500Y69791D02*
Y71000D01*
D76*
X531256Y59000D02*
D03*
Y69000D02*
D03*
Y79000D02*
D03*
Y89000D02*
D03*
Y99000D02*
D03*
Y109000D02*
D03*
Y49000D02*
D03*
Y39000D02*
D03*
X521256Y109000D02*
D03*
Y99000D02*
D03*
Y89000D02*
D03*
Y79000D02*
D03*
Y69000D02*
D03*
Y59000D02*
D03*
Y49000D02*
D03*
Y39000D02*
D03*
D77*
X543307Y372047D02*
D03*
Y21654D02*
D03*
D78*
X536500Y242000D02*
D03*
Y180000D02*
D03*
D79*
X529500Y238000D02*
D03*
X536500Y234000D02*
D03*
X529500Y230000D02*
D03*
X536500Y226000D02*
D03*
X529500Y222000D02*
D03*
X536500Y218000D02*
D03*
X529500Y214000D02*
D03*
Y152000D02*
D03*
X536500Y156000D02*
D03*
X529500Y160000D02*
D03*
X536500Y164000D02*
D03*
X529500Y168000D02*
D03*
X536500Y172000D02*
D03*
X529500Y176000D02*
D03*
D80*
X533000Y260000D02*
D03*
Y134000D02*
D03*
D81*
X546500Y253000D02*
D03*
Y141000D02*
D03*
D82*
X18000Y36890D02*
D03*
X479500Y52390D02*
D03*
D83*
X18000Y23110D02*
D03*
X479500Y38610D02*
D03*
D84*
X500100Y105000D02*
D03*
X498000D02*
D03*
Y101650D02*
D03*
X500141D02*
D03*
X488000Y365000D02*
D03*
X473000D02*
D03*
X458000D02*
D03*
D85*
X270500Y89000D02*
D03*
X529500Y245000D02*
D03*
X519500Y242000D02*
D03*
X523000D02*
D03*
X521542Y163458D02*
D03*
X511500Y160000D02*
D03*
X522500Y183000D02*
D03*
X136500Y68000D02*
D03*
Y28000D02*
D03*
X126500Y68000D02*
D03*
X121500Y78000D02*
D03*
X111500D02*
D03*
X106500Y68000D02*
D03*
X111500Y38000D02*
D03*
X96500Y108000D02*
D03*
Y48000D02*
D03*
Y28000D02*
D03*
X86500Y108000D02*
D03*
X91500Y78000D02*
D03*
Y38000D02*
D03*
Y18000D02*
D03*
X86500Y8000D02*
D03*
X76500D02*
D03*
X71500Y98000D02*
D03*
X66500Y68000D02*
D03*
X61500Y98000D02*
D03*
X56500Y28000D02*
D03*
Y8000D02*
D03*
X51500Y98000D02*
D03*
X46500Y88000D02*
D03*
X26500Y108000D02*
D03*
Y88000D02*
D03*
X31500Y78000D02*
D03*
X16500Y108000D02*
D03*
X21500Y98000D02*
D03*
X16500Y88000D02*
D03*
X21500Y78000D02*
D03*
X6500Y368000D02*
D03*
Y348000D02*
D03*
Y328000D02*
D03*
Y308000D02*
D03*
Y288000D02*
D03*
Y108000D02*
D03*
X11500Y98000D02*
D03*
X6500Y88000D02*
D03*
X11500Y78000D02*
D03*
X502000Y43500D02*
D03*
X507000D02*
D03*
X504500D02*
D03*
Y73500D02*
D03*
X507000D02*
D03*
X502000D02*
D03*
X298500Y250000D02*
D03*
X299000Y104500D02*
D03*
X31500Y53000D02*
D03*
Y43000D02*
D03*
Y33000D02*
D03*
X26500Y53000D02*
D03*
X29000Y48000D02*
D03*
X26500Y43000D02*
D03*
X29000Y38000D02*
D03*
X26500Y33000D02*
D03*
X21500Y53000D02*
D03*
X24000Y48000D02*
D03*
X21500Y43000D02*
D03*
X24000Y38000D02*
D03*
X16500Y53000D02*
D03*
X19000Y48000D02*
D03*
X16500Y43000D02*
D03*
X11500Y53000D02*
D03*
X14000Y48000D02*
D03*
X11500Y43000D02*
D03*
Y33000D02*
D03*
X502000Y77000D02*
D03*
X507000D02*
D03*
X504500D02*
D03*
X507000Y47000D02*
D03*
X504500D02*
D03*
X502000D02*
D03*
X403000Y300500D02*
D03*
X404000Y297000D02*
D03*
X421000Y279000D02*
D03*
Y253500D02*
D03*
Y228000D02*
D03*
Y202500D02*
D03*
Y171000D02*
D03*
Y145500D02*
D03*
X403000Y275000D02*
D03*
X404000Y271500D02*
D03*
X403000Y249500D02*
D03*
X404000Y245500D02*
D03*
X403000Y224000D02*
D03*
X404000Y220500D02*
D03*
X403000Y192500D02*
D03*
X404000Y189000D02*
D03*
X403000Y167000D02*
D03*
X404000Y163000D02*
D03*
X421000Y95000D02*
D03*
Y120500D02*
D03*
X403000Y141500D02*
D03*
X404000Y137500D02*
D03*
X403000Y116000D02*
D03*
X404000Y112000D02*
D03*
X30500Y374000D02*
D03*
Y371500D02*
D03*
X337500Y112200D02*
D03*
X258000Y304500D02*
D03*
X258500Y180000D02*
D03*
X236500Y238500D02*
D03*
X-42000Y134500D02*
D03*
Y144000D02*
D03*
Y153500D02*
D03*
Y163000D02*
D03*
Y172500D02*
D03*
Y182000D02*
D03*
Y260800D02*
D03*
X198500Y347000D02*
D03*
X139500Y307000D02*
D03*
X203000Y281000D02*
D03*
X195320Y152819D02*
D03*
X140500Y238000D02*
D03*
Y120000D02*
D03*
Y188000D02*
D03*
X196320Y83819D02*
D03*
X27000Y310000D02*
D03*
Y312500D02*
D03*
X167500Y96000D02*
D03*
Y164000D02*
D03*
Y213500D02*
D03*
X166500Y282500D02*
D03*
X228500Y320000D02*
D03*
X230000Y254500D02*
D03*
X232000Y133500D02*
D03*
Y59500D02*
D03*
X485000Y344500D02*
D03*
X458000Y341000D02*
D03*
X133000Y125500D02*
D03*
X118500Y47000D02*
D03*
Y49500D02*
D03*
X195000Y338500D02*
D03*
X198500Y151500D02*
D03*
X196000Y272500D02*
D03*
X133000Y300500D02*
D03*
X133500Y231500D02*
D03*
X133000Y182500D02*
D03*
Y114000D02*
D03*
X198500Y77500D02*
D03*
X209000Y158000D02*
D03*
X210000Y83500D02*
D03*
X145000Y188500D02*
D03*
Y120500D02*
D03*
X81500Y122500D02*
D03*
X207500Y278500D02*
D03*
X206000Y344500D02*
D03*
X144000Y307000D02*
D03*
X145500Y238000D02*
D03*
X44000Y160000D02*
D03*
X-28000Y159000D02*
D03*
X15500Y328500D02*
D03*
X13000D02*
D03*
X15000Y269000D02*
D03*
X37500Y113500D02*
D03*
X40000D02*
D03*
X12500Y269000D02*
D03*
X-42000Y257500D02*
D03*
X10500Y242219D02*
D03*
Y245081D02*
D03*
X16500Y234719D02*
D03*
Y237581D02*
D03*
X22000Y226638D02*
D03*
Y229500D02*
D03*
X28476Y225476D02*
D03*
X30500Y227500D02*
D03*
X-18000Y254781D02*
D03*
Y251919D02*
D03*
X265600Y341300D02*
D03*
X266900Y336100D02*
D03*
X260800Y298700D02*
D03*
X231000Y233500D02*
D03*
X273500Y276000D02*
D03*
X276900Y270100D02*
D03*
X202425Y338425D02*
D03*
X232000Y323000D02*
D03*
X225000Y326000D02*
D03*
Y344500D02*
D03*
X260000Y349500D02*
D03*
Y332500D02*
D03*
X238000Y329000D02*
D03*
X224000Y316000D02*
D03*
X163000Y307000D02*
D03*
Y288500D02*
D03*
X140000Y301000D02*
D03*
X170000Y285500D02*
D03*
X197500Y312500D02*
D03*
Y294500D02*
D03*
X176000Y291500D02*
D03*
X162000Y278500D02*
D03*
X203500Y273000D02*
D03*
X226500Y279000D02*
D03*
Y260500D02*
D03*
X233500Y257500D02*
D03*
X261000Y285000D02*
D03*
Y266500D02*
D03*
X239500Y263500D02*
D03*
X225500Y250500D02*
D03*
X141000Y232000D02*
D03*
X198500Y243500D02*
D03*
Y226000D02*
D03*
X164000Y238000D02*
D03*
Y219500D02*
D03*
X171000Y216500D02*
D03*
X177000Y222500D02*
D03*
X163000Y209669D02*
D03*
X54000Y181000D02*
D03*
X59000Y175700D02*
D03*
X82500Y145300D02*
D03*
X78300Y150100D02*
D03*
X105500Y114000D02*
D03*
X113400Y107858D02*
D03*
X197500Y71300D02*
D03*
X191000Y75800D02*
D03*
X253000Y186000D02*
D03*
X141000Y182500D02*
D03*
X164000Y188500D02*
D03*
Y170500D02*
D03*
X171000Y167000D02*
D03*
X198500Y194000D02*
D03*
Y176500D02*
D03*
X177000Y173000D02*
D03*
X163000Y160000D02*
D03*
X268000Y148000D02*
D03*
X274000Y141500D02*
D03*
X228500Y158000D02*
D03*
Y139500D02*
D03*
X263000Y163000D02*
D03*
Y146000D02*
D03*
X241600Y142700D02*
D03*
X235400Y136600D02*
D03*
X205800Y151600D02*
D03*
X227400Y55700D02*
D03*
X162700Y92200D02*
D03*
X227500Y129600D02*
D03*
X-42200Y254300D02*
D03*
Y247900D02*
D03*
Y241700D02*
D03*
Y232200D02*
D03*
Y222600D02*
D03*
Y213300D02*
D03*
Y203900D02*
D03*
X207500Y118800D02*
D03*
X199500Y114000D02*
D03*
X177000Y105000D02*
D03*
X198500Y126000D02*
D03*
Y108000D02*
D03*
X164000Y120500D02*
D03*
X141000Y114500D02*
D03*
X164000Y102000D02*
D03*
X171000Y99000D02*
D03*
X228500Y84000D02*
D03*
Y65000D02*
D03*
X-28000Y122500D02*
D03*
X-18000Y119000D02*
D03*
X-9000Y122000D02*
D03*
X101500Y13000D02*
D03*
X104000D02*
D03*
X205500Y77500D02*
D03*
X264500Y81500D02*
D03*
X262500Y89500D02*
D03*
Y72000D02*
D03*
X241551Y68500D02*
D03*
X235500Y62500D02*
D03*
X473000Y347000D02*
D03*
X338500Y291000D02*
D03*
X337500Y287500D02*
D03*
X338500Y281000D02*
D03*
X337500Y277500D02*
D03*
X338500Y271000D02*
D03*
X337500Y267500D02*
D03*
X338500Y261000D02*
D03*
X337500Y257500D02*
D03*
X293500Y290000D02*
D03*
X293209Y280000D02*
D03*
Y269791D02*
D03*
Y260000D02*
D03*
X294500Y257000D02*
D03*
Y267000D02*
D03*
Y277000D02*
D03*
Y287000D02*
D03*
X338500Y145200D02*
D03*
Y135200D02*
D03*
Y125100D02*
D03*
Y115400D02*
D03*
X293500Y114000D02*
D03*
Y124000D02*
D03*
Y134000D02*
D03*
Y144000D02*
D03*
X294500Y141000D02*
D03*
Y131000D02*
D03*
Y121000D02*
D03*
Y111000D02*
D03*
X337500Y122000D02*
D03*
Y132200D02*
D03*
Y142000D02*
D03*
D86*
X152484Y232941D02*
D03*
X156815D02*
D03*
X152484Y228610D02*
D03*
X156815D02*
D03*
X152484Y224279D02*
D03*
X156815D02*
D03*
X221315Y70315D02*
D03*
X216984D02*
D03*
X221315Y74646D02*
D03*
X216984D02*
D03*
X221315Y78976D02*
D03*
X216984D02*
D03*
X152484Y115441D02*
D03*
X156815D02*
D03*
X152484Y111110D02*
D03*
X156815D02*
D03*
X152484Y106780D02*
D03*
X156815D02*
D03*
X219315Y265299D02*
D03*
X214984D02*
D03*
X219315Y269630D02*
D03*
X214984D02*
D03*
X219315Y273961D02*
D03*
X214984D02*
D03*
X216984Y152941D02*
D03*
X221315D02*
D03*
X216984Y148610D02*
D03*
X221315D02*
D03*
X216984Y144280D02*
D03*
X221315D02*
D03*
X155815Y293280D02*
D03*
X151484D02*
D03*
X155815Y297610D02*
D03*
X151484D02*
D03*
X155815Y301941D02*
D03*
X151484D02*
D03*
X152484Y183441D02*
D03*
X156815D02*
D03*
X152484Y179110D02*
D03*
X156815D02*
D03*
X152484Y174779D02*
D03*
X156815D02*
D03*
X217815Y330780D02*
D03*
X213484D02*
D03*
X217815Y335110D02*
D03*
X213484D02*
D03*
X217815Y339441D02*
D03*
X213484D02*
D03*
M02*
