G04*
G04 #@! TF.GenerationSoftware,Altium Limited,Altium Designer,18.0.12 (696)*
G04*
G04 Layer_Color=8388736*
%FSLAX25Y25*%
%MOIN*%
G70*
G01*
G75*
%ADD41R,0.04737X0.03556*%
%ADD42R,0.07965X0.05564*%
%ADD43R,0.04343X0.04147*%
%ADD44R,0.04147X0.04343*%
%ADD45R,0.07887X0.05131*%
%ADD46R,0.02172X0.04337*%
%ADD47R,0.07690X0.12414*%
%ADD48O,0.06509X0.02001*%
%ADD49C,0.04737*%
%ADD50R,0.11430X0.14973*%
%ADD51R,0.11417X0.02559*%
%ADD52R,0.06312X0.04737*%
%ADD53R,0.04737X0.06312*%
%ADD54R,0.02572X0.06509*%
%ADD55O,0.06693X0.01575*%
%ADD56R,0.05603X0.03162*%
%ADD57R,0.03162X0.05603*%
%ADD58R,0.03241X0.05603*%
%ADD59R,0.03950X0.03950*%
%ADD60R,0.07414X0.08359*%
%ADD61R,0.03556X0.04737*%
%ADD62R,0.05564X0.07965*%
%ADD63C,0.06600*%
%ADD64C,0.13005*%
%ADD65R,0.06312X0.06312*%
%ADD66C,0.06312*%
%ADD67C,0.10249*%
%ADD68C,0.13595*%
%ADD69R,0.05918X0.05918*%
%ADD70C,0.05918*%
%ADD71C,0.02769*%
D41*
X512500Y100949D02*
D03*
Y107051D02*
D03*
Y77051D02*
D03*
Y70949D02*
D03*
X137000Y237772D02*
D03*
Y231669D02*
D03*
X201500Y83807D02*
D03*
Y77705D02*
D03*
X136500Y120272D02*
D03*
Y114169D02*
D03*
X199500Y278791D02*
D03*
Y272689D02*
D03*
X201900Y157772D02*
D03*
Y151669D02*
D03*
X136000Y306772D02*
D03*
Y300669D02*
D03*
X136500Y188272D02*
D03*
Y182169D02*
D03*
X198500Y344272D02*
D03*
Y338169D02*
D03*
X166000Y209669D02*
D03*
Y215772D02*
D03*
X230500Y55705D02*
D03*
Y61807D02*
D03*
X166000Y92169D02*
D03*
Y98272D02*
D03*
X228500Y250689D02*
D03*
Y256791D02*
D03*
X230500Y129669D02*
D03*
Y135772D02*
D03*
X165000Y278669D02*
D03*
Y284772D02*
D03*
X166000Y160169D02*
D03*
Y166272D02*
D03*
X227000Y316169D02*
D03*
Y322272D02*
D03*
X183500Y237772D02*
D03*
Y231669D02*
D03*
X248000Y83807D02*
D03*
Y77705D02*
D03*
X183500Y120272D02*
D03*
Y114169D02*
D03*
X246000Y278791D02*
D03*
Y272689D02*
D03*
X248000Y157772D02*
D03*
Y151669D02*
D03*
X182500Y306772D02*
D03*
Y300669D02*
D03*
X183500Y188272D02*
D03*
Y182169D02*
D03*
X244500Y344272D02*
D03*
Y338169D02*
D03*
X58000Y68949D02*
D03*
Y75051D02*
D03*
X90000Y97004D02*
D03*
Y90902D02*
D03*
X120000Y18949D02*
D03*
Y25051D02*
D03*
X512500Y47051D02*
D03*
Y40949D02*
D03*
D42*
X504000Y97791D02*
D03*
Y109209D02*
D03*
X504500Y51209D02*
D03*
Y39791D02*
D03*
Y69791D02*
D03*
Y81209D02*
D03*
X59000Y91433D02*
D03*
Y102850D02*
D03*
X69000Y91433D02*
D03*
Y102850D02*
D03*
X110000Y84709D02*
D03*
Y73291D02*
D03*
X40000Y77709D02*
D03*
Y66291D02*
D03*
X50000Y77709D02*
D03*
Y66291D02*
D03*
X112000Y16291D02*
D03*
Y27709D02*
D03*
D43*
X488000Y351051D02*
D03*
Y344949D02*
D03*
X458000Y350551D02*
D03*
Y344449D02*
D03*
X473000D02*
D03*
Y350551D02*
D03*
X160000Y215772D02*
D03*
Y209669D02*
D03*
X224500Y55705D02*
D03*
Y61807D02*
D03*
X160000Y98272D02*
D03*
Y92169D02*
D03*
X222500Y250689D02*
D03*
Y256791D02*
D03*
X224500Y135772D02*
D03*
Y129669D02*
D03*
X159000Y278669D02*
D03*
Y284772D02*
D03*
X160000Y166272D02*
D03*
Y160169D02*
D03*
X221000Y316169D02*
D03*
Y322272D02*
D03*
X197500Y60949D02*
D03*
Y67051D02*
D03*
X194000Y327551D02*
D03*
Y321449D02*
D03*
X-12149Y128209D02*
D03*
Y122106D02*
D03*
X-23900Y128209D02*
D03*
Y122106D02*
D03*
X-18000Y128209D02*
D03*
Y122106D02*
D03*
X96000Y97051D02*
D03*
Y90949D02*
D03*
X102000D02*
D03*
Y97051D02*
D03*
Y78949D02*
D03*
Y85051D02*
D03*
X-11000Y159051D02*
D03*
Y152949D02*
D03*
D44*
X411949Y286500D02*
D03*
Y292500D02*
D03*
Y261000D02*
D03*
Y267000D02*
D03*
Y235500D02*
D03*
Y241500D02*
D03*
X353051Y261740D02*
D03*
Y266740D02*
D03*
Y251740D02*
D03*
Y256740D02*
D03*
X411949Y210000D02*
D03*
Y216000D02*
D03*
X353000Y136000D02*
D03*
Y141000D02*
D03*
X411949Y178500D02*
D03*
Y184500D02*
D03*
X353000Y131000D02*
D03*
X411949Y153500D02*
D03*
Y159000D02*
D03*
Y128000D02*
D03*
Y133500D02*
D03*
X353000Y116000D02*
D03*
Y121000D02*
D03*
Y106000D02*
D03*
Y111000D02*
D03*
X411949Y102000D02*
D03*
Y108000D02*
D03*
X418051Y286500D02*
D03*
Y241500D02*
D03*
Y235500D02*
D03*
Y216000D02*
D03*
Y210000D02*
D03*
Y178500D02*
D03*
Y133500D02*
D03*
Y128000D02*
D03*
Y102000D02*
D03*
Y108000D02*
D03*
X346898Y106000D02*
D03*
X346949Y251740D02*
D03*
X312898Y61000D02*
D03*
X319000D02*
D03*
X319051Y207240D02*
D03*
X312949D02*
D03*
X346898Y111000D02*
D03*
X346949Y256740D02*
D03*
X312898Y67000D02*
D03*
X319000D02*
D03*
X319051Y213240D02*
D03*
X312949D02*
D03*
X418051Y153500D02*
D03*
Y261000D02*
D03*
Y159000D02*
D03*
Y267000D02*
D03*
Y184500D02*
D03*
Y292500D02*
D03*
X346898Y116000D02*
D03*
X346949Y261740D02*
D03*
X312898Y85000D02*
D03*
X319000D02*
D03*
X319051Y231240D02*
D03*
X312949D02*
D03*
X346898Y121000D02*
D03*
X346949Y266740D02*
D03*
X312898Y91000D02*
D03*
X319000D02*
D03*
X319051Y237240D02*
D03*
X312949D02*
D03*
X346898Y126000D02*
D03*
X353000D02*
D03*
X353051Y271740D02*
D03*
X346949D02*
D03*
X312898Y157000D02*
D03*
X319000D02*
D03*
X319051Y303740D02*
D03*
X312949D02*
D03*
X346898Y131000D02*
D03*
X346949Y276740D02*
D03*
X353051D02*
D03*
X312898Y163000D02*
D03*
X319000D02*
D03*
X319051Y309740D02*
D03*
X312949D02*
D03*
X346898Y136000D02*
D03*
X353051Y281740D02*
D03*
X346949D02*
D03*
X312898Y181000D02*
D03*
X319000D02*
D03*
X319051Y327740D02*
D03*
X312949D02*
D03*
X346898Y141000D02*
D03*
X346949Y286740D02*
D03*
X353051D02*
D03*
X312898Y187000D02*
D03*
X319000D02*
D03*
X319051Y333740D02*
D03*
X312949D02*
D03*
X189449Y231720D02*
D03*
X195551D02*
D03*
X260051Y77756D02*
D03*
X253949D02*
D03*
X189449Y114220D02*
D03*
X195551D02*
D03*
X258051Y272740D02*
D03*
X251949D02*
D03*
X253949Y151720D02*
D03*
X260051D02*
D03*
X194551Y300721D02*
D03*
X188449D02*
D03*
X189449Y182220D02*
D03*
X195551D02*
D03*
X256551Y338221D02*
D03*
X250449D02*
D03*
X189449Y237720D02*
D03*
X195551D02*
D03*
X260051Y83756D02*
D03*
X253949D02*
D03*
X189449Y120220D02*
D03*
X195551D02*
D03*
X258051Y278740D02*
D03*
X251949D02*
D03*
X253949Y157720D02*
D03*
X260051D02*
D03*
X194551Y306720D02*
D03*
X188449D02*
D03*
X189449Y188221D02*
D03*
X195551D02*
D03*
X256551Y344220D02*
D03*
X250449D02*
D03*
X63949Y16000D02*
D03*
X70051D02*
D03*
X96949Y59000D02*
D03*
X103051D02*
D03*
X-23051Y159000D02*
D03*
X-16949D02*
D03*
X-23051Y153000D02*
D03*
X-16949D02*
D03*
D45*
X426500Y175594D02*
D03*
Y187406D02*
D03*
Y150094D02*
D03*
Y161906D02*
D03*
Y124594D02*
D03*
Y136406D02*
D03*
Y99094D02*
D03*
Y110906D02*
D03*
Y218905D02*
D03*
Y207095D02*
D03*
Y244406D02*
D03*
Y232594D02*
D03*
Y269854D02*
D03*
Y258043D02*
D03*
Y295406D02*
D03*
Y283594D02*
D03*
D46*
X418839Y221858D02*
D03*
X416280D02*
D03*
X413721D02*
D03*
X411161D02*
D03*
X418839Y204142D02*
D03*
X416280D02*
D03*
X413721D02*
D03*
X411161D02*
D03*
X418839Y298358D02*
D03*
X416280D02*
D03*
X413721D02*
D03*
X411161D02*
D03*
X418839Y280642D02*
D03*
X416280D02*
D03*
X413721D02*
D03*
X411161D02*
D03*
X418839Y190358D02*
D03*
X416280D02*
D03*
X413721D02*
D03*
X411161D02*
D03*
X418839Y172642D02*
D03*
X416280D02*
D03*
X413721D02*
D03*
X411161D02*
D03*
X418839Y272807D02*
D03*
X416280D02*
D03*
X413721D02*
D03*
X411161D02*
D03*
X418839Y255090D02*
D03*
X416280D02*
D03*
X413721D02*
D03*
X411161D02*
D03*
X418839Y164858D02*
D03*
X416280D02*
D03*
X413721D02*
D03*
X411161D02*
D03*
X418839Y147142D02*
D03*
X416280D02*
D03*
X413721D02*
D03*
X411161D02*
D03*
X418839Y247358D02*
D03*
X416280D02*
D03*
X413721D02*
D03*
X411161D02*
D03*
X418839Y229642D02*
D03*
X416280D02*
D03*
X413721D02*
D03*
X411161D02*
D03*
X418839Y139358D02*
D03*
X416280D02*
D03*
X413721D02*
D03*
X411161D02*
D03*
X418839Y121642D02*
D03*
X416280D02*
D03*
X413721D02*
D03*
X411161D02*
D03*
Y96142D02*
D03*
X413721D02*
D03*
X416280D02*
D03*
X418839D02*
D03*
X411161Y113858D02*
D03*
X413721D02*
D03*
X416280D02*
D03*
X418839D02*
D03*
D47*
X154650Y228610D02*
D03*
X219150Y74646D02*
D03*
X154650Y111110D02*
D03*
X217150Y269630D02*
D03*
X219150Y148610D02*
D03*
X153650Y297610D02*
D03*
X154650Y179110D02*
D03*
X215650Y335110D02*
D03*
D48*
X145299Y235500D02*
D03*
Y233531D02*
D03*
Y231563D02*
D03*
Y229594D02*
D03*
Y227626D02*
D03*
Y225658D02*
D03*
Y223689D02*
D03*
Y221721D02*
D03*
X164000Y235500D02*
D03*
Y233531D02*
D03*
Y231563D02*
D03*
Y229594D02*
D03*
Y227626D02*
D03*
Y225658D02*
D03*
Y223689D02*
D03*
Y221721D02*
D03*
X228500Y67756D02*
D03*
Y69724D02*
D03*
Y71693D02*
D03*
Y73661D02*
D03*
Y75630D02*
D03*
Y77598D02*
D03*
Y79567D02*
D03*
Y81535D02*
D03*
X209799Y67756D02*
D03*
Y69724D02*
D03*
Y71693D02*
D03*
Y73661D02*
D03*
Y75630D02*
D03*
Y77598D02*
D03*
Y79567D02*
D03*
Y81535D02*
D03*
X145299Y118000D02*
D03*
Y116032D02*
D03*
Y114063D02*
D03*
Y112094D02*
D03*
Y110126D02*
D03*
Y108158D02*
D03*
Y106189D02*
D03*
Y104220D02*
D03*
X164000Y118000D02*
D03*
Y116032D02*
D03*
Y114063D02*
D03*
Y112094D02*
D03*
Y110126D02*
D03*
Y108158D02*
D03*
Y106189D02*
D03*
Y104220D02*
D03*
X226500Y262740D02*
D03*
Y264709D02*
D03*
Y266677D02*
D03*
Y268646D02*
D03*
Y270614D02*
D03*
Y272583D02*
D03*
Y274551D02*
D03*
Y276520D02*
D03*
X207799Y262740D02*
D03*
Y264709D02*
D03*
Y266677D02*
D03*
Y268646D02*
D03*
Y270614D02*
D03*
Y272583D02*
D03*
Y274551D02*
D03*
Y276520D02*
D03*
X209799Y155500D02*
D03*
Y153532D02*
D03*
Y151563D02*
D03*
Y149594D02*
D03*
Y147626D02*
D03*
Y145658D02*
D03*
Y143689D02*
D03*
Y141720D02*
D03*
X228500Y155500D02*
D03*
Y153532D02*
D03*
Y151563D02*
D03*
Y149594D02*
D03*
Y147626D02*
D03*
Y145658D02*
D03*
Y143689D02*
D03*
Y141720D02*
D03*
X163000Y290721D02*
D03*
Y292689D02*
D03*
Y294657D02*
D03*
Y296626D02*
D03*
Y298594D02*
D03*
Y300563D02*
D03*
Y302532D02*
D03*
Y304500D02*
D03*
X144299Y290721D02*
D03*
Y292689D02*
D03*
Y294657D02*
D03*
Y296626D02*
D03*
Y298594D02*
D03*
Y300563D02*
D03*
Y302532D02*
D03*
Y304500D02*
D03*
X145299Y186000D02*
D03*
Y184031D02*
D03*
Y182063D02*
D03*
Y180095D02*
D03*
Y178126D02*
D03*
Y176157D02*
D03*
Y174189D02*
D03*
Y172221D02*
D03*
X164000Y186000D02*
D03*
Y184031D02*
D03*
Y182063D02*
D03*
Y180095D02*
D03*
Y178126D02*
D03*
Y176157D02*
D03*
Y174189D02*
D03*
Y172221D02*
D03*
X225000Y328221D02*
D03*
Y330189D02*
D03*
Y332157D02*
D03*
Y334126D02*
D03*
Y336094D02*
D03*
Y338063D02*
D03*
Y340032D02*
D03*
Y342000D02*
D03*
X206299Y328221D02*
D03*
Y330189D02*
D03*
Y332157D02*
D03*
Y334126D02*
D03*
Y336094D02*
D03*
Y338063D02*
D03*
Y340032D02*
D03*
Y342000D02*
D03*
D49*
X171000Y114000D02*
D03*
X235500Y77535D02*
D03*
X170000Y300500D02*
D03*
X232000Y338000D02*
D03*
X171000Y182000D02*
D03*
X235500Y151500D02*
D03*
X233500Y272520D02*
D03*
X232000Y344000D02*
D03*
X235500Y157500D02*
D03*
X233500Y278520D02*
D03*
X171000Y231500D02*
D03*
X171000Y237500D02*
D03*
Y188000D02*
D03*
X170000Y306500D02*
D03*
X171000Y120000D02*
D03*
X235500Y83535D02*
D03*
X-16000Y233000D02*
D03*
Y241000D02*
D03*
Y249000D02*
D03*
Y257000D02*
D03*
X-7000Y186000D02*
D03*
Y178000D02*
D03*
Y170000D02*
D03*
X-3000Y159000D02*
D03*
X-3000Y151000D02*
D03*
X50000Y122000D02*
D03*
X30000Y98000D02*
D03*
X9000Y63500D02*
D03*
X119000Y65000D02*
D03*
X32000Y318778D02*
D03*
X33000Y379000D02*
D03*
D50*
X42252Y41000D02*
D03*
X73748D02*
D03*
D51*
X-49000Y128205D02*
D03*
Y131354D02*
D03*
Y134504D02*
D03*
Y137654D02*
D03*
Y140803D02*
D03*
Y143953D02*
D03*
Y147102D02*
D03*
Y150252D02*
D03*
Y153402D02*
D03*
Y156551D02*
D03*
Y159701D02*
D03*
Y162850D02*
D03*
Y166000D02*
D03*
Y169150D02*
D03*
Y172299D02*
D03*
Y175449D02*
D03*
Y178598D02*
D03*
Y181748D02*
D03*
Y197496D02*
D03*
Y200646D02*
D03*
Y203795D02*
D03*
Y206945D02*
D03*
Y210094D02*
D03*
Y213244D02*
D03*
Y216394D02*
D03*
Y219543D02*
D03*
Y222693D02*
D03*
Y225842D02*
D03*
Y228992D02*
D03*
Y232142D02*
D03*
Y235291D02*
D03*
Y238441D02*
D03*
Y241590D02*
D03*
Y244740D02*
D03*
Y247890D02*
D03*
Y251039D02*
D03*
Y254189D02*
D03*
Y257339D02*
D03*
Y260488D02*
D03*
Y263638D02*
D03*
D52*
X38882Y110000D02*
D03*
X49118D02*
D03*
X13882Y273778D02*
D03*
X24118D02*
D03*
X13882Y333000D02*
D03*
X24118D02*
D03*
D53*
X103000Y16882D02*
D03*
Y27118D02*
D03*
D54*
X87161Y66339D02*
D03*
X89720D02*
D03*
X92279D02*
D03*
X94839D02*
D03*
X87161Y83661D02*
D03*
X89720D02*
D03*
X92279D02*
D03*
X94839D02*
D03*
D55*
X326972Y106283D02*
D03*
Y108252D02*
D03*
Y110221D02*
D03*
Y112189D02*
D03*
Y114157D02*
D03*
Y116126D02*
D03*
Y118095D02*
D03*
Y120063D02*
D03*
Y122031D02*
D03*
Y124000D02*
D03*
Y125969D02*
D03*
Y127937D02*
D03*
Y129905D02*
D03*
Y131874D02*
D03*
Y133843D02*
D03*
Y135811D02*
D03*
Y137779D02*
D03*
Y139748D02*
D03*
Y141717D02*
D03*
X304925Y106283D02*
D03*
Y108252D02*
D03*
Y110221D02*
D03*
Y112189D02*
D03*
Y114157D02*
D03*
Y116126D02*
D03*
Y118095D02*
D03*
Y120063D02*
D03*
Y122031D02*
D03*
Y124000D02*
D03*
Y125969D02*
D03*
Y127937D02*
D03*
Y129905D02*
D03*
Y131874D02*
D03*
Y133843D02*
D03*
Y135811D02*
D03*
Y137779D02*
D03*
Y139748D02*
D03*
Y141717D02*
D03*
X327024Y252024D02*
D03*
Y253992D02*
D03*
Y255961D02*
D03*
Y257929D02*
D03*
Y259898D02*
D03*
Y261866D02*
D03*
Y263835D02*
D03*
Y265803D02*
D03*
Y267772D02*
D03*
Y269740D02*
D03*
Y271709D02*
D03*
Y273677D02*
D03*
Y275646D02*
D03*
Y277614D02*
D03*
Y279583D02*
D03*
Y281551D02*
D03*
Y283520D02*
D03*
Y285488D02*
D03*
Y287457D02*
D03*
X304976Y252024D02*
D03*
Y253992D02*
D03*
Y255961D02*
D03*
Y257929D02*
D03*
Y259898D02*
D03*
Y261866D02*
D03*
Y263835D02*
D03*
Y265803D02*
D03*
Y267772D02*
D03*
Y269740D02*
D03*
Y271709D02*
D03*
Y273677D02*
D03*
Y275646D02*
D03*
Y277614D02*
D03*
Y279583D02*
D03*
Y281551D02*
D03*
Y283520D02*
D03*
Y285488D02*
D03*
Y287457D02*
D03*
D56*
X13842Y303519D02*
D03*
Y299778D02*
D03*
Y296038D02*
D03*
X24158D02*
D03*
Y299778D02*
D03*
Y303519D02*
D03*
X13842Y362740D02*
D03*
Y359000D02*
D03*
Y355260D02*
D03*
X24158D02*
D03*
Y359000D02*
D03*
Y362740D02*
D03*
D57*
X121260Y30843D02*
D03*
X125000D02*
D03*
X128740D02*
D03*
D58*
Y41157D02*
D03*
X121260D02*
D03*
D59*
X458000Y356350D02*
D03*
Y362650D02*
D03*
X473000Y356350D02*
D03*
Y362650D02*
D03*
X488000Y356350D02*
D03*
Y362650D02*
D03*
D60*
X76910Y67701D02*
D03*
Y82504D02*
D03*
D61*
X312898Y55000D02*
D03*
X319000D02*
D03*
X312949Y201240D02*
D03*
X319051D02*
D03*
X312898Y73000D02*
D03*
X319000D02*
D03*
X312949Y219240D02*
D03*
X319051D02*
D03*
X312898Y79000D02*
D03*
X319000D02*
D03*
X312949Y225240D02*
D03*
X319051D02*
D03*
X312898Y97000D02*
D03*
X319000D02*
D03*
X312949Y243240D02*
D03*
X319051D02*
D03*
X312898Y151000D02*
D03*
X319000D02*
D03*
X312949Y297740D02*
D03*
X319051D02*
D03*
X312898Y169000D02*
D03*
X319000D02*
D03*
X312949Y315740D02*
D03*
X319051D02*
D03*
X312898Y175000D02*
D03*
X319000D02*
D03*
X312949Y321740D02*
D03*
X319051D02*
D03*
X312898Y193000D02*
D03*
X319000D02*
D03*
X312949Y339740D02*
D03*
X319051D02*
D03*
X341000Y143000D02*
D03*
X334898D02*
D03*
X341051Y288740D02*
D03*
X334949D02*
D03*
X341000Y133000D02*
D03*
X334898D02*
D03*
X341051Y278740D02*
D03*
X334949D02*
D03*
X341000Y123000D02*
D03*
X334898D02*
D03*
X341051Y268740D02*
D03*
X334949D02*
D03*
X341000Y113000D02*
D03*
X334898D02*
D03*
X341051Y258740D02*
D03*
X334949D02*
D03*
X290898Y142000D02*
D03*
X297000D02*
D03*
X290949Y287740D02*
D03*
X297051D02*
D03*
X290898Y132000D02*
D03*
X297000D02*
D03*
X290949Y277740D02*
D03*
X297051D02*
D03*
X290898Y122000D02*
D03*
X297000D02*
D03*
X290949Y267740D02*
D03*
X297051D02*
D03*
X290898Y112000D02*
D03*
X297000D02*
D03*
X290949Y257740D02*
D03*
X297051D02*
D03*
X400449Y114000D02*
D03*
X406551D02*
D03*
X400449Y222000D02*
D03*
X406551D02*
D03*
X400449Y139500D02*
D03*
X406551D02*
D03*
X400449Y247500D02*
D03*
X406551D02*
D03*
X400449Y165000D02*
D03*
X406551D02*
D03*
X400449Y273000D02*
D03*
X406551D02*
D03*
X400449Y190500D02*
D03*
X406551D02*
D03*
X400449Y298500D02*
D03*
X406551D02*
D03*
X177051Y225721D02*
D03*
X170949D02*
D03*
X241551Y71756D02*
D03*
X235449D02*
D03*
X177051Y108221D02*
D03*
X170949D02*
D03*
X239551Y266740D02*
D03*
X233449D02*
D03*
X241551Y145721D02*
D03*
X235449D02*
D03*
X176051Y294721D02*
D03*
X169949D02*
D03*
X177051Y176221D02*
D03*
X170949D02*
D03*
X238051Y332221D02*
D03*
X231949D02*
D03*
X177051Y219721D02*
D03*
X170949D02*
D03*
X241551Y65756D02*
D03*
X235449D02*
D03*
X177051Y102220D02*
D03*
X170949D02*
D03*
X239551Y260740D02*
D03*
X233449D02*
D03*
X241551Y139720D02*
D03*
X235449D02*
D03*
X176051Y288720D02*
D03*
X169949D02*
D03*
X177051Y170220D02*
D03*
X170949D02*
D03*
X238051Y326220D02*
D03*
X231949D02*
D03*
X189449Y225721D02*
D03*
X195551D02*
D03*
X253949Y71756D02*
D03*
X260051D02*
D03*
X189449Y108221D02*
D03*
X195551D02*
D03*
X251949Y266740D02*
D03*
X258051D02*
D03*
X253949Y145721D02*
D03*
X260051D02*
D03*
X188449Y294721D02*
D03*
X194551D02*
D03*
X189449Y176221D02*
D03*
X195551D02*
D03*
X250449Y332221D02*
D03*
X256551D02*
D03*
X195551Y243721D02*
D03*
X189449D02*
D03*
X260051Y89756D02*
D03*
X253949D02*
D03*
X195551Y126221D02*
D03*
X189449D02*
D03*
X258051Y284740D02*
D03*
X251949D02*
D03*
X260051Y163721D02*
D03*
X253949D02*
D03*
X194551Y312720D02*
D03*
X188449D02*
D03*
X195551Y194220D02*
D03*
X189449D02*
D03*
X256551Y350220D02*
D03*
X250449D02*
D03*
X84949Y59000D02*
D03*
X91051D02*
D03*
X58051Y16000D02*
D03*
X51949D02*
D03*
X76949Y91000D02*
D03*
X83051D02*
D03*
X128051Y48000D02*
D03*
X121949D02*
D03*
X17949Y289778D02*
D03*
X24051D02*
D03*
X16949Y309778D02*
D03*
X23051D02*
D03*
X17949Y349000D02*
D03*
X24051D02*
D03*
X16949Y369000D02*
D03*
X23051D02*
D03*
D62*
X130709Y56000D02*
D03*
X119291D02*
D03*
X13291Y281778D02*
D03*
X24709D02*
D03*
X13291Y317778D02*
D03*
X24709D02*
D03*
X13291Y341000D02*
D03*
X24709D02*
D03*
X13291Y377000D02*
D03*
X24709D02*
D03*
D63*
X531256Y59000D02*
D03*
Y69000D02*
D03*
Y79000D02*
D03*
Y89000D02*
D03*
Y99000D02*
D03*
Y109000D02*
D03*
Y49000D02*
D03*
Y39000D02*
D03*
X521256Y109000D02*
D03*
Y99000D02*
D03*
Y89000D02*
D03*
Y79000D02*
D03*
Y69000D02*
D03*
Y59000D02*
D03*
Y49000D02*
D03*
Y39000D02*
D03*
D64*
X543307Y372047D02*
D03*
Y21654D02*
D03*
D65*
X536500Y242000D02*
D03*
Y180000D02*
D03*
D66*
X529500Y238000D02*
D03*
X536500Y234000D02*
D03*
X529500Y230000D02*
D03*
X536500Y226000D02*
D03*
X529500Y222000D02*
D03*
X536500Y218000D02*
D03*
X529500Y214000D02*
D03*
Y152000D02*
D03*
X536500Y156000D02*
D03*
X529500Y160000D02*
D03*
X536500Y164000D02*
D03*
X529500Y168000D02*
D03*
X536500Y172000D02*
D03*
X529500Y176000D02*
D03*
D67*
X533000Y260000D02*
D03*
Y134000D02*
D03*
D68*
X546500Y253000D02*
D03*
Y141000D02*
D03*
D69*
X18000Y36890D02*
D03*
X479500Y52390D02*
D03*
D70*
X18000Y23110D02*
D03*
X479500Y38610D02*
D03*
D71*
X152484Y232941D02*
D03*
X156815D02*
D03*
X152484Y228610D02*
D03*
X156815D02*
D03*
X152484Y224279D02*
D03*
X156815D02*
D03*
X221315Y70315D02*
D03*
X216984D02*
D03*
X221315Y74646D02*
D03*
X216984D02*
D03*
X221315Y78976D02*
D03*
X216984D02*
D03*
X152484Y115441D02*
D03*
X156815D02*
D03*
X152484Y111110D02*
D03*
X156815D02*
D03*
X152484Y106780D02*
D03*
X156815D02*
D03*
X219315Y265299D02*
D03*
X214984D02*
D03*
X219315Y269630D02*
D03*
X214984D02*
D03*
X219315Y273961D02*
D03*
X214984D02*
D03*
X216984Y152941D02*
D03*
X221315D02*
D03*
X216984Y148610D02*
D03*
X221315D02*
D03*
X216984Y144280D02*
D03*
X221315D02*
D03*
X155815Y293280D02*
D03*
X151484D02*
D03*
X155815Y297610D02*
D03*
X151484D02*
D03*
X155815Y301941D02*
D03*
X151484D02*
D03*
X152484Y183441D02*
D03*
X156815D02*
D03*
X152484Y179110D02*
D03*
X156815D02*
D03*
X152484Y174779D02*
D03*
X156815D02*
D03*
X217815Y330780D02*
D03*
X213484D02*
D03*
X217815Y335110D02*
D03*
X213484D02*
D03*
X217815Y339441D02*
D03*
X213484D02*
D03*
M02*
