G04*
G04 #@! TF.GenerationSoftware,Altium Limited,Altium Designer,18.0.12 (696)*
G04*
G04 Layer_Physical_Order=3*
G04 Layer_Color=16440176*
%FSLAX25Y25*%
%MOIN*%
G70*
G01*
G75*
%ADD14C,0.01000*%
%ADD74C,0.03000*%
%ADD79C,0.05512*%
%ADD82R,0.05118X0.05118*%
%ADD85C,0.02362*%
G36*
X554210Y115500D02*
X516500D01*
Y1538D01*
X1538D01*
X1538Y114936D01*
X1382Y115716D01*
X940Y116377D01*
X279Y116819D01*
X-502Y116975D01*
X-17771D01*
X-17820Y117475D01*
X-17704Y117498D01*
X-17403Y117558D01*
X-16896Y117896D01*
X-16558Y118403D01*
X-16439Y119000D01*
X-16558Y119597D01*
X-16896Y120104D01*
X-17403Y120442D01*
X-18000Y120561D01*
X-18597Y120442D01*
X-19104Y120104D01*
X-19442Y119597D01*
X-19561Y119000D01*
X-19442Y118403D01*
X-19104Y117896D01*
X-18597Y117558D01*
X-18296Y117498D01*
X-18180Y117475D01*
X-18229Y116975D01*
X-23933D01*
X-23983Y116965D01*
X-24033Y116972D01*
X-24370Y116956D01*
X-24517Y116919D01*
X-24668D01*
X-25328Y116788D01*
X-25514Y116711D01*
X-25711Y116672D01*
X-26333Y116414D01*
X-26500Y116302D01*
X-26686Y116225D01*
X-27245Y115851D01*
X-27387Y115709D01*
X-27554Y115598D01*
X-28031Y115121D01*
X-28142Y114954D01*
X-28284Y114812D01*
X-28658Y114252D01*
X-28735Y114067D01*
X-28847Y113900D01*
X-29105Y113278D01*
X-29144Y113081D01*
X-29221Y112895D01*
X-29352Y112234D01*
Y112083D01*
X-29389Y111937D01*
X-29405Y111600D01*
X-29398Y111550D01*
X-29408Y111500D01*
Y109130D01*
X-29413Y109117D01*
X-29424Y109106D01*
X-29438Y109101D01*
X-33340D01*
X-33340Y121343D01*
X-33350Y121392D01*
X-33342Y121443D01*
X-33359Y121779D01*
X-33395Y121926D01*
Y122077D01*
X-33527Y122738D01*
X-33604Y122923D01*
X-33643Y123120D01*
X-33901Y123742D01*
X-34012Y123909D01*
X-34089Y124095D01*
X-34463Y124655D01*
X-34605Y124797D01*
X-34717Y124964D01*
X-35193Y125440D01*
X-35360Y125552D01*
X-35502Y125694D01*
X-36062Y126068D01*
X-36248Y126145D01*
X-36415Y126256D01*
X-37037Y126514D01*
X-37234Y126553D01*
X-37419Y126630D01*
X-38080Y126761D01*
X-38231D01*
X-38378Y126798D01*
X-38714Y126815D01*
X-38765Y126807D01*
X-38814Y126817D01*
X-56962D01*
Y184470D01*
X-38028D01*
X-37978Y184480D01*
X-37927Y184473D01*
X-37514Y184493D01*
X-37367Y184530D01*
X-37216D01*
X-36404Y184691D01*
X-36218Y184768D01*
X-36021Y184807D01*
X-35257Y185124D01*
X-35090Y185236D01*
X-34904Y185312D01*
X-34216Y185773D01*
X-34074Y185915D01*
X-33907Y186026D01*
X-33321Y186611D01*
X-33210Y186778D01*
X-33068Y186920D01*
X-32608Y187609D01*
X-32531Y187794D01*
X-32419Y187961D01*
X-32103Y188726D01*
X-32063Y188923D01*
X-31986Y189109D01*
X-31825Y189921D01*
Y190072D01*
X-31788Y190218D01*
X-31768Y190632D01*
X-31783Y190732D01*
X-31768Y190832D01*
X-31788Y191246D01*
X-31825Y191393D01*
Y191544D01*
X-31986Y192356D01*
X-32063Y192542D01*
X-32103Y192738D01*
X-32419Y193503D01*
X-32531Y193670D01*
X-32608Y193856D01*
X-33068Y194544D01*
X-33210Y194686D01*
X-33321Y194853D01*
X-33907Y195439D01*
X-34074Y195550D01*
X-34216Y195692D01*
X-34904Y196152D01*
X-35090Y196229D01*
X-35257Y196341D01*
X-36021Y196657D01*
X-36218Y196696D01*
X-36404Y196773D01*
X-37216Y196935D01*
X-37367D01*
X-37514Y196971D01*
X-37927Y196992D01*
X-37978Y196984D01*
X-38028Y196994D01*
X-56962D01*
Y267246D01*
X-38814D01*
X-38765Y267256D01*
X-38714Y267248D01*
X-38378Y267265D01*
X-38231Y267302D01*
X-38080D01*
X-37419Y267433D01*
X-37234Y267510D01*
X-37037Y267549D01*
X-36415Y267807D01*
X-36248Y267918D01*
X-36062Y267995D01*
X-35502Y268369D01*
X-35360Y268511D01*
X-35193Y268623D01*
X-34717Y269099D01*
X-34605Y269266D01*
X-34463Y269408D01*
X-34089Y269968D01*
X-34012Y270154D01*
X-33901Y270321D01*
X-33643Y270943D01*
X-33604Y271140D01*
X-33527Y271325D01*
X-33395Y271986D01*
Y272137D01*
X-33359Y272284D01*
X-33342Y272620D01*
X-33350Y272671D01*
X-33340Y272721D01*
Y284962D01*
X-29438D01*
X-29424Y284957D01*
X-29413Y284946D01*
X-29408Y284933D01*
Y282563D01*
X-29398Y282513D01*
X-29405Y282463D01*
X-29389Y282126D01*
X-29352Y281980D01*
Y281828D01*
X-29221Y281168D01*
X-29144Y280982D01*
X-29105Y280785D01*
X-28847Y280163D01*
X-28735Y279996D01*
X-28658Y279811D01*
X-28284Y279251D01*
X-28142Y279109D01*
X-28031Y278942D01*
X-27554Y278465D01*
X-27387Y278354D01*
X-27245Y278212D01*
X-26686Y277838D01*
X-26500Y277761D01*
X-26333Y277649D01*
X-25711Y277392D01*
X-25514Y277352D01*
X-25328Y277275D01*
X-24668Y277144D01*
X-24517D01*
X-24370Y277107D01*
X-24033Y277091D01*
X-23983Y277098D01*
X-23933Y277088D01*
X-576D01*
X204Y277244D01*
X866Y277686D01*
X1308Y278347D01*
X1463Y279128D01*
X1463Y392525D01*
X554210D01*
Y115500D01*
D02*
G37*
%LPC*%
G36*
X30500Y375561D02*
X29903Y375442D01*
X29396Y375104D01*
X29058Y374597D01*
X28939Y374000D01*
X29058Y373403D01*
X29253Y373110D01*
X29355Y372750D01*
X29253Y372390D01*
X29058Y372097D01*
X28939Y371500D01*
X29058Y370903D01*
X29396Y370396D01*
X29903Y370058D01*
X30500Y369939D01*
X31097Y370058D01*
X31604Y370396D01*
X31942Y370903D01*
X32061Y371500D01*
X31942Y372097D01*
X31747Y372390D01*
X31645Y372750D01*
X31747Y373110D01*
X31942Y373403D01*
X32061Y374000D01*
X31942Y374597D01*
X31604Y375104D01*
X31097Y375442D01*
X30500Y375561D01*
D02*
G37*
G36*
X6500Y369561D02*
X5903Y369442D01*
X5396Y369104D01*
X5058Y368597D01*
X4939Y368000D01*
X5058Y367403D01*
X5396Y366896D01*
X5903Y366558D01*
X6500Y366439D01*
X7097Y366558D01*
X7604Y366896D01*
X7942Y367403D01*
X8061Y368000D01*
X7942Y368597D01*
X7604Y369104D01*
X7097Y369442D01*
X6500Y369561D01*
D02*
G37*
G36*
X543307Y379124D02*
X541926Y378988D01*
X540599Y378586D01*
X539375Y377931D01*
X538303Y377051D01*
X537423Y375979D01*
X536769Y374756D01*
X536366Y373428D01*
X536230Y372047D01*
X536366Y370667D01*
X536769Y369339D01*
X537423Y368115D01*
X538303Y367043D01*
X539375Y366163D01*
X540599Y365509D01*
X541926Y365106D01*
X543307Y364970D01*
X544688Y365106D01*
X546015Y365509D01*
X547239Y366163D01*
X548311Y367043D01*
X549191Y368115D01*
X549845Y369339D01*
X550248Y370667D01*
X550384Y372047D01*
X550248Y373428D01*
X549845Y374756D01*
X549191Y375979D01*
X548311Y377051D01*
X547239Y377931D01*
X546015Y378586D01*
X544688Y378988D01*
X543307Y379124D01*
D02*
G37*
G36*
X488000Y366260D02*
X487518Y366164D01*
X487109Y365891D01*
X486836Y365482D01*
X486740Y365000D01*
X486836Y364518D01*
X487109Y364109D01*
X487518Y363836D01*
X488000Y363740D01*
X488482Y363836D01*
X488891Y364109D01*
X489164Y364518D01*
X489260Y365000D01*
X489164Y365482D01*
X488891Y365891D01*
X488482Y366164D01*
X488000Y366260D01*
D02*
G37*
G36*
X473000D02*
X472518Y366164D01*
X472109Y365891D01*
X471836Y365482D01*
X471740Y365000D01*
X471836Y364518D01*
X472109Y364109D01*
X472518Y363836D01*
X473000Y363740D01*
X473482Y363836D01*
X473891Y364109D01*
X474164Y364518D01*
X474260Y365000D01*
X474164Y365482D01*
X473891Y365891D01*
X473482Y366164D01*
X473000Y366260D01*
D02*
G37*
G36*
X458000D02*
X457518Y366164D01*
X457109Y365891D01*
X456836Y365482D01*
X456740Y365000D01*
X456836Y364518D01*
X457109Y364109D01*
X457518Y363836D01*
X458000Y363740D01*
X458482Y363836D01*
X458891Y364109D01*
X459164Y364518D01*
X459260Y365000D01*
X459164Y365482D01*
X458891Y365891D01*
X458482Y366164D01*
X458000Y366260D01*
D02*
G37*
G36*
X260000Y351061D02*
X259403Y350942D01*
X258896Y350604D01*
X258558Y350097D01*
X258439Y349500D01*
X258558Y348903D01*
X258896Y348396D01*
X259403Y348058D01*
X260000Y347939D01*
X260597Y348058D01*
X261104Y348396D01*
X261442Y348903D01*
X261561Y349500D01*
X261442Y350097D01*
X261104Y350604D01*
X260597Y350942D01*
X260000Y351061D01*
D02*
G37*
G36*
X6500Y349561D02*
X5903Y349442D01*
X5396Y349104D01*
X5058Y348597D01*
X4939Y348000D01*
X5058Y347403D01*
X5396Y346896D01*
X5903Y346558D01*
X6500Y346439D01*
X7097Y346558D01*
X7604Y346896D01*
X7942Y347403D01*
X8061Y348000D01*
X7942Y348597D01*
X7604Y349104D01*
X7097Y349442D01*
X6500Y349561D01*
D02*
G37*
G36*
X198500Y348561D02*
X197903Y348442D01*
X197396Y348104D01*
X197058Y347597D01*
X196939Y347000D01*
X197058Y346403D01*
X197396Y345896D01*
X197903Y345558D01*
X198500Y345439D01*
X199097Y345558D01*
X199604Y345896D01*
X199942Y346403D01*
X200061Y347000D01*
X199942Y347597D01*
X199604Y348104D01*
X199097Y348442D01*
X198500Y348561D01*
D02*
G37*
G36*
X485000Y346061D02*
X484403Y345942D01*
X483896Y345604D01*
X483558Y345097D01*
X483439Y344500D01*
X483558Y343903D01*
X483896Y343396D01*
X484403Y343058D01*
X485000Y342939D01*
X485597Y343058D01*
X486104Y343396D01*
X486442Y343903D01*
X486561Y344500D01*
X486442Y345097D01*
X486104Y345604D01*
X485597Y345942D01*
X485000Y346061D01*
D02*
G37*
G36*
X225000D02*
X224403Y345942D01*
X223896Y345604D01*
X223558Y345097D01*
X223439Y344500D01*
X223558Y343903D01*
X223896Y343396D01*
X224403Y343058D01*
X225000Y342939D01*
X225597Y343058D01*
X226104Y343396D01*
X226442Y343903D01*
X226561Y344500D01*
X226442Y345097D01*
X226104Y345604D01*
X225597Y345942D01*
X225000Y346061D01*
D02*
G37*
G36*
X206000D02*
X205403Y345942D01*
X204896Y345604D01*
X204558Y345097D01*
X204439Y344500D01*
X204558Y343903D01*
X204896Y343396D01*
X205403Y343058D01*
X206000Y342939D01*
X206597Y343058D01*
X207104Y343396D01*
X207442Y343903D01*
X207561Y344500D01*
X207442Y345097D01*
X207104Y345604D01*
X206597Y345942D01*
X206000Y346061D01*
D02*
G37*
G36*
X265600Y342861D02*
X265003Y342742D01*
X264496Y342404D01*
X264158Y341897D01*
X264039Y341300D01*
X264158Y340703D01*
X264496Y340196D01*
X265003Y339858D01*
X265600Y339739D01*
X266197Y339858D01*
X266704Y340196D01*
X267042Y340703D01*
X267161Y341300D01*
X267042Y341897D01*
X266704Y342404D01*
X266197Y342742D01*
X265600Y342861D01*
D02*
G37*
G36*
X458000Y342561D02*
X457403Y342442D01*
X456896Y342104D01*
X456558Y341597D01*
X456439Y341000D01*
X456558Y340403D01*
X456896Y339896D01*
X457403Y339558D01*
X458000Y339439D01*
X458597Y339558D01*
X459104Y339896D01*
X459442Y340403D01*
X459561Y341000D01*
X459442Y341597D01*
X459104Y342104D01*
X458597Y342442D01*
X458000Y342561D01*
D02*
G37*
G36*
X217815Y340801D02*
X217294Y340698D01*
X216853Y340403D01*
X216558Y339962D01*
X216455Y339441D01*
X216558Y338920D01*
X216853Y338479D01*
X217294Y338184D01*
X217815Y338081D01*
X218336Y338184D01*
X218777Y338479D01*
X219072Y338920D01*
X219175Y339441D01*
X219072Y339962D01*
X218777Y340403D01*
X218336Y340698D01*
X217815Y340801D01*
D02*
G37*
G36*
X213484D02*
X212964Y340698D01*
X212522Y340403D01*
X212227Y339962D01*
X212124Y339441D01*
X212227Y338920D01*
X212522Y338479D01*
X212964Y338184D01*
X213484Y338081D01*
X214005Y338184D01*
X214446Y338479D01*
X214741Y338920D01*
X214845Y339441D01*
X214741Y339962D01*
X214446Y340403D01*
X214005Y340698D01*
X213484Y340801D01*
D02*
G37*
G36*
X195000Y340061D02*
X194403Y339942D01*
X193896Y339604D01*
X193558Y339097D01*
X193439Y338500D01*
X193558Y337903D01*
X193896Y337396D01*
X194403Y337058D01*
X195000Y336939D01*
X195597Y337058D01*
X196104Y337396D01*
X196442Y337903D01*
X196561Y338500D01*
X196442Y339097D01*
X196104Y339604D01*
X195597Y339942D01*
X195000Y340061D01*
D02*
G37*
G36*
X202425Y339986D02*
X201828Y339867D01*
X201321Y339529D01*
X200983Y339023D01*
X200864Y338425D01*
X200983Y337828D01*
X201321Y337321D01*
X201828Y336983D01*
X202425Y336864D01*
X203023Y336983D01*
X203529Y337321D01*
X203867Y337828D01*
X203986Y338425D01*
X203867Y339023D01*
X203529Y339529D01*
X203023Y339867D01*
X202425Y339986D01*
D02*
G37*
G36*
X266900Y337661D02*
X266303Y337542D01*
X265796Y337204D01*
X265458Y336697D01*
X265339Y336100D01*
X265458Y335503D01*
X265796Y334996D01*
X266303Y334658D01*
X266900Y334539D01*
X267497Y334658D01*
X268004Y334996D01*
X268342Y335503D01*
X268461Y336100D01*
X268342Y336697D01*
X268004Y337204D01*
X267497Y337542D01*
X266900Y337661D01*
D02*
G37*
G36*
X217815Y336471D02*
X217294Y336367D01*
X216853Y336072D01*
X216558Y335631D01*
X216455Y335110D01*
X216558Y334590D01*
X216853Y334148D01*
X217294Y333853D01*
X217815Y333750D01*
X218336Y333853D01*
X218777Y334148D01*
X219072Y334590D01*
X219175Y335110D01*
X219072Y335631D01*
X218777Y336072D01*
X218336Y336367D01*
X217815Y336471D01*
D02*
G37*
G36*
X213484D02*
X212964Y336367D01*
X212522Y336072D01*
X212227Y335631D01*
X212124Y335110D01*
X212227Y334590D01*
X212522Y334148D01*
X212964Y333853D01*
X213484Y333750D01*
X214005Y333853D01*
X214446Y334148D01*
X214741Y334590D01*
X214845Y335110D01*
X214741Y335631D01*
X214446Y336072D01*
X214005Y336367D01*
X213484Y336471D01*
D02*
G37*
G36*
X260000Y334061D02*
X259403Y333942D01*
X258896Y333604D01*
X258558Y333097D01*
X258439Y332500D01*
X258558Y331903D01*
X258896Y331396D01*
X259403Y331058D01*
X260000Y330939D01*
X260597Y331058D01*
X261104Y331396D01*
X261442Y331903D01*
X261561Y332500D01*
X261442Y333097D01*
X261104Y333604D01*
X260597Y333942D01*
X260000Y334061D01*
D02*
G37*
G36*
X15500Y330061D02*
X14903Y329942D01*
X14396Y329604D01*
X14104D01*
X13597Y329942D01*
X13000Y330061D01*
X12403Y329942D01*
X11896Y329604D01*
X11558Y329097D01*
X11439Y328500D01*
X11558Y327903D01*
X11896Y327396D01*
X12403Y327058D01*
X13000Y326939D01*
X13597Y327058D01*
X14104Y327396D01*
X14396D01*
X14903Y327058D01*
X15500Y326939D01*
X16097Y327058D01*
X16604Y327396D01*
X16942Y327903D01*
X17061Y328500D01*
X16942Y329097D01*
X16604Y329604D01*
X16097Y329942D01*
X15500Y330061D01*
D02*
G37*
G36*
X217815Y332140D02*
X217294Y332036D01*
X216853Y331741D01*
X216558Y331300D01*
X216455Y330780D01*
X216558Y330259D01*
X216853Y329818D01*
X217294Y329523D01*
X217815Y329419D01*
X218336Y329523D01*
X218777Y329818D01*
X219072Y330259D01*
X219175Y330780D01*
X219072Y331300D01*
X218777Y331741D01*
X218336Y332036D01*
X217815Y332140D01*
D02*
G37*
G36*
X213484D02*
X212964Y332036D01*
X212522Y331741D01*
X212227Y331300D01*
X212124Y330780D01*
X212227Y330259D01*
X212522Y329818D01*
X212964Y329523D01*
X213484Y329419D01*
X214005Y329523D01*
X214446Y329818D01*
X214741Y330259D01*
X214845Y330780D01*
X214741Y331300D01*
X214446Y331741D01*
X214005Y332036D01*
X213484Y332140D01*
D02*
G37*
G36*
X238000Y330561D02*
X237403Y330442D01*
X236896Y330104D01*
X236558Y329597D01*
X236439Y329000D01*
X236558Y328403D01*
X236896Y327896D01*
X237403Y327558D01*
X238000Y327439D01*
X238597Y327558D01*
X239104Y327896D01*
X239442Y328403D01*
X239561Y329000D01*
X239442Y329597D01*
X239104Y330104D01*
X238597Y330442D01*
X238000Y330561D01*
D02*
G37*
G36*
X6500Y329561D02*
X5903Y329442D01*
X5396Y329104D01*
X5058Y328597D01*
X4939Y328000D01*
X5058Y327403D01*
X5396Y326896D01*
X5903Y326558D01*
X6500Y326439D01*
X7097Y326558D01*
X7604Y326896D01*
X7942Y327403D01*
X8061Y328000D01*
X7942Y328597D01*
X7604Y329104D01*
X7097Y329442D01*
X6500Y329561D01*
D02*
G37*
G36*
X225000Y327561D02*
X224403Y327442D01*
X223896Y327104D01*
X223558Y326597D01*
X223439Y326000D01*
X223558Y325403D01*
X223896Y324896D01*
X224403Y324558D01*
X225000Y324439D01*
X225597Y324558D01*
X226104Y324896D01*
X226442Y325403D01*
X226561Y326000D01*
X226442Y326597D01*
X226104Y327104D01*
X225597Y327442D01*
X225000Y327561D01*
D02*
G37*
G36*
X228500Y321561D02*
X227903Y321442D01*
X227396Y321104D01*
X227058Y320597D01*
X226939Y320000D01*
X227058Y319403D01*
X227396Y318896D01*
X227903Y318558D01*
X228500Y318439D01*
X229097Y318558D01*
X229604Y318896D01*
X229942Y319403D01*
X230061Y320000D01*
X229942Y320597D01*
X229604Y321104D01*
X229097Y321442D01*
X228500Y321561D01*
D02*
G37*
G36*
X224000Y317561D02*
X223403Y317442D01*
X222896Y317104D01*
X222558Y316597D01*
X222439Y316000D01*
X222558Y315403D01*
X222896Y314896D01*
X223403Y314558D01*
X224000Y314439D01*
X224597Y314558D01*
X225104Y314896D01*
X225442Y315403D01*
X225561Y316000D01*
X225442Y316597D01*
X225104Y317104D01*
X224597Y317442D01*
X224000Y317561D01*
D02*
G37*
G36*
X197500Y314061D02*
X196903Y313942D01*
X196396Y313604D01*
X196058Y313097D01*
X195939Y312500D01*
X196058Y311903D01*
X196396Y311396D01*
X196903Y311058D01*
X197500Y310939D01*
X198097Y311058D01*
X198604Y311396D01*
X198942Y311903D01*
X199061Y312500D01*
X198942Y313097D01*
X198604Y313604D01*
X198097Y313942D01*
X197500Y314061D01*
D02*
G37*
G36*
X27000D02*
X26403Y313942D01*
X25896Y313604D01*
X25558Y313097D01*
X25439Y312500D01*
X25558Y311903D01*
X25753Y311610D01*
X25855Y311250D01*
X25753Y310890D01*
X25558Y310597D01*
X25439Y310000D01*
X25558Y309403D01*
X25896Y308896D01*
X26403Y308558D01*
X27000Y308439D01*
X27597Y308558D01*
X28104Y308896D01*
X28442Y309403D01*
X28561Y310000D01*
X28442Y310597D01*
X28247Y310890D01*
X28145Y311250D01*
X28247Y311610D01*
X28442Y311903D01*
X28561Y312500D01*
X28442Y313097D01*
X28104Y313604D01*
X27597Y313942D01*
X27000Y314061D01*
D02*
G37*
G36*
X6500Y309561D02*
X5903Y309442D01*
X5396Y309104D01*
X5058Y308597D01*
X4939Y308000D01*
X5058Y307403D01*
X5396Y306896D01*
X5903Y306558D01*
X6500Y306439D01*
X7097Y306558D01*
X7604Y306896D01*
X7942Y307403D01*
X8061Y308000D01*
X7942Y308597D01*
X7604Y309104D01*
X7097Y309442D01*
X6500Y309561D01*
D02*
G37*
G36*
X163000Y308561D02*
X162403Y308442D01*
X161896Y308104D01*
X161558Y307597D01*
X161439Y307000D01*
X161558Y306403D01*
X161896Y305896D01*
X162403Y305558D01*
X163000Y305439D01*
X163597Y305558D01*
X164104Y305896D01*
X164442Y306403D01*
X164561Y307000D01*
X164442Y307597D01*
X164104Y308104D01*
X163597Y308442D01*
X163000Y308561D01*
D02*
G37*
G36*
X144000D02*
X143403Y308442D01*
X142896Y308104D01*
X142558Y307597D01*
X142439Y307000D01*
X142558Y306403D01*
X142896Y305896D01*
X143403Y305558D01*
X144000Y305439D01*
X144597Y305558D01*
X145104Y305896D01*
X145442Y306403D01*
X145561Y307000D01*
X145442Y307597D01*
X145104Y308104D01*
X144597Y308442D01*
X144000Y308561D01*
D02*
G37*
G36*
X139500D02*
X138903Y308442D01*
X138396Y308104D01*
X138058Y307597D01*
X137939Y307000D01*
X138058Y306403D01*
X138396Y305896D01*
X138903Y305558D01*
X139500Y305439D01*
X140097Y305558D01*
X140604Y305896D01*
X140942Y306403D01*
X141061Y307000D01*
X140942Y307597D01*
X140604Y308104D01*
X140097Y308442D01*
X139500Y308561D01*
D02*
G37*
G36*
X258000Y306061D02*
X257403Y305942D01*
X256896Y305604D01*
X256558Y305097D01*
X256439Y304500D01*
X256558Y303903D01*
X256896Y303396D01*
X257403Y303058D01*
X258000Y302939D01*
X258597Y303058D01*
X259104Y303396D01*
X259442Y303903D01*
X259561Y304500D01*
X259442Y305097D01*
X259104Y305604D01*
X258597Y305942D01*
X258000Y306061D01*
D02*
G37*
G36*
X155815Y303301D02*
X155294Y303198D01*
X154853Y302903D01*
X154558Y302462D01*
X154455Y301941D01*
X154558Y301420D01*
X154853Y300979D01*
X155294Y300684D01*
X155815Y300581D01*
X156336Y300684D01*
X156777Y300979D01*
X157072Y301420D01*
X157175Y301941D01*
X157072Y302462D01*
X156777Y302903D01*
X156336Y303198D01*
X155815Y303301D01*
D02*
G37*
G36*
X151484D02*
X150964Y303198D01*
X150522Y302903D01*
X150227Y302462D01*
X150124Y301941D01*
X150227Y301420D01*
X150522Y300979D01*
X150964Y300684D01*
X151484Y300581D01*
X152005Y300684D01*
X152446Y300979D01*
X152741Y301420D01*
X152845Y301941D01*
X152741Y302462D01*
X152446Y302903D01*
X152005Y303198D01*
X151484Y303301D01*
D02*
G37*
G36*
X140000Y302561D02*
X139403Y302442D01*
X138896Y302104D01*
X138558Y301597D01*
X138439Y301000D01*
X138558Y300403D01*
X138896Y299896D01*
X139403Y299558D01*
X140000Y299439D01*
X140597Y299558D01*
X141104Y299896D01*
X141442Y300403D01*
X141561Y301000D01*
X141442Y301597D01*
X141104Y302104D01*
X140597Y302442D01*
X140000Y302561D01*
D02*
G37*
G36*
X403000Y302061D02*
X402403Y301942D01*
X401896Y301604D01*
X401558Y301097D01*
X401439Y300500D01*
X401558Y299903D01*
X401896Y299396D01*
X402403Y299058D01*
X403000Y298939D01*
X403597Y299058D01*
X404104Y299396D01*
X404442Y299903D01*
X404561Y300500D01*
X404442Y301097D01*
X404104Y301604D01*
X403597Y301942D01*
X403000Y302061D01*
D02*
G37*
G36*
X133000D02*
X132403Y301942D01*
X131896Y301604D01*
X131558Y301097D01*
X131439Y300500D01*
X131558Y299903D01*
X131896Y299396D01*
X132403Y299058D01*
X133000Y298939D01*
X133597Y299058D01*
X134104Y299396D01*
X134442Y299903D01*
X134561Y300500D01*
X134442Y301097D01*
X134104Y301604D01*
X133597Y301942D01*
X133000Y302061D01*
D02*
G37*
G36*
X260800Y300261D02*
X260203Y300142D01*
X259696Y299804D01*
X259358Y299297D01*
X259239Y298700D01*
X259358Y298103D01*
X259696Y297596D01*
X260203Y297258D01*
X260800Y297139D01*
X261397Y297258D01*
X261904Y297596D01*
X262242Y298103D01*
X262361Y298700D01*
X262242Y299297D01*
X261904Y299804D01*
X261397Y300142D01*
X260800Y300261D01*
D02*
G37*
G36*
X155815Y298971D02*
X155294Y298867D01*
X154853Y298572D01*
X154558Y298131D01*
X154455Y297610D01*
X154558Y297090D01*
X154853Y296648D01*
X155294Y296353D01*
X155815Y296250D01*
X156336Y296353D01*
X156777Y296648D01*
X157072Y297090D01*
X157175Y297610D01*
X157072Y298131D01*
X156777Y298572D01*
X156336Y298867D01*
X155815Y298971D01*
D02*
G37*
G36*
X151484D02*
X150964Y298867D01*
X150522Y298572D01*
X150227Y298131D01*
X150124Y297610D01*
X150227Y297090D01*
X150522Y296648D01*
X150964Y296353D01*
X151484Y296250D01*
X152005Y296353D01*
X152446Y296648D01*
X152741Y297090D01*
X152845Y297610D01*
X152741Y298131D01*
X152446Y298572D01*
X152005Y298867D01*
X151484Y298971D01*
D02*
G37*
G36*
X197500Y296061D02*
X196903Y295942D01*
X196396Y295604D01*
X196058Y295097D01*
X195939Y294500D01*
X196058Y293903D01*
X196396Y293396D01*
X196903Y293058D01*
X197500Y292939D01*
X198097Y293058D01*
X198604Y293396D01*
X198942Y293903D01*
X199061Y294500D01*
X198942Y295097D01*
X198604Y295604D01*
X198097Y295942D01*
X197500Y296061D01*
D02*
G37*
G36*
X155815Y294640D02*
X155294Y294536D01*
X154853Y294241D01*
X154558Y293800D01*
X154455Y293280D01*
X154558Y292759D01*
X154853Y292318D01*
X155294Y292023D01*
X155815Y291919D01*
X156336Y292023D01*
X156777Y292318D01*
X157072Y292759D01*
X157175Y293280D01*
X157072Y293800D01*
X156777Y294241D01*
X156336Y294536D01*
X155815Y294640D01*
D02*
G37*
G36*
X151484D02*
X150964Y294536D01*
X150522Y294241D01*
X150227Y293800D01*
X150124Y293280D01*
X150227Y292759D01*
X150522Y292318D01*
X150964Y292023D01*
X151484Y291919D01*
X152005Y292023D01*
X152446Y292318D01*
X152741Y292759D01*
X152845Y293280D01*
X152741Y293800D01*
X152446Y294241D01*
X152005Y294536D01*
X151484Y294640D01*
D02*
G37*
G36*
X176000Y293061D02*
X175403Y292942D01*
X174896Y292604D01*
X174558Y292097D01*
X174439Y291500D01*
X174558Y290903D01*
X174896Y290396D01*
X175403Y290058D01*
X176000Y289939D01*
X176597Y290058D01*
X177104Y290396D01*
X177442Y290903D01*
X177561Y291500D01*
X177442Y292097D01*
X177104Y292604D01*
X176597Y292942D01*
X176000Y293061D01*
D02*
G37*
G36*
X338500Y292561D02*
X337903Y292442D01*
X337396Y292104D01*
X337058Y291597D01*
X336939Y291000D01*
X337058Y290403D01*
X337396Y289896D01*
X337903Y289558D01*
X338500Y289439D01*
X339097Y289558D01*
X339604Y289896D01*
X339942Y290403D01*
X340061Y291000D01*
X339942Y291597D01*
X339604Y292104D01*
X339097Y292442D01*
X338500Y292561D01*
D02*
G37*
G36*
X293500Y291561D02*
X292903Y291442D01*
X292396Y291104D01*
X292058Y290597D01*
X291939Y290000D01*
X292058Y289403D01*
X292396Y288896D01*
X292903Y288558D01*
X293500Y288439D01*
X294097Y288558D01*
X294604Y288896D01*
X294942Y289403D01*
X295061Y290000D01*
X294942Y290597D01*
X294604Y291104D01*
X294097Y291442D01*
X293500Y291561D01*
D02*
G37*
G36*
X163000Y290061D02*
X162403Y289942D01*
X161896Y289604D01*
X161558Y289097D01*
X161439Y288500D01*
X161558Y287903D01*
X161896Y287396D01*
X162403Y287058D01*
X163000Y286939D01*
X163597Y287058D01*
X164104Y287396D01*
X164442Y287903D01*
X164561Y288500D01*
X164442Y289097D01*
X164104Y289604D01*
X163597Y289942D01*
X163000Y290061D01*
D02*
G37*
G36*
X6500Y289561D02*
X5903Y289442D01*
X5396Y289104D01*
X5058Y288597D01*
X4939Y288000D01*
X5058Y287403D01*
X5396Y286896D01*
X5903Y286558D01*
X6500Y286439D01*
X7097Y286558D01*
X7604Y286896D01*
X7942Y287403D01*
X8061Y288000D01*
X7942Y288597D01*
X7604Y289104D01*
X7097Y289442D01*
X6500Y289561D01*
D02*
G37*
G36*
X337500Y289061D02*
X336903Y288942D01*
X336396Y288604D01*
X336058Y288097D01*
X335939Y287500D01*
X336058Y286903D01*
X336396Y286396D01*
X336903Y286058D01*
X337500Y285939D01*
X338097Y286058D01*
X338604Y286396D01*
X338942Y286903D01*
X339061Y287500D01*
X338942Y288097D01*
X338604Y288604D01*
X338097Y288942D01*
X337500Y289061D01*
D02*
G37*
G36*
X261000Y286561D02*
X260403Y286442D01*
X259896Y286104D01*
X259558Y285597D01*
X259439Y285000D01*
X259558Y284403D01*
X259896Y283896D01*
X260403Y283558D01*
X261000Y283439D01*
X261597Y283558D01*
X262104Y283896D01*
X262442Y284403D01*
X262561Y285000D01*
X262442Y285597D01*
X262104Y286104D01*
X261597Y286442D01*
X261000Y286561D01*
D02*
G37*
G36*
X166500Y284061D02*
X165903Y283942D01*
X165396Y283604D01*
X165058Y283097D01*
X164939Y282500D01*
X165058Y281903D01*
X165396Y281396D01*
X165903Y281058D01*
X166500Y280939D01*
X167097Y281058D01*
X167604Y281396D01*
X167942Y281903D01*
X168061Y282500D01*
X167942Y283097D01*
X167604Y283604D01*
X167097Y283942D01*
X166500Y284061D01*
D02*
G37*
G36*
X338500Y282561D02*
X337903Y282442D01*
X337396Y282104D01*
X337058Y281597D01*
X336939Y281000D01*
X337058Y280403D01*
X337396Y279896D01*
X337903Y279558D01*
X338500Y279439D01*
X339097Y279558D01*
X339604Y279896D01*
X339942Y280403D01*
X340061Y281000D01*
X339942Y281597D01*
X339604Y282104D01*
X339097Y282442D01*
X338500Y282561D01*
D02*
G37*
G36*
X203000D02*
X202403Y282442D01*
X201896Y282104D01*
X201558Y281597D01*
X201439Y281000D01*
X201558Y280403D01*
X201896Y279896D01*
X202403Y279558D01*
X203000Y279439D01*
X203597Y279558D01*
X204104Y279896D01*
X204442Y280403D01*
X204561Y281000D01*
X204442Y281597D01*
X204104Y282104D01*
X203597Y282442D01*
X203000Y282561D01*
D02*
G37*
G36*
X293209Y281561D02*
X292611Y281442D01*
X292105Y281104D01*
X291766Y280597D01*
X291648Y280000D01*
X291766Y279403D01*
X292105Y278896D01*
X292611Y278558D01*
X293209Y278439D01*
X293806Y278558D01*
X294313Y278896D01*
X294651Y279403D01*
X294770Y280000D01*
X294651Y280597D01*
X294313Y281104D01*
X293806Y281442D01*
X293209Y281561D01*
D02*
G37*
G36*
X421000Y280561D02*
X420403Y280442D01*
X419896Y280104D01*
X419558Y279597D01*
X419439Y279000D01*
X419558Y278403D01*
X419896Y277896D01*
X420403Y277558D01*
X421000Y277439D01*
X421597Y277558D01*
X422104Y277896D01*
X422442Y278403D01*
X422561Y279000D01*
X422442Y279597D01*
X422104Y280104D01*
X421597Y280442D01*
X421000Y280561D01*
D02*
G37*
G36*
X226500D02*
X225903Y280442D01*
X225396Y280104D01*
X225058Y279597D01*
X224939Y279000D01*
X225058Y278403D01*
X225396Y277896D01*
X225903Y277558D01*
X226500Y277439D01*
X227097Y277558D01*
X227604Y277896D01*
X227942Y278403D01*
X228061Y279000D01*
X227942Y279597D01*
X227604Y280104D01*
X227097Y280442D01*
X226500Y280561D01*
D02*
G37*
G36*
X207500Y280061D02*
X206903Y279942D01*
X206396Y279604D01*
X206058Y279097D01*
X205939Y278500D01*
X206058Y277903D01*
X206396Y277396D01*
X206903Y277058D01*
X207500Y276939D01*
X208097Y277058D01*
X208604Y277396D01*
X208942Y277903D01*
X209061Y278500D01*
X208942Y279097D01*
X208604Y279604D01*
X208097Y279942D01*
X207500Y280061D01*
D02*
G37*
G36*
X162000D02*
X161403Y279942D01*
X160896Y279604D01*
X160558Y279097D01*
X160439Y278500D01*
X160558Y277903D01*
X160896Y277396D01*
X161403Y277058D01*
X162000Y276939D01*
X162597Y277058D01*
X163104Y277396D01*
X163442Y277903D01*
X163561Y278500D01*
X163442Y279097D01*
X163104Y279604D01*
X162597Y279942D01*
X162000Y280061D01*
D02*
G37*
G36*
X337500Y279061D02*
X336903Y278942D01*
X336396Y278604D01*
X336058Y278097D01*
X335939Y277500D01*
X336058Y276903D01*
X336396Y276396D01*
X336903Y276058D01*
X337500Y275939D01*
X338097Y276058D01*
X338604Y276396D01*
X338942Y276903D01*
X339061Y277500D01*
X338942Y278097D01*
X338604Y278604D01*
X338097Y278942D01*
X337500Y279061D01*
D02*
G37*
G36*
X273500Y277561D02*
X272903Y277442D01*
X272396Y277104D01*
X272058Y276597D01*
X271939Y276000D01*
X272058Y275403D01*
X272396Y274896D01*
X272903Y274558D01*
X273500Y274439D01*
X274097Y274558D01*
X274604Y274896D01*
X274942Y275403D01*
X275061Y276000D01*
X274942Y276597D01*
X274604Y277104D01*
X274097Y277442D01*
X273500Y277561D01*
D02*
G37*
G36*
X403000Y276561D02*
X402403Y276442D01*
X401896Y276104D01*
X401558Y275597D01*
X401439Y275000D01*
X401558Y274403D01*
X401896Y273896D01*
X402403Y273558D01*
X403000Y273439D01*
X403597Y273558D01*
X404104Y273896D01*
X404442Y274403D01*
X404561Y275000D01*
X404442Y275597D01*
X404104Y276104D01*
X403597Y276442D01*
X403000Y276561D01*
D02*
G37*
G36*
X219315Y275321D02*
X218794Y275218D01*
X218353Y274923D01*
X218058Y274481D01*
X217955Y273961D01*
X218058Y273440D01*
X218353Y272999D01*
X218794Y272704D01*
X219315Y272600D01*
X219836Y272704D01*
X220277Y272999D01*
X220572Y273440D01*
X220675Y273961D01*
X220572Y274481D01*
X220277Y274923D01*
X219836Y275218D01*
X219315Y275321D01*
D02*
G37*
G36*
X214984D02*
X214464Y275218D01*
X214022Y274923D01*
X213727Y274481D01*
X213624Y273961D01*
X213727Y273440D01*
X214022Y272999D01*
X214464Y272704D01*
X214984Y272600D01*
X215505Y272704D01*
X215946Y272999D01*
X216241Y273440D01*
X216345Y273961D01*
X216241Y274481D01*
X215946Y274923D01*
X215505Y275218D01*
X214984Y275321D01*
D02*
G37*
G36*
X203500Y274561D02*
X202903Y274442D01*
X202396Y274104D01*
X202058Y273597D01*
X201939Y273000D01*
X202058Y272403D01*
X202396Y271896D01*
X202903Y271558D01*
X203500Y271439D01*
X204097Y271558D01*
X204604Y271896D01*
X204942Y272403D01*
X205061Y273000D01*
X204942Y273597D01*
X204604Y274104D01*
X204097Y274442D01*
X203500Y274561D01*
D02*
G37*
G36*
X196000Y274061D02*
X195403Y273942D01*
X194896Y273604D01*
X194558Y273097D01*
X194439Y272500D01*
X194558Y271903D01*
X194896Y271396D01*
X195403Y271058D01*
X196000Y270939D01*
X196597Y271058D01*
X197104Y271396D01*
X197442Y271903D01*
X197561Y272500D01*
X197442Y273097D01*
X197104Y273604D01*
X196597Y273942D01*
X196000Y274061D01*
D02*
G37*
G36*
X15000Y270561D02*
X14403Y270442D01*
X13896Y270104D01*
X13604D01*
X13097Y270442D01*
X12500Y270561D01*
X11903Y270442D01*
X11396Y270104D01*
X11058Y269597D01*
X10939Y269000D01*
X11058Y268403D01*
X11396Y267896D01*
X11903Y267558D01*
X12500Y267439D01*
X13097Y267558D01*
X13604Y267896D01*
X13896D01*
X14403Y267558D01*
X15000Y267439D01*
X15597Y267558D01*
X16104Y267896D01*
X16442Y268403D01*
X16561Y269000D01*
X16442Y269597D01*
X16104Y270104D01*
X15597Y270442D01*
X15000Y270561D01*
D02*
G37*
G36*
X338500Y272561D02*
X337903Y272442D01*
X337396Y272104D01*
X337058Y271597D01*
X336939Y271000D01*
X337058Y270403D01*
X337396Y269896D01*
X337903Y269558D01*
X338500Y269439D01*
X339097Y269558D01*
X339604Y269896D01*
X339942Y270403D01*
X340061Y271000D01*
X339942Y271597D01*
X339604Y272104D01*
X339097Y272442D01*
X338500Y272561D01*
D02*
G37*
G36*
X276900Y271661D02*
X276303Y271542D01*
X275796Y271204D01*
X275458Y270697D01*
X275339Y270100D01*
X275458Y269503D01*
X275796Y268996D01*
X276303Y268658D01*
X276900Y268539D01*
X277497Y268658D01*
X278004Y268996D01*
X278342Y269503D01*
X278461Y270100D01*
X278342Y270697D01*
X278004Y271204D01*
X277497Y271542D01*
X276900Y271661D01*
D02*
G37*
G36*
X219315Y270990D02*
X218794Y270887D01*
X218353Y270592D01*
X218058Y270150D01*
X217955Y269630D01*
X218058Y269109D01*
X218353Y268668D01*
X218794Y268373D01*
X219315Y268269D01*
X219836Y268373D01*
X220277Y268668D01*
X220572Y269109D01*
X220675Y269630D01*
X220572Y270150D01*
X220277Y270592D01*
X219836Y270887D01*
X219315Y270990D01*
D02*
G37*
G36*
X214984D02*
X214464Y270887D01*
X214022Y270592D01*
X213727Y270150D01*
X213624Y269630D01*
X213727Y269109D01*
X214022Y268668D01*
X214464Y268373D01*
X214984Y268269D01*
X215505Y268373D01*
X215946Y268668D01*
X216241Y269109D01*
X216345Y269630D01*
X216241Y270150D01*
X215946Y270592D01*
X215505Y270887D01*
X214984Y270990D01*
D02*
G37*
G36*
X293209Y271352D02*
X292611Y271234D01*
X292105Y270895D01*
X291766Y270389D01*
X291648Y269791D01*
X291766Y269194D01*
X292105Y268688D01*
X292611Y268349D01*
X293209Y268230D01*
X293806Y268349D01*
X294313Y268688D01*
X294651Y269194D01*
X294770Y269791D01*
X294651Y270389D01*
X294313Y270895D01*
X293806Y271234D01*
X293209Y271352D01*
D02*
G37*
G36*
X337500Y269061D02*
X336903Y268942D01*
X336396Y268604D01*
X336058Y268097D01*
X335939Y267500D01*
X336058Y266903D01*
X336396Y266396D01*
X336903Y266058D01*
X337500Y265939D01*
X338097Y266058D01*
X338604Y266396D01*
X338942Y266903D01*
X339061Y267500D01*
X338942Y268097D01*
X338604Y268604D01*
X338097Y268942D01*
X337500Y269061D01*
D02*
G37*
G36*
X261000Y268061D02*
X260403Y267942D01*
X259896Y267604D01*
X259558Y267097D01*
X259439Y266500D01*
X259558Y265903D01*
X259896Y265396D01*
X260403Y265058D01*
X261000Y264939D01*
X261597Y265058D01*
X262104Y265396D01*
X262442Y265903D01*
X262561Y266500D01*
X262442Y267097D01*
X262104Y267604D01*
X261597Y267942D01*
X261000Y268061D01*
D02*
G37*
G36*
X219315Y266660D02*
X218794Y266556D01*
X218353Y266261D01*
X218058Y265820D01*
X217955Y265299D01*
X218058Y264779D01*
X218353Y264337D01*
X218794Y264042D01*
X219315Y263939D01*
X219836Y264042D01*
X220277Y264337D01*
X220572Y264779D01*
X220675Y265299D01*
X220572Y265820D01*
X220277Y266261D01*
X219836Y266556D01*
X219315Y266660D01*
D02*
G37*
G36*
X214984D02*
X214464Y266556D01*
X214022Y266261D01*
X213727Y265820D01*
X213624Y265299D01*
X213727Y264779D01*
X214022Y264337D01*
X214464Y264042D01*
X214984Y263939D01*
X215505Y264042D01*
X215946Y264337D01*
X216241Y264779D01*
X216345Y265299D01*
X216241Y265820D01*
X215946Y266261D01*
X215505Y266556D01*
X214984Y266660D01*
D02*
G37*
G36*
X239500Y265061D02*
X238903Y264942D01*
X238396Y264604D01*
X238058Y264097D01*
X237939Y263500D01*
X238058Y262903D01*
X238396Y262396D01*
X238903Y262058D01*
X239500Y261939D01*
X240097Y262058D01*
X240604Y262396D01*
X240942Y262903D01*
X241061Y263500D01*
X240942Y264097D01*
X240604Y264604D01*
X240097Y264942D01*
X239500Y265061D01*
D02*
G37*
G36*
X338500Y262561D02*
X337903Y262442D01*
X337396Y262104D01*
X337058Y261597D01*
X336939Y261000D01*
X337058Y260403D01*
X337396Y259896D01*
X337903Y259558D01*
X338500Y259439D01*
X339097Y259558D01*
X339604Y259896D01*
X339942Y260403D01*
X340061Y261000D01*
X339942Y261597D01*
X339604Y262104D01*
X339097Y262442D01*
X338500Y262561D01*
D02*
G37*
G36*
X226500Y262061D02*
X225903Y261942D01*
X225396Y261604D01*
X225058Y261097D01*
X224939Y260500D01*
X225058Y259903D01*
X225396Y259396D01*
X225903Y259058D01*
X226500Y258939D01*
X227097Y259058D01*
X227604Y259396D01*
X227942Y259903D01*
X228061Y260500D01*
X227942Y261097D01*
X227604Y261604D01*
X227097Y261942D01*
X226500Y262061D01*
D02*
G37*
G36*
X293209Y261561D02*
X292611Y261442D01*
X292105Y261104D01*
X291766Y260597D01*
X291648Y260000D01*
X291766Y259403D01*
X292105Y258896D01*
X292611Y258558D01*
X293209Y258439D01*
X293806Y258558D01*
X294313Y258896D01*
X294651Y259403D01*
X294770Y260000D01*
X294651Y260597D01*
X294313Y261104D01*
X293806Y261442D01*
X293209Y261561D01*
D02*
G37*
G36*
X337500Y259061D02*
X336903Y258942D01*
X336396Y258604D01*
X336058Y258097D01*
X335939Y257500D01*
X336058Y256903D01*
X336396Y256396D01*
X336903Y256058D01*
X337500Y255939D01*
X338097Y256058D01*
X338604Y256396D01*
X338942Y256903D01*
X339061Y257500D01*
X338942Y258097D01*
X338604Y258604D01*
X338097Y258942D01*
X337500Y259061D01*
D02*
G37*
G36*
X533000Y265118D02*
X531675Y264944D01*
X530441Y264433D01*
X529381Y263619D01*
X528568Y262559D01*
X528056Y261325D01*
X527882Y260000D01*
X528056Y258675D01*
X528568Y257441D01*
X529381Y256381D01*
X530441Y255568D01*
X531675Y255056D01*
X533000Y254882D01*
X534325Y255056D01*
X535559Y255568D01*
X536619Y256381D01*
X537432Y257441D01*
X537944Y258675D01*
X538118Y260000D01*
X537944Y261325D01*
X537432Y262559D01*
X536619Y263619D01*
X535559Y264433D01*
X534325Y264944D01*
X533000Y265118D01*
D02*
G37*
G36*
X230000Y256061D02*
X229403Y255942D01*
X228896Y255604D01*
X228558Y255097D01*
X228439Y254500D01*
X228558Y253903D01*
X228896Y253396D01*
X229403Y253058D01*
X230000Y252939D01*
X230597Y253058D01*
X231104Y253396D01*
X231442Y253903D01*
X231561Y254500D01*
X231442Y255097D01*
X231104Y255604D01*
X230597Y255942D01*
X230000Y256061D01*
D02*
G37*
G36*
X-42000Y262361D02*
X-42597Y262242D01*
X-43104Y261904D01*
X-43442Y261397D01*
X-43561Y260800D01*
X-43442Y260203D01*
X-43104Y259696D01*
X-42702Y259428D01*
X-42661Y259239D01*
Y259061D01*
X-42702Y258872D01*
X-43104Y258604D01*
X-43442Y258097D01*
X-43561Y257500D01*
X-43442Y256903D01*
X-43104Y256396D01*
X-42867Y256238D01*
X-42844Y256075D01*
X-42911Y255666D01*
X-43304Y255404D01*
X-43642Y254897D01*
X-43761Y254300D01*
X-43642Y253703D01*
X-43304Y253196D01*
X-42797Y252858D01*
X-42200Y252739D01*
X-41603Y252858D01*
X-41096Y253196D01*
X-40758Y253703D01*
X-40639Y254300D01*
X-40758Y254897D01*
X-41096Y255404D01*
X-41333Y255562D01*
X-41356Y255725D01*
X-41289Y256134D01*
X-40896Y256396D01*
X-40558Y256903D01*
X-40439Y257500D01*
X-40558Y258097D01*
X-40896Y258604D01*
X-41298Y258872D01*
X-41339Y259061D01*
Y259239D01*
X-41298Y259428D01*
X-40896Y259696D01*
X-40558Y260203D01*
X-40439Y260800D01*
X-40558Y261397D01*
X-40896Y261904D01*
X-41403Y262242D01*
X-42000Y262361D01*
D02*
G37*
G36*
X421000Y255061D02*
X420403Y254942D01*
X419896Y254604D01*
X419558Y254097D01*
X419439Y253500D01*
X419558Y252903D01*
X419896Y252396D01*
X420403Y252058D01*
X421000Y251939D01*
X421597Y252058D01*
X422104Y252396D01*
X422442Y252903D01*
X422561Y253500D01*
X422442Y254097D01*
X422104Y254604D01*
X421597Y254942D01*
X421000Y255061D01*
D02*
G37*
G36*
X332000Y290500D02*
X300000D01*
Y251395D01*
X299868Y251298D01*
X299500Y251173D01*
X299097Y251442D01*
X298500Y251561D01*
X297903Y251442D01*
X297396Y251104D01*
X297058Y250597D01*
X296939Y250000D01*
X297058Y249403D01*
X297396Y248896D01*
X297903Y248558D01*
X298500Y248439D01*
X299097Y248558D01*
X299500Y248827D01*
X299868Y248702D01*
X300000Y248605D01*
Y248500D01*
X332000D01*
Y290500D01*
D02*
G37*
G36*
X-18000Y256342D02*
X-18597Y256223D01*
X-19104Y255885D01*
X-19442Y255379D01*
X-19561Y254781D01*
X-19442Y254184D01*
X-19104Y253677D01*
X-18988Y253600D01*
Y253100D01*
X-19104Y253023D01*
X-19442Y252516D01*
X-19561Y251919D01*
X-19442Y251322D01*
X-19104Y250815D01*
X-18597Y250477D01*
X-18000Y250358D01*
X-17403Y250477D01*
X-16896Y250815D01*
X-16558Y251322D01*
X-16439Y251919D01*
X-16558Y252516D01*
X-16896Y253023D01*
X-17012Y253100D01*
Y253600D01*
X-16896Y253677D01*
X-16558Y254184D01*
X-16439Y254781D01*
X-16558Y255379D01*
X-16896Y255885D01*
X-17403Y256223D01*
X-18000Y256342D01*
D02*
G37*
G36*
X225500Y252061D02*
X224903Y251942D01*
X224396Y251604D01*
X224058Y251097D01*
X223939Y250500D01*
X224058Y249903D01*
X224396Y249396D01*
X224903Y249058D01*
X225500Y248939D01*
X226097Y249058D01*
X226604Y249396D01*
X226942Y249903D01*
X227061Y250500D01*
X226942Y251097D01*
X226604Y251604D01*
X226097Y251942D01*
X225500Y252061D01*
D02*
G37*
G36*
X403000Y251061D02*
X402403Y250942D01*
X401896Y250604D01*
X401558Y250097D01*
X401439Y249500D01*
X401558Y248903D01*
X401896Y248396D01*
X402403Y248058D01*
X403000Y247939D01*
X403597Y248058D01*
X404104Y248396D01*
X404442Y248903D01*
X404561Y249500D01*
X404442Y250097D01*
X404104Y250604D01*
X403597Y250942D01*
X403000Y251061D01*
D02*
G37*
G36*
X-42200Y249461D02*
X-42797Y249342D01*
X-43304Y249004D01*
X-43642Y248497D01*
X-43761Y247900D01*
X-43642Y247303D01*
X-43304Y246796D01*
X-42797Y246458D01*
X-42200Y246339D01*
X-41603Y246458D01*
X-41096Y246796D01*
X-40758Y247303D01*
X-40639Y247900D01*
X-40758Y248497D01*
X-41096Y249004D01*
X-41603Y249342D01*
X-42200Y249461D01*
D02*
G37*
G36*
X546500Y259780D02*
X545177Y259650D01*
X543905Y259264D01*
X542733Y258638D01*
X541706Y257794D01*
X540862Y256767D01*
X540236Y255595D01*
X539850Y254323D01*
X539720Y253000D01*
X539850Y251677D01*
X540236Y250405D01*
X540862Y249233D01*
X541706Y248206D01*
X542733Y247362D01*
X543905Y246736D01*
X545177Y246350D01*
X546500Y246220D01*
X547823Y246350D01*
X549095Y246736D01*
X550267Y247362D01*
X551294Y248206D01*
X552138Y249233D01*
X552764Y250405D01*
X553150Y251677D01*
X553280Y253000D01*
X553150Y254323D01*
X552764Y255595D01*
X552138Y256767D01*
X551294Y257794D01*
X550267Y258638D01*
X549095Y259264D01*
X547823Y259650D01*
X546500Y259780D01*
D02*
G37*
G36*
X529500Y246561D02*
X528903Y246442D01*
X528396Y246104D01*
X528058Y245597D01*
X527939Y245000D01*
X528058Y244403D01*
X528396Y243896D01*
X528903Y243558D01*
X529500Y243439D01*
X530097Y243558D01*
X530604Y243896D01*
X530942Y244403D01*
X531061Y245000D01*
X530942Y245597D01*
X530604Y246104D01*
X530097Y246442D01*
X529500Y246561D01*
D02*
G37*
G36*
X523000Y243561D02*
X522403Y243442D01*
X521896Y243104D01*
X521558Y242597D01*
X521505Y242332D01*
X520995D01*
X520942Y242597D01*
X520604Y243104D01*
X520097Y243442D01*
X519500Y243561D01*
X518903Y243442D01*
X518396Y243104D01*
X518058Y242597D01*
X517939Y242000D01*
X518058Y241403D01*
X518396Y240896D01*
X518903Y240558D01*
X519500Y240439D01*
X520097Y240558D01*
X520604Y240896D01*
X520942Y241403D01*
X520995Y241668D01*
X521505D01*
X521558Y241403D01*
X521896Y240896D01*
X522133Y240738D01*
Y228500D01*
X522199Y228168D01*
X522387Y227887D01*
X526764Y223511D01*
X526474Y222811D01*
X526367Y222000D01*
X526474Y221189D01*
X526787Y220434D01*
X527285Y219785D01*
X527934Y219287D01*
X528689Y218974D01*
X529500Y218867D01*
X530311Y218974D01*
X531066Y219287D01*
X531715Y219785D01*
X532213Y220434D01*
X532526Y221189D01*
X532633Y222000D01*
X532526Y222811D01*
X532213Y223566D01*
X531715Y224215D01*
X531066Y224713D01*
X530311Y225026D01*
X529500Y225133D01*
X528689Y225026D01*
X527989Y224736D01*
X523867Y228859D01*
Y240738D01*
X524104Y240896D01*
X524442Y241403D01*
X524561Y242000D01*
X524442Y242597D01*
X524104Y243104D01*
X523597Y243442D01*
X523000Y243561D01*
D02*
G37*
G36*
X198500Y245061D02*
X197903Y244942D01*
X197396Y244604D01*
X197058Y244097D01*
X196939Y243500D01*
X197058Y242903D01*
X197396Y242396D01*
X197903Y242058D01*
X198500Y241939D01*
X199097Y242058D01*
X199604Y242396D01*
X199942Y242903D01*
X200061Y243500D01*
X199942Y244097D01*
X199604Y244604D01*
X199097Y244942D01*
X198500Y245061D01*
D02*
G37*
G36*
X10500Y246642D02*
X9903Y246523D01*
X9396Y246185D01*
X9058Y245678D01*
X8939Y245081D01*
X9058Y244484D01*
X9396Y243977D01*
X9512Y243900D01*
Y243400D01*
X9396Y243323D01*
X9058Y242816D01*
X8939Y242219D01*
X9058Y241621D01*
X9396Y241115D01*
X9903Y240777D01*
X10500Y240658D01*
X11097Y240777D01*
X11604Y241115D01*
X11942Y241621D01*
X12061Y242219D01*
X11942Y242816D01*
X11604Y243323D01*
X11488Y243400D01*
Y243900D01*
X11604Y243977D01*
X11942Y244484D01*
X12061Y245081D01*
X11942Y245678D01*
X11604Y246185D01*
X11097Y246523D01*
X10500Y246642D01*
D02*
G37*
G36*
X-42200Y243261D02*
X-42797Y243142D01*
X-43304Y242804D01*
X-43642Y242297D01*
X-43761Y241700D01*
X-43642Y241103D01*
X-43304Y240596D01*
X-42797Y240258D01*
X-42200Y240139D01*
X-41603Y240258D01*
X-41096Y240596D01*
X-40758Y241103D01*
X-40639Y241700D01*
X-40758Y242297D01*
X-41096Y242804D01*
X-41603Y243142D01*
X-42200Y243261D01*
D02*
G37*
G36*
X539606Y245106D02*
X533394D01*
Y238894D01*
X539606D01*
Y245106D01*
D02*
G37*
G36*
X236500Y240061D02*
X235903Y239942D01*
X235396Y239604D01*
X235058Y239097D01*
X234939Y238500D01*
X235058Y237903D01*
X235396Y237396D01*
X235903Y237058D01*
X236500Y236939D01*
X237097Y237058D01*
X237604Y237396D01*
X237942Y237903D01*
X238061Y238500D01*
X237942Y239097D01*
X237604Y239604D01*
X237097Y239942D01*
X236500Y240061D01*
D02*
G37*
G36*
X164000Y239561D02*
X163403Y239442D01*
X162896Y239104D01*
X162558Y238597D01*
X162439Y238000D01*
X162558Y237403D01*
X162896Y236896D01*
X163403Y236558D01*
X164000Y236439D01*
X164597Y236558D01*
X165104Y236896D01*
X165442Y237403D01*
X165561Y238000D01*
X165442Y238597D01*
X165104Y239104D01*
X164597Y239442D01*
X164000Y239561D01*
D02*
G37*
G36*
X145500D02*
X144903Y239442D01*
X144396Y239104D01*
X144058Y238597D01*
X143939Y238000D01*
X144058Y237403D01*
X144396Y236896D01*
X144903Y236558D01*
X145500Y236439D01*
X146097Y236558D01*
X146604Y236896D01*
X146942Y237403D01*
X147061Y238000D01*
X146942Y238597D01*
X146604Y239104D01*
X146097Y239442D01*
X145500Y239561D01*
D02*
G37*
G36*
X140500D02*
X139903Y239442D01*
X139396Y239104D01*
X139058Y238597D01*
X138939Y238000D01*
X139058Y237403D01*
X139396Y236896D01*
X139903Y236558D01*
X140500Y236439D01*
X141097Y236558D01*
X141604Y236896D01*
X141942Y237403D01*
X142061Y238000D01*
X141942Y238597D01*
X141604Y239104D01*
X141097Y239442D01*
X140500Y239561D01*
D02*
G37*
G36*
X529500Y241133D02*
X528689Y241026D01*
X527934Y240713D01*
X527285Y240215D01*
X526787Y239566D01*
X526474Y238811D01*
X526367Y238000D01*
X526474Y237189D01*
X526787Y236434D01*
X527285Y235785D01*
X527934Y235287D01*
X528689Y234974D01*
X529500Y234867D01*
X530311Y234974D01*
X531066Y235287D01*
X531715Y235785D01*
X532213Y236434D01*
X532526Y237189D01*
X532633Y238000D01*
X532526Y238811D01*
X532213Y239566D01*
X531715Y240215D01*
X531066Y240713D01*
X530311Y241026D01*
X529500Y241133D01*
D02*
G37*
G36*
X16500Y239142D02*
X15903Y239023D01*
X15396Y238685D01*
X15058Y238178D01*
X14939Y237581D01*
X15058Y236984D01*
X15396Y236477D01*
X15512Y236400D01*
Y235900D01*
X15396Y235823D01*
X15058Y235316D01*
X14939Y234719D01*
X15058Y234121D01*
X15396Y233615D01*
X15903Y233277D01*
X16500Y233158D01*
X17097Y233277D01*
X17604Y233615D01*
X17942Y234121D01*
X18061Y234719D01*
X17942Y235316D01*
X17604Y235823D01*
X17488Y235900D01*
Y236400D01*
X17604Y236477D01*
X17942Y236984D01*
X18061Y237581D01*
X17942Y238178D01*
X17604Y238685D01*
X17097Y239023D01*
X16500Y239142D01*
D02*
G37*
G36*
X231000Y235061D02*
X230403Y234942D01*
X229896Y234604D01*
X229558Y234097D01*
X229439Y233500D01*
X229558Y232903D01*
X229896Y232396D01*
X230403Y232058D01*
X231000Y231939D01*
X231597Y232058D01*
X232104Y232396D01*
X232442Y232903D01*
X232561Y233500D01*
X232442Y234097D01*
X232104Y234604D01*
X231597Y234942D01*
X231000Y235061D01*
D02*
G37*
G36*
X156815Y234301D02*
X156294Y234198D01*
X155853Y233903D01*
X155558Y233461D01*
X155455Y232941D01*
X155558Y232420D01*
X155853Y231979D01*
X156294Y231684D01*
X156815Y231580D01*
X157336Y231684D01*
X157777Y231979D01*
X158072Y232420D01*
X158175Y232941D01*
X158072Y233461D01*
X157777Y233903D01*
X157336Y234198D01*
X156815Y234301D01*
D02*
G37*
G36*
X152484D02*
X151964Y234198D01*
X151522Y233903D01*
X151227Y233461D01*
X151124Y232941D01*
X151227Y232420D01*
X151522Y231979D01*
X151964Y231684D01*
X152484Y231580D01*
X153005Y231684D01*
X153446Y231979D01*
X153741Y232420D01*
X153845Y232941D01*
X153741Y233461D01*
X153446Y233903D01*
X153005Y234198D01*
X152484Y234301D01*
D02*
G37*
G36*
X536500Y237133D02*
X535689Y237026D01*
X534934Y236713D01*
X534285Y236215D01*
X533787Y235566D01*
X533474Y234811D01*
X533367Y234000D01*
X533474Y233189D01*
X533787Y232434D01*
X534285Y231785D01*
X534934Y231287D01*
X535689Y230974D01*
X536500Y230867D01*
X537311Y230974D01*
X538066Y231287D01*
X538715Y231785D01*
X539213Y232434D01*
X539526Y233189D01*
X539633Y234000D01*
X539526Y234811D01*
X539213Y235566D01*
X538715Y236215D01*
X538066Y236713D01*
X537311Y237026D01*
X536500Y237133D01*
D02*
G37*
G36*
X-42200Y233761D02*
X-42797Y233642D01*
X-43304Y233304D01*
X-43642Y232797D01*
X-43761Y232200D01*
X-43642Y231603D01*
X-43304Y231096D01*
X-42797Y230758D01*
X-42200Y230639D01*
X-41603Y230758D01*
X-41096Y231096D01*
X-40758Y231603D01*
X-40639Y232200D01*
X-40758Y232797D01*
X-41096Y233304D01*
X-41603Y233642D01*
X-42200Y233761D01*
D02*
G37*
G36*
X141000Y233561D02*
X140403Y233442D01*
X139896Y233104D01*
X139558Y232597D01*
X139439Y232000D01*
X139558Y231403D01*
X139896Y230896D01*
X140403Y230558D01*
X141000Y230439D01*
X141597Y230558D01*
X142104Y230896D01*
X142442Y231403D01*
X142561Y232000D01*
X142442Y232597D01*
X142104Y233104D01*
X141597Y233442D01*
X141000Y233561D01*
D02*
G37*
G36*
X156815Y229971D02*
X156294Y229867D01*
X155853Y229572D01*
X155558Y229131D01*
X155455Y228610D01*
X155558Y228090D01*
X155853Y227648D01*
X156294Y227353D01*
X156815Y227250D01*
X157336Y227353D01*
X157777Y227648D01*
X158072Y228090D01*
X158175Y228610D01*
X158072Y229131D01*
X157777Y229572D01*
X157336Y229867D01*
X156815Y229971D01*
D02*
G37*
G36*
X152484D02*
X151964Y229867D01*
X151522Y229572D01*
X151227Y229131D01*
X151124Y228610D01*
X151227Y228090D01*
X151522Y227648D01*
X151964Y227353D01*
X152484Y227250D01*
X153005Y227353D01*
X153446Y227648D01*
X153741Y228090D01*
X153845Y228610D01*
X153741Y229131D01*
X153446Y229572D01*
X153005Y229867D01*
X152484Y229971D01*
D02*
G37*
G36*
X30500Y229061D02*
X29903Y228942D01*
X29396Y228604D01*
X29058Y228097D01*
X28939Y227500D01*
X28966Y227364D01*
X28613Y227010D01*
X28476Y227037D01*
X27879Y226918D01*
X27372Y226580D01*
X27034Y226074D01*
X26915Y225476D01*
X27034Y224879D01*
X27372Y224372D01*
X27879Y224034D01*
X28476Y223915D01*
X29074Y224034D01*
X29580Y224372D01*
X29918Y224879D01*
X30037Y225476D01*
X30010Y225612D01*
X30364Y225966D01*
X30500Y225939D01*
X31097Y226058D01*
X31604Y226396D01*
X31942Y226903D01*
X32061Y227500D01*
X31942Y228097D01*
X31604Y228604D01*
X31097Y228942D01*
X30500Y229061D01*
D02*
G37*
G36*
X529500Y233133D02*
X528689Y233026D01*
X527934Y232713D01*
X527285Y232215D01*
X526787Y231566D01*
X526474Y230811D01*
X526367Y230000D01*
X526474Y229189D01*
X526787Y228434D01*
X527285Y227785D01*
X527934Y227287D01*
X528689Y226974D01*
X529500Y226867D01*
X530311Y226974D01*
X531066Y227287D01*
X531715Y227785D01*
X532213Y228434D01*
X532526Y229189D01*
X532633Y230000D01*
X532526Y230811D01*
X532213Y231566D01*
X531715Y232215D01*
X531066Y232713D01*
X530311Y233026D01*
X529500Y233133D01*
D02*
G37*
G36*
X421000Y229561D02*
X420403Y229442D01*
X419896Y229104D01*
X419558Y228597D01*
X419439Y228000D01*
X419558Y227403D01*
X419896Y226896D01*
X420403Y226558D01*
X421000Y226439D01*
X421597Y226558D01*
X422104Y226896D01*
X422442Y227403D01*
X422561Y228000D01*
X422442Y228597D01*
X422104Y229104D01*
X421597Y229442D01*
X421000Y229561D01*
D02*
G37*
G36*
X22000Y231061D02*
X21403Y230942D01*
X20896Y230604D01*
X20558Y230097D01*
X20439Y229500D01*
X20558Y228903D01*
X20896Y228396D01*
X21012Y228319D01*
Y227819D01*
X20896Y227742D01*
X20558Y227235D01*
X20439Y226638D01*
X20558Y226040D01*
X20896Y225534D01*
X21403Y225196D01*
X22000Y225077D01*
X22597Y225196D01*
X23104Y225534D01*
X23442Y226040D01*
X23561Y226638D01*
X23442Y227235D01*
X23104Y227742D01*
X22988Y227819D01*
Y228319D01*
X23104Y228396D01*
X23442Y228903D01*
X23561Y229500D01*
X23442Y230097D01*
X23104Y230604D01*
X22597Y230942D01*
X22000Y231061D01*
D02*
G37*
G36*
X198500Y227561D02*
X197903Y227442D01*
X197396Y227104D01*
X197058Y226597D01*
X196939Y226000D01*
X197058Y225403D01*
X197396Y224896D01*
X197903Y224558D01*
X198500Y224439D01*
X199097Y224558D01*
X199604Y224896D01*
X199942Y225403D01*
X200061Y226000D01*
X199942Y226597D01*
X199604Y227104D01*
X199097Y227442D01*
X198500Y227561D01*
D02*
G37*
G36*
X156815Y225640D02*
X156294Y225536D01*
X155853Y225241D01*
X155558Y224800D01*
X155455Y224279D01*
X155558Y223759D01*
X155853Y223318D01*
X156294Y223023D01*
X156815Y222919D01*
X157336Y223023D01*
X157777Y223318D01*
X158072Y223759D01*
X158175Y224279D01*
X158072Y224800D01*
X157777Y225241D01*
X157336Y225536D01*
X156815Y225640D01*
D02*
G37*
G36*
X152484D02*
X151964Y225536D01*
X151522Y225241D01*
X151227Y224800D01*
X151124Y224279D01*
X151227Y223759D01*
X151522Y223318D01*
X151964Y223023D01*
X152484Y222919D01*
X153005Y223023D01*
X153446Y223318D01*
X153741Y223759D01*
X153845Y224279D01*
X153741Y224800D01*
X153446Y225241D01*
X153005Y225536D01*
X152484Y225640D01*
D02*
G37*
G36*
X536500Y229133D02*
X535689Y229026D01*
X534934Y228713D01*
X534285Y228215D01*
X533787Y227566D01*
X533474Y226811D01*
X533367Y226000D01*
X533474Y225189D01*
X533787Y224434D01*
X534285Y223785D01*
X534934Y223287D01*
X535689Y222974D01*
X536500Y222867D01*
X537311Y222974D01*
X538066Y223287D01*
X538715Y223785D01*
X539213Y224434D01*
X539526Y225189D01*
X539633Y226000D01*
X539526Y226811D01*
X539213Y227566D01*
X538715Y228215D01*
X538066Y228713D01*
X537311Y229026D01*
X536500Y229133D01*
D02*
G37*
G36*
X403000Y225561D02*
X402403Y225442D01*
X401896Y225104D01*
X401558Y224597D01*
X401439Y224000D01*
X401558Y223403D01*
X401896Y222896D01*
X402403Y222558D01*
X403000Y222439D01*
X403597Y222558D01*
X404104Y222896D01*
X404442Y223403D01*
X404561Y224000D01*
X404442Y224597D01*
X404104Y225104D01*
X403597Y225442D01*
X403000Y225561D01*
D02*
G37*
G36*
X-42200Y224161D02*
X-42797Y224042D01*
X-43304Y223704D01*
X-43642Y223197D01*
X-43761Y222600D01*
X-43642Y222003D01*
X-43304Y221496D01*
X-42797Y221158D01*
X-42200Y221039D01*
X-41603Y221158D01*
X-41096Y221496D01*
X-40758Y222003D01*
X-40639Y222600D01*
X-40758Y223197D01*
X-41096Y223704D01*
X-41603Y224042D01*
X-42200Y224161D01*
D02*
G37*
G36*
X177000Y224061D02*
X176403Y223942D01*
X175896Y223604D01*
X175558Y223097D01*
X175439Y222500D01*
X175558Y221903D01*
X175896Y221396D01*
X176403Y221058D01*
X177000Y220939D01*
X177597Y221058D01*
X178104Y221396D01*
X178442Y221903D01*
X178561Y222500D01*
X178442Y223097D01*
X178104Y223604D01*
X177597Y223942D01*
X177000Y224061D01*
D02*
G37*
G36*
X164000Y221061D02*
X163403Y220942D01*
X162896Y220604D01*
X162558Y220097D01*
X162439Y219500D01*
X162558Y218903D01*
X162896Y218396D01*
X163403Y218058D01*
X164000Y217939D01*
X164597Y218058D01*
X165104Y218396D01*
X165442Y218903D01*
X165561Y219500D01*
X165442Y220097D01*
X165104Y220604D01*
X164597Y220942D01*
X164000Y221061D01*
D02*
G37*
G36*
X536500Y221133D02*
X535689Y221026D01*
X534934Y220713D01*
X534285Y220215D01*
X533787Y219566D01*
X533474Y218811D01*
X533367Y218000D01*
X533474Y217189D01*
X533787Y216434D01*
X534285Y215785D01*
X534934Y215287D01*
X535689Y214974D01*
X536500Y214867D01*
X537311Y214974D01*
X538066Y215287D01*
X538715Y215785D01*
X539213Y216434D01*
X539526Y217189D01*
X539633Y218000D01*
X539526Y218811D01*
X539213Y219566D01*
X538715Y220215D01*
X538066Y220713D01*
X537311Y221026D01*
X536500Y221133D01*
D02*
G37*
G36*
X167500Y215061D02*
X166903Y214942D01*
X166396Y214604D01*
X166058Y214097D01*
X165939Y213500D01*
X166058Y212903D01*
X166396Y212396D01*
X166903Y212058D01*
X167500Y211939D01*
X168097Y212058D01*
X168604Y212396D01*
X168942Y212903D01*
X169061Y213500D01*
X168942Y214097D01*
X168604Y214604D01*
X168097Y214942D01*
X167500Y215061D01*
D02*
G37*
G36*
X-42200Y214861D02*
X-42797Y214742D01*
X-43304Y214404D01*
X-43642Y213897D01*
X-43761Y213300D01*
X-43642Y212703D01*
X-43304Y212196D01*
X-42797Y211858D01*
X-42200Y211739D01*
X-41603Y211858D01*
X-41096Y212196D01*
X-40758Y212703D01*
X-40639Y213300D01*
X-40758Y213897D01*
X-41096Y214404D01*
X-41603Y214742D01*
X-42200Y214861D01*
D02*
G37*
G36*
X529500Y217133D02*
X528689Y217026D01*
X527934Y216713D01*
X527285Y216215D01*
X526787Y215566D01*
X526474Y214811D01*
X526367Y214000D01*
X526474Y213189D01*
X526787Y212434D01*
X527285Y211785D01*
X527934Y211287D01*
X528689Y210974D01*
X529500Y210867D01*
X530311Y210974D01*
X531066Y211287D01*
X531715Y211785D01*
X532213Y212434D01*
X532526Y213189D01*
X532633Y214000D01*
X532526Y214811D01*
X532213Y215566D01*
X531715Y216215D01*
X531066Y216713D01*
X530311Y217026D01*
X529500Y217133D01*
D02*
G37*
G36*
X163000Y211230D02*
X162403Y211112D01*
X161896Y210773D01*
X161558Y210267D01*
X161439Y209669D01*
X161558Y209072D01*
X161896Y208565D01*
X162403Y208227D01*
X163000Y208108D01*
X163597Y208227D01*
X164104Y208565D01*
X164442Y209072D01*
X164561Y209669D01*
X164442Y210267D01*
X164104Y210773D01*
X163597Y211112D01*
X163000Y211230D01*
D02*
G37*
G36*
X-42200Y205461D02*
X-42797Y205342D01*
X-43304Y205004D01*
X-43642Y204497D01*
X-43761Y203900D01*
X-43642Y203303D01*
X-43304Y202796D01*
X-42797Y202458D01*
X-42200Y202339D01*
X-41603Y202458D01*
X-41096Y202796D01*
X-40758Y203303D01*
X-40639Y203900D01*
X-40758Y204497D01*
X-41096Y205004D01*
X-41603Y205342D01*
X-42200Y205461D01*
D02*
G37*
G36*
X421000Y204061D02*
X420403Y203942D01*
X419896Y203604D01*
X419558Y203097D01*
X419439Y202500D01*
X419558Y201903D01*
X419896Y201396D01*
X420403Y201058D01*
X421000Y200939D01*
X421597Y201058D01*
X422104Y201396D01*
X422442Y201903D01*
X422561Y202500D01*
X422442Y203097D01*
X422104Y203604D01*
X421597Y203942D01*
X421000Y204061D01*
D02*
G37*
G36*
X198500Y195561D02*
X197903Y195442D01*
X197396Y195104D01*
X197058Y194597D01*
X196939Y194000D01*
X197058Y193403D01*
X197396Y192896D01*
X197903Y192558D01*
X198500Y192439D01*
X199097Y192558D01*
X199604Y192896D01*
X199942Y193403D01*
X200061Y194000D01*
X199942Y194597D01*
X199604Y195104D01*
X199097Y195442D01*
X198500Y195561D01*
D02*
G37*
G36*
X403000Y194061D02*
X402403Y193942D01*
X401896Y193604D01*
X401558Y193097D01*
X401439Y192500D01*
X401558Y191903D01*
X401896Y191396D01*
X402403Y191058D01*
X403000Y190939D01*
X403597Y191058D01*
X404104Y191396D01*
X404442Y191903D01*
X404561Y192500D01*
X404442Y193097D01*
X404104Y193604D01*
X403597Y193942D01*
X403000Y194061D01*
D02*
G37*
G36*
X164000Y190061D02*
X163403Y189942D01*
X162896Y189604D01*
X162558Y189097D01*
X162439Y188500D01*
X162558Y187903D01*
X162896Y187396D01*
X163403Y187058D01*
X164000Y186939D01*
X164597Y187058D01*
X165104Y187396D01*
X165442Y187903D01*
X165561Y188500D01*
X165442Y189097D01*
X165104Y189604D01*
X164597Y189942D01*
X164000Y190061D01*
D02*
G37*
G36*
X145000D02*
X144403Y189942D01*
X143896Y189604D01*
X143558Y189097D01*
X143439Y188500D01*
X143558Y187903D01*
X143896Y187396D01*
X144403Y187058D01*
X145000Y186939D01*
X145597Y187058D01*
X146104Y187396D01*
X146442Y187903D01*
X146561Y188500D01*
X146442Y189097D01*
X146104Y189604D01*
X145597Y189942D01*
X145000Y190061D01*
D02*
G37*
G36*
X140500Y189561D02*
X139903Y189442D01*
X139396Y189104D01*
X139058Y188597D01*
X138939Y188000D01*
X139058Y187403D01*
X139396Y186896D01*
X139903Y186558D01*
X140500Y186439D01*
X141097Y186558D01*
X141604Y186896D01*
X141942Y187403D01*
X142061Y188000D01*
X141942Y188597D01*
X141604Y189104D01*
X141097Y189442D01*
X140500Y189561D01*
D02*
G37*
G36*
X253000Y187561D02*
X252403Y187442D01*
X251896Y187104D01*
X251558Y186597D01*
X251439Y186000D01*
X251558Y185403D01*
X251896Y184896D01*
X252403Y184558D01*
X253000Y184439D01*
X253597Y184558D01*
X254104Y184896D01*
X254442Y185403D01*
X254561Y186000D01*
X254442Y186597D01*
X254104Y187104D01*
X253597Y187442D01*
X253000Y187561D01*
D02*
G37*
G36*
X156815Y184801D02*
X156294Y184698D01*
X155853Y184403D01*
X155558Y183961D01*
X155455Y183441D01*
X155558Y182920D01*
X155853Y182479D01*
X156294Y182184D01*
X156815Y182080D01*
X157336Y182184D01*
X157777Y182479D01*
X158072Y182920D01*
X158175Y183441D01*
X158072Y183961D01*
X157777Y184403D01*
X157336Y184698D01*
X156815Y184801D01*
D02*
G37*
G36*
X152484D02*
X151964Y184698D01*
X151522Y184403D01*
X151227Y183961D01*
X151124Y183441D01*
X151227Y182920D01*
X151522Y182479D01*
X151964Y182184D01*
X152484Y182080D01*
X153005Y182184D01*
X153446Y182479D01*
X153741Y182920D01*
X153845Y183441D01*
X153741Y183961D01*
X153446Y184403D01*
X153005Y184698D01*
X152484Y184801D01*
D02*
G37*
G36*
X522500Y184561D02*
X521903Y184442D01*
X521396Y184104D01*
X521058Y183597D01*
X520939Y183000D01*
X521058Y182403D01*
X521396Y181896D01*
X521903Y181558D01*
X522500Y181439D01*
X523097Y181558D01*
X523604Y181896D01*
X523942Y182403D01*
X524061Y183000D01*
X523942Y183597D01*
X523604Y184104D01*
X523097Y184442D01*
X522500Y184561D01*
D02*
G37*
G36*
X141000Y184061D02*
X140403Y183942D01*
X139896Y183604D01*
X139558Y183097D01*
X139439Y182500D01*
X139558Y181903D01*
X139896Y181396D01*
X140403Y181058D01*
X141000Y180939D01*
X141597Y181058D01*
X142104Y181396D01*
X142442Y181903D01*
X142561Y182500D01*
X142442Y183097D01*
X142104Y183604D01*
X141597Y183942D01*
X141000Y184061D01*
D02*
G37*
G36*
X133500Y233386D02*
X132778Y233243D01*
X132166Y232834D01*
X131666Y232334D01*
X131257Y231722D01*
X131114Y231000D01*
Y182500D01*
X131257Y181778D01*
X131666Y181166D01*
X132278Y180757D01*
X133000Y180614D01*
X133722Y180757D01*
X134334Y181166D01*
X134743Y181778D01*
X134886Y182500D01*
Y230245D01*
X135243Y230778D01*
X135386Y231500D01*
X135243Y232222D01*
X134834Y232834D01*
X134222Y233243D01*
X133500Y233386D01*
D02*
G37*
G36*
X-42000Y183561D02*
X-42597Y183442D01*
X-43104Y183104D01*
X-43442Y182597D01*
X-43561Y182000D01*
X-43442Y181403D01*
X-43104Y180896D01*
X-42597Y180558D01*
X-42000Y180439D01*
X-41403Y180558D01*
X-40896Y180896D01*
X-40558Y181403D01*
X-40439Y182000D01*
X-40558Y182597D01*
X-40896Y183104D01*
X-41403Y183442D01*
X-42000Y183561D01*
D02*
G37*
G36*
X54000Y182561D02*
X53403Y182442D01*
X52896Y182104D01*
X52558Y181597D01*
X52439Y181000D01*
X52558Y180403D01*
X52896Y179896D01*
X53403Y179558D01*
X54000Y179439D01*
X54597Y179558D01*
X55104Y179896D01*
X55442Y180403D01*
X55561Y181000D01*
X55442Y181597D01*
X55104Y182104D01*
X54597Y182442D01*
X54000Y182561D01*
D02*
G37*
G36*
X258500Y181561D02*
X257903Y181442D01*
X257396Y181104D01*
X257058Y180597D01*
X256939Y180000D01*
X257058Y179403D01*
X257396Y178896D01*
X257903Y178558D01*
X258500Y178439D01*
X259097Y178558D01*
X259604Y178896D01*
X259942Y179403D01*
X260061Y180000D01*
X259942Y180597D01*
X259604Y181104D01*
X259097Y181442D01*
X258500Y181561D01*
D02*
G37*
G36*
X156815Y180471D02*
X156294Y180367D01*
X155853Y180072D01*
X155558Y179631D01*
X155455Y179110D01*
X155558Y178590D01*
X155853Y178148D01*
X156294Y177853D01*
X156815Y177750D01*
X157336Y177853D01*
X157777Y178148D01*
X158072Y178590D01*
X158175Y179110D01*
X158072Y179631D01*
X157777Y180072D01*
X157336Y180367D01*
X156815Y180471D01*
D02*
G37*
G36*
X152484D02*
X151964Y180367D01*
X151522Y180072D01*
X151227Y179631D01*
X151124Y179110D01*
X151227Y178590D01*
X151522Y178148D01*
X151964Y177853D01*
X152484Y177750D01*
X153005Y177853D01*
X153446Y178148D01*
X153741Y178590D01*
X153845Y179110D01*
X153741Y179631D01*
X153446Y180072D01*
X153005Y180367D01*
X152484Y180471D01*
D02*
G37*
G36*
X539606Y183106D02*
X533394D01*
Y176894D01*
X539606D01*
Y183106D01*
D02*
G37*
G36*
X198500Y178061D02*
X197903Y177942D01*
X197396Y177604D01*
X197058Y177097D01*
X196939Y176500D01*
X197058Y175903D01*
X197396Y175396D01*
X197903Y175058D01*
X198500Y174939D01*
X199097Y175058D01*
X199604Y175396D01*
X199942Y175903D01*
X200061Y176500D01*
X199942Y177097D01*
X199604Y177604D01*
X199097Y177942D01*
X198500Y178061D01*
D02*
G37*
G36*
X59000Y177261D02*
X58403Y177142D01*
X57896Y176804D01*
X57558Y176297D01*
X57439Y175700D01*
X57558Y175103D01*
X57896Y174596D01*
X58403Y174258D01*
X59000Y174139D01*
X59597Y174258D01*
X60104Y174596D01*
X60442Y175103D01*
X60561Y175700D01*
X60442Y176297D01*
X60104Y176804D01*
X59597Y177142D01*
X59000Y177261D01*
D02*
G37*
G36*
X156815Y176140D02*
X156294Y176036D01*
X155853Y175742D01*
X155558Y175300D01*
X155455Y174779D01*
X155558Y174259D01*
X155853Y173818D01*
X156294Y173523D01*
X156815Y173419D01*
X157336Y173523D01*
X157777Y173818D01*
X158072Y174259D01*
X158175Y174779D01*
X158072Y175300D01*
X157777Y175742D01*
X157336Y176036D01*
X156815Y176140D01*
D02*
G37*
G36*
X152484D02*
X151964Y176036D01*
X151522Y175742D01*
X151227Y175300D01*
X151124Y174779D01*
X151227Y174259D01*
X151522Y173818D01*
X151964Y173523D01*
X152484Y173419D01*
X153005Y173523D01*
X153446Y173818D01*
X153741Y174259D01*
X153845Y174779D01*
X153741Y175300D01*
X153446Y175742D01*
X153005Y176036D01*
X152484Y176140D01*
D02*
G37*
G36*
X529500Y179133D02*
X528689Y179026D01*
X527934Y178713D01*
X527285Y178215D01*
X526787Y177566D01*
X526474Y176811D01*
X526367Y176000D01*
X526474Y175189D01*
X526787Y174434D01*
X527285Y173785D01*
X527934Y173287D01*
X528689Y172974D01*
X529500Y172867D01*
X530311Y172974D01*
X531066Y173287D01*
X531715Y173785D01*
X532213Y174434D01*
X532526Y175189D01*
X532633Y176000D01*
X532526Y176811D01*
X532213Y177566D01*
X531715Y178215D01*
X531066Y178713D01*
X530311Y179026D01*
X529500Y179133D01*
D02*
G37*
G36*
X177000Y174561D02*
X176403Y174442D01*
X175896Y174104D01*
X175558Y173597D01*
X175439Y173000D01*
X175558Y172403D01*
X175896Y171896D01*
X176403Y171558D01*
X177000Y171439D01*
X177597Y171558D01*
X178104Y171896D01*
X178442Y172403D01*
X178561Y173000D01*
X178442Y173597D01*
X178104Y174104D01*
X177597Y174442D01*
X177000Y174561D01*
D02*
G37*
G36*
X-42000Y174061D02*
X-42597Y173942D01*
X-43104Y173604D01*
X-43442Y173097D01*
X-43561Y172500D01*
X-43442Y171903D01*
X-43104Y171396D01*
X-42597Y171058D01*
X-42000Y170939D01*
X-41403Y171058D01*
X-40896Y171396D01*
X-40558Y171903D01*
X-40439Y172500D01*
X-40558Y173097D01*
X-40896Y173604D01*
X-41403Y173942D01*
X-42000Y174061D01*
D02*
G37*
G36*
X421000Y172561D02*
X420403Y172442D01*
X419896Y172104D01*
X419558Y171597D01*
X419439Y171000D01*
X419558Y170403D01*
X419896Y169896D01*
X420403Y169558D01*
X421000Y169439D01*
X421597Y169558D01*
X422104Y169896D01*
X422442Y170403D01*
X422561Y171000D01*
X422442Y171597D01*
X422104Y172104D01*
X421597Y172442D01*
X421000Y172561D01*
D02*
G37*
G36*
X164000Y172061D02*
X163403Y171942D01*
X162896Y171604D01*
X162558Y171097D01*
X162439Y170500D01*
X162558Y169903D01*
X162896Y169396D01*
X163403Y169058D01*
X164000Y168939D01*
X164597Y169058D01*
X165104Y169396D01*
X165442Y169903D01*
X165561Y170500D01*
X165442Y171097D01*
X165104Y171604D01*
X164597Y171942D01*
X164000Y172061D01*
D02*
G37*
G36*
X536500Y175133D02*
X535689Y175026D01*
X534934Y174713D01*
X534285Y174215D01*
X533787Y173566D01*
X533474Y172811D01*
X533367Y172000D01*
X533474Y171189D01*
X533787Y170434D01*
X534285Y169785D01*
X534934Y169287D01*
X535689Y168974D01*
X536500Y168867D01*
X537311Y168974D01*
X538066Y169287D01*
X538715Y169785D01*
X539213Y170434D01*
X539526Y171189D01*
X539633Y172000D01*
X539526Y172811D01*
X539213Y173566D01*
X538715Y174215D01*
X538066Y174713D01*
X537311Y175026D01*
X536500Y175133D01*
D02*
G37*
G36*
X403000Y168561D02*
X402403Y168442D01*
X401896Y168104D01*
X401558Y167597D01*
X401439Y167000D01*
X401558Y166403D01*
X401896Y165896D01*
X402403Y165558D01*
X403000Y165439D01*
X403597Y165558D01*
X404104Y165896D01*
X404442Y166403D01*
X404561Y167000D01*
X404442Y167597D01*
X404104Y168104D01*
X403597Y168442D01*
X403000Y168561D01*
D02*
G37*
G36*
X529500Y171133D02*
X528689Y171026D01*
X527934Y170713D01*
X527285Y170215D01*
X526787Y169566D01*
X526474Y168811D01*
X526367Y168000D01*
X526474Y167189D01*
X526787Y166434D01*
X527285Y165785D01*
X527934Y165287D01*
X528689Y164974D01*
X529500Y164867D01*
X530311Y164974D01*
X531066Y165287D01*
X531715Y165785D01*
X532213Y166434D01*
X532526Y167189D01*
X532633Y168000D01*
X532526Y168811D01*
X532213Y169566D01*
X531715Y170215D01*
X531066Y170713D01*
X530311Y171026D01*
X529500Y171133D01*
D02*
G37*
G36*
X167500Y165561D02*
X166903Y165442D01*
X166396Y165104D01*
X166058Y164597D01*
X165939Y164000D01*
X166058Y163403D01*
X166396Y162896D01*
X166903Y162558D01*
X167500Y162439D01*
X168097Y162558D01*
X168604Y162896D01*
X168942Y163403D01*
X169061Y164000D01*
X168942Y164597D01*
X168604Y165104D01*
X168097Y165442D01*
X167500Y165561D01*
D02*
G37*
G36*
X521542Y165019D02*
X520945Y164900D01*
X520438Y164562D01*
X520100Y164055D01*
X519981Y163458D01*
X520100Y162860D01*
X520438Y162354D01*
X520945Y162015D01*
X521542Y161897D01*
X522140Y162015D01*
X522646Y162354D01*
X522985Y162860D01*
X523103Y163458D01*
X522985Y164055D01*
X522646Y164562D01*
X522140Y164900D01*
X521542Y165019D01*
D02*
G37*
G36*
X263000Y164561D02*
X262403Y164442D01*
X261896Y164104D01*
X261558Y163597D01*
X261439Y163000D01*
X261558Y162403D01*
X261896Y161896D01*
X262403Y161558D01*
X263000Y161439D01*
X263597Y161558D01*
X264104Y161896D01*
X264442Y162403D01*
X264561Y163000D01*
X264442Y163597D01*
X264104Y164104D01*
X263597Y164442D01*
X263000Y164561D01*
D02*
G37*
G36*
X-42000D02*
X-42597Y164442D01*
X-43104Y164104D01*
X-43442Y163597D01*
X-43561Y163000D01*
X-43442Y162403D01*
X-43104Y161896D01*
X-42597Y161558D01*
X-42000Y161439D01*
X-41403Y161558D01*
X-40896Y161896D01*
X-40558Y162403D01*
X-40439Y163000D01*
X-40558Y163597D01*
X-40896Y164104D01*
X-41403Y164442D01*
X-42000Y164561D01*
D02*
G37*
G36*
X536500Y167133D02*
X535689Y167026D01*
X534934Y166713D01*
X534285Y166215D01*
X533787Y165566D01*
X533474Y164811D01*
X533367Y164000D01*
X533474Y163189D01*
X533787Y162434D01*
X534285Y161785D01*
X534934Y161287D01*
X535689Y160974D01*
X536500Y160867D01*
X537311Y160974D01*
X538066Y161287D01*
X538715Y161785D01*
X539213Y162434D01*
X539526Y163189D01*
X539633Y164000D01*
X539526Y164811D01*
X539213Y165566D01*
X538715Y166215D01*
X538066Y166713D01*
X537311Y167026D01*
X536500Y167133D01*
D02*
G37*
G36*
X511500Y161561D02*
X510903Y161442D01*
X510396Y161104D01*
X510058Y160597D01*
X509939Y160000D01*
X510058Y159403D01*
X510396Y158896D01*
X510903Y158558D01*
X511500Y158439D01*
X512097Y158558D01*
X512604Y158896D01*
X512942Y159403D01*
X513061Y160000D01*
X512942Y160597D01*
X512604Y161104D01*
X512097Y161442D01*
X511500Y161561D01*
D02*
G37*
G36*
X163000D02*
X162403Y161442D01*
X161896Y161104D01*
X161558Y160597D01*
X161439Y160000D01*
X161558Y159403D01*
X161896Y158896D01*
X162403Y158558D01*
X163000Y158439D01*
X163597Y158558D01*
X164104Y158896D01*
X164442Y159403D01*
X164561Y160000D01*
X164442Y160597D01*
X164104Y161104D01*
X163597Y161442D01*
X163000Y161561D01*
D02*
G37*
G36*
X44000D02*
X43403Y161442D01*
X42896Y161104D01*
X42558Y160597D01*
X42439Y160000D01*
X42558Y159403D01*
X42896Y158896D01*
X43403Y158558D01*
X44000Y158439D01*
X44597Y158558D01*
X45104Y158896D01*
X45442Y159403D01*
X45561Y160000D01*
X45442Y160597D01*
X45104Y161104D01*
X44597Y161442D01*
X44000Y161561D01*
D02*
G37*
G36*
X-28000Y160561D02*
X-28597Y160442D01*
X-29104Y160104D01*
X-29442Y159597D01*
X-29561Y159000D01*
X-29442Y158403D01*
X-29104Y157896D01*
X-28597Y157558D01*
X-28000Y157439D01*
X-27403Y157558D01*
X-26896Y157896D01*
X-26558Y158403D01*
X-26439Y159000D01*
X-26558Y159597D01*
X-26896Y160104D01*
X-27403Y160442D01*
X-28000Y160561D01*
D02*
G37*
G36*
X529500Y163133D02*
X528689Y163026D01*
X527934Y162713D01*
X527285Y162215D01*
X526787Y161566D01*
X526474Y160811D01*
X526367Y160000D01*
X526474Y159189D01*
X526787Y158434D01*
X527285Y157785D01*
X527934Y157287D01*
X528689Y156974D01*
X529500Y156867D01*
X530311Y156974D01*
X531066Y157287D01*
X531715Y157785D01*
X532213Y158434D01*
X532526Y159189D01*
X532633Y160000D01*
X532526Y160811D01*
X532213Y161566D01*
X531715Y162215D01*
X531066Y162713D01*
X530311Y163026D01*
X529500Y163133D01*
D02*
G37*
G36*
X228500Y159561D02*
X227903Y159442D01*
X227396Y159104D01*
X227058Y158597D01*
X226939Y158000D01*
X227058Y157403D01*
X227396Y156896D01*
X227903Y156558D01*
X228500Y156439D01*
X229097Y156558D01*
X229604Y156896D01*
X229942Y157403D01*
X230061Y158000D01*
X229942Y158597D01*
X229604Y159104D01*
X229097Y159442D01*
X228500Y159561D01*
D02*
G37*
G36*
X209000D02*
X208403Y159442D01*
X207896Y159104D01*
X207558Y158597D01*
X207439Y158000D01*
X207558Y157403D01*
X207896Y156896D01*
X208403Y156558D01*
X209000Y156439D01*
X209597Y156558D01*
X210104Y156896D01*
X210442Y157403D01*
X210561Y158000D01*
X210442Y158597D01*
X210104Y159104D01*
X209597Y159442D01*
X209000Y159561D01*
D02*
G37*
G36*
X536500Y159133D02*
X535689Y159026D01*
X534934Y158713D01*
X534285Y158215D01*
X533787Y157566D01*
X533474Y156811D01*
X533367Y156000D01*
X533474Y155189D01*
X533787Y154434D01*
X534285Y153785D01*
X534934Y153287D01*
X535689Y152974D01*
X536500Y152867D01*
X537311Y152974D01*
X538066Y153287D01*
X538715Y153785D01*
X539213Y154434D01*
X539526Y155189D01*
X539633Y156000D01*
X539526Y156811D01*
X539213Y157566D01*
X538715Y158215D01*
X538066Y158713D01*
X537311Y159026D01*
X536500Y159133D01*
D02*
G37*
G36*
X-42000Y155061D02*
X-42597Y154942D01*
X-43104Y154604D01*
X-43442Y154097D01*
X-43561Y153500D01*
X-43442Y152903D01*
X-43104Y152396D01*
X-42597Y152058D01*
X-42000Y151939D01*
X-41403Y152058D01*
X-40896Y152396D01*
X-40558Y152903D01*
X-40439Y153500D01*
X-40558Y154097D01*
X-40896Y154604D01*
X-41403Y154942D01*
X-42000Y155061D01*
D02*
G37*
G36*
X221315Y154301D02*
X220794Y154198D01*
X220353Y153903D01*
X220058Y153462D01*
X219955Y152941D01*
X220058Y152420D01*
X220353Y151979D01*
X220794Y151684D01*
X221315Y151581D01*
X221836Y151684D01*
X222277Y151979D01*
X222572Y152420D01*
X222675Y152941D01*
X222572Y153462D01*
X222277Y153903D01*
X221836Y154198D01*
X221315Y154301D01*
D02*
G37*
G36*
X216984D02*
X216464Y154198D01*
X216022Y153903D01*
X215727Y153462D01*
X215624Y152941D01*
X215727Y152420D01*
X216022Y151979D01*
X216464Y151684D01*
X216984Y151581D01*
X217505Y151684D01*
X217946Y151979D01*
X218241Y152420D01*
X218345Y152941D01*
X218241Y153462D01*
X217946Y153903D01*
X217505Y154198D01*
X216984Y154301D01*
D02*
G37*
G36*
X205800Y153161D02*
X205203Y153042D01*
X204696Y152704D01*
X204358Y152197D01*
X204239Y151600D01*
X204358Y151003D01*
X204696Y150496D01*
X205203Y150158D01*
X205800Y150039D01*
X206397Y150158D01*
X206904Y150496D01*
X207242Y151003D01*
X207361Y151600D01*
X207242Y152197D01*
X206904Y152704D01*
X206397Y153042D01*
X205800Y153161D01*
D02*
G37*
G36*
X195320Y154380D02*
X194723Y154261D01*
X194216Y153923D01*
X193878Y153416D01*
X193759Y152819D01*
X193878Y152222D01*
X194216Y151715D01*
X194723Y151377D01*
X195320Y151258D01*
X195918Y151377D01*
X196424Y151715D01*
X196492Y151817D01*
X196963Y151622D01*
X196939Y151500D01*
X197058Y150903D01*
X197396Y150396D01*
X197903Y150058D01*
X198500Y149939D01*
X199097Y150058D01*
X199604Y150396D01*
X199942Y150903D01*
X200061Y151500D01*
X199942Y152097D01*
X199604Y152604D01*
X199097Y152942D01*
X198500Y153061D01*
X197903Y152942D01*
X197396Y152604D01*
X197328Y152502D01*
X196857Y152697D01*
X196881Y152819D01*
X196762Y153416D01*
X196424Y153923D01*
X195918Y154261D01*
X195320Y154380D01*
D02*
G37*
G36*
X529500Y155133D02*
X528689Y155026D01*
X527934Y154713D01*
X527285Y154215D01*
X526787Y153566D01*
X526474Y152811D01*
X526367Y152000D01*
X526474Y151189D01*
X526787Y150434D01*
X527285Y149785D01*
X527934Y149287D01*
X528689Y148974D01*
X529500Y148867D01*
X530311Y148974D01*
X531066Y149287D01*
X531715Y149785D01*
X532213Y150434D01*
X532526Y151189D01*
X532633Y152000D01*
X532526Y152811D01*
X532213Y153566D01*
X531715Y154215D01*
X531066Y154713D01*
X530311Y155026D01*
X529500Y155133D01*
D02*
G37*
G36*
X78300Y151661D02*
X77703Y151542D01*
X77196Y151204D01*
X76858Y150697D01*
X76739Y150100D01*
X76858Y149503D01*
X77196Y148996D01*
X77703Y148658D01*
X78300Y148539D01*
X78897Y148658D01*
X79404Y148996D01*
X79742Y149503D01*
X79861Y150100D01*
X79742Y150697D01*
X79404Y151204D01*
X78897Y151542D01*
X78300Y151661D01*
D02*
G37*
G36*
X221315Y149971D02*
X220794Y149867D01*
X220353Y149572D01*
X220058Y149131D01*
X219955Y148610D01*
X220058Y148090D01*
X220353Y147648D01*
X220794Y147353D01*
X221315Y147250D01*
X221836Y147353D01*
X222277Y147648D01*
X222572Y148090D01*
X222675Y148610D01*
X222572Y149131D01*
X222277Y149572D01*
X221836Y149867D01*
X221315Y149971D01*
D02*
G37*
G36*
X216984D02*
X216464Y149867D01*
X216022Y149572D01*
X215727Y149131D01*
X215624Y148610D01*
X215727Y148090D01*
X216022Y147648D01*
X216464Y147353D01*
X216984Y147250D01*
X217505Y147353D01*
X217946Y147648D01*
X218241Y148090D01*
X218345Y148610D01*
X218241Y149131D01*
X217946Y149572D01*
X217505Y149867D01*
X216984Y149971D01*
D02*
G37*
G36*
X268000Y149561D02*
X267403Y149442D01*
X266896Y149104D01*
X266558Y148597D01*
X266439Y148000D01*
X266558Y147403D01*
X266896Y146896D01*
X267403Y146558D01*
X268000Y146439D01*
X268597Y146558D01*
X269104Y146896D01*
X269442Y147403D01*
X269561Y148000D01*
X269442Y148597D01*
X269104Y149104D01*
X268597Y149442D01*
X268000Y149561D01*
D02*
G37*
G36*
X263000Y147561D02*
X262403Y147442D01*
X261896Y147104D01*
X261558Y146597D01*
X261439Y146000D01*
X261558Y145403D01*
X261896Y144896D01*
X262403Y144558D01*
X263000Y144439D01*
X263597Y144558D01*
X264104Y144896D01*
X264442Y145403D01*
X264561Y146000D01*
X264442Y146597D01*
X264104Y147104D01*
X263597Y147442D01*
X263000Y147561D01*
D02*
G37*
G36*
X421000Y147061D02*
X420403Y146942D01*
X419896Y146604D01*
X419558Y146097D01*
X419439Y145500D01*
X419558Y144903D01*
X419896Y144396D01*
X420403Y144058D01*
X421000Y143939D01*
X421597Y144058D01*
X422104Y144396D01*
X422442Y144903D01*
X422561Y145500D01*
X422442Y146097D01*
X422104Y146604D01*
X421597Y146942D01*
X421000Y147061D01*
D02*
G37*
G36*
X82500Y146861D02*
X81903Y146742D01*
X81396Y146404D01*
X81058Y145897D01*
X80939Y145300D01*
X81058Y144703D01*
X81396Y144196D01*
X81903Y143858D01*
X82500Y143739D01*
X83097Y143858D01*
X83604Y144196D01*
X83942Y144703D01*
X84061Y145300D01*
X83942Y145897D01*
X83604Y146404D01*
X83097Y146742D01*
X82500Y146861D01*
D02*
G37*
G36*
X221315Y145640D02*
X220794Y145536D01*
X220353Y145241D01*
X220058Y144800D01*
X219955Y144280D01*
X220058Y143759D01*
X220353Y143318D01*
X220794Y143023D01*
X221315Y142919D01*
X221836Y143023D01*
X222277Y143318D01*
X222572Y143759D01*
X222675Y144280D01*
X222572Y144800D01*
X222277Y145241D01*
X221836Y145536D01*
X221315Y145640D01*
D02*
G37*
G36*
X216984D02*
X216464Y145536D01*
X216022Y145241D01*
X215727Y144800D01*
X215624Y144280D01*
X215727Y143759D01*
X216022Y143318D01*
X216464Y143023D01*
X216984Y142919D01*
X217505Y143023D01*
X217946Y143318D01*
X218241Y143759D01*
X218345Y144280D01*
X218241Y144800D01*
X217946Y145241D01*
X217505Y145536D01*
X216984Y145640D01*
D02*
G37*
G36*
X293500Y145561D02*
X292903Y145442D01*
X292396Y145104D01*
X292058Y144597D01*
X291939Y144000D01*
X292058Y143403D01*
X292396Y142896D01*
X292903Y142558D01*
X293500Y142439D01*
X294097Y142558D01*
X294604Y142896D01*
X294942Y143403D01*
X295061Y144000D01*
X294942Y144597D01*
X294604Y145104D01*
X294097Y145442D01*
X293500Y145561D01*
D02*
G37*
G36*
X-42000D02*
X-42597Y145442D01*
X-43104Y145104D01*
X-43442Y144597D01*
X-43561Y144000D01*
X-43442Y143403D01*
X-43104Y142896D01*
X-42597Y142558D01*
X-42000Y142439D01*
X-41403Y142558D01*
X-40896Y142896D01*
X-40558Y143403D01*
X-40439Y144000D01*
X-40558Y144597D01*
X-40896Y145104D01*
X-41403Y145442D01*
X-42000Y145561D01*
D02*
G37*
G36*
X241600Y144261D02*
X241003Y144142D01*
X240496Y143804D01*
X240158Y143297D01*
X240039Y142700D01*
X240158Y142103D01*
X240496Y141596D01*
X241003Y141258D01*
X241600Y141139D01*
X242197Y141258D01*
X242704Y141596D01*
X243042Y142103D01*
X243161Y142700D01*
X243042Y143297D01*
X242704Y143804D01*
X242197Y144142D01*
X241600Y144261D01*
D02*
G37*
G36*
X338500Y146761D02*
X337903Y146642D01*
X337396Y146304D01*
X337058Y145797D01*
X336939Y145200D01*
X337058Y144603D01*
X337396Y144096D01*
X337489Y144034D01*
X337344Y143530D01*
X336903Y143442D01*
X336396Y143104D01*
X336058Y142597D01*
X335939Y142000D01*
X336058Y141403D01*
X336396Y140896D01*
X336903Y140558D01*
X337500Y140439D01*
X338097Y140558D01*
X338604Y140896D01*
X338942Y141403D01*
X339061Y142000D01*
X338942Y142597D01*
X338604Y143104D01*
X338511Y143166D01*
X338656Y143670D01*
X339097Y143758D01*
X339604Y144096D01*
X339942Y144603D01*
X340061Y145200D01*
X339942Y145797D01*
X339604Y146304D01*
X339097Y146642D01*
X338500Y146761D01*
D02*
G37*
G36*
X403000Y143061D02*
X402403Y142942D01*
X401896Y142604D01*
X401558Y142097D01*
X401439Y141500D01*
X401558Y140903D01*
X401896Y140396D01*
X402403Y140058D01*
X403000Y139939D01*
X403597Y140058D01*
X404104Y140396D01*
X404442Y140903D01*
X404561Y141500D01*
X404442Y142097D01*
X404104Y142604D01*
X403597Y142942D01*
X403000Y143061D01*
D02*
G37*
G36*
X274000D02*
X273403Y142942D01*
X272896Y142604D01*
X272558Y142097D01*
X272439Y141500D01*
X272558Y140903D01*
X272896Y140396D01*
X273403Y140058D01*
X274000Y139939D01*
X274597Y140058D01*
X275104Y140396D01*
X275442Y140903D01*
X275561Y141500D01*
X275442Y142097D01*
X275104Y142604D01*
X274597Y142942D01*
X274000Y143061D01*
D02*
G37*
G36*
X228500Y141061D02*
X227903Y140942D01*
X227396Y140604D01*
X227058Y140097D01*
X226939Y139500D01*
X227058Y138903D01*
X227396Y138396D01*
X227903Y138058D01*
X228500Y137939D01*
X229097Y138058D01*
X229604Y138396D01*
X229942Y138903D01*
X230061Y139500D01*
X229942Y140097D01*
X229604Y140604D01*
X229097Y140942D01*
X228500Y141061D01*
D02*
G37*
G36*
X546500Y147780D02*
X545177Y147650D01*
X543905Y147264D01*
X542733Y146638D01*
X541706Y145794D01*
X540862Y144767D01*
X540236Y143595D01*
X539850Y142323D01*
X539720Y141000D01*
X539850Y139677D01*
X540236Y138405D01*
X540862Y137233D01*
X541706Y136206D01*
X542733Y135362D01*
X543905Y134736D01*
X545177Y134350D01*
X546500Y134220D01*
X547823Y134350D01*
X549095Y134736D01*
X550267Y135362D01*
X551294Y136206D01*
X552138Y137233D01*
X552764Y138405D01*
X553150Y139677D01*
X553280Y141000D01*
X553150Y142323D01*
X552764Y143595D01*
X552138Y144767D01*
X551294Y145794D01*
X550267Y146638D01*
X549095Y147264D01*
X547823Y147650D01*
X546500Y147780D01*
D02*
G37*
G36*
X-42000Y136061D02*
X-42597Y135942D01*
X-43104Y135604D01*
X-43442Y135097D01*
X-43561Y134500D01*
X-43442Y133903D01*
X-43104Y133396D01*
X-42597Y133058D01*
X-42000Y132939D01*
X-41403Y133058D01*
X-40896Y133396D01*
X-40558Y133903D01*
X-40439Y134500D01*
X-40558Y135097D01*
X-40896Y135604D01*
X-41403Y135942D01*
X-42000Y136061D01*
D02*
G37*
G36*
X293500Y135561D02*
X292903Y135442D01*
X292396Y135104D01*
X292058Y134597D01*
X291939Y134000D01*
X292058Y133403D01*
X292396Y132896D01*
X292903Y132558D01*
X293500Y132439D01*
X294097Y132558D01*
X294604Y132896D01*
X294942Y133403D01*
X295061Y134000D01*
X294942Y134597D01*
X294604Y135104D01*
X294097Y135442D01*
X293500Y135561D01*
D02*
G37*
G36*
X232000Y135061D02*
X231403Y134942D01*
X230896Y134604D01*
X230558Y134097D01*
X230439Y133500D01*
X230558Y132903D01*
X230896Y132396D01*
X231403Y132058D01*
X232000Y131939D01*
X232597Y132058D01*
X233104Y132396D01*
X233442Y132903D01*
X233561Y133500D01*
X233442Y134097D01*
X233104Y134604D01*
X232597Y134942D01*
X232000Y135061D01*
D02*
G37*
G36*
X338500Y136761D02*
X337903Y136642D01*
X337396Y136304D01*
X337058Y135797D01*
X336939Y135200D01*
X337058Y134603D01*
X337305Y134232D01*
X337192Y133797D01*
X337116Y133685D01*
X336903Y133642D01*
X336396Y133304D01*
X336058Y132797D01*
X335939Y132200D01*
X336058Y131603D01*
X336396Y131096D01*
X336903Y130758D01*
X337500Y130639D01*
X338097Y130758D01*
X338604Y131096D01*
X338942Y131603D01*
X339061Y132200D01*
X338942Y132797D01*
X338695Y133168D01*
X338808Y133603D01*
X338884Y133715D01*
X339097Y133758D01*
X339604Y134096D01*
X339942Y134603D01*
X340061Y135200D01*
X339942Y135797D01*
X339604Y136304D01*
X339097Y136642D01*
X338500Y136761D01*
D02*
G37*
G36*
X533000Y139118D02*
X531675Y138944D01*
X530441Y138433D01*
X529381Y137619D01*
X528568Y136559D01*
X528056Y135325D01*
X527882Y134000D01*
X528056Y132675D01*
X528568Y131441D01*
X529381Y130381D01*
X530441Y129568D01*
X531675Y129056D01*
X533000Y128882D01*
X534325Y129056D01*
X535559Y129568D01*
X536619Y130381D01*
X537432Y131441D01*
X537944Y132675D01*
X538118Y134000D01*
X537944Y135325D01*
X537432Y136559D01*
X536619Y137619D01*
X535559Y138433D01*
X534325Y138944D01*
X533000Y139118D01*
D02*
G37*
G36*
X227500Y131161D02*
X226903Y131042D01*
X226396Y130704D01*
X226058Y130197D01*
X225939Y129600D01*
X226058Y129003D01*
X226396Y128496D01*
X226903Y128158D01*
X227500Y128039D01*
X228097Y128158D01*
X228604Y128496D01*
X228942Y129003D01*
X229061Y129600D01*
X228942Y130197D01*
X228604Y130704D01*
X228097Y131042D01*
X227500Y131161D01*
D02*
G37*
G36*
X198500Y127561D02*
X197903Y127442D01*
X197396Y127104D01*
X197058Y126597D01*
X196939Y126000D01*
X197058Y125403D01*
X197396Y124896D01*
X197903Y124558D01*
X198500Y124439D01*
X199097Y124558D01*
X199604Y124896D01*
X199942Y125403D01*
X200061Y126000D01*
X199942Y126597D01*
X199604Y127104D01*
X199097Y127442D01*
X198500Y127561D01*
D02*
G37*
G36*
X293500Y125561D02*
X292903Y125442D01*
X292396Y125104D01*
X292058Y124597D01*
X291939Y124000D01*
X292058Y123403D01*
X292396Y122896D01*
X292903Y122558D01*
X293500Y122439D01*
X294097Y122558D01*
X294604Y122896D01*
X294942Y123403D01*
X295061Y124000D01*
X294942Y124597D01*
X294604Y125104D01*
X294097Y125442D01*
X293500Y125561D01*
D02*
G37*
G36*
X81500Y124061D02*
X80903Y123942D01*
X80396Y123604D01*
X80058Y123097D01*
X79939Y122500D01*
X80058Y121903D01*
X80396Y121396D01*
X80903Y121058D01*
X81500Y120939D01*
X82097Y121058D01*
X82604Y121396D01*
X82942Y121903D01*
X83061Y122500D01*
X82942Y123097D01*
X82604Y123604D01*
X82097Y123942D01*
X81500Y124061D01*
D02*
G37*
G36*
X-28000D02*
X-28597Y123942D01*
X-29104Y123604D01*
X-29442Y123097D01*
X-29561Y122500D01*
X-29442Y121903D01*
X-29104Y121396D01*
X-28597Y121058D01*
X-28000Y120939D01*
X-27403Y121058D01*
X-26896Y121396D01*
X-26558Y121903D01*
X-26439Y122500D01*
X-26558Y123097D01*
X-26896Y123604D01*
X-27403Y123942D01*
X-28000Y124061D01*
D02*
G37*
G36*
X338500Y126661D02*
X337903Y126542D01*
X337396Y126204D01*
X337058Y125697D01*
X336939Y125100D01*
X337058Y124503D01*
X337364Y124044D01*
X337323Y123783D01*
X337228Y123507D01*
X336903Y123442D01*
X336396Y123104D01*
X336058Y122597D01*
X335939Y122000D01*
X336058Y121403D01*
X336396Y120896D01*
X336903Y120558D01*
X337500Y120439D01*
X338097Y120558D01*
X338604Y120896D01*
X338942Y121403D01*
X339061Y122000D01*
X338942Y122597D01*
X338636Y123056D01*
X338677Y123317D01*
X338772Y123593D01*
X339097Y123658D01*
X339604Y123996D01*
X339942Y124503D01*
X340061Y125100D01*
X339942Y125697D01*
X339604Y126204D01*
X339097Y126542D01*
X338500Y126661D01*
D02*
G37*
G36*
X421000Y122061D02*
X420403Y121942D01*
X419896Y121604D01*
X419558Y121097D01*
X419439Y120500D01*
X419558Y119903D01*
X419896Y119396D01*
X420403Y119058D01*
X421000Y118939D01*
X421597Y119058D01*
X422104Y119396D01*
X422442Y119903D01*
X422561Y120500D01*
X422442Y121097D01*
X422104Y121604D01*
X421597Y121942D01*
X421000Y122061D01*
D02*
G37*
G36*
X164000D02*
X163403Y121942D01*
X162896Y121604D01*
X162558Y121097D01*
X162439Y120500D01*
X162558Y119903D01*
X162896Y119396D01*
X163403Y119058D01*
X164000Y118939D01*
X164597Y119058D01*
X165104Y119396D01*
X165442Y119903D01*
X165561Y120500D01*
X165442Y121097D01*
X165104Y121604D01*
X164597Y121942D01*
X164000Y122061D01*
D02*
G37*
G36*
X145000D02*
X144403Y121942D01*
X143896Y121604D01*
X143558Y121097D01*
X143439Y120500D01*
X143558Y119903D01*
X143896Y119396D01*
X144403Y119058D01*
X145000Y118939D01*
X145597Y119058D01*
X146104Y119396D01*
X146442Y119903D01*
X146561Y120500D01*
X146442Y121097D01*
X146104Y121604D01*
X145597Y121942D01*
X145000Y122061D01*
D02*
G37*
G36*
X140500Y121561D02*
X139903Y121442D01*
X139396Y121104D01*
X139058Y120597D01*
X138939Y120000D01*
X139058Y119403D01*
X139396Y118896D01*
X139903Y118558D01*
X140500Y118439D01*
X141097Y118558D01*
X141604Y118896D01*
X141942Y119403D01*
X142061Y120000D01*
X141942Y120597D01*
X141604Y121104D01*
X141097Y121442D01*
X140500Y121561D01*
D02*
G37*
G36*
X207500Y120361D02*
X206903Y120242D01*
X206396Y119904D01*
X206058Y119397D01*
X205939Y118800D01*
X206058Y118203D01*
X206396Y117696D01*
X206903Y117358D01*
X207500Y117239D01*
X208097Y117358D01*
X208604Y117696D01*
X208942Y118203D01*
X209061Y118800D01*
X208942Y119397D01*
X208604Y119904D01*
X208097Y120242D01*
X207500Y120361D01*
D02*
G37*
G36*
X40000Y115061D02*
X39403Y114942D01*
X39110Y114747D01*
X38750Y114645D01*
X38390Y114747D01*
X38097Y114942D01*
X37500Y115061D01*
X36903Y114942D01*
X36396Y114604D01*
X36058Y114097D01*
X35939Y113500D01*
X36058Y112903D01*
X36396Y112396D01*
X36903Y112058D01*
X37500Y111939D01*
X38097Y112058D01*
X38390Y112253D01*
X38750Y112355D01*
X39110Y112253D01*
X39403Y112058D01*
X40000Y111939D01*
X40597Y112058D01*
X41104Y112396D01*
X41442Y112903D01*
X41561Y113500D01*
X41442Y114097D01*
X41104Y114604D01*
X40597Y114942D01*
X40000Y115061D01*
D02*
G37*
G36*
X403000Y117561D02*
X402403Y117442D01*
X401896Y117104D01*
X401558Y116597D01*
X401439Y116000D01*
X401558Y115403D01*
X401896Y114896D01*
X402403Y114558D01*
X403000Y114439D01*
X403597Y114558D01*
X404104Y114896D01*
X404442Y115403D01*
X404561Y116000D01*
X404442Y116597D01*
X404104Y117104D01*
X403597Y117442D01*
X403000Y117561D01*
D02*
G37*
G36*
X156815Y116801D02*
X156294Y116698D01*
X155853Y116403D01*
X155558Y115962D01*
X155455Y115441D01*
X155558Y114920D01*
X155853Y114479D01*
X156294Y114184D01*
X156815Y114081D01*
X157336Y114184D01*
X157777Y114479D01*
X158072Y114920D01*
X158175Y115441D01*
X158072Y115962D01*
X157777Y116403D01*
X157336Y116698D01*
X156815Y116801D01*
D02*
G37*
G36*
X152484D02*
X151964Y116698D01*
X151522Y116403D01*
X151227Y115962D01*
X151124Y115441D01*
X151227Y114920D01*
X151522Y114479D01*
X151964Y114184D01*
X152484Y114081D01*
X153005Y114184D01*
X153446Y114479D01*
X153741Y114920D01*
X153845Y115441D01*
X153741Y115962D01*
X153446Y116403D01*
X153005Y116698D01*
X152484Y116801D01*
D02*
G37*
G36*
X141000Y116061D02*
X140403Y115942D01*
X139896Y115604D01*
X139558Y115097D01*
X139439Y114500D01*
X139558Y113903D01*
X139896Y113396D01*
X140403Y113058D01*
X141000Y112939D01*
X141597Y113058D01*
X142104Y113396D01*
X142442Y113903D01*
X142561Y114500D01*
X142442Y115097D01*
X142104Y115604D01*
X141597Y115942D01*
X141000Y116061D01*
D02*
G37*
G36*
X293500Y115561D02*
X292903Y115442D01*
X292396Y115104D01*
X292058Y114597D01*
X291939Y114000D01*
X292058Y113403D01*
X292396Y112896D01*
X292903Y112558D01*
X293500Y112439D01*
X294097Y112558D01*
X294604Y112896D01*
X294942Y113403D01*
X295061Y114000D01*
X294942Y114597D01*
X294604Y115104D01*
X294097Y115442D01*
X293500Y115561D01*
D02*
G37*
G36*
X199500D02*
X198903Y115442D01*
X198396Y115104D01*
X198058Y114597D01*
X197939Y114000D01*
X198058Y113403D01*
X198396Y112896D01*
X198903Y112558D01*
X199500Y112439D01*
X200097Y112558D01*
X200604Y112896D01*
X200942Y113403D01*
X201061Y114000D01*
X200942Y114597D01*
X200604Y115104D01*
X200097Y115442D01*
X199500Y115561D01*
D02*
G37*
G36*
X105500D02*
X104903Y115442D01*
X104396Y115104D01*
X104058Y114597D01*
X103939Y114000D01*
X104058Y113403D01*
X104396Y112896D01*
X104903Y112558D01*
X105500Y112439D01*
X106097Y112558D01*
X106604Y112896D01*
X106942Y113403D01*
X107061Y114000D01*
X106942Y114597D01*
X106604Y115104D01*
X106097Y115442D01*
X105500Y115561D01*
D02*
G37*
G36*
X133000Y127386D02*
X132278Y127243D01*
X131666Y126834D01*
X131257Y126222D01*
X131114Y125500D01*
Y114000D01*
X131257Y113278D01*
X131666Y112666D01*
X132278Y112257D01*
X133000Y112114D01*
X133722Y112257D01*
X134334Y112666D01*
X134743Y113278D01*
X134886Y114000D01*
Y125500D01*
X134743Y126222D01*
X134334Y126834D01*
X133722Y127243D01*
X133000Y127386D01*
D02*
G37*
G36*
X338500Y116961D02*
X337903Y116842D01*
X337396Y116504D01*
X337058Y115997D01*
X336939Y115400D01*
X337058Y114803D01*
X337396Y114296D01*
X337489Y114234D01*
X337344Y113730D01*
X336903Y113642D01*
X336396Y113304D01*
X336058Y112797D01*
X335939Y112200D01*
X336058Y111603D01*
X336396Y111096D01*
X336903Y110758D01*
X337500Y110639D01*
X338097Y110758D01*
X338604Y111096D01*
X338942Y111603D01*
X339061Y112200D01*
X338942Y112797D01*
X338604Y113304D01*
X338511Y113366D01*
X338656Y113870D01*
X339097Y113958D01*
X339604Y114296D01*
X339942Y114803D01*
X340061Y115400D01*
X339942Y115997D01*
X339604Y116504D01*
X339097Y116842D01*
X338500Y116961D01*
D02*
G37*
G36*
X156815Y112471D02*
X156294Y112367D01*
X155853Y112072D01*
X155558Y111631D01*
X155455Y111110D01*
X155558Y110590D01*
X155853Y110148D01*
X156294Y109853D01*
X156815Y109750D01*
X157336Y109853D01*
X157777Y110148D01*
X158072Y110590D01*
X158175Y111110D01*
X158072Y111631D01*
X157777Y112072D01*
X157336Y112367D01*
X156815Y112471D01*
D02*
G37*
G36*
X152484D02*
X151964Y112367D01*
X151522Y112072D01*
X151227Y111631D01*
X151124Y111110D01*
X151227Y110590D01*
X151522Y110148D01*
X151964Y109853D01*
X152484Y109750D01*
X153005Y109853D01*
X153446Y110148D01*
X153741Y110590D01*
X153845Y111110D01*
X153741Y111631D01*
X153446Y112072D01*
X153005Y112367D01*
X152484Y112471D01*
D02*
G37*
G36*
X198500Y109561D02*
X197903Y109442D01*
X197396Y109104D01*
X197058Y108597D01*
X196939Y108000D01*
X197058Y107403D01*
X197396Y106896D01*
X197903Y106558D01*
X198500Y106439D01*
X199097Y106558D01*
X199604Y106896D01*
X199942Y107403D01*
X200061Y108000D01*
X199942Y108597D01*
X199604Y109104D01*
X199097Y109442D01*
X198500Y109561D01*
D02*
G37*
G36*
X96500D02*
X95903Y109442D01*
X95396Y109104D01*
X95058Y108597D01*
X94939Y108000D01*
X95058Y107403D01*
X95396Y106896D01*
X95903Y106558D01*
X96500Y106439D01*
X97097Y106558D01*
X97604Y106896D01*
X97942Y107403D01*
X98061Y108000D01*
X97942Y108597D01*
X97604Y109104D01*
X97097Y109442D01*
X96500Y109561D01*
D02*
G37*
G36*
X86500D02*
X85903Y109442D01*
X85396Y109104D01*
X85058Y108597D01*
X84939Y108000D01*
X85058Y107403D01*
X85396Y106896D01*
X85903Y106558D01*
X86500Y106439D01*
X87097Y106558D01*
X87604Y106896D01*
X87942Y107403D01*
X88061Y108000D01*
X87942Y108597D01*
X87604Y109104D01*
X87097Y109442D01*
X86500Y109561D01*
D02*
G37*
G36*
X26500D02*
X25903Y109442D01*
X25396Y109104D01*
X25058Y108597D01*
X24939Y108000D01*
X25058Y107403D01*
X25396Y106896D01*
X25903Y106558D01*
X26500Y106439D01*
X27097Y106558D01*
X27604Y106896D01*
X27942Y107403D01*
X28061Y108000D01*
X27942Y108597D01*
X27604Y109104D01*
X27097Y109442D01*
X26500Y109561D01*
D02*
G37*
G36*
X16500D02*
X15903Y109442D01*
X15396Y109104D01*
X15058Y108597D01*
X14939Y108000D01*
X15058Y107403D01*
X15396Y106896D01*
X15903Y106558D01*
X16500Y106439D01*
X17097Y106558D01*
X17604Y106896D01*
X17942Y107403D01*
X18061Y108000D01*
X17942Y108597D01*
X17604Y109104D01*
X17097Y109442D01*
X16500Y109561D01*
D02*
G37*
G36*
X6500D02*
X5903Y109442D01*
X5396Y109104D01*
X5058Y108597D01*
X4939Y108000D01*
X5058Y107403D01*
X5396Y106896D01*
X5903Y106558D01*
X6500Y106439D01*
X7097Y106558D01*
X7604Y106896D01*
X7942Y107403D01*
X8061Y108000D01*
X7942Y108597D01*
X7604Y109104D01*
X7097Y109442D01*
X6500Y109561D01*
D02*
G37*
G36*
X113400Y109419D02*
X112803Y109300D01*
X112296Y108961D01*
X111958Y108455D01*
X111839Y107858D01*
X111958Y107260D01*
X112296Y106754D01*
X112803Y106415D01*
X113400Y106296D01*
X113997Y106415D01*
X114504Y106754D01*
X114842Y107260D01*
X114961Y107858D01*
X114842Y108455D01*
X114504Y108961D01*
X113997Y109300D01*
X113400Y109419D01*
D02*
G37*
G36*
X332000Y145000D02*
X300000D01*
Y106229D01*
X299500Y105962D01*
X299000Y106061D01*
X298403Y105942D01*
X297896Y105604D01*
X297558Y105097D01*
X297439Y104500D01*
X297558Y103903D01*
X297896Y103396D01*
X298403Y103058D01*
X299000Y102939D01*
X299500Y103038D01*
X300000Y103000D01*
X300000Y103000D01*
X300000Y103000D01*
X332000D01*
Y145000D01*
D02*
G37*
G36*
X500100Y106260D02*
X499618Y106164D01*
X499209Y105891D01*
X498891D01*
X498482Y106164D01*
X498000Y106260D01*
X497518Y106164D01*
X497109Y105891D01*
X496836Y105482D01*
X496740Y105000D01*
X496836Y104518D01*
X497109Y104109D01*
X497518Y103836D01*
X498000Y103740D01*
X498482Y103836D01*
X498891Y104109D01*
X499209D01*
X499618Y103836D01*
X500100Y103740D01*
X500582Y103836D01*
X500991Y104109D01*
X501264Y104518D01*
X501360Y105000D01*
X501264Y105482D01*
X500991Y105891D01*
X500582Y106164D01*
X500100Y106260D01*
D02*
G37*
G36*
X156815Y108140D02*
X156294Y108036D01*
X155853Y107741D01*
X155558Y107300D01*
X155455Y106780D01*
X155558Y106259D01*
X155853Y105818D01*
X156294Y105523D01*
X156815Y105419D01*
X157336Y105523D01*
X157777Y105818D01*
X158072Y106259D01*
X158175Y106780D01*
X158072Y107300D01*
X157777Y107741D01*
X157336Y108036D01*
X156815Y108140D01*
D02*
G37*
G36*
X152484D02*
X151964Y108036D01*
X151522Y107741D01*
X151227Y107300D01*
X151124Y106780D01*
X151227Y106259D01*
X151522Y105818D01*
X151964Y105523D01*
X152484Y105419D01*
X153005Y105523D01*
X153446Y105818D01*
X153741Y106259D01*
X153845Y106780D01*
X153741Y107300D01*
X153446Y107741D01*
X153005Y108036D01*
X152484Y108140D01*
D02*
G37*
G36*
X177000Y106561D02*
X176403Y106442D01*
X175896Y106104D01*
X175558Y105597D01*
X175439Y105000D01*
X175558Y104403D01*
X175896Y103896D01*
X176403Y103558D01*
X177000Y103439D01*
X177597Y103558D01*
X178104Y103896D01*
X178442Y104403D01*
X178561Y105000D01*
X178442Y105597D01*
X178104Y106104D01*
X177597Y106442D01*
X177000Y106561D01*
D02*
G37*
G36*
X500141Y102910D02*
X499659Y102814D01*
X499418Y102653D01*
X499071Y102579D01*
X498724Y102653D01*
X498482Y102814D01*
X498000Y102910D01*
X497518Y102814D01*
X497109Y102541D01*
X496836Y102132D01*
X496740Y101650D01*
X496836Y101168D01*
X497109Y100759D01*
X497518Y100486D01*
X498000Y100390D01*
X498482Y100486D01*
X498724Y100647D01*
X499071Y100721D01*
X499418Y100647D01*
X499659Y100486D01*
X500141Y100390D01*
X500624Y100486D01*
X501032Y100759D01*
X501305Y101168D01*
X501401Y101650D01*
X501305Y102132D01*
X501032Y102541D01*
X500624Y102814D01*
X500141Y102910D01*
D02*
G37*
G36*
X164000Y103561D02*
X163403Y103442D01*
X162896Y103104D01*
X162558Y102597D01*
X162439Y102000D01*
X162558Y101403D01*
X162896Y100896D01*
X163403Y100558D01*
X164000Y100439D01*
X164597Y100558D01*
X165104Y100896D01*
X165442Y101403D01*
X165561Y102000D01*
X165442Y102597D01*
X165104Y103104D01*
X164597Y103442D01*
X164000Y103561D01*
D02*
G37*
G36*
X71500Y99561D02*
X70903Y99442D01*
X70396Y99104D01*
X70058Y98597D01*
X69939Y98000D01*
X70058Y97403D01*
X70396Y96896D01*
X70903Y96558D01*
X71500Y96439D01*
X72097Y96558D01*
X72604Y96896D01*
X72942Y97403D01*
X73061Y98000D01*
X72942Y98597D01*
X72604Y99104D01*
X72097Y99442D01*
X71500Y99561D01*
D02*
G37*
G36*
X61500D02*
X60903Y99442D01*
X60396Y99104D01*
X60058Y98597D01*
X59939Y98000D01*
X60058Y97403D01*
X60396Y96896D01*
X60903Y96558D01*
X61500Y96439D01*
X62097Y96558D01*
X62604Y96896D01*
X62942Y97403D01*
X63061Y98000D01*
X62942Y98597D01*
X62604Y99104D01*
X62097Y99442D01*
X61500Y99561D01*
D02*
G37*
G36*
X51500D02*
X50903Y99442D01*
X50396Y99104D01*
X50058Y98597D01*
X49939Y98000D01*
X50058Y97403D01*
X50396Y96896D01*
X50903Y96558D01*
X51500Y96439D01*
X52097Y96558D01*
X52604Y96896D01*
X52942Y97403D01*
X53061Y98000D01*
X52942Y98597D01*
X52604Y99104D01*
X52097Y99442D01*
X51500Y99561D01*
D02*
G37*
G36*
X21500D02*
X20903Y99442D01*
X20396Y99104D01*
X20058Y98597D01*
X19939Y98000D01*
X20058Y97403D01*
X20396Y96896D01*
X20903Y96558D01*
X21500Y96439D01*
X22097Y96558D01*
X22604Y96896D01*
X22942Y97403D01*
X23061Y98000D01*
X22942Y98597D01*
X22604Y99104D01*
X22097Y99442D01*
X21500Y99561D01*
D02*
G37*
G36*
X11500D02*
X10903Y99442D01*
X10396Y99104D01*
X10058Y98597D01*
X9939Y98000D01*
X10058Y97403D01*
X10396Y96896D01*
X10903Y96558D01*
X11500Y96439D01*
X12097Y96558D01*
X12604Y96896D01*
X12942Y97403D01*
X13061Y98000D01*
X12942Y98597D01*
X12604Y99104D01*
X12097Y99442D01*
X11500Y99561D01*
D02*
G37*
G36*
X167500Y97561D02*
X166903Y97442D01*
X166396Y97104D01*
X166058Y96597D01*
X165939Y96000D01*
X166058Y95403D01*
X166396Y94896D01*
X166903Y94558D01*
X167500Y94439D01*
X168097Y94558D01*
X168604Y94896D01*
X168942Y95403D01*
X169061Y96000D01*
X168942Y96597D01*
X168604Y97104D01*
X168097Y97442D01*
X167500Y97561D01*
D02*
G37*
G36*
X421000Y96561D02*
X420403Y96442D01*
X419896Y96104D01*
X419558Y95597D01*
X419439Y95000D01*
X419558Y94403D01*
X419896Y93896D01*
X420403Y93558D01*
X421000Y93439D01*
X421597Y93558D01*
X422104Y93896D01*
X422442Y94403D01*
X422561Y95000D01*
X422442Y95597D01*
X422104Y96104D01*
X421597Y96442D01*
X421000Y96561D01*
D02*
G37*
G36*
X162700Y93761D02*
X162103Y93642D01*
X161596Y93304D01*
X161258Y92797D01*
X161139Y92200D01*
X161258Y91603D01*
X161596Y91096D01*
X162103Y90758D01*
X162700Y90639D01*
X163297Y90758D01*
X163804Y91096D01*
X164142Y91603D01*
X164261Y92200D01*
X164142Y92797D01*
X163804Y93304D01*
X163297Y93642D01*
X162700Y93761D01*
D02*
G37*
G36*
X262500Y91061D02*
X261903Y90942D01*
X261396Y90604D01*
X261058Y90097D01*
X260939Y89500D01*
X261058Y88903D01*
X261396Y88396D01*
X261903Y88058D01*
X262500Y87939D01*
X263097Y88058D01*
X263604Y88396D01*
X263942Y88903D01*
X264061Y89500D01*
X263942Y90097D01*
X263604Y90604D01*
X263097Y90942D01*
X262500Y91061D01*
D02*
G37*
G36*
X270500Y90561D02*
X269903Y90442D01*
X269396Y90104D01*
X269058Y89597D01*
X268939Y89000D01*
X269058Y88403D01*
X269396Y87896D01*
X269903Y87558D01*
X270500Y87439D01*
X271097Y87558D01*
X271604Y87896D01*
X271942Y88403D01*
X272061Y89000D01*
X271942Y89597D01*
X271604Y90104D01*
X271097Y90442D01*
X270500Y90561D01*
D02*
G37*
G36*
X46500Y89561D02*
X45903Y89442D01*
X45396Y89104D01*
X45058Y88597D01*
X44939Y88000D01*
X45058Y87403D01*
X45396Y86896D01*
X45903Y86558D01*
X46500Y86439D01*
X47097Y86558D01*
X47604Y86896D01*
X47942Y87403D01*
X48061Y88000D01*
X47942Y88597D01*
X47604Y89104D01*
X47097Y89442D01*
X46500Y89561D01*
D02*
G37*
G36*
X26500D02*
X25903Y89442D01*
X25396Y89104D01*
X25058Y88597D01*
X24939Y88000D01*
X25058Y87403D01*
X25396Y86896D01*
X25903Y86558D01*
X26500Y86439D01*
X27097Y86558D01*
X27604Y86896D01*
X27942Y87403D01*
X28061Y88000D01*
X27942Y88597D01*
X27604Y89104D01*
X27097Y89442D01*
X26500Y89561D01*
D02*
G37*
G36*
X16500D02*
X15903Y89442D01*
X15396Y89104D01*
X15058Y88597D01*
X14939Y88000D01*
X15058Y87403D01*
X15396Y86896D01*
X15903Y86558D01*
X16500Y86439D01*
X17097Y86558D01*
X17604Y86896D01*
X17942Y87403D01*
X18061Y88000D01*
X17942Y88597D01*
X17604Y89104D01*
X17097Y89442D01*
X16500Y89561D01*
D02*
G37*
G36*
X6500D02*
X5903Y89442D01*
X5396Y89104D01*
X5058Y88597D01*
X4939Y88000D01*
X5058Y87403D01*
X5396Y86896D01*
X5903Y86558D01*
X6500Y86439D01*
X7097Y86558D01*
X7604Y86896D01*
X7942Y87403D01*
X8061Y88000D01*
X7942Y88597D01*
X7604Y89104D01*
X7097Y89442D01*
X6500Y89561D01*
D02*
G37*
G36*
X228500Y85561D02*
X227903Y85442D01*
X227396Y85104D01*
X227058Y84597D01*
X226939Y84000D01*
X227058Y83403D01*
X227396Y82896D01*
X227903Y82558D01*
X228500Y82439D01*
X229097Y82558D01*
X229604Y82896D01*
X229942Y83403D01*
X230061Y84000D01*
X229942Y84597D01*
X229604Y85104D01*
X229097Y85442D01*
X228500Y85561D01*
D02*
G37*
G36*
X196320Y85380D02*
X195723Y85261D01*
X195216Y84923D01*
X194878Y84416D01*
X194759Y83819D01*
X194878Y83222D01*
X195216Y82715D01*
X195723Y82377D01*
X196320Y82258D01*
X196918Y82377D01*
X197424Y82715D01*
X197762Y83222D01*
X197881Y83819D01*
X197762Y84416D01*
X197424Y84923D01*
X196918Y85261D01*
X196320Y85380D01*
D02*
G37*
G36*
X210000Y85061D02*
X209403Y84942D01*
X208896Y84604D01*
X208558Y84097D01*
X208439Y83500D01*
X208558Y82903D01*
X208896Y82396D01*
X209403Y82058D01*
X210000Y81939D01*
X210597Y82058D01*
X211104Y82396D01*
X211442Y82903D01*
X211561Y83500D01*
X211442Y84097D01*
X211104Y84604D01*
X210597Y84942D01*
X210000Y85061D01*
D02*
G37*
G36*
X264500Y83061D02*
X263903Y82942D01*
X263396Y82604D01*
X263058Y82097D01*
X262939Y81500D01*
X263058Y80903D01*
X263396Y80396D01*
X263903Y80058D01*
X264500Y79939D01*
X265097Y80058D01*
X265604Y80396D01*
X265942Y80903D01*
X266061Y81500D01*
X265942Y82097D01*
X265604Y82604D01*
X265097Y82942D01*
X264500Y83061D01*
D02*
G37*
G36*
X221315Y80337D02*
X220794Y80233D01*
X220353Y79938D01*
X220058Y79497D01*
X219955Y78976D01*
X220058Y78456D01*
X220353Y78014D01*
X220794Y77719D01*
X221315Y77616D01*
X221836Y77719D01*
X222277Y78014D01*
X222572Y78456D01*
X222675Y78976D01*
X222572Y79497D01*
X222277Y79938D01*
X221836Y80233D01*
X221315Y80337D01*
D02*
G37*
G36*
X216984D02*
X216464Y80233D01*
X216022Y79938D01*
X215727Y79497D01*
X215624Y78976D01*
X215727Y78456D01*
X216022Y78014D01*
X216464Y77719D01*
X216984Y77616D01*
X217505Y77719D01*
X217946Y78014D01*
X218241Y78456D01*
X218345Y78976D01*
X218241Y79497D01*
X217946Y79938D01*
X217505Y80233D01*
X216984Y80337D01*
D02*
G37*
G36*
X121500Y79561D02*
X120903Y79442D01*
X120396Y79104D01*
X120058Y78597D01*
X119939Y78000D01*
X120058Y77403D01*
X120396Y76896D01*
X120903Y76558D01*
X121500Y76439D01*
X122097Y76558D01*
X122604Y76896D01*
X122942Y77403D01*
X123061Y78000D01*
X122942Y78597D01*
X122604Y79104D01*
X122097Y79442D01*
X121500Y79561D01*
D02*
G37*
G36*
X111500D02*
X110903Y79442D01*
X110396Y79104D01*
X110058Y78597D01*
X109939Y78000D01*
X110058Y77403D01*
X110396Y76896D01*
X110903Y76558D01*
X111500Y76439D01*
X112097Y76558D01*
X112604Y76896D01*
X112942Y77403D01*
X113061Y78000D01*
X112942Y78597D01*
X112604Y79104D01*
X112097Y79442D01*
X111500Y79561D01*
D02*
G37*
G36*
X91500D02*
X90903Y79442D01*
X90396Y79104D01*
X90058Y78597D01*
X89939Y78000D01*
X90058Y77403D01*
X90396Y76896D01*
X90903Y76558D01*
X91500Y76439D01*
X92097Y76558D01*
X92604Y76896D01*
X92942Y77403D01*
X93061Y78000D01*
X92942Y78597D01*
X92604Y79104D01*
X92097Y79442D01*
X91500Y79561D01*
D02*
G37*
G36*
X31500D02*
X30903Y79442D01*
X30396Y79104D01*
X30058Y78597D01*
X29939Y78000D01*
X30058Y77403D01*
X30396Y76896D01*
X30903Y76558D01*
X31500Y76439D01*
X32097Y76558D01*
X32604Y76896D01*
X32942Y77403D01*
X33061Y78000D01*
X32942Y78597D01*
X32604Y79104D01*
X32097Y79442D01*
X31500Y79561D01*
D02*
G37*
G36*
X21500D02*
X20903Y79442D01*
X20396Y79104D01*
X20058Y78597D01*
X19939Y78000D01*
X20058Y77403D01*
X20396Y76896D01*
X20903Y76558D01*
X21500Y76439D01*
X22097Y76558D01*
X22604Y76896D01*
X22942Y77403D01*
X23061Y78000D01*
X22942Y78597D01*
X22604Y79104D01*
X22097Y79442D01*
X21500Y79561D01*
D02*
G37*
G36*
X11500D02*
X10903Y79442D01*
X10396Y79104D01*
X10058Y78597D01*
X9939Y78000D01*
X10058Y77403D01*
X10396Y76896D01*
X10903Y76558D01*
X11500Y76439D01*
X12097Y76558D01*
X12604Y76896D01*
X12942Y77403D01*
X13061Y78000D01*
X12942Y78597D01*
X12604Y79104D01*
X12097Y79442D01*
X11500Y79561D01*
D02*
G37*
G36*
X205500Y79061D02*
X204903Y78942D01*
X204396Y78604D01*
X204058Y78097D01*
X203939Y77500D01*
X204058Y76903D01*
X204396Y76396D01*
X204903Y76058D01*
X205500Y75939D01*
X206097Y76058D01*
X206604Y76396D01*
X206942Y76903D01*
X207061Y77500D01*
X206942Y78097D01*
X206604Y78604D01*
X206097Y78942D01*
X205500Y79061D01*
D02*
G37*
G36*
X198500D02*
X197903Y78942D01*
X197396Y78604D01*
X197058Y78097D01*
X196939Y77500D01*
X197058Y76903D01*
X197396Y76396D01*
X197903Y76058D01*
X198500Y75939D01*
X199097Y76058D01*
X199604Y76396D01*
X199942Y76903D01*
X200061Y77500D01*
X199942Y78097D01*
X199604Y78604D01*
X199097Y78942D01*
X198500Y79061D01*
D02*
G37*
G36*
X507000Y75061D02*
X506403Y74942D01*
X506110Y74747D01*
X505750Y74645D01*
X505390Y74747D01*
X505097Y74942D01*
X504500Y75061D01*
X503903Y74942D01*
X503610Y74747D01*
X503250Y74645D01*
X502890Y74747D01*
X502597Y74942D01*
X502000Y75061D01*
X501403Y74942D01*
X500896Y74604D01*
X500558Y74097D01*
X500439Y73500D01*
X500558Y72903D01*
X500896Y72396D01*
X501403Y72058D01*
X502000Y71939D01*
X502597Y72058D01*
X502890Y72253D01*
X503250Y72355D01*
X503610Y72253D01*
X503903Y72058D01*
X504500Y71939D01*
X505097Y72058D01*
X505390Y72253D01*
X505750Y72355D01*
X506110Y72253D01*
X506403Y72058D01*
X507000Y71939D01*
X507597Y72058D01*
X508104Y72396D01*
X508442Y72903D01*
X508561Y73500D01*
X508442Y74097D01*
X508104Y74604D01*
X507597Y74942D01*
X507000Y75061D01*
D02*
G37*
G36*
X191000Y77361D02*
X190403Y77242D01*
X189896Y76904D01*
X189558Y76397D01*
X189439Y75800D01*
X189558Y75203D01*
X189896Y74696D01*
X190403Y74358D01*
X191000Y74239D01*
X191597Y74358D01*
X192104Y74696D01*
X192442Y75203D01*
X192561Y75800D01*
X192442Y76397D01*
X192104Y76904D01*
X191597Y77242D01*
X191000Y77361D01*
D02*
G37*
G36*
X221315Y76006D02*
X220794Y75902D01*
X220353Y75608D01*
X220058Y75166D01*
X219955Y74646D01*
X220058Y74125D01*
X220353Y73684D01*
X220794Y73389D01*
X221315Y73285D01*
X221836Y73389D01*
X222277Y73684D01*
X222572Y74125D01*
X222675Y74646D01*
X222572Y75166D01*
X222277Y75608D01*
X221836Y75902D01*
X221315Y76006D01*
D02*
G37*
G36*
X216984D02*
X216464Y75902D01*
X216022Y75608D01*
X215727Y75166D01*
X215624Y74646D01*
X215727Y74125D01*
X216022Y73684D01*
X216464Y73389D01*
X216984Y73285D01*
X217505Y73389D01*
X217946Y73684D01*
X218241Y74125D01*
X218345Y74646D01*
X218241Y75166D01*
X217946Y75608D01*
X217505Y75902D01*
X216984Y76006D01*
D02*
G37*
G36*
X262500Y73561D02*
X261903Y73442D01*
X261396Y73104D01*
X261058Y72597D01*
X260939Y72000D01*
X261058Y71403D01*
X261396Y70896D01*
X261903Y70558D01*
X262500Y70439D01*
X263097Y70558D01*
X263604Y70896D01*
X263942Y71403D01*
X264061Y72000D01*
X263942Y72597D01*
X263604Y73104D01*
X263097Y73442D01*
X262500Y73561D01*
D02*
G37*
G36*
X197500Y72861D02*
X196903Y72742D01*
X196396Y72404D01*
X196058Y71897D01*
X195939Y71300D01*
X196058Y70703D01*
X196396Y70196D01*
X196903Y69858D01*
X197500Y69739D01*
X198097Y69858D01*
X198604Y70196D01*
X198942Y70703D01*
X199061Y71300D01*
X198942Y71897D01*
X198604Y72404D01*
X198097Y72742D01*
X197500Y72861D01*
D02*
G37*
G36*
X221315Y71675D02*
X220794Y71572D01*
X220353Y71277D01*
X220058Y70836D01*
X219955Y70315D01*
X220058Y69794D01*
X220353Y69353D01*
X220794Y69058D01*
X221315Y68955D01*
X221836Y69058D01*
X222277Y69353D01*
X222572Y69794D01*
X222675Y70315D01*
X222572Y70836D01*
X222277Y71277D01*
X221836Y71572D01*
X221315Y71675D01*
D02*
G37*
G36*
X216984D02*
X216464Y71572D01*
X216022Y71277D01*
X215727Y70836D01*
X215624Y70315D01*
X215727Y69794D01*
X216022Y69353D01*
X216464Y69058D01*
X216984Y68955D01*
X217505Y69058D01*
X217946Y69353D01*
X218241Y69794D01*
X218345Y70315D01*
X218241Y70836D01*
X217946Y71277D01*
X217505Y71572D01*
X216984Y71675D01*
D02*
G37*
G36*
X241551Y70061D02*
X240954Y69942D01*
X240447Y69604D01*
X240109Y69097D01*
X239990Y68500D01*
X240109Y67903D01*
X240447Y67396D01*
X240954Y67058D01*
X241551Y66939D01*
X242149Y67058D01*
X242655Y67396D01*
X242993Y67903D01*
X243112Y68500D01*
X242993Y69097D01*
X242655Y69604D01*
X242149Y69942D01*
X241551Y70061D01*
D02*
G37*
G36*
X136500Y69561D02*
X135903Y69442D01*
X135396Y69104D01*
X135058Y68597D01*
X134939Y68000D01*
X135058Y67403D01*
X135396Y66896D01*
X135903Y66558D01*
X136500Y66439D01*
X137097Y66558D01*
X137604Y66896D01*
X137942Y67403D01*
X138061Y68000D01*
X137942Y68597D01*
X137604Y69104D01*
X137097Y69442D01*
X136500Y69561D01*
D02*
G37*
G36*
X126500D02*
X125903Y69442D01*
X125396Y69104D01*
X125058Y68597D01*
X124939Y68000D01*
X125058Y67403D01*
X125396Y66896D01*
X125903Y66558D01*
X126500Y66439D01*
X127097Y66558D01*
X127604Y66896D01*
X127942Y67403D01*
X128061Y68000D01*
X127942Y68597D01*
X127604Y69104D01*
X127097Y69442D01*
X126500Y69561D01*
D02*
G37*
G36*
X106500D02*
X105903Y69442D01*
X105396Y69104D01*
X105058Y68597D01*
X104939Y68000D01*
X105058Y67403D01*
X105396Y66896D01*
X105903Y66558D01*
X106500Y66439D01*
X107097Y66558D01*
X107604Y66896D01*
X107942Y67403D01*
X108061Y68000D01*
X107942Y68597D01*
X107604Y69104D01*
X107097Y69442D01*
X106500Y69561D01*
D02*
G37*
G36*
X66500D02*
X65903Y69442D01*
X65396Y69104D01*
X65058Y68597D01*
X64939Y68000D01*
X65058Y67403D01*
X65396Y66896D01*
X65903Y66558D01*
X66500Y66439D01*
X67097Y66558D01*
X67604Y66896D01*
X67942Y67403D01*
X68061Y68000D01*
X67942Y68597D01*
X67604Y69104D01*
X67097Y69442D01*
X66500Y69561D01*
D02*
G37*
G36*
X228500Y66561D02*
X227903Y66442D01*
X227396Y66104D01*
X227058Y65597D01*
X226939Y65000D01*
X227058Y64403D01*
X227396Y63896D01*
X227903Y63558D01*
X228500Y63439D01*
X229097Y63558D01*
X229604Y63896D01*
X229942Y64403D01*
X230061Y65000D01*
X229942Y65597D01*
X229604Y66104D01*
X229097Y66442D01*
X228500Y66561D01*
D02*
G37*
G36*
X232000Y61061D02*
X231403Y60942D01*
X230896Y60604D01*
X230558Y60097D01*
X230439Y59500D01*
X230558Y58903D01*
X230896Y58396D01*
X231403Y58058D01*
X232000Y57939D01*
X232597Y58058D01*
X233104Y58396D01*
X233442Y58903D01*
X233561Y59500D01*
X233442Y60097D01*
X233104Y60604D01*
X232597Y60942D01*
X232000Y61061D01*
D02*
G37*
G36*
X227400Y57261D02*
X226803Y57142D01*
X226296Y56804D01*
X225958Y56297D01*
X225839Y55700D01*
X225958Y55103D01*
X226296Y54596D01*
X226803Y54258D01*
X227400Y54139D01*
X227997Y54258D01*
X228504Y54596D01*
X228842Y55103D01*
X228961Y55700D01*
X228842Y56297D01*
X228504Y56804D01*
X227997Y57142D01*
X227400Y57261D01*
D02*
G37*
G36*
X96500Y49561D02*
X95903Y49442D01*
X95396Y49104D01*
X95058Y48597D01*
X94939Y48000D01*
X95058Y47403D01*
X95396Y46896D01*
X95903Y46558D01*
X96500Y46439D01*
X97097Y46558D01*
X97604Y46896D01*
X97942Y47403D01*
X98061Y48000D01*
X97942Y48597D01*
X97604Y49104D01*
X97097Y49442D01*
X96500Y49561D01*
D02*
G37*
G36*
X118500Y51061D02*
X117903Y50942D01*
X117396Y50604D01*
X117058Y50097D01*
X116939Y49500D01*
X117058Y48903D01*
X117253Y48610D01*
X117355Y48250D01*
X117253Y47890D01*
X117058Y47597D01*
X116939Y47000D01*
X117058Y46403D01*
X117396Y45896D01*
X117903Y45558D01*
X118500Y45439D01*
X119097Y45558D01*
X119604Y45896D01*
X119942Y46403D01*
X120061Y47000D01*
X119942Y47597D01*
X119747Y47890D01*
X119645Y48250D01*
X119747Y48610D01*
X119942Y48903D01*
X120061Y49500D01*
X119942Y50097D01*
X119604Y50604D01*
X119097Y50942D01*
X118500Y51061D01*
D02*
G37*
G36*
X507000Y45061D02*
X506403Y44942D01*
X506110Y44747D01*
X505750Y44645D01*
X505390Y44747D01*
X505097Y44942D01*
X504500Y45061D01*
X503903Y44942D01*
X503610Y44747D01*
X503250Y44645D01*
X502890Y44747D01*
X502597Y44942D01*
X502000Y45061D01*
X501403Y44942D01*
X500896Y44604D01*
X500558Y44097D01*
X500439Y43500D01*
X500558Y42903D01*
X500896Y42396D01*
X501403Y42058D01*
X502000Y41939D01*
X502597Y42058D01*
X502890Y42253D01*
X503250Y42355D01*
X503610Y42253D01*
X503903Y42058D01*
X504500Y41939D01*
X505097Y42058D01*
X505390Y42253D01*
X505750Y42355D01*
X506110Y42253D01*
X506403Y42058D01*
X507000Y41939D01*
X507597Y42058D01*
X508104Y42396D01*
X508442Y42903D01*
X508561Y43500D01*
X508442Y44097D01*
X508104Y44604D01*
X507597Y44942D01*
X507000Y45061D01*
D02*
G37*
G36*
X111500Y39561D02*
X110903Y39442D01*
X110396Y39104D01*
X110058Y38597D01*
X109939Y38000D01*
X110058Y37403D01*
X110396Y36896D01*
X110903Y36558D01*
X111500Y36439D01*
X112097Y36558D01*
X112604Y36896D01*
X112942Y37403D01*
X113061Y38000D01*
X112942Y38597D01*
X112604Y39104D01*
X112097Y39442D01*
X111500Y39561D01*
D02*
G37*
G36*
X91500D02*
X90903Y39442D01*
X90396Y39104D01*
X90058Y38597D01*
X89939Y38000D01*
X90058Y37403D01*
X90396Y36896D01*
X90903Y36558D01*
X91500Y36439D01*
X92097Y36558D01*
X92604Y36896D01*
X92942Y37403D01*
X93061Y38000D01*
X92942Y38597D01*
X92604Y39104D01*
X92097Y39442D01*
X91500Y39561D01*
D02*
G37*
G36*
X479500Y41544D02*
X478741Y41444D01*
X478033Y41151D01*
X477425Y40685D01*
X476959Y40077D01*
X476666Y39370D01*
X476566Y38610D01*
X476666Y37851D01*
X476959Y37143D01*
X477425Y36536D01*
X478033Y36069D01*
X478741Y35776D01*
X479500Y35676D01*
X480259Y35776D01*
X480967Y36069D01*
X481575Y36536D01*
X482041Y37143D01*
X482334Y37851D01*
X482434Y38610D01*
X482334Y39370D01*
X482041Y40077D01*
X481575Y40685D01*
X480967Y41151D01*
X480259Y41444D01*
X479500Y41544D01*
D02*
G37*
G36*
X136500Y29561D02*
X135903Y29442D01*
X135396Y29104D01*
X135058Y28597D01*
X134939Y28000D01*
X135058Y27403D01*
X135396Y26896D01*
X135903Y26558D01*
X136500Y26439D01*
X137097Y26558D01*
X137604Y26896D01*
X137942Y27403D01*
X138061Y28000D01*
X137942Y28597D01*
X137604Y29104D01*
X137097Y29442D01*
X136500Y29561D01*
D02*
G37*
G36*
X96500D02*
X95903Y29442D01*
X95396Y29104D01*
X95058Y28597D01*
X94939Y28000D01*
X95058Y27403D01*
X95396Y26896D01*
X95903Y26558D01*
X96500Y26439D01*
X97097Y26558D01*
X97604Y26896D01*
X97942Y27403D01*
X98061Y28000D01*
X97942Y28597D01*
X97604Y29104D01*
X97097Y29442D01*
X96500Y29561D01*
D02*
G37*
G36*
X56500D02*
X55903Y29442D01*
X55396Y29104D01*
X55058Y28597D01*
X54939Y28000D01*
X55058Y27403D01*
X55396Y26896D01*
X55903Y26558D01*
X56500Y26439D01*
X57097Y26558D01*
X57604Y26896D01*
X57942Y27403D01*
X58061Y28000D01*
X57942Y28597D01*
X57604Y29104D01*
X57097Y29442D01*
X56500Y29561D01*
D02*
G37*
G36*
X18000Y26044D02*
X17241Y25944D01*
X16533Y25651D01*
X15925Y25185D01*
X15459Y24577D01*
X15166Y23870D01*
X15066Y23110D01*
X15166Y22351D01*
X15459Y21643D01*
X15925Y21035D01*
X16533Y20569D01*
X17241Y20276D01*
X18000Y20176D01*
X18759Y20276D01*
X19467Y20569D01*
X20075Y21035D01*
X20541Y21643D01*
X20834Y22351D01*
X20934Y23110D01*
X20834Y23870D01*
X20541Y24577D01*
X20075Y25185D01*
X19467Y25651D01*
X18759Y25944D01*
X18000Y26044D01*
D02*
G37*
G36*
X91500Y19561D02*
X90903Y19442D01*
X90396Y19104D01*
X90058Y18597D01*
X89939Y18000D01*
X90058Y17403D01*
X90396Y16896D01*
X90903Y16558D01*
X91500Y16439D01*
X92097Y16558D01*
X92604Y16896D01*
X92942Y17403D01*
X93061Y18000D01*
X92942Y18597D01*
X92604Y19104D01*
X92097Y19442D01*
X91500Y19561D01*
D02*
G37*
G36*
X86500Y9561D02*
X85903Y9442D01*
X85396Y9104D01*
X85058Y8597D01*
X84939Y8000D01*
X85058Y7403D01*
X85396Y6896D01*
X85903Y6558D01*
X86500Y6439D01*
X87097Y6558D01*
X87604Y6896D01*
X87942Y7403D01*
X88061Y8000D01*
X87942Y8597D01*
X87604Y9104D01*
X87097Y9442D01*
X86500Y9561D01*
D02*
G37*
G36*
X76500D02*
X75903Y9442D01*
X75396Y9104D01*
X75058Y8597D01*
X74939Y8000D01*
X75058Y7403D01*
X75396Y6896D01*
X75903Y6558D01*
X76500Y6439D01*
X77097Y6558D01*
X77604Y6896D01*
X77942Y7403D01*
X78061Y8000D01*
X77942Y8597D01*
X77604Y9104D01*
X77097Y9442D01*
X76500Y9561D01*
D02*
G37*
G36*
X56500D02*
X55903Y9442D01*
X55396Y9104D01*
X55058Y8597D01*
X54939Y8000D01*
X55058Y7403D01*
X55396Y6896D01*
X55903Y6558D01*
X56500Y6439D01*
X57097Y6558D01*
X57604Y6896D01*
X57942Y7403D01*
X58061Y8000D01*
X57942Y8597D01*
X57604Y9104D01*
X57097Y9442D01*
X56500Y9561D01*
D02*
G37*
%LPD*%
D14*
X523000Y228500D02*
Y242000D01*
Y228500D02*
X529500Y222000D01*
D74*
X133000Y231000D02*
X133500Y231500D01*
X133000Y182500D02*
Y231000D01*
Y114000D02*
Y125500D01*
D79*
X529500Y222000D02*
D03*
D82*
X18000Y36890D02*
D03*
X479500Y52390D02*
D03*
D85*
X523000Y242000D02*
D03*
X31500Y53000D02*
D03*
Y43000D02*
D03*
Y33000D02*
D03*
X26500Y53000D02*
D03*
X29000Y48000D02*
D03*
X26500Y43000D02*
D03*
X29000Y38000D02*
D03*
X26500Y33000D02*
D03*
X21500Y53000D02*
D03*
X24000Y48000D02*
D03*
X21500Y43000D02*
D03*
X24000Y38000D02*
D03*
X16500Y53000D02*
D03*
X19000Y48000D02*
D03*
X16500Y43000D02*
D03*
X11500Y53000D02*
D03*
X14000Y48000D02*
D03*
X11500Y43000D02*
D03*
Y33000D02*
D03*
X502000Y77000D02*
D03*
X507000D02*
D03*
X504500D02*
D03*
X507000Y47000D02*
D03*
X504500D02*
D03*
X502000D02*
D03*
X404000Y297000D02*
D03*
Y271500D02*
D03*
Y245500D02*
D03*
Y220500D02*
D03*
Y189000D02*
D03*
Y163000D02*
D03*
Y137500D02*
D03*
Y112000D02*
D03*
X133000Y125500D02*
D03*
X133500Y231500D02*
D03*
X133000Y182500D02*
D03*
Y114000D02*
D03*
X232000Y323000D02*
D03*
X170000Y285500D02*
D03*
X233500Y257500D02*
D03*
X171000Y216500D02*
D03*
Y167000D02*
D03*
X235400Y136600D02*
D03*
X171000Y99000D02*
D03*
X-9000Y122000D02*
D03*
X101500Y13000D02*
D03*
X104000D02*
D03*
X235500Y62500D02*
D03*
X473000Y347000D02*
D03*
X294500Y257000D02*
D03*
Y267000D02*
D03*
Y277000D02*
D03*
Y287000D02*
D03*
Y141000D02*
D03*
Y131000D02*
D03*
Y121000D02*
D03*
Y111000D02*
D03*
M02*
