G04*
G04 #@! TF.GenerationSoftware,Altium Limited,Altium Designer,18.0.12 (696)*
G04*
G04 Layer_Color=16711935*
%FSLAX25Y25*%
%MOIN*%
G70*
G01*
G75*
%ADD49C,0.04737*%
%ADD51R,0.11417X0.02559*%
%ADD63C,0.06600*%
%ADD64C,0.13005*%
%ADD65R,0.06312X0.06312*%
%ADD66C,0.06312*%
%ADD67C,0.10249*%
%ADD68C,0.13595*%
%ADD69R,0.05918X0.05918*%
%ADD70C,0.05918*%
D49*
X28000Y186000D02*
D03*
Y178000D02*
D03*
Y170000D02*
D03*
D51*
X-49000Y235291D02*
D03*
Y238441D02*
D03*
Y128205D02*
D03*
Y131354D02*
D03*
Y134504D02*
D03*
Y137654D02*
D03*
Y140803D02*
D03*
Y143953D02*
D03*
Y147102D02*
D03*
Y150252D02*
D03*
Y153402D02*
D03*
Y156551D02*
D03*
Y159701D02*
D03*
Y162850D02*
D03*
Y166000D02*
D03*
Y169150D02*
D03*
Y172299D02*
D03*
Y175449D02*
D03*
Y178598D02*
D03*
Y181748D02*
D03*
Y197496D02*
D03*
Y200646D02*
D03*
Y203795D02*
D03*
Y206945D02*
D03*
Y210094D02*
D03*
Y213244D02*
D03*
Y216394D02*
D03*
Y219543D02*
D03*
Y222693D02*
D03*
Y225842D02*
D03*
Y228992D02*
D03*
Y232142D02*
D03*
Y241590D02*
D03*
Y244740D02*
D03*
Y247890D02*
D03*
Y251039D02*
D03*
Y254189D02*
D03*
Y257339D02*
D03*
Y260488D02*
D03*
Y263638D02*
D03*
D63*
X531256Y59000D02*
D03*
Y69000D02*
D03*
Y79000D02*
D03*
Y89000D02*
D03*
Y99000D02*
D03*
Y109000D02*
D03*
Y49000D02*
D03*
Y39000D02*
D03*
X521256Y109000D02*
D03*
Y99000D02*
D03*
Y89000D02*
D03*
Y79000D02*
D03*
Y69000D02*
D03*
Y59000D02*
D03*
Y49000D02*
D03*
Y39000D02*
D03*
D64*
X543307Y372047D02*
D03*
Y21654D02*
D03*
D65*
X536500Y242000D02*
D03*
Y180000D02*
D03*
D66*
X529500Y238000D02*
D03*
X536500Y234000D02*
D03*
X529500Y230000D02*
D03*
X536500Y226000D02*
D03*
X529500Y222000D02*
D03*
X536500Y218000D02*
D03*
X529500Y214000D02*
D03*
Y152000D02*
D03*
X536500Y156000D02*
D03*
X529500Y160000D02*
D03*
X536500Y164000D02*
D03*
X529500Y168000D02*
D03*
X536500Y172000D02*
D03*
X529500Y176000D02*
D03*
D67*
X533000Y260000D02*
D03*
Y134000D02*
D03*
D68*
X546500Y253000D02*
D03*
Y141000D02*
D03*
D69*
X18000Y36890D02*
D03*
X479500Y52390D02*
D03*
D70*
X18000Y23110D02*
D03*
X479500Y38610D02*
D03*
M02*
