G04*
G04 #@! TF.GenerationSoftware,Altium Limited,Altium Designer,19.1.8 (144)*
G04*
G04 Layer_Color=16711935*
%FSLAX25Y25*%
%MOIN*%
G70*
G01*
G75*
%ADD16C,0.01000*%
%ADD90C,0.00600*%
D16*
X564928Y19714D02*
X565903Y19780D01*
X566856Y19998D01*
X567763Y20364D01*
X568600Y20868D01*
X569347Y21497D01*
X569986Y22237D01*
X570501Y23068D01*
X570877Y23970D01*
X571107Y24920D01*
X571185Y25895D01*
Y408673D02*
X571119Y409648D01*
X570901Y410601D01*
X570535Y411507D01*
X570031Y412344D01*
X569401Y413092D01*
X568662Y413731D01*
X567830Y414245D01*
X566928Y414622D01*
X565978Y414852D01*
X565004Y414929D01*
X14567Y25984D02*
X14634Y24990D01*
X14856Y24019D01*
X15229Y23096D01*
X15743Y22242D01*
X16384Y21480D01*
X17138Y20829D01*
X17985Y20305D01*
X18904Y19921D01*
X19873Y19687D01*
X20866Y19608D01*
X21729Y414950D02*
X20701Y414889D01*
X19692Y414680D01*
X18724Y414330D01*
X17816Y413844D01*
X16987Y413233D01*
X16255Y412509D01*
X15634Y411688D01*
X15137Y410786D01*
X14774Y409822D01*
X14554Y408816D01*
X14479Y407789D01*
X-8268Y134985D02*
X-9287Y134851D01*
X-10236Y134458D01*
X-11052Y133832D01*
X-11677Y133017D01*
X-12071Y132067D01*
X-12205Y131048D01*
X-13780Y127504D02*
X-12666Y127966D01*
X-12205Y129079D01*
X-20177Y140737D02*
X-20311Y141756D01*
X-20705Y142705D01*
X-21330Y143521D01*
X-22146Y144146D01*
X-23095Y144540D01*
X-24114Y144674D01*
X-24237Y289594D02*
X-23218Y289728D01*
X-22268Y290122D01*
X-21453Y290747D01*
X-20827Y291563D01*
X-20434Y292512D01*
X-20300Y293531D01*
X-23386Y206264D02*
X-22403Y206367D01*
X-21464Y206672D01*
X-20609Y207166D01*
X-19875Y207827D01*
X-19294Y208626D01*
X-18892Y209528D01*
X-18687Y210494D01*
Y211482D01*
X-18892Y212448D01*
X-19294Y213351D01*
X-19875Y214149D01*
X-20609Y214810D01*
X-21464Y215304D01*
X-22403Y215609D01*
X-23386Y215713D01*
X-12205Y305512D02*
X-12666Y306625D01*
X-13780Y307087D01*
X-12205Y303150D02*
X-12071Y302131D01*
X-11677Y301181D01*
X-11052Y300366D01*
X-10236Y299740D01*
X-9287Y299347D01*
X-8268Y299213D01*
X566504Y414950D02*
X696264D01*
X566322Y19608D02*
X696264D01*
X695264Y233774D02*
Y414950D01*
Y19608D02*
Y197584D01*
X693264Y408950D02*
X695264Y414950D01*
X697264Y408950D01*
X695264Y19608D02*
X697264Y25608D01*
X693264D02*
X695264Y19608D01*
X571185Y410173D02*
Y469350D01*
X-43515Y291094D02*
Y469350D01*
X279830Y468350D02*
X571185D01*
X-43515D02*
X244640D01*
X565185Y470350D02*
X571185Y468350D01*
X565185Y466350D02*
X571185Y468350D01*
X-43515D02*
X-37515Y466350D01*
X-43515Y468350D02*
X-37515Y470350D01*
X20866Y19608D02*
X564822D01*
X571185Y25895D02*
Y408673D01*
X21729Y414950D02*
X565004D01*
X14567Y299213D02*
Y407789D01*
X-8268Y299213D02*
X14567D01*
Y26378D02*
Y134985D01*
X-8268D02*
X14567D01*
X-12205Y129079D02*
Y131048D01*
X-20177Y127504D02*
X-13780D01*
X-20177D02*
Y140737D01*
X-43515Y144709D02*
X-24149D01*
X-43515D02*
Y206264D01*
X-23386D01*
X-43551Y215748D02*
X-23421D01*
X-43551D02*
X-43515Y215713D01*
Y289594D01*
X-24237D01*
X-12205Y303150D02*
Y305512D01*
X-20300Y307087D02*
X-13780D01*
X-20300Y293531D02*
Y307087D01*
D90*
X699862Y199184D02*
Y201184D01*
Y200184D01*
X693864D01*
X694864Y199184D01*
Y204183D02*
X693864Y205183D01*
Y207182D01*
X694864Y208182D01*
X698863D01*
X699862Y207182D01*
Y205183D01*
X698863Y204183D01*
X694864D01*
Y210181D02*
X693864Y211180D01*
Y213180D01*
X694864Y214180D01*
X698863D01*
X699862Y213180D01*
Y211180D01*
X698863Y210181D01*
X694864D01*
X700862Y217179D02*
X699862Y218178D01*
X698863D01*
Y217179D01*
X699862D01*
Y218178D01*
X700862Y217179D01*
X701862Y216179D01*
X699862Y225176D02*
X693864D01*
X696864Y222177D01*
Y226176D01*
X699862Y232174D02*
Y228175D01*
X695864Y232174D01*
X694864D01*
X693864Y231174D01*
Y229175D01*
X694864Y228175D01*
X246240Y463752D02*
X248239D01*
X247239D01*
Y469750D01*
X246240Y468750D01*
X255237Y469750D02*
X251238D01*
Y466751D01*
X253238Y467750D01*
X254237D01*
X255237Y466751D01*
Y464751D01*
X254237Y463752D01*
X252238D01*
X251238Y464751D01*
X261235Y469750D02*
X259236Y468750D01*
X257236Y466751D01*
Y464751D01*
X258236Y463752D01*
X260235D01*
X261235Y464751D01*
Y465751D01*
X260235Y466751D01*
X257236D01*
X264234Y462752D02*
X265234Y463752D01*
Y464751D01*
X264234D01*
Y463752D01*
X265234D01*
X264234Y462752D01*
X263234Y461752D01*
X269232Y463752D02*
X271232D01*
X270232D01*
Y469750D01*
X269232Y468750D01*
X274231D02*
X275230Y469750D01*
X277230D01*
X278229Y468750D01*
Y467750D01*
X277230Y466751D01*
X276230D01*
X277230D01*
X278229Y465751D01*
Y464751D01*
X277230Y463752D01*
X275230D01*
X274231Y464751D01*
M02*
