G04*
G04 #@! TF.GenerationSoftware,Altium Limited,Altium Designer,19.1.8 (144)*
G04*
G04 Layer_Color=8388736*
%FSLAX25Y25*%
%MOIN*%
G70*
G01*
G75*
%ADD91C,0.00100*%
%ADD92C,0.00400*%
D91*
X-19763Y141476D02*
X-19897Y142495D01*
X-20291Y143445D01*
X-20916Y144260D01*
X-21732Y144886D01*
X-22681Y145279D01*
X-23700Y145413D01*
X-14331Y127697D02*
X-13217Y128158D01*
X-12756Y129272D01*
X18976Y145413D02*
X17957Y145279D01*
X17008Y144886D01*
X16193Y144260D01*
X15567Y143445D01*
X15173Y142495D01*
X15039Y141476D01*
X-23700Y288917D02*
X-22681Y289052D01*
X-21732Y289445D01*
X-20916Y290070D01*
X-20291Y290886D01*
X-19897Y291835D01*
X-19763Y292854D01*
X-12756Y305059D02*
X-13217Y306173D01*
X-14331Y306634D01*
X15039Y292854D02*
X15173Y291835D01*
X15567Y290886D01*
X16193Y290070D01*
X17008Y289445D01*
X17957Y289052D01*
X18976Y288917D01*
X-8819Y135571D02*
X-9838Y135437D01*
X-10787Y135043D01*
X-11603Y134418D01*
X-12228Y133602D01*
X-12622Y132653D01*
X-12756Y131634D01*
Y302697D02*
X-12622Y301678D01*
X-12228Y300728D01*
X-11603Y299913D01*
X-10787Y299287D01*
X-9838Y298894D01*
X-8819Y298760D01*
X-22913Y206142D02*
X-21931Y206245D01*
X-20992Y206550D01*
X-20136Y207044D01*
X-19402Y207705D01*
X-18822Y208504D01*
X-18420Y209406D01*
X-18215Y210372D01*
Y211360D01*
X-18420Y212326D01*
X-18822Y213228D01*
X-19402Y214027D01*
X-20136Y214688D01*
X-20992Y215182D01*
X-21931Y215487D01*
X-22913Y215591D01*
X-43386D02*
X-40317D01*
X-43386Y206142D02*
X-40317D01*
X-8819Y135571D02*
X15039D01*
X-43386Y288917D02*
X-40317D01*
Y145413D02*
X-23700D01*
X-19763Y306634D02*
X-14331D01*
X-40317Y206142D02*
X-22913D01*
X18976Y145413D02*
X29710D01*
X-12756Y302697D02*
Y305059D01*
X-40317Y215591D02*
X-22913D01*
X-12756Y129272D02*
Y131634D01*
X18976Y288917D02*
X29710D01*
X-43386Y215591D02*
Y288917D01*
Y145413D02*
Y206142D01*
X-8819Y298760D02*
X15039D01*
X-40317Y288917D02*
X-23700D01*
X-19763Y127697D02*
Y141476D01*
Y127697D02*
X-14331D01*
X15039Y135571D02*
Y141476D01*
Y292854D02*
Y298760D01*
X-19763Y292854D02*
Y306634D01*
X-43386Y145413D02*
X-40317D01*
D92*
X-48451Y199438D02*
X-44452Y196772D01*
X-48451D02*
X-44452Y199438D01*
Y195439D02*
Y194106D01*
Y194773D01*
X-48451D01*
X-47785Y195439D01*
M02*
