G04*
G04 #@! TF.GenerationSoftware,Altium Limited,Altium Designer,19.1.8 (144)*
G04*
G04 Layer_Color=32768*
%FSLAX25Y25*%
%MOIN*%
G70*
G01*
G75*
%ADD10C,0.00984*%
%ADD11C,0.00394*%
%ADD12C,0.02362*%
%ADD14C,0.00787*%
%ADD17C,0.00500*%
%ADD93C,0.00197*%
%ADD94R,0.10984X0.02383*%
D10*
X215539Y69138D02*
X214801Y69564D01*
Y68712D01*
X215539Y69138D01*
X215929Y42854D02*
X215191Y43281D01*
Y42428D01*
X215929Y42854D01*
X56874Y177626D02*
X56136Y178052D01*
Y177200D01*
X56874Y177626D01*
X287303Y308193D02*
X286565Y308619D01*
Y307767D01*
X287303Y308193D01*
Y247563D02*
X286565Y247989D01*
Y247137D01*
X287303Y247563D01*
Y186933D02*
X286565Y187359D01*
Y186507D01*
X287303Y186933D01*
Y126303D02*
X286565Y126729D01*
Y125877D01*
X287303Y126303D01*
X160291Y203969D02*
X159553Y204395D01*
Y203542D01*
X160291Y203969D01*
X185630Y288509D02*
X184892Y288936D01*
Y288083D01*
X185630Y288509D01*
X67996Y76505D02*
X67258Y76932D01*
Y76079D01*
X67996Y76505D01*
X481433Y389395D02*
X480695Y389821D01*
Y388969D01*
X481433Y389395D01*
X481827Y298057D02*
X481089Y298483D01*
Y297630D01*
X481827Y298057D01*
X482614Y202781D02*
X481876Y203207D01*
Y202355D01*
X482614Y202781D01*
X481039Y107505D02*
X480301Y107932D01*
Y107079D01*
X481039Y107505D01*
X54927Y347789D02*
X54189Y348215D01*
Y347362D01*
X54927Y347789D01*
X146193Y323082D02*
X145455Y323508D01*
Y322656D01*
X146193Y323082D01*
X46000Y74435D02*
X45262Y74861D01*
Y74008D01*
X46000Y74435D01*
X198953Y337033D02*
X198215Y337459D01*
Y336607D01*
X198953Y337033D01*
X191630Y368332D02*
X190892Y368758D01*
Y367906D01*
X191630Y368332D01*
X191471Y396113D02*
X190733Y396539D01*
Y395687D01*
X191471Y396113D01*
X55714Y400151D02*
X54976Y400577D01*
Y399725D01*
X55714Y400151D01*
X62303Y72441D02*
X61565Y72867D01*
Y72015D01*
X62303Y72441D01*
X72301Y357529D02*
X71563Y357955D01*
Y357102D01*
X72301Y357529D01*
D11*
X276772Y306224D02*
X288976D01*
X276772Y322760D02*
X288976D01*
X276772Y306224D02*
Y322760D01*
X288976Y306224D02*
Y322760D01*
X276772Y245595D02*
X288976D01*
X276772Y262130D02*
X288976D01*
X276772Y245595D02*
Y262130D01*
X288976Y245595D02*
Y262130D01*
X276772Y184965D02*
X288976D01*
X276772Y201500D02*
X288976D01*
X276772Y184965D02*
Y201500D01*
X288976Y184965D02*
Y201500D01*
X276772Y124335D02*
X288976D01*
X276772Y140870D02*
X288976D01*
X276772Y124335D02*
Y140870D01*
X288976Y124335D02*
Y140870D01*
X173461Y175614D02*
Y206323D01*
X156138Y203764D02*
X158697Y206323D01*
X156138Y175614D02*
Y206323D01*
X173461D01*
X156138Y175614D02*
X173461D01*
X456398Y77067D02*
X463287D01*
X456398Y73327D02*
Y77067D01*
X463287Y73327D02*
Y77067D01*
X456398Y73327D02*
X463287D01*
X243465Y335354D02*
Y340079D01*
X251339Y335354D02*
Y340079D01*
X243465Y335354D02*
X251339D01*
X243465Y340079D02*
X251339D01*
X234685Y396378D02*
Y401102D01*
X242559Y396378D02*
Y401102D01*
X234685Y396378D02*
X242559D01*
X234685Y401102D02*
X242559D01*
X234370Y367008D02*
Y371732D01*
X242244Y367008D02*
Y371732D01*
X234370Y367008D02*
X242244D01*
X234370Y371732D02*
X242244D01*
X22807Y146999D02*
X29697D01*
Y150739D01*
X22807Y146999D02*
Y150739D01*
X29697D01*
X11280Y142421D02*
Y149311D01*
X7539D02*
X11280D01*
X7539Y142421D02*
X11280D01*
X7539D02*
Y149311D01*
X4575Y142604D02*
Y149494D01*
X835D02*
X4575D01*
X835Y142604D02*
X4575D01*
X835D02*
Y149494D01*
X-5065Y142604D02*
Y149494D01*
Y142604D02*
X-1325D01*
X-5065Y149494D02*
X-1325D01*
Y142604D02*
Y149494D01*
X67484Y96781D02*
X78469D01*
X67484Y79065D02*
X78469D01*
X67484D02*
Y96781D01*
X78469Y79065D02*
Y96781D01*
X157908Y398869D02*
X165782D01*
X157908Y394145D02*
X165782D01*
Y398869D01*
X157908Y394145D02*
Y398869D01*
X470902Y399435D02*
X483106D01*
X470902Y387230D02*
X483106D01*
Y399435D01*
X470902Y387230D02*
Y399435D01*
X471295Y308096D02*
X483500D01*
X471295Y295891D02*
X483500D01*
Y308096D01*
X471295Y295891D02*
Y308096D01*
X472083Y212820D02*
X484287D01*
X472083Y200616D02*
X484287D01*
Y212820D01*
X472083Y200616D02*
Y212820D01*
X470508Y117545D02*
X482713D01*
X470508Y105340D02*
X482713D01*
Y117545D01*
X470508Y105340D02*
Y117545D01*
X412634Y349828D02*
Y367545D01*
X392555Y349828D02*
Y367545D01*
X412634D01*
X392555Y349828D02*
X412634D01*
X412634Y254553D02*
Y272269D01*
X392555Y254553D02*
Y272269D01*
X412634D01*
X392555Y254553D02*
X412634D01*
Y159277D02*
Y176994D01*
X392555Y159277D02*
Y176994D01*
X412634D01*
X392555Y159277D02*
X412634D01*
X412634Y64002D02*
Y81718D01*
X392555Y64002D02*
Y81718D01*
X412634D01*
X392555Y64002D02*
X412634D01*
X144720Y134769D02*
Y141659D01*
X132910Y134769D02*
Y141659D01*
Y134769D02*
X144720D01*
X132910Y141659D02*
X144720D01*
X44395Y351529D02*
X56600D01*
X44395Y339324D02*
X56600D01*
X44395D02*
Y351529D01*
X56600Y339324D02*
Y351529D01*
X152492Y312767D02*
X159382D01*
X152492Y324735D02*
X159382D01*
Y312767D02*
Y324735D01*
X152492Y312767D02*
Y324735D01*
X43343Y70694D02*
X55547D01*
X43343Y82899D02*
X55547D01*
Y70694D02*
Y82899D01*
X43343Y70694D02*
Y82899D01*
X205252Y326718D02*
X212142D01*
X205252Y338686D02*
X212142D01*
Y326718D02*
Y338686D01*
X205252Y326718D02*
Y338686D01*
X197929Y358017D02*
X204819D01*
X197929Y369986D02*
X204819D01*
Y358017D02*
Y369986D01*
X197929Y358017D02*
Y369986D01*
X197771Y385798D02*
X204660D01*
X197771Y397767D02*
X204660D01*
Y385798D02*
Y397767D01*
X197771Y385798D02*
Y397767D01*
X440551Y314961D02*
X464961D01*
X440551Y346457D02*
X464961D01*
Y314961D02*
Y346457D01*
X440551Y314961D02*
Y346457D01*
Y218898D02*
X464961D01*
X440551Y250394D02*
X464961D01*
Y218898D02*
Y250394D01*
X440551Y218898D02*
Y250394D01*
Y123622D02*
X464961D01*
X440551Y155118D02*
X464961D01*
Y123622D02*
Y155118D01*
X440551Y123622D02*
Y155118D01*
Y35519D02*
X464961D01*
X440551Y67016D02*
X464961D01*
Y35519D02*
Y67016D01*
X440551Y35519D02*
Y67016D01*
X192358Y226009D02*
Y250419D01*
X223854Y226009D02*
Y250419D01*
X192358Y226009D02*
X223854D01*
X192358Y250419D02*
X223854D01*
X418835Y349533D02*
X425724D01*
X418835Y345793D02*
Y349533D01*
X425724Y345793D02*
Y349533D01*
X418835Y345793D02*
X425724D01*
X418835Y254257D02*
X425724D01*
X418835Y250517D02*
Y254257D01*
X425724Y250517D02*
Y254257D01*
X418835Y250517D02*
X425724D01*
X418835Y158982D02*
X425724D01*
X418835Y155242D02*
Y158982D01*
X425724Y155242D02*
Y158982D01*
X418835Y155242D02*
X425724D01*
X418835Y63706D02*
X425724D01*
X418835Y59966D02*
Y63706D01*
X425724Y59966D02*
Y63706D01*
X418835Y59966D02*
X425724D01*
X418047Y371580D02*
X424937D01*
X418047Y367840D02*
Y371580D01*
X424937Y367840D02*
Y371580D01*
X418047Y367840D02*
X424937D01*
X418047Y276305D02*
X424937D01*
X418047Y272565D02*
Y276305D01*
X424937Y272565D02*
Y276305D01*
X418047Y272565D02*
X424937D01*
X418047Y181029D02*
X424937D01*
X418047Y177289D02*
Y181029D01*
X424937Y177289D02*
Y181029D01*
X418047Y177289D02*
X424937D01*
X418047Y85754D02*
X424937D01*
X418047Y82013D02*
Y85754D01*
X424937Y82013D02*
Y85754D01*
X418047Y82013D02*
X424937D01*
X303087Y400124D02*
X309976D01*
Y403864D01*
X303087Y400124D02*
Y403864D01*
X309976D01*
X117260Y100517D02*
X124150D01*
Y104257D01*
X117260Y100517D02*
Y104257D01*
X124150D01*
X78421Y185174D02*
Y192064D01*
X74681D02*
X78421D01*
X74681Y185174D02*
X78421D01*
X74681D02*
Y192064D01*
X173953Y247958D02*
X180842D01*
X173953Y244218D02*
Y247958D01*
X180842Y244218D02*
Y247958D01*
X173953Y244218D02*
X180842D01*
X78421Y172970D02*
Y179859D01*
X74681D02*
X78421D01*
X74681Y172970D02*
X78421D01*
X74681D02*
Y179859D01*
X89317Y150371D02*
X96207D01*
Y154111D01*
X89317Y150371D02*
Y154111D01*
X96207D01*
X406791Y314151D02*
Y321041D01*
Y314151D02*
X410532D01*
X406791Y321041D02*
X410532D01*
Y314151D02*
Y321041D01*
Y219021D02*
Y225911D01*
X406791D02*
X410532D01*
X406791Y219021D02*
X410532D01*
X406791D02*
Y225911D01*
X410532Y124336D02*
Y131226D01*
X406791D02*
X410532D01*
X406791Y124336D02*
X410532D01*
X406791D02*
Y131226D01*
X410532Y32472D02*
Y39362D01*
X406791D02*
X410532D01*
X406791Y32472D02*
X410532D01*
X406791D02*
Y39362D01*
X415453Y320005D02*
Y326895D01*
Y320005D02*
X419193D01*
X415453Y326895D02*
X419193D01*
Y320005D02*
Y326895D01*
Y225689D02*
Y232579D01*
X415453D02*
X419193D01*
X415453Y225689D02*
X419193D01*
X415453D02*
Y232579D01*
X419193Y128839D02*
Y135728D01*
X415453D02*
X419193D01*
X415453Y128839D02*
X419193D01*
X415453D02*
Y135728D01*
X419193Y36319D02*
Y43209D01*
X415453D02*
X419193D01*
X415453Y36319D02*
X419193D01*
X415453D02*
Y43209D01*
X173953Y240084D02*
X180842D01*
X173953Y236344D02*
Y240084D01*
X180842Y236344D02*
Y240084D01*
X173953Y236344D02*
X180842D01*
X424902Y325689D02*
Y332579D01*
Y325689D02*
X428642D01*
X424902Y332579D02*
X428642D01*
Y325689D02*
Y332579D01*
Y230413D02*
Y237303D01*
X424902D02*
X428642D01*
X424902Y230413D02*
X428642D01*
X424902D02*
Y237303D01*
X428642Y134369D02*
Y141258D01*
X424902D02*
X428642D01*
X424902Y134369D02*
X428642D01*
X424902D02*
Y141258D01*
X428642Y44980D02*
Y51870D01*
X424902D02*
X428642D01*
X424902Y44980D02*
X428642D01*
X424902D02*
Y51870D01*
X173953Y232210D02*
X180842D01*
X173953Y228470D02*
Y232210D01*
X180842Y228470D02*
Y232210D01*
X173953Y228470D02*
X180842D01*
X139110Y203273D02*
Y210163D01*
X135370D02*
X139110D01*
X135370Y203273D02*
X139110D01*
X135370D02*
Y210163D01*
X432776Y333883D02*
Y340773D01*
Y333883D02*
X436516D01*
X432776Y340773D02*
X436516D01*
Y333883D02*
Y340773D01*
Y238509D02*
Y245399D01*
X432776D02*
X436516D01*
X432776Y238509D02*
X436516D01*
X432776D02*
Y245399D01*
X436516Y143037D02*
Y149927D01*
X432776D02*
X436516D01*
X432776Y143037D02*
X436516D01*
X432776D02*
Y149927D01*
X436516Y49150D02*
Y56039D01*
X432776D02*
X436516D01*
X432776Y49150D02*
X436516D01*
X432776D02*
Y56039D01*
X456398Y358366D02*
X463287D01*
Y362106D01*
X456398Y358366D02*
Y362106D01*
X463287D01*
X456398Y263484D02*
X463287D01*
Y267224D01*
X456398Y263484D02*
Y267224D01*
X463287D01*
X456398Y167028D02*
X463287D01*
Y170768D01*
X456398Y167028D02*
Y170768D01*
X463287D01*
X239504Y52856D02*
Y59746D01*
X235764D02*
X239504D01*
X235764Y52856D02*
X239504D01*
X235764D02*
Y59746D01*
X239504Y39471D02*
Y46360D01*
X235764D02*
X239504D01*
X235764Y39471D02*
X239504D01*
X235764D02*
Y46360D01*
X230415Y88861D02*
X237305D01*
X230415Y85121D02*
Y88861D01*
X237305Y85121D02*
Y88861D01*
X230415Y85121D02*
X237305D01*
X239112Y72744D02*
Y79634D01*
X235372D02*
X239112D01*
X235372Y72744D02*
X239112D01*
X235372D02*
Y79634D01*
X39769Y335265D02*
Y342155D01*
X36029D02*
X39769D01*
X36029Y335265D02*
X39769D01*
X36029D02*
Y342155D01*
Y356942D02*
Y363832D01*
Y356942D02*
X39769D01*
X36029Y363832D02*
X39769D01*
Y356942D02*
Y363832D01*
Y320722D02*
Y327611D01*
X36029D02*
X39769D01*
X36029Y320722D02*
X39769D01*
X36029D02*
Y327611D01*
X48332Y372099D02*
X55222D01*
Y375840D01*
X48332Y372099D02*
Y375840D01*
X55222D01*
X43116Y320722D02*
Y327611D01*
Y320722D02*
X46856D01*
X43116Y327611D02*
X46856D01*
Y320722D02*
Y327611D01*
X60173Y83588D02*
Y90478D01*
Y83588D02*
X63913D01*
X60173Y90478D02*
X63913D01*
Y83588D02*
Y90478D01*
X414110Y388116D02*
X421000D01*
X414110Y384376D02*
Y388116D01*
X421000Y384376D02*
Y388116D01*
X414110Y384376D02*
X421000D01*
X414110Y292840D02*
X421000D01*
X414110Y289100D02*
Y292840D01*
X421000Y289100D02*
Y292840D01*
X414110Y289100D02*
X421000D01*
X414110Y197564D02*
X421000D01*
X414110Y193824D02*
Y197564D01*
X421000Y193824D02*
Y197564D01*
X414110Y193824D02*
X421000D01*
X414110Y102289D02*
X421000D01*
X414110Y98549D02*
Y102289D01*
X421000Y98549D02*
Y102289D01*
X414110Y98549D02*
X421000D01*
X199705Y204429D02*
Y211319D01*
Y204429D02*
X203445D01*
X199705Y211319D02*
X203445D01*
Y204429D02*
Y211319D01*
Y191831D02*
Y198721D01*
X199705D02*
X203445D01*
X199705Y191831D02*
X203445D01*
X199705D02*
Y198721D01*
X303087Y364690D02*
X309976D01*
Y368431D01*
X303087Y364690D02*
Y368431D01*
X309976D01*
X303087Y352879D02*
X309976D01*
Y356620D01*
X303087Y352879D02*
Y356620D01*
X309976D01*
X463323Y368832D02*
Y375722D01*
Y368832D02*
X467063D01*
X463323Y375722D02*
X467063D01*
Y368832D02*
Y375722D01*
X463717Y277494D02*
Y284383D01*
Y277494D02*
X467457D01*
X463717Y284383D02*
X467457D01*
Y277494D02*
Y284383D01*
X463717Y182061D02*
Y188950D01*
Y182061D02*
X467457D01*
X463717Y188950D02*
X467457D01*
Y182061D02*
Y188950D01*
X463717Y86942D02*
Y93832D01*
Y86942D02*
X467457D01*
X463717Y93832D02*
X467457D01*
Y86942D02*
Y93832D01*
X485173Y372565D02*
Y379454D01*
X481433D02*
X485173D01*
X481433Y372565D02*
X485173D01*
X481433D02*
Y379454D01*
X485567Y281226D02*
Y288116D01*
X481827D02*
X485567D01*
X481827Y281226D02*
X485567D01*
X481827D02*
Y288116D01*
X485567Y185793D02*
Y192683D01*
X481827D02*
X485567D01*
X481827Y185793D02*
X485567D01*
X481827D02*
Y192683D01*
X485567Y90675D02*
Y97565D01*
X481827D02*
X485567D01*
X481827Y90675D02*
X485567D01*
X481827D02*
Y97565D01*
X498953Y372565D02*
Y379454D01*
Y372565D02*
X502693D01*
X498953Y379454D02*
X502693D01*
Y372565D02*
Y379454D01*
X499346Y281226D02*
Y288116D01*
Y281226D02*
X503087D01*
X499346Y288116D02*
X503087D01*
Y281226D02*
Y288116D01*
X499346Y185793D02*
Y192683D01*
Y185793D02*
X503087D01*
X499346Y192683D02*
X503087D01*
Y185793D02*
Y192683D01*
X499346Y90675D02*
Y97565D01*
Y90675D02*
X503087D01*
X499346Y97565D02*
X503087D01*
Y90675D02*
Y97565D01*
X87732Y128372D02*
X94622D01*
X87732Y124631D02*
Y128372D01*
X94622Y124631D02*
Y128372D01*
X87732Y124631D02*
X94622D01*
X87732Y137722D02*
X94622D01*
X87732Y133982D02*
Y137722D01*
X94622Y133982D02*
Y137722D01*
X87732Y133982D02*
X94622D01*
X303087Y376501D02*
X309976D01*
Y380242D01*
X303087Y376501D02*
Y380242D01*
X309976D01*
X303087Y388313D02*
X309976D01*
Y392053D01*
X303087Y388313D02*
Y392053D01*
X309976D01*
X321197Y43604D02*
X328087D01*
Y47345D01*
X321197Y43604D02*
Y47345D01*
X328087D01*
X320805Y75303D02*
X327695D01*
Y79044D01*
X320805Y75303D02*
Y79044D01*
X327695D01*
X52299Y53470D02*
X59189D01*
Y57210D01*
X52299Y53470D02*
Y57210D01*
X59189D01*
X60173Y96187D02*
Y103076D01*
Y96187D02*
X63913D01*
X60173Y103076D02*
X63913D01*
Y96187D02*
Y103076D01*
X380252Y361344D02*
X387142D01*
X380252Y357604D02*
Y361344D01*
X387142Y357604D02*
Y361344D01*
X380252Y357604D02*
X387142D01*
X380252Y266068D02*
X387142D01*
X380252Y262328D02*
Y266068D01*
X387142Y262328D02*
Y266068D01*
X380252Y262328D02*
X387142D01*
X380252Y170793D02*
X387142D01*
X380252Y167053D02*
Y170793D01*
X387142Y167053D02*
Y170793D01*
X380252Y167053D02*
X387142D01*
X380252Y75517D02*
X387142D01*
X380252Y71777D02*
Y75517D01*
X387142Y71777D02*
Y75517D01*
X380252Y71777D02*
X387142D01*
X401512Y384376D02*
X408402D01*
Y388116D01*
X401512Y384376D02*
Y388116D01*
X408402D01*
X401512Y289100D02*
X408402D01*
Y292840D01*
X401512Y289100D02*
Y292840D01*
X408402D01*
X401512Y193824D02*
X408402D01*
Y197564D01*
X401512Y193824D02*
Y197564D01*
X408402D01*
X401512Y98549D02*
X408402D01*
Y102289D01*
X401512Y98549D02*
Y102289D01*
X408402D01*
X380252Y353470D02*
X387142D01*
X380252Y349730D02*
Y353470D01*
X387142Y349730D02*
Y353470D01*
X380252Y349730D02*
X387142D01*
X380252Y258194D02*
X387142D01*
X380252Y254454D02*
Y258194D01*
X387142Y254454D02*
Y258194D01*
X380252Y254454D02*
X387142D01*
X380252Y162919D02*
X387142D01*
X380252Y159179D02*
Y162919D01*
X387142Y159179D02*
Y162919D01*
X380252Y159179D02*
X387142D01*
X380252Y67643D02*
X387142D01*
X380252Y63903D02*
Y67643D01*
X387142Y63903D02*
Y67643D01*
X380252Y63903D02*
X387142D01*
X32614Y55242D02*
Y62131D01*
Y55242D02*
X36354D01*
X32614Y62131D02*
X36354D01*
Y55242D02*
Y62131D01*
X56039Y96187D02*
Y103076D01*
X52299D02*
X56039D01*
X52299Y96187D02*
X56039D01*
X52299D02*
Y103076D01*
X380842Y366265D02*
Y373155D01*
X377102D02*
X380842D01*
X377102Y366265D02*
X380842D01*
X377102D02*
Y373155D01*
X380842Y270990D02*
Y277880D01*
X377102D02*
X380842D01*
X377102Y270990D02*
X380842D01*
X377102D02*
Y277880D01*
X380842Y175714D02*
Y182604D01*
X377102D02*
X380842D01*
X377102Y175714D02*
X380842D01*
X377102D02*
Y182604D01*
X380842Y80439D02*
Y87328D01*
X377102D02*
X380842D01*
X377102Y80439D02*
X380842D01*
X377102D02*
Y87328D01*
X388913Y384376D02*
X395803D01*
Y388116D01*
X388913Y384376D02*
Y388116D01*
X395803D01*
X388913Y289100D02*
X395803D01*
Y292840D01*
X388913Y289100D02*
Y292840D01*
X395803D01*
X388913Y193824D02*
X395803D01*
Y197564D01*
X388913Y193824D02*
Y197564D01*
X395803D01*
X388913Y98549D02*
X395803D01*
Y102289D01*
X388913Y98549D02*
Y102289D01*
X395803D01*
X393638Y317446D02*
Y324336D01*
Y317446D02*
X397378D01*
X393638Y324336D02*
X397378D01*
Y317446D02*
Y324336D01*
X393638Y222171D02*
Y229061D01*
Y222171D02*
X397378D01*
X393638Y229061D02*
X397378D01*
Y222171D02*
Y229061D01*
X393638Y126895D02*
Y133785D01*
Y126895D02*
X397378D01*
X393638Y133785D02*
X397378D01*
Y126895D02*
Y133785D01*
X393638Y31620D02*
Y38509D01*
Y31620D02*
X397378D01*
X393638Y38509D02*
X397378D01*
Y31620D02*
Y38509D01*
X393638Y330045D02*
Y336935D01*
Y330045D02*
X397378D01*
X393638Y336935D02*
X397378D01*
Y330045D02*
Y336935D01*
X393638Y234769D02*
Y241659D01*
Y234769D02*
X397378D01*
X393638Y241659D02*
X397378D01*
Y234769D02*
Y241659D01*
X393638Y139494D02*
Y146383D01*
Y139494D02*
X397378D01*
X393638Y146383D02*
X397378D01*
Y139494D02*
Y146383D01*
X393638Y44218D02*
Y51108D01*
Y44218D02*
X397378D01*
X393638Y51108D02*
X397378D01*
Y44218D02*
Y51108D01*
X470213Y350911D02*
X477102D01*
Y354651D01*
X470213Y350911D02*
Y354651D01*
X477102D01*
X470213Y255635D02*
X477102D01*
Y259376D01*
X470213Y255635D02*
Y259376D01*
X477102D01*
X470213Y160202D02*
X477102D01*
Y163942D01*
X470213Y160202D02*
Y163942D01*
X477102D01*
X470213Y65084D02*
X477102D01*
Y68824D01*
X470213Y65084D02*
Y68824D01*
X477102D01*
X285925Y299131D02*
X292815D01*
Y302872D01*
X285925Y299131D02*
Y302872D01*
X292815D01*
X285925Y238287D02*
X292815D01*
Y242028D01*
X285925Y238287D02*
Y242028D01*
X292815D01*
X285925Y176870D02*
X292815D01*
Y180610D01*
X285925Y176870D02*
Y180610D01*
X292815D01*
X285925Y117242D02*
X292815D01*
Y120982D01*
X285925Y117242D02*
Y120982D01*
X292815D01*
X328284Y322812D02*
X335173D01*
Y326552D01*
X328284Y322812D02*
Y326552D01*
X335173D01*
X328284Y262182D02*
X335173D01*
Y265922D01*
X328284Y262182D02*
Y265922D01*
X335173D01*
X328284Y201552D02*
X335173D01*
Y205293D01*
X328284Y201552D02*
Y205293D01*
X335173D01*
X328284Y140922D02*
X335173D01*
Y144663D01*
X328284Y140922D02*
Y144663D01*
X335173D01*
X328284Y315726D02*
X335173D01*
Y319466D01*
X328284Y315726D02*
Y319466D01*
X335173D01*
X328284Y255096D02*
X335173D01*
Y258836D01*
X328284Y255096D02*
Y258836D01*
X335173D01*
X328284Y194466D02*
X335173D01*
Y198206D01*
X328284Y194466D02*
Y198206D01*
X335173D01*
X328284Y133836D02*
X335173D01*
Y137576D01*
X328284Y133836D02*
Y137576D01*
X335173D01*
X499150Y368431D02*
X506039D01*
X499150Y364690D02*
Y368431D01*
X506039Y364690D02*
Y368431D01*
X499150Y364690D02*
X506039D01*
X499150Y273155D02*
X506039D01*
X499150Y269415D02*
Y273155D01*
X506039Y269415D02*
Y273155D01*
X499150Y269415D02*
X506039D01*
X499150Y177722D02*
X506039D01*
X499150Y173982D02*
Y177722D01*
X506039Y173982D02*
Y177722D01*
X499150Y173982D02*
X506039D01*
X499150Y82604D02*
X506039D01*
X499150Y78864D02*
Y82604D01*
X506039Y78864D02*
Y82604D01*
X499150Y78864D02*
X506039D01*
X214370Y283588D02*
X221260D01*
Y287328D01*
X214370Y283588D02*
Y287328D01*
X221260D01*
X214370Y277289D02*
X221260D01*
Y281029D01*
X214370Y277289D02*
Y281029D01*
X221260D01*
X214370Y289887D02*
X221260D01*
Y293628D01*
X214370Y289887D02*
Y293628D01*
X221260D01*
X214370Y296186D02*
X221260D01*
Y299927D01*
X214370Y296186D02*
Y299927D01*
X221260D01*
X159823Y290380D02*
X166713D01*
X159823Y286639D02*
Y290380D01*
X166713Y286639D02*
Y290380D01*
X159823Y286639D02*
X166713D01*
X16276Y252879D02*
Y259769D01*
X12535D02*
X16276D01*
X12535Y252879D02*
X16276D01*
X12535D02*
Y259769D01*
X24937Y252879D02*
Y259769D01*
X21197D02*
X24937D01*
X21197Y252879D02*
X24937D01*
X21197D02*
Y259769D01*
X87323Y171171D02*
X95197D01*
X87323Y166446D02*
X95197D01*
Y171171D01*
X87323Y166446D02*
Y171171D01*
X26610Y206324D02*
X34484D01*
X26610Y201600D02*
X34484D01*
Y206324D01*
X26610Y201600D02*
Y206324D01*
X106138Y132998D02*
X114012D01*
X106138Y128273D02*
X114012D01*
Y132998D01*
X106138Y128273D02*
Y132998D01*
X62309Y361962D02*
Y401332D01*
X101679D01*
X62309Y361962D02*
X101679D01*
Y401332D01*
X68898Y34252D02*
Y73622D01*
X108268D01*
X68898Y34252D02*
X108268D01*
Y73622D01*
X35537Y306844D02*
X43411D01*
X35537Y302119D02*
X43411D01*
Y306844D01*
X35537Y302119D02*
Y306844D01*
X29760Y131128D02*
X37634D01*
X29760Y126403D02*
X37634D01*
Y131128D01*
X29760Y126403D02*
Y131128D01*
X112630Y329775D02*
X120504D01*
X112630Y325050D02*
X120504D01*
Y329775D01*
X112630Y325050D02*
Y329775D01*
X164599Y345870D02*
X172473D01*
X164599Y341146D02*
X172473D01*
Y345870D01*
X164599Y341146D02*
Y345870D01*
X158067Y373647D02*
X165941D01*
X158067Y368923D02*
X165941D01*
Y373647D01*
X158067Y368923D02*
Y373647D01*
X260469Y45376D02*
X268342D01*
X260469Y40652D02*
X268342D01*
Y45376D01*
X260469Y40652D02*
Y45376D01*
X158894Y52364D02*
X166768D01*
X158894Y47640D02*
X166768D01*
Y52364D01*
X158894Y47640D02*
Y52364D01*
X260077Y78552D02*
X267951D01*
X260077Y73827D02*
X267951D01*
Y78552D01*
X260077Y73827D02*
Y78552D01*
X158502Y80323D02*
X166376D01*
X158502Y75599D02*
X166376D01*
Y80323D01*
X158502Y75599D02*
Y80323D01*
X305744Y285458D02*
X313618D01*
X305744Y280734D02*
X313618D01*
Y285458D01*
X305744Y280734D02*
Y285458D01*
Y224828D02*
X313618D01*
X305744Y220104D02*
X313618D01*
Y224828D01*
X305744Y220104D02*
Y224828D01*
Y164198D02*
X313618D01*
X305744Y159474D02*
X313618D01*
Y164198D01*
X305744Y159474D02*
Y164198D01*
Y103568D02*
X313618D01*
X305744Y98844D02*
X313618D01*
Y103568D01*
X305744Y98844D02*
Y103568D01*
X319130Y400419D02*
Y403568D01*
Y400419D02*
X324642D01*
X325429Y401206D01*
X319130Y403568D02*
X324642D01*
X325429Y402781D01*
Y401206D02*
Y402781D01*
X133303Y100812D02*
Y103962D01*
Y100812D02*
X138815D01*
X139602Y101600D01*
X133303Y103962D02*
X138815D01*
X139602Y103175D01*
Y101600D02*
Y103175D01*
X103786Y150666D02*
Y153816D01*
Y150666D02*
X109297D01*
X110085Y151454D01*
X103786Y153816D02*
X109297D01*
X110085Y153029D01*
Y151454D02*
Y153029D01*
X38161Y147294D02*
Y150444D01*
Y147294D02*
X43673D01*
X44461Y148082D01*
X38161Y150444D02*
X43673D01*
X44461Y149656D01*
Y148082D02*
Y149656D01*
X60844Y337253D02*
X71828D01*
X60844Y354970D02*
X71828D01*
Y337253D02*
Y354970D01*
X60844Y337253D02*
Y354970D01*
X319130Y364986D02*
Y368135D01*
Y364986D02*
X324642D01*
X325429Y365773D01*
X319130Y368135D02*
X324642D01*
X325429Y367348D01*
Y365773D02*
Y367348D01*
X319130Y353175D02*
Y356324D01*
Y353175D02*
X324642D01*
X325429Y353962D01*
X319130Y356324D02*
X324642D01*
X325429Y355537D01*
Y353962D02*
Y355537D01*
X339209Y43703D02*
Y46852D01*
Y43703D02*
X344721D01*
X345508Y44490D01*
X339209Y46852D02*
X344721D01*
X345508Y46065D01*
Y44490D02*
Y46065D01*
X319130Y376797D02*
Y379946D01*
Y376797D02*
X324642D01*
X325429Y377584D01*
X319130Y379946D02*
X324642D01*
X325429Y379159D01*
Y377584D02*
Y379159D01*
X319130Y388608D02*
Y391757D01*
Y388608D02*
X324642D01*
X325429Y389395D01*
X319130Y391757D02*
X324642D01*
X325429Y390970D01*
Y389395D02*
Y390970D01*
X338817Y75599D02*
Y78748D01*
Y75599D02*
X344329D01*
X345116Y76386D01*
X338817Y78748D02*
X344329D01*
X345116Y77961D01*
Y76386D02*
Y77961D01*
X183402Y211147D02*
X190291D01*
X183402Y207407D02*
X190291D01*
X183402D02*
Y211147D01*
X190291Y207407D02*
Y211147D01*
X35247Y176706D02*
Y183596D01*
X38987Y176706D02*
Y183596D01*
X35247Y176706D02*
X38987D01*
X35247Y183596D02*
X38987D01*
X110075Y175297D02*
X116374D01*
X110075Y166636D02*
X116374D01*
X110075Y177266D02*
X116374D01*
Y164667D02*
Y177266D01*
X110075Y164667D02*
X116374D01*
X110075D02*
Y177266D01*
X102067Y168083D02*
Y174972D01*
X105807Y168083D02*
Y174972D01*
X102067Y168083D02*
X105807D01*
X102067Y174972D02*
X105807D01*
X83244Y186651D02*
X89543D01*
X83244Y177989D02*
X89543D01*
X83244Y188619D02*
X89543D01*
Y176021D02*
Y188619D01*
X83244Y176021D02*
X89543D01*
X83244D02*
Y188619D01*
X29823Y179232D02*
Y186122D01*
X26083Y179232D02*
Y186122D01*
X29823D01*
X26083Y179232D02*
X29823D01*
X53647Y321509D02*
Y328399D01*
X49907Y321509D02*
Y328399D01*
X53647D01*
X49907Y321509D02*
X53647D01*
X141683Y350909D02*
Y375417D01*
X133513Y383586D02*
X141683Y375417D01*
X117175Y383586D02*
X133513D01*
X109006Y375417D02*
X117175Y383586D01*
X109006Y350909D02*
Y375417D01*
Y350909D02*
X141683D01*
X96167Y338733D02*
X102466D01*
X96167Y347395D02*
X102466D01*
X96167Y336765D02*
X102466D01*
X96167D02*
Y349363D01*
X102466D01*
Y336765D02*
Y349363D01*
X85143Y338733D02*
X91443D01*
X85143Y347395D02*
X91443D01*
X85143Y336765D02*
X91443D01*
X85143D02*
Y349363D01*
X91443D01*
Y336765D02*
Y349363D01*
X82185Y340256D02*
Y347146D01*
X78445Y340256D02*
Y347146D01*
X82185D01*
X78445Y340256D02*
X82185D01*
X33470Y347493D02*
Y354383D01*
X29730Y347493D02*
Y354383D01*
X33470D01*
X29730Y347493D02*
X33470D01*
X58076Y326824D02*
X64966D01*
X58076Y323084D02*
X64966D01*
X58076D02*
Y326824D01*
X64966Y323084D02*
Y326824D01*
X63490Y311568D02*
Y317867D01*
X54828Y311568D02*
Y317867D01*
X65458Y311568D02*
Y317867D01*
X52860Y311568D02*
X65458D01*
X52860D02*
Y317867D01*
X65458D01*
X432221Y346580D02*
Y353470D01*
X435961Y346580D02*
Y353470D01*
X432221Y346580D02*
X435961D01*
X432221Y353470D02*
X435961D01*
X432221Y251305D02*
Y258194D01*
X435961Y251305D02*
Y258194D01*
X432221Y251305D02*
X435961D01*
X432221Y258194D02*
X435961D01*
X432221Y156029D02*
Y162919D01*
X435961Y156029D02*
Y162919D01*
X432221Y156029D02*
X435961D01*
X432221Y162919D02*
X435961D01*
X432221Y60754D02*
Y67643D01*
X435961Y60754D02*
Y67643D01*
X432221Y60754D02*
X435961D01*
X432221Y67643D02*
X435961D01*
X435961Y363116D02*
Y370005D01*
X432221Y363116D02*
Y370005D01*
X435961D01*
X432221Y363116D02*
X435961D01*
Y267840D02*
Y274730D01*
X432221Y267840D02*
Y274730D01*
X435961D01*
X432221Y267840D02*
X435961D01*
Y172564D02*
Y179454D01*
X432221Y172564D02*
Y179454D01*
X435961D01*
X432221Y172564D02*
X435961D01*
Y77289D02*
Y84179D01*
X432221Y77289D02*
Y84179D01*
X435961D01*
X432221Y77289D02*
X435961D01*
X381039Y341856D02*
X387929D01*
X381039Y345596D02*
X387929D01*
Y341856D02*
Y345596D01*
X381039Y341856D02*
Y345596D01*
Y246580D02*
X387929D01*
X381039Y250320D02*
X387929D01*
Y246580D02*
Y250320D01*
X381039Y246580D02*
Y250320D01*
Y151305D02*
X387929D01*
X381039Y155045D02*
X387929D01*
Y151305D02*
Y155045D01*
X381039Y151305D02*
Y155045D01*
Y56029D02*
X387929D01*
X381039Y59769D02*
X387929D01*
Y56029D02*
Y59769D01*
X381039Y56029D02*
Y59769D01*
X26217Y191339D02*
Y197638D01*
X34878Y191339D02*
Y197638D01*
X24248Y191339D02*
Y197638D01*
X36847D01*
Y191339D02*
Y197638D01*
X24248Y191339D02*
X36847D01*
X63490Y301332D02*
Y307631D01*
X54828Y301332D02*
Y307631D01*
X65458Y301332D02*
Y307631D01*
X52860Y301332D02*
X65458D01*
X52860D02*
Y307631D01*
X65458D01*
X35242Y375840D02*
X42132D01*
X35242Y372099D02*
X42132D01*
X35242D02*
Y375840D01*
X42132Y372099D02*
Y375840D01*
X48332Y363241D02*
X55222D01*
X48332Y366981D02*
X55222D01*
Y363241D02*
Y366981D01*
X48332Y363241D02*
Y366981D01*
X45213Y95399D02*
Y102289D01*
X48953Y95399D02*
Y102289D01*
X45213Y95399D02*
X48953D01*
X45213Y102289D02*
X48953D01*
X32614Y70202D02*
Y77092D01*
X36354Y70202D02*
Y77092D01*
X32614Y70202D02*
X36354D01*
X32614Y77092D02*
X36354D01*
X114687Y54555D02*
Y79063D01*
Y54555D02*
X122857Y46386D01*
X139195D01*
X147364Y54555D01*
Y79063D01*
X114687D02*
X147364D01*
X100232Y89789D02*
X106532D01*
X100232Y81128D02*
X106532D01*
X100232Y91757D02*
X106532D01*
Y79159D02*
Y91757D01*
X100232Y79159D02*
X106532D01*
X100232D02*
Y91757D01*
X465291Y384179D02*
X472181D01*
X465291Y380438D02*
X472181D01*
X465291D02*
Y384179D01*
X472181Y380438D02*
Y384179D01*
X465685Y292840D02*
X472575D01*
X465685Y289100D02*
X472575D01*
X465685D02*
Y292840D01*
X472575Y289100D02*
Y292840D01*
X465685Y197407D02*
X472575D01*
X465685Y193667D02*
X472575D01*
X465685D02*
Y197407D01*
X472575Y193667D02*
Y197407D01*
X465685Y102289D02*
X472575D01*
X465685Y98549D02*
X472575D01*
X465685D02*
Y102289D01*
X472575Y98549D02*
Y102289D01*
X496787Y399927D02*
X503677D01*
X496787Y396186D02*
X503677D01*
X496787D02*
Y399927D01*
X503677Y396186D02*
Y399927D01*
X497181Y308588D02*
X504071D01*
X497181Y304848D02*
X504071D01*
X497181D02*
Y308588D01*
X504071Y304848D02*
Y308588D01*
X497181Y213155D02*
X504071D01*
X497181Y209415D02*
X504071D01*
X497181D02*
Y213155D01*
X504071Y209415D02*
Y213155D01*
X497181Y118037D02*
X504071D01*
X497181Y114297D02*
X504071D01*
X497181D02*
Y118037D01*
X504071Y114297D02*
Y118037D01*
X152201Y120399D02*
X158500D01*
X152201Y129060D02*
X158500D01*
X152201Y118431D02*
X158500D01*
X152201D02*
Y131029D01*
X158500D01*
Y118431D02*
Y131029D01*
X146197Y118234D02*
Y125124D01*
X142457Y118234D02*
Y125124D01*
X146197D01*
X142457Y118234D02*
X146197D01*
X135961D02*
Y125124D01*
X132220Y118234D02*
Y125124D01*
X135961D01*
X132220Y118234D02*
X135961D01*
X120902Y114297D02*
X127201D01*
X120902Y122958D02*
X127201D01*
X120902Y112328D02*
X127201D01*
X120902D02*
Y124927D01*
X127201D01*
Y112328D02*
Y124927D01*
X89602Y89789D02*
X95902D01*
X89602Y81128D02*
X95902D01*
X89602Y91757D02*
X95902D01*
Y79159D02*
Y91757D01*
X89602Y79159D02*
X95902D01*
X89602D02*
Y91757D01*
X82221Y77289D02*
Y84179D01*
X85961Y77289D02*
Y84179D01*
X82221Y77289D02*
X85961D01*
X82221Y84179D02*
X85961D01*
X34189Y99730D02*
X41079D01*
X34189Y95990D02*
X41079D01*
X34189D02*
Y99730D01*
X41079Y95990D02*
Y99730D01*
X38028Y103568D02*
Y109868D01*
X29366Y103568D02*
Y109868D01*
X39996Y103568D02*
Y109868D01*
X27398Y103568D02*
X39996D01*
X27398D02*
Y109868D01*
X39996D01*
X38028Y114592D02*
Y120891D01*
X29366Y114592D02*
Y120891D01*
X39996Y114592D02*
Y120891D01*
X27398Y114592D02*
X39996D01*
X27398D02*
Y120891D01*
X39996D01*
X28480Y60754D02*
Y67643D01*
X24740Y60754D02*
Y67643D01*
X28480D01*
X24740Y60754D02*
X28480D01*
X40488Y57210D02*
X47378D01*
X40488Y53470D02*
X47378D01*
X40488D02*
Y57210D01*
X47378Y53470D02*
Y57210D01*
X193799Y41414D02*
Y48304D01*
X197539Y41414D02*
Y48304D01*
X193799Y41414D02*
X197539D01*
X193799Y48304D02*
X197539D01*
X266929Y347368D02*
X273228D01*
X266929Y338706D02*
X273228D01*
X266929Y349336D02*
X273228D01*
Y336738D02*
Y349336D01*
X266929Y336738D02*
X273228D01*
X266929D02*
Y349336D01*
X258760Y335925D02*
Y342815D01*
X262500Y335925D02*
Y342815D01*
X258760Y335925D02*
X262500D01*
X258760Y342815D02*
X262500D01*
X174047Y312058D02*
X180347D01*
X174047Y320720D02*
X180347D01*
X174047Y310090D02*
X180347D01*
X174047D02*
Y322688D01*
X180347D01*
Y310090D02*
Y322688D01*
X166665Y321605D02*
Y328495D01*
X170405Y321605D02*
Y328495D01*
X166665Y321605D02*
X170405D01*
X166665Y328495D02*
X170405D01*
X170405Y309007D02*
Y315897D01*
X166665Y309007D02*
Y315897D01*
X170405D01*
X166665Y309007D02*
X170405D01*
X142847Y316881D02*
Y323771D01*
X139106Y316881D02*
Y323771D01*
X142847D01*
X139106Y316881D02*
X142847D01*
X129165Y316782D02*
X135465D01*
X129165Y325444D02*
X135465D01*
X129165Y314814D02*
X135465D01*
X129165D02*
Y327412D01*
X135465D01*
Y314814D02*
Y327412D01*
X228630Y327438D02*
X234929D01*
X228630Y336100D02*
X234929D01*
X228630Y325470D02*
X234929D01*
X228630D02*
Y338068D01*
X234929D01*
Y325470D02*
Y338068D01*
X220055Y335680D02*
Y342570D01*
X223795Y335680D02*
Y342570D01*
X220055Y335680D02*
X223795D01*
X220055Y342570D02*
X223795D01*
X223795Y324263D02*
Y331153D01*
X220055Y324263D02*
Y331153D01*
X223795D01*
X220055Y324263D02*
X223795D01*
X195578Y334350D02*
Y341240D01*
X191838Y334350D02*
Y341240D01*
X195578D01*
X191838Y334350D02*
X195578D01*
X180492Y332998D02*
X186791D01*
X180492Y341659D02*
X186791D01*
X180492Y331029D02*
X186791D01*
X180492D02*
Y343628D01*
X186791D01*
Y331029D02*
Y343628D01*
X219484Y357309D02*
X225783D01*
X219484Y365970D02*
X225783D01*
X219484Y355340D02*
X225783D01*
X219484D02*
Y367938D01*
X225783D01*
Y355340D02*
Y367938D01*
X233658Y351403D02*
Y357702D01*
X242319Y351403D02*
Y357702D01*
X231689Y351403D02*
Y357702D01*
X244287D01*
Y351403D02*
Y357702D01*
X231689Y351403D02*
X244287D01*
X212102Y366856D02*
Y373746D01*
X215843Y366856D02*
Y373746D01*
X212102Y366856D02*
X215843D01*
X212102Y373746D02*
X215843D01*
X215843Y354257D02*
Y361147D01*
X212102Y354257D02*
Y361147D01*
X215843D01*
X212102Y354257D02*
X215843D01*
X188284Y362131D02*
Y369021D01*
X184543Y362131D02*
Y369021D01*
X188284D01*
X184543Y362131D02*
X188284D01*
X237299Y360557D02*
X244189D01*
X237299Y364297D02*
X244189D01*
Y360557D02*
Y364297D01*
X237299Y360557D02*
Y364297D01*
X174602Y361246D02*
X180902D01*
X174602Y369907D02*
X180902D01*
X174602Y359277D02*
X180902D01*
X174602D02*
Y371876D01*
X180902D01*
Y359277D02*
Y371876D01*
X67201Y173363D02*
Y180253D01*
X70941Y173363D02*
Y180253D01*
X67201Y173363D02*
X70941D01*
X67201Y180253D02*
X70941D01*
X219326Y385483D02*
X225625D01*
X219326Y394145D02*
X225625D01*
X219326Y383515D02*
X225625D01*
X219326D02*
Y396113D01*
X225625D01*
Y383515D02*
Y396113D01*
X498362Y354651D02*
X505252D01*
X498362Y350911D02*
X505252D01*
X498362D02*
Y354651D01*
X505252Y350911D02*
Y354651D01*
X498362Y259376D02*
X505252D01*
X498362Y255635D02*
X505252D01*
X498362D02*
Y259376D01*
X505252Y255635D02*
Y259376D01*
X498362Y163942D02*
X505252D01*
X498362Y160202D02*
X505252D01*
X498362D02*
Y163942D01*
X505252Y160202D02*
Y163942D01*
X498362Y68824D02*
X505252D01*
X498362Y65084D02*
X505252D01*
X498362D02*
Y68824D01*
X505252Y65084D02*
Y68824D01*
X470803Y376706D02*
X477693D01*
X470803Y372966D02*
X477693D01*
X470803D02*
Y376706D01*
X477693Y372966D02*
Y376706D01*
X471197Y285368D02*
X478087D01*
X471197Y281627D02*
X478087D01*
X471197D02*
Y285368D01*
X478087Y281627D02*
Y285368D01*
X471197Y189935D02*
X478087D01*
X471197Y186194D02*
X478087D01*
X471197D02*
Y189935D01*
X478087Y186194D02*
Y189935D01*
X471197Y94816D02*
X478087D01*
X471197Y91076D02*
X478087D01*
X471197D02*
Y94816D01*
X478087Y91076D02*
Y94816D01*
X233499Y380956D02*
Y387255D01*
X242160Y380956D02*
Y387255D01*
X231530Y380956D02*
Y387255D01*
X244129D01*
Y380956D02*
Y387255D01*
X231530Y380956D02*
X244129D01*
X211944Y395424D02*
Y402314D01*
X215684Y395424D02*
Y402314D01*
X211944Y395424D02*
X215684D01*
X211944Y402314D02*
X215684D01*
X215684Y381842D02*
Y388731D01*
X211944Y381842D02*
Y388731D01*
X215684D01*
X211944Y381842D02*
X215684D01*
X188125Y386763D02*
Y393653D01*
X184385Y386763D02*
Y393653D01*
X188125D01*
X184385Y386763D02*
X188125D01*
X496787Y393923D02*
X503677D01*
X496787Y390183D02*
X503677D01*
X496787D02*
Y393923D01*
X503677Y390183D02*
Y393923D01*
X497181Y302584D02*
X504071D01*
X497181Y298844D02*
X504071D01*
X497181D02*
Y302584D01*
X504071Y298844D02*
Y302584D01*
X497181Y207151D02*
X504071D01*
X497181Y203411D02*
X504071D01*
X497181D02*
Y207151D01*
X504071Y203411D02*
Y207151D01*
X497181Y112033D02*
X504071D01*
X497181Y108293D02*
X504071D01*
X497181D02*
Y112033D01*
X504071Y108293D02*
Y112033D01*
X237141Y389913D02*
X244030D01*
X237141Y393653D02*
X244030D01*
Y389913D02*
Y393653D01*
X237141Y389913D02*
Y393653D01*
X174444Y386664D02*
X180743D01*
X174444Y395326D02*
X180743D01*
X174444Y384696D02*
X180743D01*
X174444D02*
Y397294D01*
X180743D01*
Y384696D02*
Y397294D01*
X277953Y53545D02*
X284253D01*
X277953Y44884D02*
X284253D01*
X277953Y55514D02*
X284253D01*
Y42915D02*
Y55514D01*
X277953Y42915D02*
X284253D01*
X277953D02*
Y55514D01*
X267654Y49510D02*
Y56400D01*
X271394Y49510D02*
Y56400D01*
X267654Y49510D02*
X271394D01*
X267654Y56400D02*
X271394D01*
X245508Y53545D02*
X251807D01*
X245508Y44884D02*
X251807D01*
X245508Y55514D02*
X251807D01*
Y42915D02*
Y55514D01*
X245508Y42915D02*
X251807D01*
X245508D02*
Y55514D01*
X189898Y45671D02*
Y52561D01*
X186158Y45671D02*
Y52561D01*
X189898D01*
X186158Y45671D02*
X189898D01*
X227890Y38683D02*
Y45573D01*
X231630Y38683D02*
Y45573D01*
X227890Y38683D02*
X231630D01*
X227890Y45573D02*
X231630D01*
X175429Y40159D02*
X181728D01*
X175429Y48821D02*
X181728D01*
X175429Y38191D02*
X181728D01*
X175429D02*
Y50789D01*
X181728D01*
Y38191D02*
Y50789D01*
X197541Y66617D02*
Y73507D01*
X193801Y66617D02*
Y73507D01*
X197541D01*
X193801Y66617D02*
X197541D01*
X277561Y86229D02*
X283861D01*
X277561Y77567D02*
X283861D01*
X277561Y88197D02*
X283861D01*
Y75599D02*
Y88197D01*
X277561Y75599D02*
X283861D01*
X277561D02*
Y88197D01*
X268443Y83178D02*
Y90067D01*
X272183Y83178D02*
Y90067D01*
X268443Y83178D02*
X272183D01*
X268443Y90067D02*
X272183D01*
X245116Y86229D02*
X251415D01*
X245116Y77567D02*
X251415D01*
X245116Y88197D02*
X251415D01*
Y75599D02*
Y88197D01*
X245116Y75599D02*
X251415D01*
X245116D02*
Y88197D01*
X189506Y72154D02*
Y79044D01*
X185766Y72154D02*
Y79044D01*
X189506D01*
X185766Y72154D02*
X189506D01*
X227498Y65855D02*
Y72744D01*
X231238Y65855D02*
Y72744D01*
X227498Y65855D02*
X231238D01*
X227498Y72744D02*
X231238D01*
X175038Y68118D02*
X181337D01*
X175038Y76780D02*
X181337D01*
X175038Y66150D02*
X181337D01*
X175038D02*
Y78748D01*
X181337D01*
Y66150D02*
Y78748D01*
X413323Y381816D02*
X420213D01*
X413323Y378076D02*
X420213D01*
X413323D02*
Y381816D01*
X420213Y378076D02*
Y381816D01*
X413323Y286541D02*
X420213D01*
X413323Y282801D02*
X420213D01*
X413323D02*
Y286541D01*
X420213Y282801D02*
Y286541D01*
X413323Y191265D02*
X420213D01*
X413323Y187525D02*
X420213D01*
X413323D02*
Y191265D01*
X420213Y187525D02*
Y191265D01*
X413323Y95990D02*
X420213D01*
X413323Y92250D02*
X420213D01*
X413323D02*
Y95990D01*
X420213Y92250D02*
Y95990D01*
X401512Y378076D02*
X408402D01*
X401512Y381817D02*
X408402D01*
Y378076D02*
Y381817D01*
X401512Y378076D02*
Y381817D01*
Y282801D02*
X408402D01*
X401512Y286541D02*
X408402D01*
Y282801D02*
Y286541D01*
X401512Y282801D02*
Y286541D01*
Y187525D02*
X408402D01*
X401512Y191265D02*
X408402D01*
Y187525D02*
Y191265D01*
X401512Y187525D02*
Y191265D01*
Y92250D02*
X408402D01*
X401512Y95990D02*
X408402D01*
Y92250D02*
Y95990D01*
X401512Y92250D02*
Y95990D01*
X387142Y367053D02*
Y373942D01*
X383402Y367053D02*
Y373942D01*
X387142D01*
X383402Y367053D02*
X387142D01*
Y271777D02*
Y278667D01*
X383402Y271777D02*
Y278667D01*
X387142D01*
X383402Y271777D02*
X387142D01*
Y176502D02*
Y183391D01*
X383402Y176502D02*
Y183391D01*
X387142D01*
X383402Y176502D02*
X387142D01*
Y81226D02*
Y88116D01*
X383402Y81226D02*
Y88116D01*
X387142D01*
X383402Y81226D02*
X387142D01*
X390488Y378076D02*
X397378D01*
X390488Y381817D02*
X397378D01*
Y378076D02*
Y381817D01*
X390488Y378076D02*
Y381817D01*
Y282801D02*
X397378D01*
X390488Y286541D02*
X397378D01*
Y282801D02*
Y286541D01*
X390488Y282801D02*
Y286541D01*
Y187525D02*
X397378D01*
X390488Y191265D02*
X397378D01*
Y187525D02*
Y191265D01*
X390488Y187525D02*
Y191265D01*
Y92250D02*
X397378D01*
X390488Y95990D02*
X397378D01*
Y92250D02*
Y95990D01*
X390488Y92250D02*
Y95990D01*
X498362Y361344D02*
X505252D01*
X498362Y357604D02*
X505252D01*
X498362D02*
Y361344D01*
X505252Y357604D02*
Y361344D01*
X498362Y266068D02*
X505252D01*
X498362Y262328D02*
X505252D01*
X498362D02*
Y266068D01*
X505252Y262328D02*
Y266068D01*
X498362Y170635D02*
X505252D01*
X498362Y166895D02*
X505252D01*
X498362D02*
Y170635D01*
X505252Y166895D02*
Y170635D01*
X498362Y75517D02*
X505252D01*
X498362Y71777D02*
X505252D01*
X498362D02*
Y75517D01*
X505252Y71777D02*
Y75517D01*
X283858Y294612D02*
X292520D01*
X283858Y288903D02*
X292520D01*
X283858D02*
Y294612D01*
X292520Y288903D02*
Y294612D01*
X283858Y233568D02*
X292520D01*
X283858Y227860D02*
X292520D01*
X283858D02*
Y233568D01*
X292520Y227860D02*
Y233568D01*
X283858Y171777D02*
X292520D01*
X283858Y166068D02*
X292520D01*
X283858D02*
Y171777D01*
X292520Y166068D02*
Y171777D01*
X283858Y112303D02*
X292520D01*
X283858Y106595D02*
X292520D01*
X283858D02*
Y112303D01*
X292520Y106595D02*
Y112303D01*
X328284Y333639D02*
X335173D01*
X328284Y329899D02*
X335173D01*
X328284D02*
Y333639D01*
X335173Y329899D02*
Y333639D01*
X328284Y273009D02*
X335173D01*
X328284Y269269D02*
X335173D01*
X328284D02*
Y273009D01*
X335173Y269269D02*
Y273009D01*
X328284Y212379D02*
X335173D01*
X328284Y208639D02*
X335173D01*
X328284D02*
Y212379D01*
X335173Y208639D02*
Y212379D01*
X328284Y151749D02*
X335173D01*
X328284Y148009D02*
X335173D01*
X328284D02*
Y151749D01*
X335173Y148009D02*
Y151749D01*
X318047Y317300D02*
Y324190D01*
X321787Y317300D02*
Y324190D01*
X318047Y317300D02*
X321787D01*
X318047Y324190D02*
X321787D01*
X318047Y256670D02*
Y263560D01*
X321787Y256670D02*
Y263560D01*
X318047Y256670D02*
X321787D01*
X318047Y263560D02*
X321787D01*
X318047Y196040D02*
Y202930D01*
X321787Y196040D02*
Y202930D01*
X318047Y196040D02*
X321787D01*
X318047Y202930D02*
X321787D01*
X318047Y135411D02*
Y142300D01*
X321787Y135411D02*
Y142300D01*
X318047Y135411D02*
X321787D01*
X318047Y142300D02*
X321787D01*
X328284Y308639D02*
X335173D01*
X328284Y312379D02*
X335173D01*
Y308639D02*
Y312379D01*
X328284Y308639D02*
Y312379D01*
Y248009D02*
X335173D01*
X328284Y251749D02*
X335173D01*
Y248009D02*
Y251749D01*
X328284Y248009D02*
Y251749D01*
Y187379D02*
X335173D01*
X328284Y191119D02*
X335173D01*
Y187379D02*
Y191119D01*
X328284Y187379D02*
Y191119D01*
Y126749D02*
X335173D01*
X328284Y130489D02*
X335173D01*
Y126749D02*
Y130489D01*
X328284Y126749D02*
Y130489D01*
X261910Y317938D02*
Y324828D01*
X265650Y317938D02*
Y324828D01*
X261910Y317938D02*
X265650D01*
X261910Y324828D02*
X265650D01*
X261910Y257309D02*
Y264198D01*
X265650Y257309D02*
Y264198D01*
X261910Y257309D02*
X265650D01*
X261910Y264198D02*
X265650D01*
X261910Y196679D02*
Y203568D01*
X265650Y196679D02*
Y203568D01*
X261910Y196679D02*
X265650D01*
X261910Y203568D02*
X265650D01*
X261910Y136049D02*
Y142938D01*
X265650Y136049D02*
Y142938D01*
X261910Y136049D02*
X265650D01*
X261910Y142938D02*
X265650D01*
X301512Y305438D02*
X308402D01*
X301512Y301698D02*
X308402D01*
X301512D02*
Y305438D01*
X308402Y301698D02*
Y305438D01*
X301512Y244809D02*
X308402D01*
X301512Y241068D02*
X308402D01*
X301512D02*
Y244809D01*
X308402Y241068D02*
Y244809D01*
X301512Y184179D02*
X308402D01*
X301512Y180438D02*
X308402D01*
X301512D02*
Y184179D01*
X308402Y180438D02*
Y184179D01*
X301512Y123549D02*
X308402D01*
X301512Y119809D02*
X308402D01*
X301512D02*
Y123549D01*
X308402Y119809D02*
Y123549D01*
X301512Y312525D02*
X308402D01*
X301512Y308785D02*
X308402D01*
X301512D02*
Y312525D01*
X308402Y308785D02*
Y312525D01*
X301512Y251895D02*
X308402D01*
X301512Y248155D02*
X308402D01*
X301512D02*
Y251895D01*
X308402Y248155D02*
Y251895D01*
X301512Y191265D02*
X308402D01*
X301512Y187525D02*
X308402D01*
X301512D02*
Y191265D01*
X308402Y187525D02*
Y191265D01*
X301512Y130635D02*
X308402D01*
X301512Y126895D02*
X308402D01*
X301512D02*
Y130635D01*
X308402Y126895D02*
Y130635D01*
X303776Y296186D02*
X312437D01*
X303776Y290478D02*
X312437D01*
X303776D02*
Y296186D01*
X312437Y290478D02*
Y296186D01*
X303776Y235557D02*
X312437D01*
X303776Y229848D02*
X312437D01*
X303776D02*
Y235557D01*
X312437Y229848D02*
Y235557D01*
X303776Y174927D02*
X312437D01*
X303776Y169218D02*
X312437D01*
X303776D02*
Y174927D01*
X312437Y169218D02*
Y174927D01*
X303776Y114297D02*
X312437D01*
X303776Y108588D02*
X312437D01*
X303776D02*
Y114297D01*
X312437Y108588D02*
Y114297D01*
X494035Y371398D02*
Y378287D01*
X490295Y371398D02*
Y378287D01*
X494035D01*
X490295Y371398D02*
X494035D01*
X494228Y281226D02*
Y288116D01*
X490488Y281226D02*
Y288116D01*
X494228D01*
X490488Y281226D02*
X494228D01*
Y185793D02*
Y192683D01*
X490488Y185793D02*
Y192683D01*
X494228D01*
X490488Y185793D02*
X494228D01*
Y90675D02*
Y97565D01*
X490488Y90675D02*
Y97565D01*
X494228D01*
X490488Y90675D02*
X494228D01*
X461650Y386049D02*
Y392938D01*
X457909Y386049D02*
Y392938D01*
X461650D01*
X457909Y386049D02*
X461650D01*
X462043Y294710D02*
Y301600D01*
X458303Y294710D02*
Y301600D01*
X462043D01*
X458303Y294710D02*
X462043D01*
Y199277D02*
Y206167D01*
X458303Y199277D02*
Y206167D01*
X462043D01*
X458303Y199277D02*
X462043D01*
Y104159D02*
Y111049D01*
X458303Y104159D02*
Y111049D01*
X462043D01*
X458303Y104159D02*
X462043D01*
X185236Y297565D02*
X192126D01*
X185236Y293824D02*
X192126D01*
X185236D02*
Y297565D01*
X192126Y293824D02*
Y297565D01*
D12*
X303382Y317596D02*
X302838Y318344D01*
X301958Y318058D01*
Y317133D01*
X302838Y316847D01*
X303382Y317596D01*
X121063Y156249D02*
X120518Y156998D01*
X119638Y156712D01*
Y155786D01*
X120518Y155500D01*
X121063Y156249D01*
X303382Y326403D02*
X302838Y327152D01*
X301958Y326866D01*
Y325940D01*
X302838Y325654D01*
X303382Y326403D01*
X303382Y256966D02*
X302838Y257715D01*
X301958Y257429D01*
Y256503D01*
X302838Y256217D01*
X303382Y256966D01*
Y196336D02*
X302838Y197085D01*
X301958Y196799D01*
Y195873D01*
X302838Y195587D01*
X303382Y196336D01*
Y135706D02*
X302838Y136455D01*
X301958Y136169D01*
Y135243D01*
X302838Y134957D01*
X303382Y135706D01*
X131102Y31890D02*
X130558Y32639D01*
X129678Y32353D01*
Y31427D01*
X130558Y31141D01*
X131102Y31890D01*
X232Y168824D02*
X-312Y169573D01*
X-1192Y169287D01*
Y168361D01*
X-312Y168076D01*
X232Y168824D01*
X232Y203568D02*
X-312Y204317D01*
X-1192Y204031D01*
Y203106D01*
X-312Y202820D01*
X232Y203568D01*
Y213805D02*
X-312Y214553D01*
X-1192Y214267D01*
Y213342D01*
X-312Y213056D01*
X232Y213805D01*
X232Y253104D02*
X-312Y253853D01*
X-1192Y253567D01*
Y252641D01*
X-312Y252355D01*
X232Y253104D01*
X256492Y373057D02*
X255948Y373805D01*
X255068Y373519D01*
Y372594D01*
X255948Y372308D01*
X256492Y373057D01*
X221306Y311541D02*
X220762Y312290D01*
X219881Y312004D01*
Y311078D01*
X220762Y310792D01*
X221306Y311541D01*
X40030Y137913D02*
X39486Y138662D01*
X38606Y138376D01*
Y137451D01*
X39486Y137165D01*
X40030Y137913D01*
X303382Y265773D02*
X302838Y266522D01*
X301958Y266236D01*
Y265310D01*
X302838Y265024D01*
X303382Y265773D01*
X303382Y203659D02*
X302838Y204408D01*
X301958Y204122D01*
Y203197D01*
X302838Y202910D01*
X303382Y203659D01*
Y144513D02*
X302838Y145262D01*
X301958Y144976D01*
Y144051D01*
X302838Y143764D01*
X303382Y144513D01*
X232Y261104D02*
X-312Y261853D01*
X-1192Y261567D01*
Y260641D01*
X-312Y260355D01*
X232Y261104D01*
Y178372D02*
X-312Y179120D01*
X-1192Y178834D01*
Y177909D01*
X-312Y177623D01*
X232Y178372D01*
X256333Y402019D02*
X255789Y402768D01*
X254909Y402482D01*
Y401556D01*
X255789Y401270D01*
X256333Y402019D01*
X189071Y313386D02*
X188527Y314135D01*
X187646Y313849D01*
Y312923D01*
X188527Y312637D01*
X189071Y313386D01*
X310206Y70062D02*
X309661Y70811D01*
X308781Y70525D01*
Y69599D01*
X309661Y69313D01*
X310206Y70062D01*
X293316Y56212D02*
X292772Y56960D01*
X291892Y56674D01*
Y55749D01*
X292772Y55463D01*
X293316Y56212D01*
X89764Y295694D02*
X89220Y296443D01*
X88339Y296157D01*
Y295232D01*
X89220Y294946D01*
X89764Y295694D01*
X131614Y399462D02*
X131070Y400211D01*
X130190Y399925D01*
Y399000D01*
X131070Y398713D01*
X131614Y399462D01*
X29525Y392170D02*
X28981Y392919D01*
X28101Y392633D01*
Y391708D01*
X28981Y391422D01*
X29525Y392170D01*
X168342Y124336D02*
X167798Y125085D01*
X166918Y124799D01*
Y123873D01*
X167798Y123587D01*
X168342Y124336D01*
X397776Y356187D02*
X397331Y357110D01*
X396332Y357338D01*
X395530Y356699D01*
Y355674D01*
X396332Y355035D01*
X397331Y355263D01*
X397776Y356187D01*
X397776Y260911D02*
X397331Y261834D01*
X396332Y262062D01*
X395530Y261423D01*
Y260399D01*
X396332Y259759D01*
X397331Y259987D01*
X397776Y260911D01*
Y165635D02*
X397331Y166559D01*
X396332Y166787D01*
X395530Y166148D01*
Y165123D01*
X396332Y164484D01*
X397331Y164712D01*
X397776Y165635D01*
X397776Y70360D02*
X397331Y71283D01*
X396332Y71511D01*
X395530Y70872D01*
Y69847D01*
X396332Y69208D01*
X397331Y69436D01*
X397776Y70360D01*
D14*
X479366Y339395D02*
X479760D01*
X479366D01*
X479760D01*
X479366Y244120D02*
X479760D01*
X479366D01*
X479760D01*
X479366Y148687D02*
X479760D01*
X479366D01*
X479760D01*
X479366Y53568D02*
X479760D01*
X479366D01*
X479760D01*
X182185Y278568D02*
Y290773D01*
X199902Y278568D02*
Y290773D01*
X182185Y278568D02*
X199902D01*
X182185Y290773D02*
X199902D01*
X483835Y344041D02*
X500882D01*
X483835Y333962D02*
X500882D01*
Y344041D01*
X483835Y333962D02*
Y344041D01*
Y248765D02*
X500882D01*
X483835Y238686D02*
X500882D01*
Y248765D01*
X483835Y238686D02*
Y248765D01*
Y153332D02*
X500882D01*
X483835Y143254D02*
X500882D01*
Y153332D01*
X483835Y143254D02*
Y153332D01*
Y58214D02*
X500882D01*
X483835Y48135D02*
X500882D01*
Y58214D01*
X483835Y48135D02*
Y58214D01*
D17*
X206143Y67738D02*
X206632Y67249D01*
Y79049D02*
X206143Y78559D01*
X217454Y67249D02*
X217943Y67738D01*
Y78559D02*
X217454Y79049D01*
X206533Y41454D02*
X207022Y40965D01*
Y52765D02*
X206533Y52276D01*
X217844Y40965D02*
X218333Y41454D01*
Y52276D02*
X217844Y52765D01*
X47478Y176226D02*
X47967Y175737D01*
Y187537D02*
X47478Y187048D01*
X58788Y175737D02*
X59277Y176226D01*
Y187048D02*
X58788Y187537D01*
X202393Y68709D02*
X203336D01*
X203808D02*
X203821D01*
X203808Y69909D02*
X203821D01*
X206143Y68709D02*
Y69909D01*
X202393D02*
X203336D01*
X202393Y68709D02*
Y69909D01*
X205017D02*
X206143D01*
X205017Y68709D02*
X206143D01*
X203336Y69909D02*
X203808D01*
X203336Y68709D02*
X203808D01*
X203821D02*
X205017D01*
X203821Y69909D02*
X205017D01*
X202393Y71269D02*
X203336D01*
X203808D02*
X203821D01*
X203808Y72469D02*
X203821D01*
X206143Y71269D02*
Y72469D01*
X202393D02*
X203336D01*
X202393Y71269D02*
Y72469D01*
X205017D02*
X206143D01*
X205017Y71269D02*
X206143D01*
X203336Y72469D02*
X203808D01*
X203336Y71269D02*
X203808D01*
X203821D02*
X205017D01*
X203821Y72469D02*
X205017D01*
X202393Y73829D02*
X203336D01*
X203808D02*
X203821D01*
X203808Y75029D02*
X203821D01*
X206143Y73829D02*
Y75029D01*
X202393D02*
X203336D01*
X202393Y73829D02*
Y75029D01*
X205017D02*
X206143D01*
X205017Y73829D02*
X206143D01*
X203336Y75029D02*
X203808D01*
X203336Y73829D02*
X203808D01*
X203821D02*
X205017D01*
X203821Y75029D02*
X205017D01*
X202393Y76389D02*
X203336D01*
X203808D02*
X203821D01*
X203808Y77589D02*
X203821D01*
X206143Y76389D02*
Y77589D01*
X202393D02*
X203336D01*
X202393Y76389D02*
Y77589D01*
X205017D02*
X206143D01*
X205017Y76389D02*
X206143D01*
X203336Y77589D02*
X203808D01*
X203336Y76389D02*
X203808D01*
X203821D02*
X205017D01*
X203821Y77589D02*
X205017D01*
X220749Y69909D02*
X221693D01*
X220265D02*
X220278D01*
X220265Y68709D02*
X220278D01*
X217943D02*
Y69909D01*
X220749Y68709D02*
X221693D01*
Y69909D01*
X217943Y68709D02*
X219069D01*
X217943Y69909D02*
X219069D01*
X220278Y68709D02*
X220749D01*
X220278Y69909D02*
X220749D01*
X219069D02*
X220265D01*
X219069Y68709D02*
X220265D01*
X220749Y72469D02*
X221693D01*
X220265D02*
X220278D01*
X220265Y71269D02*
X220278D01*
X217943D02*
Y72469D01*
X220749Y71269D02*
X221693D01*
Y72469D01*
X217943Y71269D02*
X219069D01*
X217943Y72469D02*
X219069D01*
X220278Y71269D02*
X220749D01*
X220278Y72469D02*
X220749D01*
X219069D02*
X220265D01*
X219069Y71269D02*
X220265D01*
X220749Y75029D02*
X221693D01*
X220265D02*
X220278D01*
X220265Y73829D02*
X220278D01*
X217943D02*
Y75029D01*
X220749Y73829D02*
X221693D01*
Y75029D01*
X217943Y73829D02*
X219069D01*
X217943Y75029D02*
X219069D01*
X220278Y73829D02*
X220749D01*
X220278Y75029D02*
X220749D01*
X219069D02*
X220265D01*
X219069Y73829D02*
X220265D01*
X220749Y77589D02*
X221693D01*
X220265D02*
X220278D01*
X220265Y76389D02*
X220278D01*
X217943D02*
Y77589D01*
X220749Y76389D02*
X221693D01*
Y77589D01*
X217943Y76389D02*
X219069D01*
X217943Y77589D02*
X219069D01*
X220278Y76389D02*
X220749D01*
X220278Y77589D02*
X220749D01*
X219069D02*
X220265D01*
X219069Y76389D02*
X220265D01*
X206643Y79049D02*
X217443D01*
X217943Y67749D02*
Y78549D01*
X217443Y67249D02*
X217454Y67249D01*
X217943Y78559D02*
X217943Y78549D01*
X206143Y67749D02*
X206143Y67738D01*
X206632Y67249D02*
X206643Y67249D01*
X206143Y78549D02*
X206143Y78559D01*
X206643Y67249D02*
X217443D01*
X206632Y79049D02*
X206643Y79049D01*
X217943Y67738D02*
X217943Y67749D01*
X206143D02*
Y78549D01*
X217443Y79049D02*
X217454Y79049D01*
X202783Y42425D02*
X203726D01*
X204198D02*
X204211D01*
X204198Y43625D02*
X204211D01*
X206533Y42425D02*
Y43625D01*
X202783D02*
X203726D01*
X202783Y42425D02*
Y43625D01*
X205406D02*
X206533D01*
X205406Y42425D02*
X206533D01*
X203726Y43625D02*
X204198D01*
X203726Y42425D02*
X204198D01*
X204211D02*
X205406D01*
X204211Y43625D02*
X205406D01*
X202783Y44985D02*
X203726D01*
X204198D02*
X204211D01*
X204198Y46185D02*
X204211D01*
X206533Y44985D02*
Y46185D01*
X202783D02*
X203726D01*
X202783Y44985D02*
Y46185D01*
X205406D02*
X206533D01*
X205406Y44985D02*
X206533D01*
X203726Y46185D02*
X204198D01*
X203726Y44985D02*
X204198D01*
X204211D02*
X205406D01*
X204211Y46185D02*
X205406D01*
X202783Y47545D02*
X203726D01*
X204198D02*
X204211D01*
X204198Y48745D02*
X204211D01*
X206533Y47545D02*
Y48745D01*
X202783D02*
X203726D01*
X202783Y47545D02*
Y48745D01*
X205406D02*
X206533D01*
X205406Y47545D02*
X206533D01*
X203726Y48745D02*
X204198D01*
X203726Y47545D02*
X204198D01*
X204211D02*
X205406D01*
X204211Y48745D02*
X205406D01*
X202783Y50105D02*
X203726D01*
X204198D02*
X204211D01*
X204198Y51305D02*
X204211D01*
X206533Y50105D02*
Y51305D01*
X202783D02*
X203726D01*
X202783Y50105D02*
Y51305D01*
X205406D02*
X206533D01*
X205406Y50105D02*
X206533D01*
X203726Y51305D02*
X204198D01*
X203726Y50105D02*
X204198D01*
X204211D02*
X205406D01*
X204211Y51305D02*
X205406D01*
X221139Y43625D02*
X222083D01*
X220654D02*
X220667D01*
X220654Y42425D02*
X220667D01*
X218333D02*
Y43625D01*
X221139Y42425D02*
X222083D01*
Y43625D01*
X218333Y42425D02*
X219459D01*
X218333Y43625D02*
X219459D01*
X220667Y42425D02*
X221139D01*
X220667Y43625D02*
X221139D01*
X219459D02*
X220654D01*
X219459Y42425D02*
X220654D01*
X221139Y46185D02*
X222083D01*
X220654D02*
X220667D01*
X220654Y44985D02*
X220667D01*
X218333D02*
Y46185D01*
X221139Y44985D02*
X222083D01*
Y46185D01*
X218333Y44985D02*
X219459D01*
X218333Y46185D02*
X219459D01*
X220667Y44985D02*
X221139D01*
X220667Y46185D02*
X221139D01*
X219459D02*
X220654D01*
X219459Y44985D02*
X220654D01*
X221139Y48745D02*
X222083D01*
X220654D02*
X220667D01*
X220654Y47545D02*
X220667D01*
X218333D02*
Y48745D01*
X221139Y47545D02*
X222083D01*
Y48745D01*
X218333Y47545D02*
X219459D01*
X218333Y48745D02*
X219459D01*
X220667Y47545D02*
X221139D01*
X220667Y48745D02*
X221139D01*
X219459D02*
X220654D01*
X219459Y47545D02*
X220654D01*
X221139Y51305D02*
X222083D01*
X220654D02*
X220667D01*
X220654Y50105D02*
X220667D01*
X218333D02*
Y51305D01*
X221139Y50105D02*
X222083D01*
Y51305D01*
X218333Y50105D02*
X219459D01*
X218333Y51305D02*
X219459D01*
X220667Y50105D02*
X221139D01*
X220667Y51305D02*
X221139D01*
X219459D02*
X220654D01*
X219459Y50105D02*
X220654D01*
X207033Y52765D02*
X217833D01*
X218333Y41465D02*
Y52265D01*
X217833Y40965D02*
X217844Y40965D01*
X218333Y52276D02*
X218333Y52265D01*
X206533Y41465D02*
X206533Y41454D01*
X207022Y40965D02*
X207033Y40965D01*
X206533Y52265D02*
X206533Y52276D01*
X207033Y40965D02*
X217833D01*
X207022Y52765D02*
X207033Y52765D01*
X218333Y41454D02*
X218333Y41465D01*
X206533D02*
Y52265D01*
X217833Y52765D02*
X217844Y52765D01*
X43728Y177197D02*
X44671D01*
X45143D02*
X45156D01*
X45143Y178397D02*
X45156D01*
X47478Y177197D02*
Y178397D01*
X43728D02*
X44671D01*
X43728Y177197D02*
Y178397D01*
X46351D02*
X47478D01*
X46351Y177197D02*
X47478D01*
X44671Y178397D02*
X45143D01*
X44671Y177197D02*
X45143D01*
X45156D02*
X46351D01*
X45156Y178397D02*
X46351D01*
X43728Y179757D02*
X44671D01*
X45143D02*
X45156D01*
X45143Y180957D02*
X45156D01*
X47478Y179757D02*
Y180957D01*
X43728D02*
X44671D01*
X43728Y179757D02*
Y180957D01*
X46351D02*
X47478D01*
X46351Y179757D02*
X47478D01*
X44671Y180957D02*
X45143D01*
X44671Y179757D02*
X45143D01*
X45156D02*
X46351D01*
X45156Y180957D02*
X46351D01*
X43728Y182317D02*
X44671D01*
X45143D02*
X45156D01*
X45143Y183517D02*
X45156D01*
X47478Y182317D02*
Y183517D01*
X43728D02*
X44671D01*
X43728Y182317D02*
Y183517D01*
X46351D02*
X47478D01*
X46351Y182317D02*
X47478D01*
X44671Y183517D02*
X45143D01*
X44671Y182317D02*
X45143D01*
X45156D02*
X46351D01*
X45156Y183517D02*
X46351D01*
X43728Y184877D02*
X44671D01*
X45143D02*
X45156D01*
X45143Y186077D02*
X45156D01*
X47478Y184877D02*
Y186077D01*
X43728D02*
X44671D01*
X43728Y184877D02*
Y186077D01*
X46351D02*
X47478D01*
X46351Y184877D02*
X47478D01*
X44671Y186077D02*
X45143D01*
X44671Y184877D02*
X45143D01*
X45156D02*
X46351D01*
X45156Y186077D02*
X46351D01*
X62084Y178397D02*
X63028D01*
X61599D02*
X61612D01*
X61599Y177197D02*
X61612D01*
X59278D02*
Y178397D01*
X62084Y177197D02*
X63028D01*
Y178397D01*
X59278Y177197D02*
X60404D01*
X59278Y178397D02*
X60404D01*
X61612Y177197D02*
X62084D01*
X61612Y178397D02*
X62084D01*
X60404D02*
X61599D01*
X60404Y177197D02*
X61599D01*
X62084Y180957D02*
X63028D01*
X61599D02*
X61612D01*
X61599Y179757D02*
X61612D01*
X59278D02*
Y180957D01*
X62084Y179757D02*
X63028D01*
Y180957D01*
X59278Y179757D02*
X60404D01*
X59278Y180957D02*
X60404D01*
X61612Y179757D02*
X62084D01*
X61612Y180957D02*
X62084D01*
X60404D02*
X61599D01*
X60404Y179757D02*
X61599D01*
X62084Y183517D02*
X63028D01*
X61599D02*
X61612D01*
X61599Y182317D02*
X61612D01*
X59278D02*
Y183517D01*
X62084Y182317D02*
X63028D01*
Y183517D01*
X59278Y182317D02*
X60404D01*
X59278Y183517D02*
X60404D01*
X61612Y182317D02*
X62084D01*
X61612Y183517D02*
X62084D01*
X60404D02*
X61599D01*
X60404Y182317D02*
X61599D01*
X62084Y186077D02*
X63028D01*
X61599D02*
X61612D01*
X61599Y184877D02*
X61612D01*
X59278D02*
Y186077D01*
X62084Y184877D02*
X63028D01*
Y186077D01*
X59278Y184877D02*
X60404D01*
X59278Y186077D02*
X60404D01*
X61612Y184877D02*
X62084D01*
X61612Y186077D02*
X62084D01*
X60404D02*
X61599D01*
X60404Y184877D02*
X61599D01*
X47978Y187537D02*
X58778D01*
X59278Y176237D02*
Y187037D01*
X58778Y175737D02*
X58788Y175737D01*
X59277Y187048D02*
X59278Y187037D01*
X47478Y176237D02*
X47478Y176226D01*
X47967Y175737D02*
X47978Y175737D01*
X47478Y187037D02*
X47478Y187048D01*
X47978Y175737D02*
X58778D01*
X47967Y187537D02*
X47978Y187537D01*
X59277Y176226D02*
X59278Y176237D01*
X47478D02*
Y187037D01*
X58778Y187537D02*
X58788Y187537D01*
D93*
X150347Y175469D02*
X179299D01*
Y206504D01*
X150347Y175469D02*
Y206504D01*
X179299D01*
D94*
X72976Y80256D02*
D03*
X66336Y353778D02*
D03*
M02*
