M48
;Layer_Color=9474304
;FILE_FORMAT=2:5
INCH,TZ
;TYPE=PLATED
T1F00S00C0.00787
T2F00S00C0.04000
T3F00S00C0.08500
%
T01
X50724Y31890
X166299Y29882
X194803Y32126
X395508Y27191
X491850Y32205
X524803Y30984
X543370Y126772
X507803Y116167
X507811Y110163
X497870Y120866
X481078Y127781
X477398Y144198
Y149795
X474409Y147368
X470372Y156954
X451535Y168898
X441738Y168128
Y165856
X438772Y153006
X433122Y138352
X412968Y139706
X405107Y134843
X395508Y122466
X401284Y107635
X404169Y90183
X406433Y71997
X409476Y73672
X416339Y71616
X403874Y69710
X400394Y68110
X404169Y44094
X422811Y40938
X420668Y50984
X438772Y59612
X447258Y74120
Y76391
X451614Y74567
X470372Y61836
X474409Y52249
X477398Y54677
Y49080
X473559Y107218
X462979Y97747
X438276Y105900
X426353Y100419
X386846Y94120
X389448Y51248
X386622Y37732
X389732Y148293
X397154Y164973
X397244Y168898
X408992
X406433Y166142
X416339Y168128
X404169Y185458
X386846Y189395
X385272Y173254
X370866Y176698
X347638Y176772
X338817Y164872
X322829Y164159
X298819Y177165
X285039Y188902
X280709
X266999Y188312
Y186041
X243307Y188617
X248819Y136935
X255118Y131907
Y129635
X265488Y127357
Y125085
X268441Y135557
Y140157
X280709Y136933
X285039
Y132602
Y128272
X280709
Y132602
Y152756
X276981Y149879
X277570Y161049
X279842
X284646Y155512
X288583Y157480
X298819Y116535
X322829Y101206
X340079Y108359
X349213Y89370
X352756Y91339
X355906Y93134
X358268Y95842
X351971Y77174
X370965Y76378
X369449Y65945
X376010Y65773
X373299Y62323
X376010Y59612
X381728Y53321
X359842Y59055
Y62323
X356890Y56339
X316339Y45474
X299987Y41530
X296184Y71362
X237078Y124450
X349541Y138113
Y140385
X376010Y150363
X381728Y148596
X382221Y100419
X203298Y101897
X202885Y93134
X210276Y75500
X213819
X212047Y73138
X210276Y70776
X213819
X199215Y63763
X199213Y38560
X210665Y44492
X214209
X212437Y46854
X210665Y49216
X214209
X200472Y119951
X198866Y118345
X161811Y97244
X104331Y111036
X78575Y130635
X82422Y135852
X125787Y143543
X150394Y165618
Y167890
X210274Y166854
X101075Y187901
X55154Y183988
X51610
X53382Y181626
X51610Y179264
X55154
X33364Y180029
X30512Y141757
X25169Y141732
X27988Y138214
X30512Y134985
X25169
X-9449Y143307
X-25022Y155413
Y164862
Y174311
Y183760
X-17189Y185458
X71197Y146088
X62043Y107722
X54169
X31102Y93701
X21492Y66954
X-11024Y193701
X-25022Y193209
Y202657
Y224705
Y234154
Y243602
Y253051
X-24143Y262500
X-23141Y266040
X-25022Y268799
X-26182Y272007
X-24170Y276109
X-20879Y277442
X-23228Y279805
X-17903Y279528
X-17189Y276109
Y267360
X-5421Y277442
X-5960Y288608
X-25022Y284547
X28117Y278507
X30187Y291464
X32943Y294220
X36092Y291464
Y297370
X29793
X55222Y321804
X59055Y204174
X-6854Y207505
X88976Y200000
X110085Y224351
X150979Y232564
X168923Y230340
X169035Y238214
X168923Y246088
X170079Y265856
Y268128
X190097Y267842
X186614Y283391
X209449Y297638
X203539Y309945
X198983Y332702
X184202Y322097
X145705Y320057
X151181Y275702
Y273431
X119130Y291464
X92772Y275702
X98358Y315157
X83685Y322695
X225430Y285458
Y279159
X216535Y260180
Y257909
X201575Y217189
X193146Y225616
X184091Y217027
X168504Y221967
X186614Y198155
X207087Y197564
X207874Y203937
X211344Y193012
X243307Y190889
X249311Y197072
X268441Y196186
X268504Y201575
X280709Y197563
X285039
Y193232
X280709
X279842Y221260
X277570
X268441
X266999Y246345
Y248617
X268441Y256817
Y261417
X280709Y258193
X285039
Y253862
Y249532
X280709
Y253862
X254331Y251494
Y249222
X253322Y242520
X255217Y257702
X235864Y258017
X242126Y222860
X298819Y237402
X332677Y236417
X328677Y228817
X330709Y226378
X333465Y224356
X334780Y221522
X322829Y224410
X362470Y221038
X354213Y201015
Y198743
X382221Y195694
X381728Y243872
X375604Y261551
X370965Y271876
X362470Y280939
X352913Y261645
Y259373
X331656Y277649
X330941Y280734
Y284254
X329037Y286626
X328677Y290773
X322835Y286626
X327511Y300501
X298819Y298031
X285039Y310161
Y314492
Y318823
X280709
Y314492
Y310161
X268441Y317446
Y322047
X260630Y313797
Y311525
X263779Y296648
Y294376
X278155Y285039
X280427
X244756Y305694
X254861Y325726
X243697Y345272
X319130Y344612
X351496Y322275
Y320003
X381728Y339147
X382436Y290920
X386846Y284671
X385272Y268529
X396831Y266535
X396063Y261024
X405905Y263779
X409064Y264052
X416339Y265603
X441886Y264303
Y262031
X451535Y264303
X438772Y248450
X434646Y233720
X413141Y236417
X406917Y231299
X395508Y217742
X401284Y200921
X425984Y195694
X437448Y204120
X463105Y192101
X473559Y202336
X476527Y223024
X477398Y239631
Y245228
X474409Y242801
X470372Y252387
X462789Y287427
X473559Y297769
X479013Y320087
X477398Y334907
Y340503
X474409Y338076
X439764Y334646
X431693Y326575
X422142Y318332
X408661Y309530
X395508Y313017
X401315Y296850
X404169Y280734
X425934Y290970
X443405Y296974
X507811Y300714
X507803Y306718
X497870Y311024
X534806Y320020
X507803Y211285
X507811Y205281
X497870Y215379
X389654Y242444
X389799Y331987
X542165Y223189
X470372Y347663
X452362Y360118
X442008Y360293
Y358021
X440935Y386049
X425934Y386246
X404169Y376009
X386846Y379946
X385272Y363805
X395214Y359671
X396063Y356299
X405884Y354749
X409064
X414996Y361442
X401315Y395990
X397199Y396063
X390433Y395827
X462598Y404331
X473165Y389108
X462968Y378608
X507417Y392053
X507409Y398057
X497476Y402362
X384252Y386246
X369094Y381968
X355906Y381496
Y378346
Y374927
X330941Y378372
Y390183
Y401994
Y366561
Y354749
X299213Y366561
X299024Y378372
X273780Y386850
X268047Y386693
X262559
X256890Y387165
X251102
X268321Y400622
X376088Y361442
X376477Y351600
X191570Y364198
X190822Y391782
X208538Y401625
X49448Y402879
X41836Y354088
X37899Y347001
T02
X455512Y86299
X491366Y75197
X483858Y64568
X491417Y102047
X519602Y84120
Y74120
Y169238
Y179238
X490863Y168898
X483858Y159686
X453976Y182520
X490433Y197165
X483858Y255119
X491890Y265603
X490000Y292126
X519602Y274671
Y264671
X454528Y276378
X453780Y373425
X490394Y383858
X492551Y360143
X484342Y350491
X519602Y359946
Y369946
T03
X539602Y54120
Y94120
Y149238
Y189238
Y244671
Y284671
Y339946
Y379946
M30
