G04*
G04 #@! TF.GenerationSoftware,Altium Limited,Altium Designer,19.1.8 (144)*
G04*
G04 Layer_Color=16711935*
%FSLAX25Y25*%
%MOIN*%
G70*
G01*
G75*
%ADD16C,0.01000*%
%ADD90C,0.00600*%
D16*
X564928Y19714D02*
G03*
X571185Y25895I75J6181D01*
G01*
Y408673D02*
G03*
X565004Y414929I-6181J75D01*
G01*
X14567Y25984D02*
G03*
X20866Y19608I6299J-77D01*
G01*
X21729Y414950D02*
G03*
X14479Y407789I-88J-7161D01*
G01*
X-8268Y134985D02*
G03*
X-12205Y131048I0J-3937D01*
G01*
X-13780Y127504D02*
G03*
X-12205Y129079I0J1575D01*
G01*
X-20177Y140737D02*
G03*
X-24114Y144674I-3937J0D01*
G01*
X-24237Y289594D02*
G03*
X-20300Y293531I0J3937D01*
G01*
X-23386Y206264D02*
G03*
X-23386Y215713I0J4724D01*
G01*
X-12205Y305512D02*
G03*
X-13780Y307087I-1575J0D01*
G01*
X-12205Y303150D02*
G03*
X-8268Y299213I3937J0D01*
G01*
X20866Y19608D02*
X564822D01*
X571185Y25895D02*
Y408673D01*
X21729Y414950D02*
X565004D01*
X14567Y299213D02*
Y407789D01*
X-8268Y299213D02*
X14567D01*
Y26378D02*
Y134985D01*
X-8268D02*
X14567D01*
X-12205Y129079D02*
Y131048D01*
X-20177Y127504D02*
X-13780D01*
X-20177D02*
Y140737D01*
X-43515Y144709D02*
X-24149D01*
X-43515D02*
Y206264D01*
X-23386D01*
X-43551Y215748D02*
X-23421D01*
X-43551D02*
X-43515Y215713D01*
Y289594D01*
X-24237D01*
X-12205Y303150D02*
Y305512D01*
X-20300Y307087D02*
X-13780D01*
X-20300Y293531D02*
Y307087D01*
X702724Y25608D02*
X704724Y19608D01*
X706724Y25608D01*
X704724Y414950D02*
X706724Y408950D01*
X702724D02*
X704724Y414950D01*
Y19608D02*
Y197584D01*
Y233774D02*
Y414950D01*
X566322Y19608D02*
X705724D01*
X566504Y414950D02*
X705724D01*
X-43515Y468350D02*
X-37515Y470350D01*
X-43515Y468350D02*
X-37515Y466350D01*
X565185D02*
X571185Y468350D01*
X565185Y470350D02*
X571185Y468350D01*
X-43515D02*
X244640D01*
X279830D02*
X571185D01*
X-43515Y291094D02*
Y469350D01*
X571185Y410173D02*
Y469350D01*
D90*
X709323Y199184D02*
Y201184D01*
Y200184D01*
X703325D01*
X704325Y199184D01*
Y204183D02*
X703325Y205183D01*
Y207182D01*
X704325Y208182D01*
X708323D01*
X709323Y207182D01*
Y205183D01*
X708323Y204183D01*
X704325D01*
Y210181D02*
X703325Y211180D01*
Y213180D01*
X704325Y214180D01*
X708323D01*
X709323Y213180D01*
Y211180D01*
X708323Y210181D01*
X704325D01*
X710323Y217179D02*
X709323Y218178D01*
X708323D01*
Y217179D01*
X709323D01*
Y218178D01*
X710323Y217179D01*
X711322Y216179D01*
X709323Y225176D02*
X703325D01*
X706324Y222177D01*
Y226176D01*
X709323Y232174D02*
Y228175D01*
X705324Y232174D01*
X704325D01*
X703325Y231174D01*
Y229175D01*
X704325Y228175D01*
X246240Y463752D02*
X248239D01*
X247239D01*
Y469750D01*
X246240Y468750D01*
X255237Y469750D02*
X251238D01*
Y466751D01*
X253238Y467750D01*
X254237D01*
X255237Y466751D01*
Y464751D01*
X254237Y463752D01*
X252238D01*
X251238Y464751D01*
X261235Y469750D02*
X259236Y468750D01*
X257236Y466751D01*
Y464751D01*
X258236Y463752D01*
X260235D01*
X261235Y464751D01*
Y465751D01*
X260235Y466751D01*
X257236D01*
X264234Y462752D02*
X265234Y463752D01*
Y464751D01*
X264234D01*
Y463752D01*
X265234D01*
X264234Y462752D01*
X263234Y461752D01*
X269232Y463752D02*
X271232D01*
X270232D01*
Y469750D01*
X269232Y468750D01*
X274231D02*
X275230Y469750D01*
X277230D01*
X278229Y468750D01*
Y467750D01*
X277230Y466751D01*
X276230D01*
X277230D01*
X278229Y465751D01*
Y464751D01*
X277230Y463752D01*
X275230D01*
X274231Y464751D01*
M02*
