G04*
G04 #@! TF.GenerationSoftware,Altium Limited,Altium Designer,19.1.8 (144)*
G04*
G04 Layer_Color=8421504*
%FSLAX25Y25*%
%MOIN*%
G70*
G01*
G75*
%ADD18O,0.06693X0.01300*%
%ADD19R,0.06181X0.07441*%
%ADD20R,0.06890X0.11614*%
%ADD21O,0.05709X0.00787*%
%ADD22R,0.05807X0.01300*%
%ADD23R,0.03347X0.03740*%
%ADD24R,0.11024X0.02165*%
G04:AMPARAMS|DCode=25|XSize=59.06mil|YSize=17.72mil|CornerRadius=1.95mil|HoleSize=0mil|Usage=FLASHONLY|Rotation=0.000|XOffset=0mil|YOffset=0mil|HoleType=Round|Shape=RoundedRectangle|*
%AMROUNDEDRECTD25*
21,1,0.05906,0.01382,0,0,0.0*
21,1,0.05516,0.01772,0,0,0.0*
1,1,0.00390,0.02758,-0.00691*
1,1,0.00390,-0.02758,-0.00691*
1,1,0.00390,-0.02758,0.00691*
1,1,0.00390,0.02758,0.00691*
%
%ADD25ROUNDEDRECTD25*%
%ADD26R,0.05512X0.03937*%
%ADD27R,0.03740X0.03347*%
%ADD28R,0.06614X0.07559*%
%ADD29R,0.03937X0.01772*%
%ADD30O,0.01378X0.06693*%
%ADD31R,0.02362X0.04803*%
%ADD32R,0.01772X0.05709*%
%ADD33R,0.04803X0.02441*%
%ADD34R,0.04803X0.02362*%
%ADD35R,0.02992X0.05000*%
%ADD36R,0.05000X0.02992*%
%ADD37R,0.10630X0.14173*%
%ADD38R,0.03150X0.03150*%
%ADD39R,0.04700X0.06300*%
%ADD40R,0.02756X0.03543*%
%ADD41R,0.03543X0.02756*%
G04:AMPARAMS|DCode=42|XSize=47.64mil|YSize=71.65mil|CornerRadius=7.86mil|HoleSize=0mil|Usage=FLASHONLY|Rotation=270.000|XOffset=0mil|YOffset=0mil|HoleType=Round|Shape=RoundedRectangle|*
%AMROUNDEDRECTD42*
21,1,0.04764,0.05593,0,0,270.0*
21,1,0.03192,0.07165,0,0,270.0*
1,1,0.01572,-0.02797,-0.01596*
1,1,0.01572,-0.02797,0.01596*
1,1,0.01572,0.02797,0.01596*
1,1,0.01572,0.02797,-0.01596*
%
%ADD42ROUNDEDRECTD42*%
%ADD43R,0.07087X0.16535*%
G04:AMPARAMS|DCode=44|XSize=47.64mil|YSize=71.65mil|CornerRadius=7.86mil|HoleSize=0mil|Usage=FLASHONLY|Rotation=180.000|XOffset=0mil|YOffset=0mil|HoleType=Round|Shape=RoundedRectangle|*
%AMROUNDEDRECTD44*
21,1,0.04764,0.05593,0,0,180.0*
21,1,0.03192,0.07165,0,0,180.0*
1,1,0.01572,-0.01596,0.02797*
1,1,0.01572,0.01596,0.02797*
1,1,0.01572,0.01596,-0.02797*
1,1,0.01572,-0.01596,-0.02797*
%
%ADD44ROUNDEDRECTD44*%
%ADD45R,0.05315X0.06102*%
D18*
X220315Y69299D02*
D03*
Y71858D02*
D03*
Y74417D02*
D03*
Y76976D02*
D03*
X203780Y69299D02*
D03*
Y71858D02*
D03*
Y74417D02*
D03*
Y76976D02*
D03*
X220705Y43016D02*
D03*
Y45575D02*
D03*
Y48134D02*
D03*
Y50693D02*
D03*
X204169Y43016D02*
D03*
Y45575D02*
D03*
Y48134D02*
D03*
Y50693D02*
D03*
X61650Y177787D02*
D03*
Y180347D02*
D03*
Y182905D02*
D03*
Y185465D02*
D03*
X45114Y177787D02*
D03*
Y180347D02*
D03*
Y182905D02*
D03*
Y185465D02*
D03*
D19*
X212047Y73138D02*
D03*
X212437Y46854D02*
D03*
X53382Y181626D02*
D03*
D20*
X282874Y314492D02*
D03*
Y253862D02*
D03*
Y193232D02*
D03*
Y132602D02*
D03*
D21*
X273524Y321382D02*
D03*
Y319413D02*
D03*
Y317445D02*
D03*
Y315476D02*
D03*
Y313508D02*
D03*
Y311539D02*
D03*
Y309571D02*
D03*
Y307602D02*
D03*
X292224Y321382D02*
D03*
Y319413D02*
D03*
Y317445D02*
D03*
Y315476D02*
D03*
Y313508D02*
D03*
Y311539D02*
D03*
Y309571D02*
D03*
Y307602D02*
D03*
X273524Y260752D02*
D03*
Y258784D02*
D03*
Y256815D02*
D03*
Y254847D02*
D03*
Y252878D02*
D03*
Y250909D02*
D03*
Y248941D02*
D03*
Y246972D02*
D03*
X292224Y260752D02*
D03*
Y258784D02*
D03*
Y256815D02*
D03*
Y254847D02*
D03*
Y252878D02*
D03*
Y250909D02*
D03*
Y248941D02*
D03*
Y246972D02*
D03*
X273524Y200122D02*
D03*
Y198153D02*
D03*
Y196185D02*
D03*
Y194217D02*
D03*
Y192248D02*
D03*
Y190279D02*
D03*
Y188311D02*
D03*
Y186343D02*
D03*
X292224Y200122D02*
D03*
Y198153D02*
D03*
Y196185D02*
D03*
Y194217D02*
D03*
Y192248D02*
D03*
Y190279D02*
D03*
Y188311D02*
D03*
Y186343D02*
D03*
X273524Y139492D02*
D03*
Y137524D02*
D03*
Y135555D02*
D03*
Y133587D02*
D03*
Y131618D02*
D03*
Y129650D02*
D03*
Y127681D02*
D03*
Y125713D02*
D03*
X292224Y139492D02*
D03*
Y137524D02*
D03*
Y135555D02*
D03*
Y133587D02*
D03*
Y131618D02*
D03*
Y129650D02*
D03*
Y127681D02*
D03*
Y125713D02*
D03*
D22*
X176366Y205043D02*
D03*
Y202484D02*
D03*
Y199925D02*
D03*
Y197366D02*
D03*
Y194807D02*
D03*
Y192248D02*
D03*
Y189689D02*
D03*
Y187130D02*
D03*
Y184571D02*
D03*
Y182012D02*
D03*
Y179453D02*
D03*
Y176894D02*
D03*
X153232D02*
D03*
Y179453D02*
D03*
Y182012D02*
D03*
Y184571D02*
D03*
Y187130D02*
D03*
Y189689D02*
D03*
Y192248D02*
D03*
Y194807D02*
D03*
Y197366D02*
D03*
Y199925D02*
D03*
Y202484D02*
D03*
Y205043D02*
D03*
D23*
X457283Y75197D02*
D03*
X462402D02*
D03*
X28811Y148869D02*
D03*
X23693D02*
D03*
X419721Y347663D02*
D03*
X424839D02*
D03*
X419721Y252387D02*
D03*
X424839D02*
D03*
X419721Y157112D02*
D03*
X424839D02*
D03*
X419721Y61836D02*
D03*
X424839D02*
D03*
X418933Y369710D02*
D03*
X424051D02*
D03*
X418933Y274435D02*
D03*
X424051D02*
D03*
X418933Y179159D02*
D03*
X424051D02*
D03*
X418933Y83883D02*
D03*
X424051D02*
D03*
X309091Y401994D02*
D03*
X303972D02*
D03*
X123264Y102387D02*
D03*
X118146D02*
D03*
X174839Y246088D02*
D03*
X179957D02*
D03*
X95321Y152241D02*
D03*
X90203D02*
D03*
X174839Y238214D02*
D03*
X179957D02*
D03*
X174839Y230340D02*
D03*
X179957D02*
D03*
X462402Y360236D02*
D03*
X457283D02*
D03*
X462402Y265354D02*
D03*
X457283D02*
D03*
X462402Y168898D02*
D03*
X457283D02*
D03*
X231301Y86991D02*
D03*
X236419D02*
D03*
X54336Y373970D02*
D03*
X49218D02*
D03*
X414996Y386246D02*
D03*
X420114D02*
D03*
X414996Y290970D02*
D03*
X420114D02*
D03*
X414996Y195694D02*
D03*
X420114D02*
D03*
X414996Y100419D02*
D03*
X420114D02*
D03*
X309091Y366561D02*
D03*
X303972D02*
D03*
X309091Y354749D02*
D03*
X303972D02*
D03*
X88618Y126502D02*
D03*
X93736D02*
D03*
X88618Y135852D02*
D03*
X93736D02*
D03*
X309091Y378372D02*
D03*
X303972D02*
D03*
X309091Y390183D02*
D03*
X303972D02*
D03*
X327201Y45474D02*
D03*
X322083D02*
D03*
X326809Y77174D02*
D03*
X321691D02*
D03*
X58303Y55340D02*
D03*
X53185D02*
D03*
X381138Y359474D02*
D03*
X386256D02*
D03*
X381138Y264198D02*
D03*
X386256D02*
D03*
X381138Y168923D02*
D03*
X386256D02*
D03*
X381138Y73647D02*
D03*
X386256D02*
D03*
X407516Y386246D02*
D03*
X402398D02*
D03*
X407516Y290970D02*
D03*
X402398D02*
D03*
X407516Y195694D02*
D03*
X402398D02*
D03*
X407516Y100419D02*
D03*
X402398D02*
D03*
X381138Y351600D02*
D03*
X386256D02*
D03*
X381138Y256324D02*
D03*
X386256D02*
D03*
X381138Y161049D02*
D03*
X386256D02*
D03*
X381138Y65773D02*
D03*
X386256D02*
D03*
X394917Y386246D02*
D03*
X389799D02*
D03*
X394917Y290970D02*
D03*
X389799D02*
D03*
X394917Y195694D02*
D03*
X389799D02*
D03*
X394917Y100419D02*
D03*
X389799D02*
D03*
X476217Y352781D02*
D03*
X471098D02*
D03*
X476217Y257505D02*
D03*
X471098D02*
D03*
X476217Y162072D02*
D03*
X471098D02*
D03*
X476217Y66954D02*
D03*
X471098D02*
D03*
X291929Y301002D02*
D03*
X286811D02*
D03*
X291929Y240158D02*
D03*
X286811D02*
D03*
X291929Y178740D02*
D03*
X286811D02*
D03*
X291929Y119112D02*
D03*
X286811D02*
D03*
X334287Y324682D02*
D03*
X329169D02*
D03*
X334287Y264052D02*
D03*
X329169D02*
D03*
X334287Y203422D02*
D03*
X329169D02*
D03*
X334287Y142792D02*
D03*
X329169D02*
D03*
X334287Y317596D02*
D03*
X329169D02*
D03*
X334287Y256966D02*
D03*
X329169D02*
D03*
X334287Y196336D02*
D03*
X329169D02*
D03*
X334287Y135706D02*
D03*
X329169D02*
D03*
X500035Y366561D02*
D03*
X505154D02*
D03*
X500035Y271285D02*
D03*
X505154D02*
D03*
X500035Y175852D02*
D03*
X505154D02*
D03*
X500035Y80734D02*
D03*
X505154D02*
D03*
X220374Y285458D02*
D03*
X215256D02*
D03*
X220374Y279159D02*
D03*
X215256D02*
D03*
X220374Y291757D02*
D03*
X215256D02*
D03*
X220374Y298057D02*
D03*
X215256D02*
D03*
X160709Y288509D02*
D03*
X165827D02*
D03*
D24*
X-33937Y259685D02*
D03*
Y247087D02*
D03*
Y250236D02*
D03*
Y228189D02*
D03*
Y231339D02*
D03*
Y237638D02*
D03*
Y240787D02*
D03*
Y149449D02*
D03*
Y152598D02*
D03*
Y155748D02*
D03*
Y158898D02*
D03*
Y162047D02*
D03*
Y165197D02*
D03*
Y168347D02*
D03*
Y171496D02*
D03*
Y174646D02*
D03*
Y177795D02*
D03*
Y180945D02*
D03*
Y184095D02*
D03*
Y187244D02*
D03*
Y190394D02*
D03*
Y193543D02*
D03*
Y196693D02*
D03*
Y199843D02*
D03*
Y202992D02*
D03*
Y218740D02*
D03*
Y221890D02*
D03*
Y225039D02*
D03*
Y234488D02*
D03*
Y243937D02*
D03*
Y253386D02*
D03*
Y256535D02*
D03*
Y262835D02*
D03*
Y265984D02*
D03*
Y269134D02*
D03*
Y272284D02*
D03*
Y275433D02*
D03*
Y278583D02*
D03*
Y281732D02*
D03*
Y284882D02*
D03*
D25*
X202461Y288509D02*
D03*
Y285950D02*
D03*
Y283391D02*
D03*
Y280832D02*
D03*
X179626D02*
D03*
Y283391D02*
D03*
Y285950D02*
D03*
Y288509D02*
D03*
D26*
X242284Y337717D02*
D03*
X252520D02*
D03*
X233504Y398740D02*
D03*
X243740D02*
D03*
X233189Y369370D02*
D03*
X243425D02*
D03*
X166963Y396507D02*
D03*
X156727D02*
D03*
X96378Y168808D02*
D03*
X86142D02*
D03*
X35665Y203962D02*
D03*
X25429D02*
D03*
X115193Y130635D02*
D03*
X104957D02*
D03*
X44592Y304481D02*
D03*
X34356D02*
D03*
X38815Y128765D02*
D03*
X28579D02*
D03*
X121685Y327412D02*
D03*
X111449D02*
D03*
X173654Y343508D02*
D03*
X163417D02*
D03*
X167122Y371285D02*
D03*
X156886D02*
D03*
X269524Y43014D02*
D03*
X259287D02*
D03*
X167949Y50002D02*
D03*
X157713D02*
D03*
X269132Y76189D02*
D03*
X258896D02*
D03*
X167557Y77961D02*
D03*
X157321D02*
D03*
X314799Y283096D02*
D03*
X304563D02*
D03*
X314799Y222466D02*
D03*
X304563D02*
D03*
X314799Y161836D02*
D03*
X304563D02*
D03*
X314799Y101206D02*
D03*
X304563D02*
D03*
D27*
X9409Y148425D02*
D03*
Y143307D02*
D03*
X2705Y148608D02*
D03*
Y143490D02*
D03*
X-3195Y143490D02*
D03*
Y148608D02*
D03*
X76551Y191178D02*
D03*
Y186060D02*
D03*
Y178973D02*
D03*
Y173855D02*
D03*
X408661Y315037D02*
D03*
Y320155D02*
D03*
Y225025D02*
D03*
Y219907D02*
D03*
Y130340D02*
D03*
Y125222D02*
D03*
Y38476D02*
D03*
Y33358D02*
D03*
X417323Y320891D02*
D03*
Y326009D02*
D03*
Y231693D02*
D03*
Y226575D02*
D03*
Y134843D02*
D03*
Y129724D02*
D03*
Y42323D02*
D03*
Y37205D02*
D03*
X426772Y326575D02*
D03*
Y331693D02*
D03*
Y236417D02*
D03*
Y231299D02*
D03*
Y140373D02*
D03*
Y135254D02*
D03*
Y50984D02*
D03*
Y45866D02*
D03*
X137240Y209277D02*
D03*
Y204159D02*
D03*
X434646Y334769D02*
D03*
Y339887D02*
D03*
Y244513D02*
D03*
Y239395D02*
D03*
Y149041D02*
D03*
Y143923D02*
D03*
Y55154D02*
D03*
Y50035D02*
D03*
X237634Y58860D02*
D03*
Y53742D02*
D03*
Y45474D02*
D03*
Y40356D02*
D03*
X237242Y78748D02*
D03*
Y73630D02*
D03*
X37899Y341269D02*
D03*
Y336151D02*
D03*
Y357828D02*
D03*
Y362946D02*
D03*
Y326726D02*
D03*
Y321607D02*
D03*
X44986Y321607D02*
D03*
Y326726D02*
D03*
X62043Y84474D02*
D03*
Y89592D02*
D03*
X201575Y205315D02*
D03*
Y210433D02*
D03*
Y197835D02*
D03*
Y192717D02*
D03*
X465193Y369718D02*
D03*
Y374836D02*
D03*
X465587Y278379D02*
D03*
Y283498D02*
D03*
Y182946D02*
D03*
Y188065D02*
D03*
Y87828D02*
D03*
Y92946D02*
D03*
X483303Y378568D02*
D03*
Y373450D02*
D03*
X483697Y287230D02*
D03*
Y282112D02*
D03*
Y191797D02*
D03*
Y186679D02*
D03*
Y96679D02*
D03*
Y91561D02*
D03*
X500823Y373450D02*
D03*
Y378568D02*
D03*
X501217Y282112D02*
D03*
Y287230D02*
D03*
Y186679D02*
D03*
Y191797D02*
D03*
Y91561D02*
D03*
Y96679D02*
D03*
X62043Y97072D02*
D03*
Y102190D02*
D03*
X34484Y56128D02*
D03*
Y61246D02*
D03*
X54169Y102190D02*
D03*
Y97072D02*
D03*
X378972Y372269D02*
D03*
Y367151D02*
D03*
Y276994D02*
D03*
Y271876D02*
D03*
Y181718D02*
D03*
Y176600D02*
D03*
Y86442D02*
D03*
Y81324D02*
D03*
X395508Y318332D02*
D03*
Y323450D02*
D03*
Y223057D02*
D03*
Y228175D02*
D03*
Y127781D02*
D03*
Y132899D02*
D03*
Y32505D02*
D03*
Y37624D02*
D03*
Y330931D02*
D03*
Y336049D02*
D03*
Y235655D02*
D03*
Y240773D02*
D03*
Y140379D02*
D03*
Y145498D02*
D03*
Y45104D02*
D03*
Y50222D02*
D03*
X14405Y258883D02*
D03*
Y253765D02*
D03*
X23067Y258883D02*
D03*
Y253765D02*
D03*
D28*
X72976Y95324D02*
D03*
Y80521D02*
D03*
X66336Y338710D02*
D03*
Y353513D02*
D03*
D29*
X468146Y397171D02*
D03*
Y394612D02*
D03*
Y392053D02*
D03*
Y389494D02*
D03*
X485862Y397171D02*
D03*
Y394612D02*
D03*
Y392053D02*
D03*
Y389494D02*
D03*
X468539Y305832D02*
D03*
Y303273D02*
D03*
Y300714D02*
D03*
Y298155D02*
D03*
X486256Y305832D02*
D03*
Y303273D02*
D03*
Y300714D02*
D03*
Y298155D02*
D03*
X469327Y210557D02*
D03*
Y207998D02*
D03*
Y205438D02*
D03*
Y202879D02*
D03*
X487043Y210557D02*
D03*
Y207998D02*
D03*
Y205438D02*
D03*
Y202879D02*
D03*
X467752Y115281D02*
D03*
Y112722D02*
D03*
Y110163D02*
D03*
Y107604D02*
D03*
X485468Y115281D02*
D03*
Y112722D02*
D03*
Y110163D02*
D03*
Y107604D02*
D03*
D30*
X411551Y369907D02*
D03*
X408992D02*
D03*
X406433D02*
D03*
X403874D02*
D03*
X401315D02*
D03*
X398756D02*
D03*
X396197D02*
D03*
X393638D02*
D03*
X411551Y347466D02*
D03*
X408992D02*
D03*
X406433D02*
D03*
X403874D02*
D03*
X401315D02*
D03*
X398756D02*
D03*
X396197D02*
D03*
X393638D02*
D03*
X411551Y274631D02*
D03*
X408992D02*
D03*
X406433D02*
D03*
X403874D02*
D03*
X401315D02*
D03*
X398756D02*
D03*
X396197D02*
D03*
X393638D02*
D03*
X411551Y252190D02*
D03*
X408992D02*
D03*
X406433D02*
D03*
X403874D02*
D03*
X401315D02*
D03*
X398756D02*
D03*
X396197D02*
D03*
X393638D02*
D03*
X411551Y179356D02*
D03*
X408992D02*
D03*
X406433D02*
D03*
X403874D02*
D03*
X401315D02*
D03*
X398756D02*
D03*
X396197D02*
D03*
X393638D02*
D03*
X411551Y156915D02*
D03*
X408992D02*
D03*
X406433D02*
D03*
X403874D02*
D03*
X401315D02*
D03*
X398756D02*
D03*
X396197D02*
D03*
X393638D02*
D03*
X411551Y84080D02*
D03*
X408992D02*
D03*
X406433D02*
D03*
X403874D02*
D03*
X401315D02*
D03*
X398756D02*
D03*
X396197D02*
D03*
X393638D02*
D03*
X411551Y61639D02*
D03*
X408992D02*
D03*
X406433D02*
D03*
X403874D02*
D03*
X401315D02*
D03*
X398756D02*
D03*
X396197D02*
D03*
X393638D02*
D03*
D31*
X142555Y143372D02*
D03*
X138815D02*
D03*
X135075D02*
D03*
Y133057D02*
D03*
X138815D02*
D03*
X142555D02*
D03*
D32*
X54336Y354088D02*
D03*
X51777D02*
D03*
X49218D02*
D03*
X46659D02*
D03*
X54336Y336765D02*
D03*
X51777D02*
D03*
X49218D02*
D03*
X46659D02*
D03*
X45606Y68135D02*
D03*
X48165D02*
D03*
X50724D02*
D03*
X53284D02*
D03*
X45606Y85458D02*
D03*
X48165D02*
D03*
X50724D02*
D03*
X53284D02*
D03*
D33*
X161094Y322491D02*
D03*
Y315011D02*
D03*
X213854Y336442D02*
D03*
Y328962D02*
D03*
X206532Y367742D02*
D03*
Y360261D02*
D03*
X206373Y395523D02*
D03*
Y388042D02*
D03*
D34*
X150779Y315011D02*
D03*
Y318751D02*
D03*
Y322491D02*
D03*
X203539Y328962D02*
D03*
Y332702D02*
D03*
Y336442D02*
D03*
X196216Y360261D02*
D03*
Y364001D02*
D03*
Y367742D02*
D03*
X196058Y388042D02*
D03*
Y391782D02*
D03*
Y395523D02*
D03*
D35*
X460256Y315709D02*
D03*
X455256D02*
D03*
X450256D02*
D03*
X445256D02*
D03*
Y345709D02*
D03*
X450256D02*
D03*
X455256D02*
D03*
X460256D02*
D03*
Y219646D02*
D03*
X455256D02*
D03*
X450256D02*
D03*
X445256D02*
D03*
Y249646D02*
D03*
X450256D02*
D03*
X455256D02*
D03*
X460256D02*
D03*
Y124370D02*
D03*
X455256D02*
D03*
X450256D02*
D03*
X445256D02*
D03*
Y154370D02*
D03*
X450256D02*
D03*
X455256D02*
D03*
X460256D02*
D03*
Y36268D02*
D03*
X455256D02*
D03*
X450256D02*
D03*
X445256D02*
D03*
Y66268D02*
D03*
X450256D02*
D03*
X455256D02*
D03*
X460256D02*
D03*
D36*
X193106Y230714D02*
D03*
Y235714D02*
D03*
Y240714D02*
D03*
Y245714D02*
D03*
X223106D02*
D03*
Y240714D02*
D03*
Y235714D02*
D03*
Y230714D02*
D03*
D37*
X97742Y381647D02*
D03*
X66246D02*
D03*
X104331Y53937D02*
D03*
X72835D02*
D03*
D38*
X325429Y401994D02*
D03*
X319130D02*
D03*
X139602Y102387D02*
D03*
X133303D02*
D03*
X110085Y152241D02*
D03*
X103786D02*
D03*
X44461Y148869D02*
D03*
X38161D02*
D03*
X325429Y366561D02*
D03*
X319130D02*
D03*
X325429Y354749D02*
D03*
X319130D02*
D03*
X345508Y45278D02*
D03*
X339209D02*
D03*
X325429Y378372D02*
D03*
X319130D02*
D03*
X325429Y390183D02*
D03*
X319130D02*
D03*
X345116Y77174D02*
D03*
X338817D02*
D03*
D39*
X499058Y339001D02*
D03*
X485658D02*
D03*
X499058Y243726D02*
D03*
X485658D02*
D03*
X499058Y148293D02*
D03*
X485658D02*
D03*
X499058Y53175D02*
D03*
X485658D02*
D03*
D40*
X184091Y209277D02*
D03*
X189602D02*
D03*
X58765Y324954D02*
D03*
X64277D02*
D03*
X387240Y343726D02*
D03*
X381728D02*
D03*
X387240Y248450D02*
D03*
X381728D02*
D03*
X387240Y153175D02*
D03*
X381728D02*
D03*
X387240Y57899D02*
D03*
X381728D02*
D03*
X35931Y373970D02*
D03*
X41443D02*
D03*
X54533Y365111D02*
D03*
X49021D02*
D03*
X465980Y382309D02*
D03*
X471492D02*
D03*
X466374Y290970D02*
D03*
X471886D02*
D03*
X466374Y195537D02*
D03*
X471886D02*
D03*
X466374Y100419D02*
D03*
X471886D02*
D03*
X497476Y398057D02*
D03*
X502988D02*
D03*
X497870Y306718D02*
D03*
X503382D02*
D03*
X497870Y211285D02*
D03*
X503382D02*
D03*
X497870Y116167D02*
D03*
X503382D02*
D03*
X34878Y97860D02*
D03*
X40390D02*
D03*
X41177Y55340D02*
D03*
X46689D02*
D03*
X243500Y362427D02*
D03*
X237988D02*
D03*
X499051Y352781D02*
D03*
X504563D02*
D03*
X499051Y257505D02*
D03*
X504563D02*
D03*
X499051Y162072D02*
D03*
X504563D02*
D03*
X499051Y66954D02*
D03*
X504563D02*
D03*
X471492Y374836D02*
D03*
X477004D02*
D03*
X471886Y283498D02*
D03*
X477398D02*
D03*
X471886Y188065D02*
D03*
X477398D02*
D03*
X471886Y92946D02*
D03*
X477398D02*
D03*
X497476Y392053D02*
D03*
X502988D02*
D03*
X497870Y300714D02*
D03*
X503382D02*
D03*
X497870Y205281D02*
D03*
X503382D02*
D03*
X497870Y110163D02*
D03*
X503382D02*
D03*
X243341Y391782D02*
D03*
X237830D02*
D03*
X414012Y379946D02*
D03*
X419524D02*
D03*
X414012Y284671D02*
D03*
X419524D02*
D03*
X414012Y189395D02*
D03*
X419524D02*
D03*
X414012Y94120D02*
D03*
X419524D02*
D03*
X407713Y379946D02*
D03*
X402201D02*
D03*
X407713Y284671D02*
D03*
X402201D02*
D03*
X407713Y189395D02*
D03*
X402201D02*
D03*
X407713Y94120D02*
D03*
X402201D02*
D03*
X396689Y379946D02*
D03*
X391177D02*
D03*
X396689Y284671D02*
D03*
X391177D02*
D03*
X396689Y189395D02*
D03*
X391177D02*
D03*
X396689Y94120D02*
D03*
X391177D02*
D03*
X499051Y359474D02*
D03*
X504563D02*
D03*
X499051Y264198D02*
D03*
X504563D02*
D03*
X499051Y168765D02*
D03*
X504563D02*
D03*
X499051Y73647D02*
D03*
X504563D02*
D03*
X328972Y331769D02*
D03*
X334484D02*
D03*
X328972Y271139D02*
D03*
X334484D02*
D03*
X328972Y210509D02*
D03*
X334484D02*
D03*
X328972Y149879D02*
D03*
X334484D02*
D03*
X334484Y310509D02*
D03*
X328973D02*
D03*
X334484Y249879D02*
D03*
X328973D02*
D03*
X334484Y189249D02*
D03*
X328973D02*
D03*
X334484Y128619D02*
D03*
X328973D02*
D03*
X302201Y303568D02*
D03*
X307713D02*
D03*
X302201Y242938D02*
D03*
X307713D02*
D03*
X302201Y182309D02*
D03*
X307713D02*
D03*
X302201Y121679D02*
D03*
X307713D02*
D03*
X302201Y310655D02*
D03*
X307713D02*
D03*
X302201Y250025D02*
D03*
X307713D02*
D03*
X302201Y189395D02*
D03*
X307713D02*
D03*
X302201Y128765D02*
D03*
X307713D02*
D03*
X185925Y295694D02*
D03*
X191437D02*
D03*
D41*
X37117Y177395D02*
D03*
Y182907D02*
D03*
X103937Y168772D02*
D03*
Y174284D02*
D03*
X27953Y185433D02*
D03*
Y179921D02*
D03*
X51777Y327710D02*
D03*
Y322198D02*
D03*
X80315Y346457D02*
D03*
Y340945D02*
D03*
X31600Y353694D02*
D03*
Y348182D02*
D03*
X434091Y347269D02*
D03*
Y352781D02*
D03*
Y251994D02*
D03*
Y257505D02*
D03*
Y156718D02*
D03*
Y162230D02*
D03*
Y61442D02*
D03*
Y66954D02*
D03*
X434091Y369317D02*
D03*
Y363805D02*
D03*
Y274041D02*
D03*
Y268529D02*
D03*
Y178765D02*
D03*
Y173254D02*
D03*
Y83490D02*
D03*
Y77978D02*
D03*
X47083Y96088D02*
D03*
Y101600D02*
D03*
X34484Y70891D02*
D03*
Y76403D02*
D03*
X144327Y124435D02*
D03*
Y118923D02*
D03*
X134091Y124435D02*
D03*
Y118923D02*
D03*
X84091Y77978D02*
D03*
Y83490D02*
D03*
X26610Y66954D02*
D03*
Y61442D02*
D03*
X195669Y42103D02*
D03*
Y47615D02*
D03*
X260630Y336614D02*
D03*
Y342126D02*
D03*
X168535Y322294D02*
D03*
Y327806D02*
D03*
X168535Y315208D02*
D03*
Y309696D02*
D03*
X140976Y323082D02*
D03*
Y317570D02*
D03*
X221925Y336369D02*
D03*
Y341881D02*
D03*
X221925Y330464D02*
D03*
Y324952D02*
D03*
X193708Y340551D02*
D03*
Y335039D02*
D03*
X213972Y367545D02*
D03*
Y373057D02*
D03*
X213972Y360458D02*
D03*
Y354946D02*
D03*
X186413Y368332D02*
D03*
Y362820D02*
D03*
X69071Y174052D02*
D03*
Y179564D02*
D03*
X213814Y396113D02*
D03*
Y401625D02*
D03*
X213814Y388042D02*
D03*
Y382531D02*
D03*
X186255Y392964D02*
D03*
Y387452D02*
D03*
X269524Y50199D02*
D03*
Y55711D02*
D03*
X188028Y51872D02*
D03*
Y46360D02*
D03*
X229760Y39372D02*
D03*
Y44884D02*
D03*
X195671Y72818D02*
D03*
Y67306D02*
D03*
X270313Y83866D02*
D03*
Y89378D02*
D03*
X187636Y78355D02*
D03*
Y72843D02*
D03*
X229368Y66544D02*
D03*
Y72055D02*
D03*
X385272Y373253D02*
D03*
Y367742D02*
D03*
Y277978D02*
D03*
Y272466D02*
D03*
Y182702D02*
D03*
Y177190D02*
D03*
Y87427D02*
D03*
Y81915D02*
D03*
X319917Y317989D02*
D03*
Y323501D02*
D03*
Y257359D02*
D03*
Y262871D02*
D03*
Y196730D02*
D03*
Y202241D02*
D03*
Y136100D02*
D03*
Y141611D02*
D03*
X263779Y318628D02*
D03*
Y324139D02*
D03*
Y257998D02*
D03*
Y263509D02*
D03*
Y197368D02*
D03*
Y202879D02*
D03*
Y136738D02*
D03*
Y142250D02*
D03*
X492165Y377598D02*
D03*
Y372087D02*
D03*
X492358Y287427D02*
D03*
Y281915D02*
D03*
Y191994D02*
D03*
Y186482D02*
D03*
Y96876D02*
D03*
Y91364D02*
D03*
X459780Y392249D02*
D03*
Y386738D02*
D03*
X460173Y300911D02*
D03*
Y295399D02*
D03*
Y205478D02*
D03*
Y199966D02*
D03*
Y110360D02*
D03*
Y104848D02*
D03*
D42*
X113224Y176675D02*
D03*
Y165258D02*
D03*
X86394Y188029D02*
D03*
Y176611D02*
D03*
X99317Y337355D02*
D03*
Y348773D02*
D03*
X88293Y337355D02*
D03*
Y348773D02*
D03*
X103382Y91167D02*
D03*
Y79750D02*
D03*
X155350Y119021D02*
D03*
Y130438D02*
D03*
X124051Y112919D02*
D03*
Y124336D02*
D03*
X92752Y91167D02*
D03*
Y79750D02*
D03*
X270079Y348746D02*
D03*
Y337328D02*
D03*
X177197Y310680D02*
D03*
Y322097D02*
D03*
X132315Y315405D02*
D03*
Y326822D02*
D03*
X231780Y326060D02*
D03*
Y337477D02*
D03*
X183642Y331620D02*
D03*
Y343037D02*
D03*
X222634Y355931D02*
D03*
Y367348D02*
D03*
X177752Y359868D02*
D03*
Y371285D02*
D03*
X222475Y384105D02*
D03*
Y395523D02*
D03*
X177593Y385286D02*
D03*
Y396704D02*
D03*
X281103Y54923D02*
D03*
Y43506D02*
D03*
X248657Y54923D02*
D03*
Y43506D02*
D03*
X178579Y38782D02*
D03*
Y50199D02*
D03*
X280711Y87607D02*
D03*
Y76189D02*
D03*
X248266Y87607D02*
D03*
Y76189D02*
D03*
X178187Y66741D02*
D03*
Y78158D02*
D03*
D43*
X125429Y380931D02*
D03*
Y353765D02*
D03*
X130941Y49041D02*
D03*
Y76206D02*
D03*
D44*
X64868Y314718D02*
D03*
X53451D02*
D03*
X24839Y194488D02*
D03*
X36256D02*
D03*
X64868Y304481D02*
D03*
X53451D02*
D03*
X39406Y106718D02*
D03*
X27988D02*
D03*
X39406Y117742D02*
D03*
X27988D02*
D03*
X232279Y354553D02*
D03*
X243697D02*
D03*
X232121Y384105D02*
D03*
X243538D02*
D03*
D45*
X284252Y291757D02*
D03*
X292126D02*
D03*
X284252Y230714D02*
D03*
X292126D02*
D03*
X284252Y168923D02*
D03*
X292126D02*
D03*
X284252Y109449D02*
D03*
X292126D02*
D03*
X304169Y293332D02*
D03*
X312043D02*
D03*
X304169Y232702D02*
D03*
X312043D02*
D03*
X304169Y172072D02*
D03*
X312043D02*
D03*
X304169Y111442D02*
D03*
X312043D02*
D03*
M02*
