G04*
G04 #@! TF.GenerationSoftware,Altium Limited,Altium Designer,19.1.8 (144)*
G04*
G04 Layer_Physical_Order=3*
G04 Layer_Color=16440176*
%FSLAX25Y25*%
%MOIN*%
G70*
G01*
G75*
%ADD16C,0.01000*%
%ADD81C,0.03000*%
%ADD88C,0.01772*%
G36*
X490064Y357874D02*
X490158Y357751D01*
X490859Y357213D01*
X491675Y356875D01*
X492551Y356760D01*
X493426Y356875D01*
X493682Y356981D01*
X496063Y354600D01*
Y39091D01*
X490514Y33542D01*
X490104Y32928D01*
X489960Y32205D01*
X490104Y31481D01*
X490514Y30868D01*
X491127Y30458D01*
X491850Y30314D01*
X492574Y30458D01*
X493187Y30868D01*
X495601Y33282D01*
X496063Y33090D01*
Y30849D01*
X488836Y23622D01*
X43701D01*
X22280Y45043D01*
Y65989D01*
X22386Y66060D01*
X22660Y66470D01*
X22757Y66954D01*
X22660Y67438D01*
X22386Y67848D01*
X22280Y67920D01*
Y147012D01*
X5906Y163386D01*
X-18110D01*
X-24803Y170079D01*
X-24803Y171260D01*
Y173090D01*
X-24538Y173143D01*
X-24128Y173417D01*
X-23854Y173827D01*
X-23757Y174311D01*
X-23854Y174795D01*
X-24128Y175205D01*
X-24538Y175479D01*
X-24803Y175532D01*
Y182539D01*
X-24538Y182592D01*
X-24128Y182866D01*
X-23854Y183276D01*
X-23757Y183760D01*
X-23854Y184244D01*
X-24128Y184654D01*
X-24538Y184928D01*
X-24803Y184981D01*
Y191988D01*
X-24538Y192040D01*
X-24128Y192315D01*
X-23854Y192725D01*
X-23757Y193209D01*
X-23854Y193693D01*
X-24128Y194103D01*
X-24538Y194377D01*
X-24803Y194430D01*
Y201436D01*
X-24538Y201489D01*
X-24128Y201763D01*
X-23854Y202173D01*
X-23757Y202657D01*
X-23854Y203141D01*
X-24128Y203552D01*
X-24538Y203826D01*
X-24803Y203878D01*
Y204574D01*
X-22835D01*
X-22785Y204584D01*
X-22735Y204577D01*
X-22321Y204597D01*
X-22174Y204634D01*
X-22023D01*
X-21211Y204795D01*
X-21025Y204872D01*
X-20829Y204911D01*
X-20064Y205228D01*
X-19897Y205340D01*
X-19711Y205416D01*
X-19023Y205876D01*
X-18881Y206018D01*
X-18714Y206130D01*
X-18128Y206715D01*
X-18017Y206882D01*
X-17875Y207024D01*
X-17415Y207713D01*
X-17338Y207898D01*
X-17226Y208065D01*
X-16910Y208830D01*
X-16871Y209027D01*
X-16794Y209212D01*
X-16632Y210024D01*
Y210176D01*
X-16595Y210322D01*
X-16575Y210736D01*
X-16590Y210836D01*
X-16575Y210936D01*
X-16595Y211350D01*
X-16632Y211497D01*
X-16632Y211648D01*
X-16794Y212460D01*
X-16871Y212646D01*
X-16910Y212842D01*
X-17227Y213607D01*
X-17338Y213774D01*
X-17415Y213960D01*
X-17875Y214648D01*
X-18017Y214790D01*
X-18129Y214957D01*
X-18714Y215542D01*
X-18881Y215654D01*
X-19023Y215796D01*
X-19712Y216256D01*
X-19897Y216333D01*
X-20064Y216444D01*
X-20829Y216761D01*
X-21026Y216800D01*
X-21212Y216877D01*
X-22024Y217038D01*
X-22173Y217038D01*
X-22318Y217075D01*
X-22732Y217096D01*
X-22783Y217088D01*
X-22835Y217098D01*
X-24803D01*
Y223484D01*
X-24538Y223536D01*
X-24128Y223811D01*
X-23854Y224221D01*
X-23757Y224705D01*
X-23854Y225188D01*
X-24128Y225599D01*
X-24538Y225873D01*
X-24803Y225926D01*
Y232932D01*
X-24538Y232985D01*
X-24128Y233259D01*
X-23854Y233670D01*
X-23757Y234154D01*
X-23854Y234637D01*
X-24128Y235048D01*
X-24538Y235322D01*
X-24803Y235374D01*
Y242381D01*
X-24538Y242434D01*
X-24128Y242708D01*
X-23854Y243118D01*
X-23757Y243602D01*
X-23854Y244086D01*
X-24128Y244496D01*
X-24538Y244771D01*
X-24803Y244823D01*
Y251830D01*
X-24538Y251883D01*
X-24128Y252157D01*
X-23854Y252567D01*
X-23757Y253051D01*
X-23854Y253535D01*
X-24128Y253945D01*
X-24538Y254219D01*
X-24803Y254272D01*
Y260894D01*
X-24303Y261267D01*
X-24143Y261235D01*
X-23659Y261332D01*
X-23249Y261606D01*
X-22975Y262016D01*
X-22879Y262500D01*
X-22975Y262984D01*
X-23249Y263394D01*
X-23659Y263668D01*
X-24143Y263764D01*
X-24303Y263733D01*
X-24803Y264106D01*
Y265474D01*
X-24310Y265556D01*
X-24035Y265146D01*
X-23625Y264872D01*
X-23141Y264775D01*
X-22658Y264872D01*
X-22247Y265146D01*
X-21973Y265556D01*
X-21877Y266040D01*
X-21973Y266524D01*
X-22247Y266934D01*
X-22658Y267208D01*
X-23141Y267304D01*
X-23625Y267208D01*
X-24035Y266934D01*
X-24310Y266524D01*
X-24803Y266605D01*
Y267578D01*
X-24538Y267631D01*
X-24128Y267905D01*
X-23854Y268315D01*
X-23757Y268799D01*
X-23854Y269283D01*
X-24128Y269693D01*
X-24538Y269967D01*
X-24803Y270020D01*
Y279946D01*
X-22441Y282309D01*
X1600D01*
X5931Y286639D01*
X15354D01*
X27928Y299213D01*
X53175D01*
X82677Y269710D01*
Y158268D01*
X137402Y103543D01*
X179921D01*
X210751Y72714D01*
X210771Y72609D01*
X210804Y72561D01*
X210503Y72111D01*
X210276Y72157D01*
X209747Y72051D01*
X209299Y71752D01*
X209000Y71304D01*
X208895Y70776D01*
X209000Y70247D01*
X209299Y69799D01*
X209747Y69500D01*
X210276Y69395D01*
X210804Y69500D01*
X211252Y69799D01*
X211551Y70247D01*
X211656Y70776D01*
X211576Y71182D01*
X211999Y71466D01*
X212480Y70985D01*
X212438Y70776D01*
X212543Y70247D01*
X212842Y69799D01*
X213291Y69500D01*
X213819Y69395D01*
X214028Y69436D01*
X231102Y52362D01*
X231274Y52533D01*
X380763D01*
X380834Y52427D01*
X381244Y52153D01*
X381728Y52056D01*
X382212Y52153D01*
X382623Y52427D01*
X382694Y52533D01*
X388260D01*
X388350Y52414D01*
X388481Y52033D01*
X388280Y51732D01*
X388184Y51248D01*
X388280Y50764D01*
X388554Y50354D01*
X388964Y50080D01*
X389448Y49983D01*
X389932Y50080D01*
X390342Y50354D01*
X390616Y50764D01*
X390712Y51248D01*
X390616Y51732D01*
X390415Y52033D01*
X390546Y52414D01*
X390636Y52533D01*
X419854D01*
X420006Y52033D01*
X419774Y51878D01*
X419500Y51468D01*
X419404Y50984D01*
X419500Y50500D01*
X419774Y50090D01*
X420184Y49816D01*
X420668Y49720D01*
X421152Y49816D01*
X421562Y50090D01*
X421836Y50500D01*
X421933Y50984D01*
X421836Y51468D01*
X421562Y51878D01*
X421330Y52033D01*
X421482Y52533D01*
X451118D01*
Y53125D01*
X467938Y69945D01*
X467938Y355389D01*
X470422Y357874D01*
X490064Y357874D01*
D02*
G37*
G36*
X568736Y405143D02*
Y25616D01*
X564799Y21679D01*
X23854D01*
X17555Y27978D01*
Y132702D01*
X18342Y133490D01*
X16715Y135117D01*
X16575Y135820D01*
X16133Y136481D01*
X15472Y136923D01*
X14769Y137063D01*
X14405Y137427D01*
X-11579D01*
X-20240Y146088D01*
X-20743D01*
X-20869Y146172D01*
X-21055Y146249D01*
X-21222Y146361D01*
X-21844Y146618D01*
X-22041Y146657D01*
X-22227Y146734D01*
X-22887Y146865D01*
X-23038Y146865D01*
X-23185Y146902D01*
X-23522Y146919D01*
X-23572Y146911D01*
X-23621Y146921D01*
X-39971D01*
X-41769Y148720D01*
Y200149D01*
X-39925Y201994D01*
X-26070D01*
X-25916Y201763D01*
X-25506Y201489D01*
X-25187Y201426D01*
Y194440D01*
X-25506Y194377D01*
X-25916Y194103D01*
X-26190Y193693D01*
X-26286Y193209D01*
X-26190Y192725D01*
X-25916Y192315D01*
X-25506Y192040D01*
X-25187Y191977D01*
Y184991D01*
X-25506Y184928D01*
X-25916Y184654D01*
X-26190Y184244D01*
X-26286Y183760D01*
X-26190Y183276D01*
X-25916Y182866D01*
X-25506Y182592D01*
X-25187Y182528D01*
Y175543D01*
X-25506Y175479D01*
X-25916Y175205D01*
X-26190Y174795D01*
X-26286Y174311D01*
X-26190Y173827D01*
X-25916Y173417D01*
X-25506Y173143D01*
X-25187Y173079D01*
Y171260D01*
X-25187Y170079D01*
X-25074Y169808D01*
X-18381Y163115D01*
X-18110Y163002D01*
X5747D01*
X21896Y146853D01*
Y68532D01*
X21509Y68215D01*
X21492Y68219D01*
X21008Y68123D01*
X20598Y67848D01*
X20324Y67438D01*
X20228Y66954D01*
X20324Y66470D01*
X20598Y66060D01*
X21008Y65786D01*
X21492Y65690D01*
X21509Y65693D01*
X21896Y65376D01*
Y45043D01*
X22008Y44772D01*
X43430Y23351D01*
X43701Y23238D01*
X488836D01*
X489107Y23351D01*
X496334Y30578D01*
X496447Y30849D01*
Y33090D01*
X496417Y33161D01*
Y33237D01*
X496363Y33291D01*
X496334Y33361D01*
X496172Y33853D01*
X499100Y36781D01*
X499207Y36852D01*
X499368Y37014D01*
X499778Y37627D01*
X499922Y38350D01*
Y120866D01*
X499922Y215379D01*
Y311024D01*
X499922Y402362D01*
X499778Y403086D01*
X499368Y403699D01*
X498755Y404109D01*
X498032Y404253D01*
X497308Y404109D01*
X496695Y403699D01*
X496285Y403086D01*
X496141Y402362D01*
Y361547D01*
X495641Y361448D01*
X495480Y361835D01*
X494943Y362536D01*
X494242Y363073D01*
X493426Y363411D01*
X492551Y363527D01*
X491675Y363411D01*
X490859Y363073D01*
X490158Y362536D01*
X489620Y361835D01*
X489283Y361019D01*
X489167Y360143D01*
X489283Y359268D01*
X489494Y358758D01*
X489161Y358258D01*
X470422Y358258D01*
X470151Y358145D01*
X467666Y355661D01*
X467554Y355389D01*
X467554Y70104D01*
X450847Y53396D01*
X450735Y53125D01*
Y52917D01*
X421482D01*
X421395Y52881D01*
X421301Y52872D01*
X421265Y52827D01*
X421211Y52804D01*
X421175Y52718D01*
X421115Y52645D01*
X420963Y52145D01*
X420973Y52051D01*
X420954Y51959D01*
X420987Y51910D01*
X420992Y51853D01*
X421065Y51793D01*
X421117Y51714D01*
X421286Y51602D01*
X421475Y51319D01*
X421542Y50984D01*
X421475Y50650D01*
X421286Y50367D01*
X421002Y50177D01*
X420668Y50111D01*
X420334Y50177D01*
X420051Y50367D01*
X419861Y50650D01*
X419795Y50984D01*
X419861Y51319D01*
X420051Y51602D01*
X420219Y51714D01*
X420271Y51793D01*
X420344Y51853D01*
X420350Y51910D01*
X420382Y51959D01*
X420364Y52051D01*
X420373Y52145D01*
X420221Y52645D01*
X420162Y52718D01*
X420126Y52804D01*
X420072Y52827D01*
X420035Y52872D01*
X419941Y52881D01*
X419854Y52917D01*
X390636D01*
X390610Y52906D01*
X390582Y52913D01*
X390477Y52851D01*
X390365Y52804D01*
X390354Y52778D01*
X390329Y52764D01*
X390240Y52644D01*
X390225Y52585D01*
X390184Y52539D01*
X390052Y52159D01*
X390054Y52131D01*
X390038Y52108D01*
X390062Y51988D01*
X390070Y51866D01*
X390090Y51847D01*
X390096Y51820D01*
X390255Y51582D01*
X390321Y51248D01*
X390255Y50914D01*
X390066Y50630D01*
X389782Y50441D01*
X389448Y50374D01*
X389114Y50441D01*
X388830Y50630D01*
X388641Y50914D01*
X388575Y51248D01*
X388641Y51582D01*
X388800Y51820D01*
X388806Y51847D01*
X388826Y51866D01*
X388834Y51988D01*
X388858Y52108D01*
X388842Y52131D01*
X388844Y52159D01*
X388712Y52539D01*
X388671Y52585D01*
X388656Y52644D01*
X388656Y52644D01*
X388567Y52764D01*
X388542Y52778D01*
X388531Y52804D01*
X388419Y52851D01*
X388314Y52913D01*
X388314Y52913D01*
X388286Y52906D01*
X388260Y52917D01*
X383307D01*
X382989Y53303D01*
X382993Y53321D01*
X382897Y53805D01*
X382623Y54215D01*
X382212Y54489D01*
X381728Y54585D01*
X381244Y54489D01*
X380834Y54215D01*
X380560Y53805D01*
X380464Y53321D01*
X380467Y53303D01*
X380150Y52917D01*
X231274D01*
X231144Y52863D01*
X214722Y69285D01*
X214771Y69783D01*
X214795Y69799D01*
X215095Y70247D01*
X215200Y70776D01*
X215095Y71304D01*
X214795Y71752D01*
X214347Y72051D01*
X213819Y72157D01*
X213592Y72111D01*
X213291Y72561D01*
X213323Y72609D01*
X213428Y73138D01*
X213323Y73666D01*
X213291Y73714D01*
X213592Y74164D01*
X213819Y74119D01*
X214347Y74224D01*
X214795Y74524D01*
X215095Y74972D01*
X215200Y75500D01*
X215095Y76028D01*
X214795Y76476D01*
X214347Y76776D01*
X213819Y76881D01*
X213291Y76776D01*
X212842Y76476D01*
X212543Y76028D01*
X212438Y75500D01*
X212543Y74972D01*
X212575Y74923D01*
X212287Y74492D01*
X212181D01*
X212047Y74519D01*
X211914Y74492D01*
X211807D01*
X211519Y74923D01*
X211551Y74972D01*
X211656Y75500D01*
X211551Y76028D01*
X211252Y76476D01*
X210804Y76776D01*
X210276Y76881D01*
X209747Y76776D01*
X209299Y76476D01*
X209000Y76028D01*
X208948Y75766D01*
X208405Y75602D01*
X180192Y103814D01*
X179921Y103927D01*
X137560D01*
X83061Y158427D01*
Y269710D01*
X82948Y269981D01*
X53446Y299484D01*
X53175Y299596D01*
X27928D01*
X27656Y299484D01*
X15195Y287023D01*
X5931D01*
X5659Y286911D01*
X1441Y282692D01*
X-22441D01*
X-22712Y282580D01*
X-25074Y280218D01*
X-25187Y279946D01*
Y276818D01*
X-25338Y276592D01*
X-25434Y276109D01*
X-25338Y275625D01*
X-25187Y275399D01*
Y273435D01*
X-25687Y273168D01*
X-25698Y273176D01*
X-26182Y273272D01*
X-26666Y273176D01*
X-27076Y272901D01*
X-27350Y272491D01*
X-27447Y272007D01*
X-27350Y271523D01*
X-27076Y271113D01*
X-26666Y270839D01*
X-26182Y270743D01*
X-25698Y270839D01*
X-25687Y270847D01*
X-25187Y270580D01*
Y270031D01*
X-25506Y269967D01*
X-25916Y269693D01*
X-26190Y269283D01*
X-26286Y268799D01*
X-26190Y268315D01*
X-25916Y267905D01*
X-25506Y267631D01*
X-25187Y267567D01*
Y266605D01*
X-25142Y266497D01*
X-25115Y266382D01*
X-25087Y266365D01*
X-25074Y266334D01*
X-25009Y266307D01*
X-24971Y266187D01*
X-24966Y266155D01*
X-24966Y265925D01*
X-24971Y265893D01*
X-25009Y265773D01*
X-25074Y265746D01*
X-25087Y265715D01*
X-25115Y265698D01*
X-25142Y265583D01*
X-25187Y265474D01*
Y264106D01*
X-25176Y264079D01*
X-25183Y264051D01*
X-25121Y263947D01*
X-25074Y263835D01*
X-25059Y263362D01*
X-25311Y262984D01*
X-25407Y262500D01*
X-25311Y262016D01*
X-25059Y261638D01*
X-25074Y261165D01*
X-25121Y261053D01*
X-25183Y260949D01*
X-25176Y260921D01*
X-25187Y260894D01*
Y254283D01*
X-25506Y254219D01*
X-25916Y253945D01*
X-26190Y253535D01*
X-26286Y253051D01*
X-26190Y252567D01*
X-25916Y252157D01*
X-25506Y251883D01*
X-25187Y251819D01*
Y244834D01*
X-25506Y244771D01*
X-25916Y244496D01*
X-26190Y244086D01*
X-26286Y243602D01*
X-26190Y243118D01*
X-25916Y242708D01*
X-25506Y242434D01*
X-25187Y242371D01*
Y235385D01*
X-25506Y235322D01*
X-25916Y235048D01*
X-26190Y234637D01*
X-26286Y234154D01*
X-26190Y233670D01*
X-25916Y233259D01*
X-25506Y232985D01*
X-25187Y232922D01*
Y225936D01*
X-25506Y225873D01*
X-25916Y225599D01*
X-26190Y225188D01*
X-26286Y224705D01*
X-26190Y224221D01*
X-25916Y223811D01*
X-25506Y223536D01*
X-25187Y223473D01*
Y217098D01*
X-37707D01*
X-41500Y220891D01*
Y279946D01*
X-35201Y286246D01*
X-25403D01*
X-25354Y285746D01*
X-25506Y285715D01*
X-25916Y285441D01*
X-26190Y285031D01*
X-26286Y284547D01*
X-26190Y284063D01*
X-25916Y283653D01*
X-25506Y283379D01*
X-25022Y283283D01*
X-24538Y283379D01*
X-24128Y283653D01*
X-23854Y284063D01*
X-23757Y284547D01*
X-23854Y285031D01*
X-24128Y285441D01*
X-24538Y285715D01*
X-24690Y285746D01*
X-24641Y286246D01*
X-20240D01*
X-17878Y288608D01*
Y293332D01*
X-15516Y295694D01*
X15193D01*
X17555Y298057D01*
Y405931D01*
X23854Y412230D01*
X561650D01*
X568736Y405143D01*
D02*
G37*
%LPC*%
G36*
X484342Y353874D02*
X483466Y353759D01*
X482651Y353421D01*
X481950Y352883D01*
X481412Y352183D01*
X481074Y351367D01*
X480959Y350491D01*
X481074Y349615D01*
X481412Y348799D01*
X481950Y348099D01*
X482651Y347561D01*
X483466Y347223D01*
X484342Y347108D01*
X485218Y347223D01*
X486034Y347561D01*
X486734Y348099D01*
X487272Y348799D01*
X487610Y349615D01*
X487725Y350491D01*
X487610Y351367D01*
X487272Y352183D01*
X486734Y352883D01*
X486034Y353421D01*
X485218Y353759D01*
X484342Y353874D01*
D02*
G37*
G36*
X479013Y321351D02*
X478529Y321255D01*
X478119Y320981D01*
X477845Y320570D01*
X477749Y320087D01*
X477845Y319603D01*
X478119Y319192D01*
X478529Y318918D01*
X479013Y318822D01*
X479497Y318918D01*
X479907Y319192D01*
X480181Y319603D01*
X480278Y320087D01*
X480181Y320570D01*
X479907Y320981D01*
X479497Y321255D01*
X479013Y321351D01*
D02*
G37*
G36*
X473559Y299034D02*
X473075Y298937D01*
X472665Y298663D01*
X472391Y298253D01*
X472295Y297769D01*
X472391Y297285D01*
X472665Y296875D01*
X473075Y296601D01*
X473559Y296505D01*
X474043Y296601D01*
X474453Y296875D01*
X474727Y297285D01*
X474824Y297769D01*
X474727Y298253D01*
X474453Y298663D01*
X474043Y298937D01*
X473559Y299034D01*
D02*
G37*
G36*
X490000Y295509D02*
X489124Y295394D01*
X488308Y295056D01*
X487608Y294518D01*
X487070Y293818D01*
X486732Y293002D01*
X486617Y292126D01*
X486732Y291250D01*
X487070Y290434D01*
X487608Y289734D01*
X488308Y289196D01*
X489124Y288858D01*
X490000Y288743D01*
X490876Y288858D01*
X491692Y289196D01*
X492392Y289734D01*
X492930Y290434D01*
X493268Y291250D01*
X493383Y292126D01*
X493268Y293002D01*
X492930Y293818D01*
X492392Y294518D01*
X491692Y295056D01*
X490876Y295394D01*
X490000Y295509D01*
D02*
G37*
G36*
X28117Y279771D02*
X27633Y279675D01*
X27223Y279401D01*
X26949Y278991D01*
X26852Y278507D01*
X26949Y278023D01*
X27223Y277613D01*
X27633Y277339D01*
X28117Y277242D01*
X28601Y277339D01*
X29011Y277613D01*
X29285Y278023D01*
X29381Y278507D01*
X29285Y278991D01*
X29011Y279401D01*
X28601Y279675D01*
X28117Y279771D01*
D02*
G37*
G36*
X-5421Y278707D02*
X-5905Y278611D01*
X-6315Y278337D01*
X-6589Y277926D01*
X-6686Y277442D01*
X-6589Y276959D01*
X-6315Y276548D01*
X-5905Y276274D01*
X-5421Y276178D01*
X-4937Y276274D01*
X-4527Y276548D01*
X-4253Y276959D01*
X-4157Y277442D01*
X-4253Y277926D01*
X-4527Y278337D01*
X-4937Y278611D01*
X-5421Y278707D01*
D02*
G37*
G36*
X-17189Y268625D02*
X-17673Y268528D01*
X-18083Y268254D01*
X-18357Y267844D01*
X-18453Y267360D01*
X-18357Y266876D01*
X-18083Y266466D01*
X-17673Y266192D01*
X-17189Y266096D01*
X-16705Y266192D01*
X-16295Y266466D01*
X-16021Y266876D01*
X-15924Y267360D01*
X-16021Y267844D01*
X-16295Y268254D01*
X-16705Y268528D01*
X-17189Y268625D01*
D02*
G37*
G36*
X491890Y268986D02*
X491014Y268871D01*
X490198Y268533D01*
X489498Y267995D01*
X488960Y267294D01*
X488622Y266478D01*
X488507Y265603D01*
X488622Y264727D01*
X488960Y263911D01*
X489498Y263210D01*
X490198Y262673D01*
X491014Y262335D01*
X491890Y262219D01*
X492765Y262335D01*
X493581Y262673D01*
X494282Y263210D01*
X494820Y263911D01*
X495158Y264727D01*
X495273Y265603D01*
X495158Y266478D01*
X494820Y267294D01*
X494282Y267995D01*
X493581Y268533D01*
X492765Y268871D01*
X491890Y268986D01*
D02*
G37*
G36*
X483858Y258503D02*
X482983Y258387D01*
X482167Y258049D01*
X481466Y257511D01*
X480928Y256811D01*
X480590Y255995D01*
X480475Y255119D01*
X480590Y254244D01*
X480928Y253428D01*
X481466Y252727D01*
X482167Y252189D01*
X482983Y251851D01*
X483858Y251736D01*
X484734Y251851D01*
X485550Y252189D01*
X486251Y252727D01*
X486788Y253428D01*
X487126Y254244D01*
X487242Y255119D01*
X487126Y255995D01*
X486788Y256811D01*
X486251Y257511D01*
X485550Y258049D01*
X484734Y258387D01*
X483858Y258503D01*
D02*
G37*
G36*
X476527Y224288D02*
X476043Y224192D01*
X475632Y223918D01*
X475358Y223507D01*
X475262Y223024D01*
X475358Y222540D01*
X475632Y222130D01*
X476043Y221855D01*
X476527Y221759D01*
X477010Y221855D01*
X477421Y222130D01*
X477695Y222540D01*
X477791Y223024D01*
X477695Y223507D01*
X477421Y223918D01*
X477010Y224192D01*
X476527Y224288D01*
D02*
G37*
G36*
X-6854Y208770D02*
X-7338Y208674D01*
X-7748Y208400D01*
X-8022Y207989D01*
X-8119Y207505D01*
X-8022Y207022D01*
X-7748Y206611D01*
X-7338Y206337D01*
X-6854Y206241D01*
X-6370Y206337D01*
X-5960Y206611D01*
X-5686Y207022D01*
X-5590Y207505D01*
X-5686Y207989D01*
X-5960Y208400D01*
X-6370Y208674D01*
X-6854Y208770D01*
D02*
G37*
G36*
X59055Y205438D02*
X58571Y205342D01*
X58161Y205068D01*
X57887Y204658D01*
X57791Y204174D01*
X57887Y203690D01*
X58161Y203280D01*
X58571Y203006D01*
X59055Y202909D01*
X59539Y203006D01*
X59949Y203280D01*
X60223Y203690D01*
X60320Y204174D01*
X60223Y204658D01*
X59949Y205068D01*
X59539Y205342D01*
X59055Y205438D01*
D02*
G37*
G36*
X473559Y203601D02*
X473075Y203504D01*
X472665Y203230D01*
X472391Y202820D01*
X472295Y202336D01*
X472391Y201852D01*
X472665Y201442D01*
X473075Y201168D01*
X473559Y201072D01*
X474043Y201168D01*
X474453Y201442D01*
X474727Y201852D01*
X474824Y202336D01*
X474727Y202820D01*
X474453Y203230D01*
X474043Y203504D01*
X473559Y203601D01*
D02*
G37*
G36*
X490433Y200549D02*
X489557Y200433D01*
X488741Y200095D01*
X488041Y199558D01*
X487503Y198857D01*
X487165Y198041D01*
X487050Y197165D01*
X487165Y196290D01*
X487503Y195474D01*
X488041Y194773D01*
X488741Y194235D01*
X489557Y193897D01*
X490433Y193782D01*
X491309Y193897D01*
X492125Y194235D01*
X492825Y194773D01*
X493363Y195474D01*
X493701Y196290D01*
X493816Y197165D01*
X493701Y198041D01*
X493363Y198857D01*
X492825Y199558D01*
X492125Y200095D01*
X491309Y200433D01*
X490433Y200549D01*
D02*
G37*
G36*
X-11024Y194965D02*
X-11507Y194869D01*
X-11918Y194595D01*
X-12192Y194185D01*
X-12288Y193701D01*
X-12192Y193217D01*
X-11918Y192807D01*
X-11507Y192533D01*
X-11024Y192436D01*
X-10540Y192533D01*
X-10130Y192807D01*
X-9855Y193217D01*
X-9759Y193701D01*
X-9855Y194185D01*
X-10130Y194595D01*
X-10540Y194869D01*
X-11024Y194965D01*
D02*
G37*
G36*
X-17189Y186723D02*
X-17673Y186626D01*
X-18083Y186352D01*
X-18357Y185942D01*
X-18453Y185458D01*
X-18357Y184974D01*
X-18083Y184564D01*
X-17673Y184290D01*
X-17189Y184194D01*
X-16705Y184290D01*
X-16295Y184564D01*
X-16021Y184974D01*
X-15924Y185458D01*
X-16021Y185942D01*
X-16295Y186352D01*
X-16705Y186626D01*
X-17189Y186723D01*
D02*
G37*
G36*
X55154Y185369D02*
X54625Y185264D01*
X54177Y184965D01*
X53878Y184517D01*
X53773Y183988D01*
X53878Y183460D01*
X53910Y183412D01*
X53622Y182980D01*
X53515D01*
X53382Y183007D01*
X53249Y182980D01*
X53142D01*
X52854Y183412D01*
X52886Y183460D01*
X52991Y183988D01*
X52886Y184517D01*
X52587Y184965D01*
X52139Y185264D01*
X51610Y185369D01*
X51082Y185264D01*
X50634Y184965D01*
X50335Y184517D01*
X50229Y183988D01*
X50335Y183460D01*
X50634Y183012D01*
X51082Y182712D01*
X51610Y182607D01*
X51838Y182652D01*
X52138Y182203D01*
X52106Y182154D01*
X52001Y181626D01*
X52106Y181098D01*
X52138Y181049D01*
X51838Y180599D01*
X51610Y180645D01*
X51082Y180540D01*
X50634Y180240D01*
X50335Y179792D01*
X50229Y179264D01*
X50335Y178735D01*
X50634Y178287D01*
X51082Y177988D01*
X51610Y177883D01*
X52139Y177988D01*
X52587Y178287D01*
X52886Y178735D01*
X52991Y179264D01*
X52886Y179792D01*
X52854Y179840D01*
X53142Y180272D01*
X53249D01*
X53382Y180245D01*
X53515Y180272D01*
X53622D01*
X53910Y179840D01*
X53878Y179792D01*
X53773Y179264D01*
X53878Y178735D01*
X54177Y178287D01*
X54625Y177988D01*
X55154Y177883D01*
X55682Y177988D01*
X56130Y178287D01*
X56429Y178735D01*
X56534Y179264D01*
X56429Y179792D01*
X56130Y180240D01*
X55682Y180540D01*
X55154Y180645D01*
X54926Y180599D01*
X54625Y181049D01*
X54658Y181098D01*
X54763Y181626D01*
X54658Y182154D01*
X54625Y182203D01*
X54926Y182652D01*
X55154Y182607D01*
X55682Y182712D01*
X56130Y183012D01*
X56429Y183460D01*
X56534Y183988D01*
X56429Y184517D01*
X56130Y184965D01*
X55682Y185264D01*
X55154Y185369D01*
D02*
G37*
G36*
X33364Y181294D02*
X32880Y181198D01*
X32469Y180923D01*
X32195Y180513D01*
X32099Y180029D01*
X32195Y179545D01*
X32469Y179135D01*
X32880Y178861D01*
X33364Y178765D01*
X33847Y178861D01*
X34258Y179135D01*
X34532Y179545D01*
X34628Y180029D01*
X34532Y180513D01*
X34258Y180923D01*
X33847Y181198D01*
X33364Y181294D01*
D02*
G37*
G36*
X490863Y172281D02*
X489988Y172166D01*
X489172Y171828D01*
X488471Y171290D01*
X487933Y170589D01*
X487595Y169773D01*
X487480Y168898D01*
X487595Y168022D01*
X487933Y167206D01*
X488471Y166505D01*
X489172Y165968D01*
X489988Y165630D01*
X490863Y165514D01*
X491739Y165630D01*
X492555Y165968D01*
X493256Y166505D01*
X493793Y167206D01*
X494131Y168022D01*
X494247Y168898D01*
X494131Y169773D01*
X493793Y170589D01*
X493256Y171290D01*
X492555Y171828D01*
X491739Y172166D01*
X490863Y172281D01*
D02*
G37*
G36*
X483858Y163069D02*
X482983Y162954D01*
X482167Y162616D01*
X481466Y162078D01*
X480928Y161378D01*
X480590Y160562D01*
X480475Y159686D01*
X480590Y158810D01*
X480928Y157994D01*
X481466Y157294D01*
X482167Y156756D01*
X482983Y156418D01*
X483858Y156303D01*
X484734Y156418D01*
X485550Y156756D01*
X486251Y157294D01*
X486788Y157994D01*
X487126Y158810D01*
X487242Y159686D01*
X487126Y160562D01*
X486788Y161378D01*
X486251Y162078D01*
X485550Y162616D01*
X484734Y162954D01*
X483858Y163069D01*
D02*
G37*
G36*
X71197Y147353D02*
X70713Y147256D01*
X70303Y146982D01*
X70029Y146572D01*
X69932Y146088D01*
X70029Y145604D01*
X70303Y145194D01*
X70713Y144920D01*
X71197Y144824D01*
X71681Y144920D01*
X72091Y145194D01*
X72365Y145604D01*
X72461Y146088D01*
X72365Y146572D01*
X72091Y146982D01*
X71681Y147256D01*
X71197Y147353D01*
D02*
G37*
G36*
X82422Y137116D02*
X81938Y137020D01*
X81528Y136746D01*
X81254Y136336D01*
X81158Y135852D01*
X81254Y135368D01*
X81528Y134958D01*
X81938Y134684D01*
X82422Y134587D01*
X82906Y134684D01*
X83316Y134958D01*
X83591Y135368D01*
X83687Y135852D01*
X83591Y136336D01*
X83316Y136746D01*
X82906Y137020D01*
X82422Y137116D01*
D02*
G37*
G36*
X481078Y129045D02*
X480594Y128949D01*
X480184Y128675D01*
X479910Y128265D01*
X479814Y127781D01*
X479910Y127297D01*
X480184Y126887D01*
X480594Y126613D01*
X481078Y126517D01*
X481562Y126613D01*
X481972Y126887D01*
X482246Y127297D01*
X482343Y127781D01*
X482246Y128265D01*
X481972Y128675D01*
X481562Y128949D01*
X481078Y129045D01*
D02*
G37*
G36*
X104331Y112301D02*
X103847Y112204D01*
X103437Y111930D01*
X103163Y111520D01*
X103066Y111036D01*
X103163Y110552D01*
X103437Y110142D01*
X103847Y109868D01*
X104331Y109772D01*
X104815Y109868D01*
X105225Y110142D01*
X105499Y110552D01*
X105595Y111036D01*
X105499Y111520D01*
X105225Y111930D01*
X104815Y112204D01*
X104331Y112301D01*
D02*
G37*
G36*
X62043Y108987D02*
X61559Y108891D01*
X61149Y108616D01*
X60875Y108206D01*
X60779Y107722D01*
X60875Y107239D01*
X61149Y106828D01*
X61559Y106554D01*
X62043Y106458D01*
X62527Y106554D01*
X62937Y106828D01*
X63212Y107239D01*
X63308Y107722D01*
X63212Y108206D01*
X62937Y108616D01*
X62527Y108891D01*
X62043Y108987D01*
D02*
G37*
G36*
X54169D02*
X53685Y108891D01*
X53275Y108616D01*
X53001Y108206D01*
X52905Y107722D01*
X53001Y107239D01*
X53275Y106828D01*
X53685Y106554D01*
X54169Y106458D01*
X54653Y106554D01*
X55063Y106828D01*
X55338Y107239D01*
X55434Y107722D01*
X55338Y108206D01*
X55063Y108616D01*
X54653Y108891D01*
X54169Y108987D01*
D02*
G37*
G36*
X473559Y108483D02*
X473075Y108386D01*
X472665Y108112D01*
X472391Y107702D01*
X472295Y107218D01*
X472391Y106734D01*
X472665Y106324D01*
X473075Y106050D01*
X473559Y105954D01*
X474043Y106050D01*
X474453Y106324D01*
X474727Y106734D01*
X474824Y107218D01*
X474727Y107702D01*
X474453Y108112D01*
X474043Y108386D01*
X473559Y108483D01*
D02*
G37*
G36*
X491417Y105430D02*
X490542Y105315D01*
X489726Y104977D01*
X489025Y104440D01*
X488487Y103739D01*
X488149Y102923D01*
X488034Y102047D01*
X488149Y101172D01*
X488487Y100356D01*
X489025Y99655D01*
X489726Y99117D01*
X490542Y98779D01*
X491417Y98664D01*
X492293Y98779D01*
X493109Y99117D01*
X493810Y99655D01*
X494347Y100356D01*
X494685Y101172D01*
X494801Y102047D01*
X494685Y102923D01*
X494347Y103739D01*
X493810Y104440D01*
X493109Y104977D01*
X492293Y105315D01*
X491417Y105430D01*
D02*
G37*
G36*
X31102Y94965D02*
X30619Y94869D01*
X30208Y94595D01*
X29934Y94185D01*
X29838Y93701D01*
X29934Y93217D01*
X30208Y92807D01*
X30619Y92533D01*
X31102Y92436D01*
X31586Y92533D01*
X31997Y92807D01*
X32271Y93217D01*
X32367Y93701D01*
X32271Y94185D01*
X31997Y94595D01*
X31586Y94869D01*
X31102Y94965D01*
D02*
G37*
G36*
X491366Y78580D02*
X490491Y78465D01*
X489675Y78127D01*
X488974Y77589D01*
X488437Y76889D01*
X488098Y76073D01*
X487983Y75197D01*
X488098Y74321D01*
X488437Y73505D01*
X488974Y72804D01*
X489675Y72267D01*
X490491Y71929D01*
X491366Y71814D01*
X492242Y71929D01*
X493058Y72267D01*
X493759Y72804D01*
X494297Y73505D01*
X494634Y74321D01*
X494750Y75197D01*
X494634Y76073D01*
X494297Y76889D01*
X493759Y77589D01*
X493058Y78127D01*
X492242Y78465D01*
X491366Y78580D01*
D02*
G37*
G36*
X199215Y65027D02*
X198731Y64931D01*
X198320Y64657D01*
X198046Y64246D01*
X197950Y63763D01*
X198046Y63279D01*
X198320Y62868D01*
X198731Y62594D01*
X199215Y62498D01*
X199698Y62594D01*
X200109Y62868D01*
X200383Y63279D01*
X200479Y63763D01*
X200383Y64246D01*
X200109Y64657D01*
X199698Y64931D01*
X199215Y65027D01*
D02*
G37*
G36*
X483858Y67951D02*
X482983Y67836D01*
X482167Y67498D01*
X481466Y66960D01*
X480928Y66260D01*
X480590Y65444D01*
X480475Y64568D01*
X480590Y63692D01*
X480928Y62876D01*
X481466Y62176D01*
X482167Y61638D01*
X482983Y61300D01*
X483858Y61185D01*
X484734Y61300D01*
X485550Y61638D01*
X486251Y62176D01*
X486788Y62876D01*
X487126Y63692D01*
X487242Y64568D01*
X487126Y65444D01*
X486788Y66260D01*
X486251Y66960D01*
X485550Y67498D01*
X484734Y67836D01*
X483858Y67951D01*
D02*
G37*
G36*
X214209Y50597D02*
X213680Y50492D01*
X213232Y50193D01*
X212933Y49745D01*
X212828Y49216D01*
X212933Y48688D01*
X212965Y48640D01*
X212677Y48209D01*
X212570D01*
X212437Y48235D01*
X212304Y48209D01*
X212197D01*
X211909Y48640D01*
X211941Y48688D01*
X212046Y49216D01*
X211941Y49745D01*
X211642Y50193D01*
X211194Y50492D01*
X210665Y50597D01*
X210137Y50492D01*
X209689Y50193D01*
X209390Y49745D01*
X209284Y49216D01*
X209390Y48688D01*
X209689Y48240D01*
X210137Y47941D01*
X210665Y47836D01*
X210893Y47881D01*
X211193Y47431D01*
X211161Y47383D01*
X211056Y46854D01*
X211161Y46326D01*
X211193Y46278D01*
X210893Y45828D01*
X210665Y45873D01*
X210137Y45768D01*
X209689Y45469D01*
X209390Y45021D01*
X209284Y44492D01*
X209390Y43964D01*
X209689Y43516D01*
X210137Y43216D01*
X210665Y43111D01*
X211194Y43216D01*
X211642Y43516D01*
X211941Y43964D01*
X212046Y44492D01*
X211941Y45021D01*
X211909Y45069D01*
X212197Y45500D01*
X212304D01*
X212437Y45474D01*
X212570Y45500D01*
X212677D01*
X212965Y45069D01*
X212933Y45021D01*
X212828Y44492D01*
X212933Y43964D01*
X213232Y43516D01*
X213680Y43216D01*
X214209Y43111D01*
X214737Y43216D01*
X215185Y43516D01*
X215484Y43964D01*
X215589Y44492D01*
X215484Y45021D01*
X215185Y45469D01*
X214737Y45768D01*
X214209Y45873D01*
X213981Y45828D01*
X213681Y46278D01*
X213713Y46326D01*
X213818Y46854D01*
X213713Y47383D01*
X213681Y47431D01*
X213981Y47881D01*
X214209Y47836D01*
X214737Y47941D01*
X215185Y48240D01*
X215484Y48688D01*
X215589Y49216D01*
X215484Y49745D01*
X215185Y50193D01*
X214737Y50492D01*
X214209Y50597D01*
D02*
G37*
G36*
X316339Y46739D02*
X315855Y46643D01*
X315444Y46369D01*
X315170Y45958D01*
X315074Y45474D01*
X315170Y44991D01*
X315444Y44580D01*
X315855Y44306D01*
X316339Y44210D01*
X316823Y44306D01*
X317233Y44580D01*
X317507Y44991D01*
X317603Y45474D01*
X317507Y45958D01*
X317233Y46369D01*
X316823Y46643D01*
X316339Y46739D01*
D02*
G37*
G36*
X404169Y45359D02*
X403685Y45263D01*
X403275Y44989D01*
X403001Y44578D01*
X402905Y44094D01*
X403001Y43611D01*
X403275Y43200D01*
X403685Y42926D01*
X404169Y42830D01*
X404653Y42926D01*
X405063Y43200D01*
X405337Y43611D01*
X405434Y44094D01*
X405337Y44578D01*
X405063Y44989D01*
X404653Y45263D01*
X404169Y45359D01*
D02*
G37*
G36*
X299987Y42794D02*
X299503Y42698D01*
X299093Y42424D01*
X298819Y42013D01*
X298723Y41530D01*
X298819Y41046D01*
X299093Y40635D01*
X299503Y40361D01*
X299987Y40265D01*
X300471Y40361D01*
X300881Y40635D01*
X301155Y41046D01*
X301252Y41530D01*
X301155Y42013D01*
X300881Y42424D01*
X300471Y42698D01*
X299987Y42794D01*
D02*
G37*
G36*
X422811Y42202D02*
X422327Y42106D01*
X421917Y41832D01*
X421643Y41422D01*
X421547Y40938D01*
X421643Y40454D01*
X421917Y40044D01*
X422327Y39770D01*
X422811Y39673D01*
X423295Y39770D01*
X423705Y40044D01*
X423979Y40454D01*
X424076Y40938D01*
X423979Y41422D01*
X423705Y41832D01*
X423295Y42106D01*
X422811Y42202D01*
D02*
G37*
G36*
X199213Y39824D02*
X198729Y39728D01*
X198319Y39454D01*
X198044Y39044D01*
X197948Y38560D01*
X198044Y38076D01*
X198319Y37666D01*
X198729Y37391D01*
X199213Y37295D01*
X199697Y37391D01*
X200107Y37666D01*
X200381Y38076D01*
X200477Y38560D01*
X200381Y39044D01*
X200107Y39454D01*
X199697Y39728D01*
X199213Y39824D01*
D02*
G37*
G36*
X386622Y38996D02*
X386139Y38900D01*
X385728Y38625D01*
X385454Y38215D01*
X385358Y37732D01*
X385454Y37248D01*
X385728Y36837D01*
X386139Y36563D01*
X386622Y36467D01*
X387106Y36563D01*
X387516Y36837D01*
X387791Y37248D01*
X387887Y37732D01*
X387791Y38215D01*
X387516Y38625D01*
X387106Y38900D01*
X386622Y38996D01*
D02*
G37*
G36*
X50724Y33154D02*
X50240Y33058D01*
X49830Y32784D01*
X49556Y32374D01*
X49460Y31890D01*
X49556Y31406D01*
X49830Y30996D01*
X50240Y30722D01*
X50724Y30625D01*
X51208Y30722D01*
X51618Y30996D01*
X51893Y31406D01*
X51989Y31890D01*
X51893Y32374D01*
X51618Y32784D01*
X51208Y33058D01*
X50724Y33154D01*
D02*
G37*
G36*
X161811Y99135D02*
X161088Y98991D01*
X160474Y98581D01*
X160064Y97968D01*
X159920Y97244D01*
Y62205D01*
X160064Y61481D01*
X160474Y60868D01*
X190553Y30789D01*
X191166Y30379D01*
X191890Y30235D01*
X194803D01*
X195527Y30379D01*
X196140Y30789D01*
X196550Y31403D01*
X196694Y32126D01*
X196550Y32849D01*
X196140Y33463D01*
X195527Y33873D01*
X194803Y34017D01*
X192673D01*
X163702Y62988D01*
Y97244D01*
X163558Y97968D01*
X163148Y98581D01*
X162534Y98991D01*
X161811Y99135D01*
D02*
G37*
G36*
X166299Y31146D02*
X165815Y31050D01*
X165405Y30776D01*
X165131Y30366D01*
X165035Y29882D01*
X165131Y29398D01*
X165405Y28988D01*
X165815Y28714D01*
X166299Y28617D01*
X166783Y28714D01*
X167193Y28988D01*
X167467Y29398D01*
X167564Y29882D01*
X167467Y30366D01*
X167193Y30776D01*
X166783Y31050D01*
X166299Y31146D01*
D02*
G37*
G36*
X395508Y28455D02*
X395024Y28359D01*
X394614Y28085D01*
X394340Y27674D01*
X394243Y27191D01*
X394340Y26707D01*
X394614Y26296D01*
X395024Y26022D01*
X395508Y25926D01*
X395992Y26022D01*
X396402Y26296D01*
X396676Y26707D01*
X396772Y27191D01*
X396676Y27674D01*
X396402Y28085D01*
X395992Y28359D01*
X395508Y28455D01*
D02*
G37*
G36*
X49448Y404144D02*
X48964Y404048D01*
X48554Y403773D01*
X48280Y403363D01*
X48184Y402879D01*
X48280Y402396D01*
X48554Y401985D01*
X48964Y401711D01*
X49448Y401615D01*
X49932Y401711D01*
X50342Y401985D01*
X50617Y402396D01*
X50713Y402879D01*
X50617Y403363D01*
X50342Y403773D01*
X49932Y404048D01*
X49448Y404144D01*
D02*
G37*
G36*
X330941Y403258D02*
X330457Y403162D01*
X330047Y402888D01*
X329773Y402478D01*
X329677Y401994D01*
X329773Y401510D01*
X330047Y401099D01*
X330457Y400825D01*
X330941Y400729D01*
X331425Y400825D01*
X331835Y401099D01*
X332109Y401510D01*
X332205Y401994D01*
X332109Y402478D01*
X331835Y402888D01*
X331425Y403162D01*
X330941Y403258D01*
D02*
G37*
G36*
X208538Y402889D02*
X208054Y402793D01*
X207644Y402519D01*
X207370Y402109D01*
X207274Y401625D01*
X207370Y401141D01*
X207644Y400731D01*
X208054Y400457D01*
X208538Y400361D01*
X209022Y400457D01*
X209432Y400731D01*
X209706Y401141D01*
X209803Y401625D01*
X209706Y402109D01*
X209432Y402519D01*
X209022Y402793D01*
X208538Y402889D01*
D02*
G37*
G36*
X268321Y401886D02*
X267838Y401790D01*
X267427Y401515D01*
X267153Y401105D01*
X267057Y400622D01*
X267153Y400138D01*
X267427Y399727D01*
X267838Y399453D01*
X268321Y399357D01*
X268805Y399453D01*
X269215Y399727D01*
X269490Y400138D01*
X269586Y400622D01*
X269490Y401105D01*
X269215Y401515D01*
X268805Y401790D01*
X268321Y401886D01*
D02*
G37*
G36*
X507409Y399321D02*
X506926Y399225D01*
X506515Y398951D01*
X506241Y398540D01*
X506145Y398057D01*
X506241Y397573D01*
X506515Y397163D01*
X506926Y396888D01*
X507409Y396792D01*
X507893Y396888D01*
X508304Y397163D01*
X508578Y397573D01*
X508674Y398057D01*
X508578Y398540D01*
X508304Y398951D01*
X507893Y399225D01*
X507409Y399321D01*
D02*
G37*
G36*
X507417Y393317D02*
X506933Y393221D01*
X506523Y392947D01*
X506249Y392536D01*
X506153Y392053D01*
X506249Y391569D01*
X506523Y391159D01*
X506933Y390884D01*
X507417Y390788D01*
X507901Y390884D01*
X508311Y391159D01*
X508586Y391569D01*
X508682Y392053D01*
X508586Y392536D01*
X508311Y392947D01*
X507901Y393221D01*
X507417Y393317D01*
D02*
G37*
G36*
X190822Y393047D02*
X190338Y392951D01*
X189928Y392677D01*
X189654Y392266D01*
X189557Y391782D01*
X189654Y391299D01*
X189928Y390888D01*
X190338Y390614D01*
X190822Y390518D01*
X191305Y390614D01*
X191716Y390888D01*
X191990Y391299D01*
X192086Y391782D01*
X191990Y392266D01*
X191716Y392677D01*
X191305Y392951D01*
X190822Y393047D01*
D02*
G37*
G36*
X330941Y391447D02*
X330457Y391351D01*
X330047Y391077D01*
X329773Y390667D01*
X329677Y390183D01*
X329773Y389699D01*
X330047Y389288D01*
X330457Y389014D01*
X330941Y388918D01*
X331425Y389014D01*
X331835Y389288D01*
X332109Y389699D01*
X332205Y390183D01*
X332109Y390667D01*
X331835Y391077D01*
X331425Y391351D01*
X330941Y391447D01*
D02*
G37*
G36*
X473165Y390372D02*
X472682Y390276D01*
X472271Y390002D01*
X471997Y389592D01*
X471901Y389108D01*
X471997Y388624D01*
X472271Y388214D01*
X472682Y387940D01*
X473165Y387843D01*
X473649Y387940D01*
X474059Y388214D01*
X474334Y388624D01*
X474430Y389108D01*
X474334Y389592D01*
X474059Y390002D01*
X473649Y390276D01*
X473165Y390372D01*
D02*
G37*
G36*
X384252Y387510D02*
X383768Y387414D01*
X383567Y387280D01*
X383424Y387308D01*
X382700Y387164D01*
X382087Y386754D01*
X381049Y385716D01*
X380639Y385103D01*
X380495Y384379D01*
Y342571D01*
X380639Y341848D01*
X381049Y341234D01*
X381422Y340861D01*
X381258Y340318D01*
X381244Y340316D01*
X380834Y340042D01*
X380560Y339631D01*
X380464Y339147D01*
X380560Y338664D01*
X380834Y338253D01*
X381244Y337979D01*
X381728Y337883D01*
X382212Y337979D01*
X382224Y337987D01*
X382723Y337720D01*
Y305736D01*
X381049Y304061D01*
X380639Y303448D01*
X380495Y302724D01*
Y290970D01*
Y247296D01*
X380639Y246572D01*
X381049Y245959D01*
X381422Y245585D01*
X381258Y245043D01*
X381244Y245040D01*
X380834Y244766D01*
X380560Y244356D01*
X380464Y243872D01*
X380560Y243388D01*
X380834Y242978D01*
X381244Y242704D01*
X381728Y242607D01*
X382212Y242704D01*
X382224Y242711D01*
X382723Y242444D01*
Y210460D01*
X381049Y208785D01*
X380639Y208172D01*
X380495Y207449D01*
Y196186D01*
X380544Y195940D01*
X380495Y195694D01*
Y152020D01*
X380639Y151296D01*
X381049Y150683D01*
X381422Y150310D01*
X381258Y149767D01*
X381244Y149765D01*
X380834Y149490D01*
X380560Y149080D01*
X380464Y148596D01*
X380560Y148112D01*
X380834Y147702D01*
X381244Y147428D01*
X381728Y147332D01*
X382212Y147428D01*
X382224Y147436D01*
X382723Y147168D01*
Y120194D01*
X381049Y118519D01*
X380639Y117906D01*
X380495Y117182D01*
Y66770D01*
X376010Y62286D01*
X371014Y67282D01*
X370401Y67692D01*
X369677Y67835D01*
X369449D01*
X368725Y67692D01*
X368112Y67282D01*
X367702Y66668D01*
X367558Y65945D01*
X367702Y65221D01*
X368112Y64608D01*
X368725Y64198D01*
X368757Y64192D01*
X374674Y58275D01*
X375287Y57865D01*
X376010Y57721D01*
X376734Y57865D01*
X377347Y58275D01*
X383723Y64650D01*
X384133Y65263D01*
X384277Y65987D01*
Y116399D01*
X385951Y118074D01*
X386361Y118687D01*
X386505Y119411D01*
Y149792D01*
X386361Y150515D01*
X385951Y151128D01*
X384277Y152803D01*
Y171826D01*
X384776Y172093D01*
X384788Y172085D01*
X385272Y171989D01*
X385755Y172085D01*
X386166Y172359D01*
X386440Y172770D01*
X386536Y173254D01*
X386440Y173737D01*
X386166Y174148D01*
X385755Y174422D01*
X385272Y174518D01*
X384788Y174422D01*
X384776Y174414D01*
X384277Y174681D01*
Y195694D01*
X384227Y195940D01*
X384277Y196186D01*
Y206665D01*
X385951Y208340D01*
X386361Y208953D01*
X386505Y209677D01*
Y245067D01*
X386361Y245791D01*
X385951Y246404D01*
X384277Y248079D01*
Y267101D01*
X384776Y267368D01*
X384788Y267361D01*
X385272Y267265D01*
X385755Y267361D01*
X386166Y267635D01*
X386440Y268045D01*
X386536Y268529D01*
X386440Y269013D01*
X386166Y269423D01*
X385755Y269697D01*
X385272Y269794D01*
X384788Y269697D01*
X384776Y269690D01*
X384277Y269957D01*
Y290970D01*
Y301941D01*
X385951Y303616D01*
X386361Y304229D01*
X386505Y304953D01*
Y340343D01*
X386361Y341066D01*
X385951Y341680D01*
X384277Y343354D01*
Y362377D01*
X384776Y362644D01*
X384788Y362636D01*
X385272Y362540D01*
X385755Y362636D01*
X386166Y362911D01*
X386440Y363321D01*
X386536Y363805D01*
X386440Y364288D01*
X386166Y364699D01*
X385755Y364973D01*
X385272Y365069D01*
X384788Y364973D01*
X384776Y364965D01*
X384277Y365233D01*
Y383596D01*
X384761Y384081D01*
X385171Y384694D01*
X385315Y385418D01*
X385286Y385561D01*
X385420Y385762D01*
X385516Y386246D01*
X385420Y386730D01*
X385146Y387140D01*
X384736Y387414D01*
X384252Y387510D01*
D02*
G37*
G36*
X440935Y387313D02*
X440451Y387217D01*
X440040Y386943D01*
X439766Y386533D01*
X439670Y386049D01*
X439766Y385565D01*
X440040Y385155D01*
X440451Y384880D01*
X440935Y384784D01*
X441419Y384880D01*
X441829Y385155D01*
X442103Y385565D01*
X442199Y386049D01*
X442103Y386533D01*
X441829Y386943D01*
X441419Y387217D01*
X440935Y387313D01*
D02*
G37*
G36*
X369094Y383233D02*
X368611Y383137D01*
X368200Y382863D01*
X367926Y382452D01*
X367830Y381968D01*
X367926Y381485D01*
X368200Y381074D01*
X368611Y380800D01*
X369094Y380704D01*
X369578Y380800D01*
X369989Y381074D01*
X370263Y381485D01*
X370359Y381968D01*
X370263Y382452D01*
X369989Y382863D01*
X369578Y383137D01*
X369094Y383233D01*
D02*
G37*
G36*
X490394Y387242D02*
X489518Y387126D01*
X488702Y386788D01*
X488001Y386251D01*
X487464Y385550D01*
X487126Y384734D01*
X487010Y383858D01*
X487126Y382983D01*
X487464Y382167D01*
X488001Y381466D01*
X488702Y380928D01*
X489518Y380590D01*
X490394Y380475D01*
X491269Y380590D01*
X492085Y380928D01*
X492786Y381466D01*
X493324Y382167D01*
X493662Y382983D01*
X493777Y383858D01*
X493662Y384734D01*
X493324Y385550D01*
X492786Y386251D01*
X492085Y386788D01*
X491269Y387126D01*
X490394Y387242D01*
D02*
G37*
G36*
X386846Y381211D02*
X386363Y381115D01*
X385952Y380840D01*
X385678Y380430D01*
X385582Y379946D01*
X385678Y379463D01*
X385952Y379052D01*
X386363Y378778D01*
X386846Y378682D01*
X387330Y378778D01*
X387741Y379052D01*
X388015Y379463D01*
X388111Y379946D01*
X388015Y380430D01*
X387741Y380840D01*
X387330Y381115D01*
X386846Y381211D01*
D02*
G37*
G36*
X330941Y379636D02*
X330457Y379540D01*
X330047Y379266D01*
X329773Y378855D01*
X329677Y378372D01*
X329773Y377888D01*
X330047Y377478D01*
X330457Y377203D01*
X330941Y377107D01*
X331425Y377203D01*
X331835Y377478D01*
X332109Y377888D01*
X332205Y378372D01*
X332109Y378855D01*
X331835Y379266D01*
X331425Y379540D01*
X330941Y379636D01*
D02*
G37*
G36*
X397199Y397954D02*
X396831Y397880D01*
X389799D01*
X389076Y397736D01*
X388462Y397327D01*
X388053Y396713D01*
X387909Y395990D01*
X388053Y395266D01*
X388462Y394653D01*
X389076Y394243D01*
X389799Y394099D01*
X397126D01*
X397199Y394114D01*
X397273Y394099D01*
X399424D01*
Y385544D01*
X399393Y385386D01*
Y200921D01*
Y107635D01*
X399537Y106912D01*
X399947Y106298D01*
X400560Y105889D01*
X401284Y105745D01*
X402007Y105889D01*
X402620Y106298D01*
X403030Y106912D01*
X403174Y107635D01*
Y184030D01*
X403674Y184298D01*
X403685Y184290D01*
X404169Y184194D01*
X404653Y184290D01*
X405063Y184564D01*
X405337Y184974D01*
X405434Y185458D01*
X405337Y185942D01*
X405063Y186352D01*
X404653Y186626D01*
X404169Y186723D01*
X403685Y186626D01*
X403674Y186619D01*
X403174Y186886D01*
Y200921D01*
Y279306D01*
X403674Y279573D01*
X403685Y279566D01*
X404169Y279469D01*
X404653Y279566D01*
X405063Y279840D01*
X405337Y280250D01*
X405434Y280734D01*
X405337Y281218D01*
X405063Y281628D01*
X404653Y281902D01*
X404169Y281998D01*
X403685Y281902D01*
X403674Y281894D01*
X403174Y282162D01*
Y374581D01*
X403674Y374849D01*
X403685Y374841D01*
X404169Y374745D01*
X404653Y374841D01*
X405063Y375115D01*
X405337Y375525D01*
X405434Y376009D01*
X405337Y376493D01*
X405063Y376904D01*
X404653Y377178D01*
X404169Y377274D01*
X403685Y377178D01*
X403674Y377170D01*
X403174Y377437D01*
Y385259D01*
X403206Y385418D01*
Y395990D01*
X403062Y396713D01*
X402652Y397327D01*
X402038Y397736D01*
X401315Y397880D01*
X397568D01*
X397199Y397954D01*
D02*
G37*
G36*
X539602Y386080D02*
X538406Y385962D01*
X537255Y385613D01*
X536195Y385047D01*
X535265Y384284D01*
X534502Y383354D01*
X533935Y382294D01*
X533586Y381143D01*
X533468Y379946D01*
X533586Y378750D01*
X533935Y377599D01*
X534502Y376539D01*
X535265Y375609D01*
X536195Y374846D01*
X537255Y374279D01*
X538406Y373930D01*
X539602Y373813D01*
X540799Y373930D01*
X541950Y374279D01*
X543010Y374846D01*
X543940Y375609D01*
X544702Y376539D01*
X545269Y377599D01*
X545618Y378750D01*
X545736Y379946D01*
X545618Y381143D01*
X545269Y382294D01*
X544702Y383354D01*
X543940Y384284D01*
X543010Y385047D01*
X541950Y385613D01*
X540799Y385962D01*
X539602Y386080D01*
D02*
G37*
G36*
X453780Y376809D02*
X452904Y376693D01*
X452088Y376355D01*
X451387Y375817D01*
X450849Y375117D01*
X450512Y374301D01*
X450396Y373425D01*
X450512Y372550D01*
X450849Y371734D01*
X451387Y371033D01*
X452088Y370495D01*
X452904Y370157D01*
X453780Y370042D01*
X454655Y370157D01*
X455471Y370495D01*
X456172Y371033D01*
X456709Y371734D01*
X457048Y372550D01*
X457163Y373425D01*
X457048Y374301D01*
X456709Y375117D01*
X456172Y375817D01*
X455471Y376355D01*
X454655Y376693D01*
X453780Y376809D01*
D02*
G37*
G36*
X519602Y373834D02*
X518596Y373702D01*
X517659Y373313D01*
X516853Y372695D01*
X516235Y371890D01*
X515847Y370953D01*
X515715Y369946D01*
X515847Y368940D01*
X516235Y368003D01*
X516853Y367197D01*
X517659Y366580D01*
X518596Y366191D01*
X519602Y366059D01*
X520609Y366191D01*
X521546Y366580D01*
X522351Y367197D01*
X522969Y368003D01*
X523357Y368940D01*
X523490Y369946D01*
X523357Y370953D01*
X522969Y371890D01*
X522351Y372695D01*
X521546Y373313D01*
X520609Y373702D01*
X519602Y373834D01*
D02*
G37*
G36*
X330941Y367825D02*
X330457Y367729D01*
X330047Y367455D01*
X329773Y367044D01*
X329677Y366561D01*
X329773Y366077D01*
X330047Y365666D01*
X330457Y365392D01*
X330941Y365296D01*
X331425Y365392D01*
X331835Y365666D01*
X332109Y366077D01*
X332205Y366561D01*
X332109Y367044D01*
X331835Y367455D01*
X331425Y367729D01*
X330941Y367825D01*
D02*
G37*
G36*
X299213D02*
X298729Y367729D01*
X298319Y367455D01*
X298044Y367044D01*
X297948Y366561D01*
X298044Y366077D01*
X298319Y365666D01*
X298729Y365392D01*
X299213Y365296D01*
X299696Y365392D01*
X300107Y365666D01*
X300381Y366077D01*
X300477Y366561D01*
X300381Y367044D01*
X300107Y367455D01*
X299696Y367729D01*
X299213Y367825D01*
D02*
G37*
G36*
X191570Y365462D02*
X191087Y365366D01*
X190676Y365092D01*
X190402Y364682D01*
X190306Y364198D01*
X190402Y363714D01*
X190676Y363304D01*
X191087Y363030D01*
X191570Y362933D01*
X192054Y363030D01*
X192465Y363304D01*
X192739Y363714D01*
X192835Y364198D01*
X192739Y364682D01*
X192465Y365092D01*
X192054Y365366D01*
X191570Y365462D01*
D02*
G37*
G36*
X414996Y362707D02*
X414512Y362611D01*
X414102Y362336D01*
X413828Y361926D01*
X413732Y361442D01*
X413828Y360959D01*
X414102Y360548D01*
X414512Y360274D01*
X414996Y360178D01*
X415480Y360274D01*
X415890Y360548D01*
X416164Y360959D01*
X416260Y361442D01*
X416164Y361926D01*
X415890Y362336D01*
X415480Y362611D01*
X414996Y362707D01*
D02*
G37*
G36*
X452362Y361383D02*
X451878Y361286D01*
X451468Y361012D01*
X451194Y360602D01*
X451098Y360118D01*
X451194Y359634D01*
X451468Y359224D01*
X451878Y358950D01*
X452362Y358854D01*
X452846Y358950D01*
X453256Y359224D01*
X453530Y359634D01*
X453627Y360118D01*
X453530Y360602D01*
X453256Y361012D01*
X452846Y361286D01*
X452362Y361383D01*
D02*
G37*
G36*
X395214Y360935D02*
X394730Y360839D01*
X394320Y360565D01*
X394046Y360155D01*
X393950Y359671D01*
X394046Y359187D01*
X394320Y358777D01*
X394730Y358503D01*
X395214Y358406D01*
X395698Y358503D01*
X396108Y358777D01*
X396382Y359187D01*
X396479Y359671D01*
X396382Y360155D01*
X396108Y360565D01*
X395698Y360839D01*
X395214Y360935D01*
D02*
G37*
G36*
X442008Y361557D02*
X441524Y361461D01*
X441114Y361187D01*
X440840Y360777D01*
X440743Y360293D01*
X440840Y359809D01*
X441059Y359480D01*
X441107Y359157D01*
X441059Y358834D01*
X440840Y358505D01*
X440743Y358021D01*
X440840Y357537D01*
X441114Y357127D01*
X441524Y356853D01*
X442008Y356757D01*
X442492Y356853D01*
X442902Y357127D01*
X443176Y357537D01*
X443272Y358021D01*
X443176Y358505D01*
X442956Y358834D01*
X442909Y359157D01*
X442956Y359480D01*
X443176Y359809D01*
X443272Y360293D01*
X443176Y360777D01*
X442902Y361187D01*
X442492Y361461D01*
X442008Y361557D01*
D02*
G37*
G36*
X519602Y363834D02*
X518596Y363702D01*
X517659Y363313D01*
X516853Y362695D01*
X516235Y361890D01*
X515847Y360953D01*
X515715Y359946D01*
X515847Y358940D01*
X516235Y358003D01*
X516853Y357197D01*
X517659Y356580D01*
X518596Y356191D01*
X519602Y356059D01*
X520609Y356191D01*
X521546Y356580D01*
X522351Y357197D01*
X522969Y358003D01*
X523357Y358940D01*
X523490Y359946D01*
X523357Y360953D01*
X522969Y361890D01*
X522351Y362695D01*
X521546Y363313D01*
X520609Y363702D01*
X519602Y363834D01*
D02*
G37*
G36*
X396063Y357564D02*
X395579Y357467D01*
X395169Y357193D01*
X394895Y356783D01*
X394798Y356299D01*
X394895Y355815D01*
X395169Y355405D01*
X395579Y355131D01*
X396063Y355035D01*
X396547Y355131D01*
X396957Y355405D01*
X397231Y355815D01*
X397327Y356299D01*
X397231Y356783D01*
X396957Y357193D01*
X396547Y357467D01*
X396063Y357564D01*
D02*
G37*
G36*
X409064Y356014D02*
X408580Y355918D01*
X408170Y355644D01*
X407896Y355233D01*
X407800Y354749D01*
X407896Y354266D01*
X408170Y353855D01*
X408580Y353581D01*
X409064Y353485D01*
X409548Y353581D01*
X409959Y353855D01*
X410233Y354266D01*
X410329Y354749D01*
X410233Y355233D01*
X409959Y355644D01*
X409548Y355918D01*
X409064Y356014D01*
D02*
G37*
G36*
X405884D02*
X405400Y355918D01*
X404989Y355644D01*
X404715Y355233D01*
X404619Y354749D01*
X404715Y354266D01*
X404989Y353855D01*
X405400Y353581D01*
X405884Y353485D01*
X406367Y353581D01*
X406778Y353855D01*
X407052Y354266D01*
X407148Y354749D01*
X407052Y355233D01*
X406778Y355644D01*
X406367Y355918D01*
X405884Y356014D01*
D02*
G37*
G36*
X330941D02*
X330457Y355918D01*
X330047Y355644D01*
X329773Y355233D01*
X329677Y354749D01*
X329773Y354266D01*
X330047Y353855D01*
X330457Y353581D01*
X330941Y353485D01*
X331425Y353581D01*
X331835Y353855D01*
X332109Y354266D01*
X332205Y354749D01*
X332109Y355233D01*
X331835Y355644D01*
X331425Y355918D01*
X330941Y356014D01*
D02*
G37*
G36*
X41836Y355352D02*
X41352Y355256D01*
X40942Y354982D01*
X40668Y354572D01*
X40572Y354088D01*
X40668Y353604D01*
X40942Y353194D01*
X41352Y352920D01*
X41836Y352823D01*
X42320Y352920D01*
X42730Y353194D01*
X43005Y353604D01*
X43101Y354088D01*
X43005Y354572D01*
X42730Y354982D01*
X42320Y355256D01*
X41836Y355352D01*
D02*
G37*
G36*
X37899Y348266D02*
X37415Y348169D01*
X37005Y347895D01*
X36731Y347485D01*
X36635Y347001D01*
X36731Y346517D01*
X37005Y346107D01*
X37415Y345833D01*
X37899Y345737D01*
X38383Y345833D01*
X38793Y346107D01*
X39068Y346517D01*
X39164Y347001D01*
X39068Y347485D01*
X38793Y347895D01*
X38383Y348169D01*
X37899Y348266D01*
D02*
G37*
G36*
X319130Y345876D02*
X318646Y345780D01*
X318236Y345506D01*
X317962Y345096D01*
X317865Y344612D01*
X317962Y344128D01*
X318236Y343718D01*
X318646Y343444D01*
X319130Y343348D01*
X319614Y343444D01*
X320024Y343718D01*
X320298Y344128D01*
X320394Y344612D01*
X320298Y345096D01*
X320024Y345506D01*
X319614Y345780D01*
X319130Y345876D01*
D02*
G37*
G36*
X539602Y346080D02*
X538406Y345962D01*
X537255Y345613D01*
X536195Y345046D01*
X535265Y344284D01*
X534502Y343354D01*
X533935Y342294D01*
X533586Y341143D01*
X533468Y339946D01*
X533586Y338750D01*
X533935Y337599D01*
X534502Y336539D01*
X535265Y335609D01*
X536195Y334846D01*
X537255Y334279D01*
X538406Y333930D01*
X539602Y333812D01*
X540799Y333930D01*
X541950Y334279D01*
X543010Y334846D01*
X543940Y335609D01*
X544702Y336539D01*
X545269Y337599D01*
X545618Y338750D01*
X545736Y339946D01*
X545618Y341143D01*
X545269Y342294D01*
X544702Y343354D01*
X543940Y344284D01*
X543010Y345046D01*
X541950Y345613D01*
X540799Y345962D01*
X539602Y346080D01*
D02*
G37*
G36*
X198983Y333967D02*
X198499Y333871D01*
X198089Y333596D01*
X197815Y333186D01*
X197718Y332702D01*
X197815Y332218D01*
X198089Y331808D01*
X198499Y331534D01*
X198983Y331438D01*
X199467Y331534D01*
X199877Y331808D01*
X200151Y332218D01*
X200247Y332702D01*
X200151Y333186D01*
X199877Y333596D01*
X199467Y333871D01*
X198983Y333967D01*
D02*
G37*
G36*
X83685Y323960D02*
X83201Y323864D01*
X82790Y323590D01*
X82516Y323179D01*
X82420Y322695D01*
X82516Y322212D01*
X82790Y321801D01*
X83201Y321527D01*
X83685Y321431D01*
X84168Y321527D01*
X84579Y321801D01*
X84853Y322212D01*
X84949Y322695D01*
X84853Y323179D01*
X84579Y323590D01*
X84168Y323864D01*
X83685Y323960D01*
D02*
G37*
G36*
X184202Y323362D02*
X183718Y323266D01*
X183308Y322992D01*
X183034Y322581D01*
X182937Y322097D01*
X183034Y321614D01*
X183308Y321203D01*
X183718Y320929D01*
X184202Y320833D01*
X184686Y320929D01*
X185096Y321203D01*
X185370Y321614D01*
X185466Y322097D01*
X185370Y322581D01*
X185096Y322992D01*
X184686Y323266D01*
X184202Y323362D01*
D02*
G37*
G36*
X268441Y323312D02*
X267957Y323215D01*
X267547Y322941D01*
X267273Y322531D01*
X267177Y322047D01*
X267273Y321563D01*
X267547Y321153D01*
X267957Y320879D01*
X268441Y320783D01*
X268925Y320879D01*
X269335Y321153D01*
X269609Y321563D01*
X269705Y322047D01*
X269609Y322531D01*
X269335Y322941D01*
X268925Y323215D01*
X268441Y323312D01*
D02*
G37*
G36*
X55222Y323069D02*
X54738Y322972D01*
X54328Y322698D01*
X54054Y322288D01*
X53958Y321804D01*
X54054Y321320D01*
X54328Y320910D01*
X54738Y320636D01*
X55222Y320540D01*
X55706Y320636D01*
X56116Y320910D01*
X56390Y321320D01*
X56487Y321804D01*
X56390Y322288D01*
X56116Y322698D01*
X55706Y322972D01*
X55222Y323069D01*
D02*
G37*
G36*
X145705Y321321D02*
X145221Y321225D01*
X144811Y320951D01*
X144536Y320541D01*
X144440Y320057D01*
X144536Y319573D01*
X144811Y319163D01*
X145221Y318888D01*
X145705Y318792D01*
X146189Y318888D01*
X146599Y319163D01*
X146873Y319573D01*
X146969Y320057D01*
X146873Y320541D01*
X146599Y320951D01*
X146189Y321225D01*
X145705Y321321D01*
D02*
G37*
G36*
X534806Y321285D02*
X534322Y321188D01*
X533912Y320914D01*
X533638Y320504D01*
X533542Y320020D01*
X533638Y319536D01*
X533912Y319126D01*
X534322Y318852D01*
X534806Y318756D01*
X535290Y318852D01*
X535700Y319126D01*
X535974Y319536D01*
X536071Y320020D01*
X535974Y320504D01*
X535700Y320914D01*
X535290Y321188D01*
X534806Y321285D01*
D02*
G37*
G36*
X351496Y323539D02*
X351012Y323443D01*
X350602Y323169D01*
X350328Y322759D01*
X350232Y322275D01*
X350328Y321791D01*
X350548Y321462D01*
X350595Y321139D01*
X350548Y320816D01*
X350328Y320487D01*
X350232Y320003D01*
X350328Y319519D01*
X350602Y319109D01*
X351012Y318835D01*
X351496Y318739D01*
X351980Y318835D01*
X352390Y319109D01*
X352664Y319519D01*
X352761Y320003D01*
X352664Y320487D01*
X352445Y320816D01*
X352397Y321139D01*
X352445Y321462D01*
X352664Y321791D01*
X352761Y322275D01*
X352664Y322759D01*
X352390Y323169D01*
X351980Y323443D01*
X351496Y323539D01*
D02*
G37*
G36*
X268441Y318711D02*
X267957Y318615D01*
X267547Y318340D01*
X267273Y317930D01*
X267177Y317446D01*
X267273Y316963D01*
X267547Y316552D01*
X267957Y316278D01*
X268441Y316182D01*
X268925Y316278D01*
X269335Y316552D01*
X269609Y316963D01*
X269705Y317446D01*
X269609Y317930D01*
X269335Y318340D01*
X268925Y318615D01*
X268441Y318711D01*
D02*
G37*
G36*
X98358Y316422D02*
X97874Y316325D01*
X97464Y316051D01*
X97189Y315641D01*
X97093Y315157D01*
X97189Y314673D01*
X97464Y314263D01*
X97874Y313989D01*
X98358Y313893D01*
X98842Y313989D01*
X99252Y314263D01*
X99526Y314673D01*
X99622Y315157D01*
X99526Y315641D01*
X99252Y316051D01*
X98842Y316325D01*
X98358Y316422D01*
D02*
G37*
G36*
X395508Y314282D02*
X395024Y314185D01*
X394614Y313911D01*
X394340Y313501D01*
X394243Y313017D01*
X394340Y312533D01*
X394614Y312123D01*
X395024Y311849D01*
X395508Y311753D01*
X395992Y311849D01*
X396402Y312123D01*
X396676Y312533D01*
X396772Y313017D01*
X396676Y313501D01*
X396402Y313911D01*
X395992Y314185D01*
X395508Y314282D01*
D02*
G37*
G36*
X260630Y315061D02*
X260146Y314965D01*
X259736Y314691D01*
X259462Y314281D01*
X259366Y313797D01*
X259462Y313313D01*
X259681Y312984D01*
X259729Y312661D01*
X259681Y312338D01*
X259462Y312009D01*
X259366Y311525D01*
X259462Y311041D01*
X259736Y310631D01*
X260146Y310357D01*
X260630Y310261D01*
X261114Y310357D01*
X261524Y310631D01*
X261798Y311041D01*
X261894Y311525D01*
X261798Y312009D01*
X261578Y312338D01*
X261531Y312661D01*
X261578Y312984D01*
X261798Y313313D01*
X261894Y313797D01*
X261798Y314281D01*
X261524Y314691D01*
X261114Y314965D01*
X260630Y315061D01*
D02*
G37*
G36*
X203539Y311209D02*
X203056Y311113D01*
X202645Y310839D01*
X202371Y310429D01*
X202275Y309945D01*
X202371Y309461D01*
X202645Y309051D01*
X203056Y308777D01*
X203539Y308680D01*
X204023Y308777D01*
X204433Y309051D01*
X204708Y309461D01*
X204804Y309945D01*
X204708Y310429D01*
X204433Y310839D01*
X204023Y311113D01*
X203539Y311209D01*
D02*
G37*
G36*
X507803Y307982D02*
X507319Y307886D01*
X506909Y307612D01*
X506635Y307202D01*
X506539Y306718D01*
X506635Y306234D01*
X506909Y305824D01*
X507319Y305550D01*
X507803Y305454D01*
X508287Y305550D01*
X508697Y305824D01*
X508971Y306234D01*
X509068Y306718D01*
X508971Y307202D01*
X508697Y307612D01*
X508287Y307886D01*
X507803Y307982D01*
D02*
G37*
G36*
X244756Y306959D02*
X244272Y306863D01*
X243862Y306589D01*
X243588Y306178D01*
X243492Y305694D01*
X243588Y305210D01*
X243862Y304800D01*
X244272Y304526D01*
X244756Y304430D01*
X245240Y304526D01*
X245650Y304800D01*
X245924Y305210D01*
X246020Y305694D01*
X245924Y306178D01*
X245650Y306589D01*
X245240Y306863D01*
X244756Y306959D01*
D02*
G37*
G36*
X507811Y301978D02*
X507327Y301882D01*
X506917Y301608D01*
X506643Y301198D01*
X506547Y300714D01*
X506643Y300230D01*
X506917Y299820D01*
X507327Y299546D01*
X507811Y299450D01*
X508295Y299546D01*
X508705Y299820D01*
X508979Y300230D01*
X509075Y300714D01*
X508979Y301198D01*
X508705Y301608D01*
X508295Y301882D01*
X507811Y301978D01*
D02*
G37*
G36*
X327511Y301766D02*
X327028Y301670D01*
X326617Y301396D01*
X326343Y300985D01*
X326247Y300501D01*
X326343Y300018D01*
X326617Y299607D01*
X327028Y299333D01*
X327511Y299237D01*
X327995Y299333D01*
X328405Y299607D01*
X328680Y300018D01*
X328776Y300501D01*
X328680Y300985D01*
X328405Y301396D01*
X327995Y301670D01*
X327511Y301766D01*
D02*
G37*
G36*
X209449Y298902D02*
X208965Y298806D01*
X208555Y298532D01*
X208281Y298122D01*
X208184Y297638D01*
X208281Y297154D01*
X208555Y296744D01*
X208965Y296470D01*
X209449Y296373D01*
X209933Y296470D01*
X210343Y296744D01*
X210617Y297154D01*
X210713Y297638D01*
X210617Y298122D01*
X210343Y298532D01*
X209933Y298806D01*
X209449Y298902D01*
D02*
G37*
G36*
X443405Y298238D02*
X442922Y298142D01*
X442511Y297868D01*
X442237Y297458D01*
X442141Y296974D01*
X442237Y296490D01*
X442511Y296080D01*
X442922Y295806D01*
X443405Y295709D01*
X443889Y295806D01*
X444300Y296080D01*
X444574Y296490D01*
X444670Y296974D01*
X444574Y297458D01*
X444300Y297868D01*
X443889Y298142D01*
X443405Y298238D01*
D02*
G37*
G36*
X263779Y297913D02*
X263296Y297816D01*
X262885Y297542D01*
X262611Y297132D01*
X262515Y296648D01*
X262611Y296164D01*
X262831Y295835D01*
X262879Y295512D01*
X262831Y295189D01*
X262611Y294860D01*
X262515Y294376D01*
X262611Y293893D01*
X262885Y293482D01*
X263296Y293208D01*
X263779Y293112D01*
X264263Y293208D01*
X264674Y293482D01*
X264948Y293893D01*
X265044Y294376D01*
X264948Y294860D01*
X264728Y295189D01*
X264680Y295512D01*
X264728Y295835D01*
X264948Y296164D01*
X265044Y296648D01*
X264948Y297132D01*
X264674Y297542D01*
X264263Y297816D01*
X263779Y297913D01*
D02*
G37*
G36*
X119130Y292729D02*
X118646Y292632D01*
X118236Y292358D01*
X117962Y291948D01*
X117866Y291464D01*
X117962Y290980D01*
X118236Y290570D01*
X118646Y290296D01*
X119130Y290200D01*
X119614Y290296D01*
X120024Y290570D01*
X120298Y290980D01*
X120394Y291464D01*
X120298Y291948D01*
X120024Y292358D01*
X119614Y292632D01*
X119130Y292729D01*
D02*
G37*
G36*
X328677Y292038D02*
X328193Y291941D01*
X327783Y291667D01*
X327509Y291257D01*
X327413Y290773D01*
X327509Y290289D01*
X327783Y289879D01*
X328193Y289605D01*
X328677Y289509D01*
X329161Y289605D01*
X329571Y289879D01*
X329845Y290289D01*
X329942Y290773D01*
X329845Y291257D01*
X329571Y291667D01*
X329161Y291941D01*
X328677Y292038D01*
D02*
G37*
G36*
X-5960Y289872D02*
X-6444Y289776D01*
X-6854Y289502D01*
X-7128Y289092D01*
X-7225Y288608D01*
X-7128Y288124D01*
X-6854Y287714D01*
X-6444Y287440D01*
X-5960Y287343D01*
X-5476Y287440D01*
X-5066Y287714D01*
X-4792Y288124D01*
X-4696Y288608D01*
X-4792Y289092D01*
X-5066Y289502D01*
X-5476Y289776D01*
X-5960Y289872D01*
D02*
G37*
G36*
X329037Y287891D02*
X328554Y287795D01*
X328143Y287521D01*
X327869Y287110D01*
X327773Y286626D01*
X327869Y286142D01*
X328143Y285732D01*
X328554Y285458D01*
X329037Y285362D01*
X329521Y285458D01*
X329931Y285732D01*
X330206Y286142D01*
X330302Y286626D01*
X330206Y287110D01*
X329931Y287521D01*
X329521Y287795D01*
X329037Y287891D01*
D02*
G37*
G36*
X225430Y286723D02*
X224947Y286626D01*
X224536Y286352D01*
X224262Y285942D01*
X224166Y285458D01*
X224262Y284974D01*
X224536Y284564D01*
X224947Y284290D01*
X225430Y284194D01*
X225914Y284290D01*
X226325Y284564D01*
X226599Y284974D01*
X226695Y285458D01*
X226599Y285942D01*
X226325Y286352D01*
X225914Y286626D01*
X225430Y286723D01*
D02*
G37*
G36*
X386846Y285935D02*
X386363Y285839D01*
X385952Y285565D01*
X385678Y285155D01*
X385582Y284671D01*
X385678Y284187D01*
X385952Y283777D01*
X386363Y283503D01*
X386846Y283406D01*
X387330Y283503D01*
X387741Y283777D01*
X388015Y284187D01*
X388111Y284671D01*
X388015Y285155D01*
X387741Y285565D01*
X387330Y285839D01*
X386846Y285935D01*
D02*
G37*
G36*
X330941Y285518D02*
X330457Y285422D01*
X330047Y285148D01*
X329773Y284738D01*
X329677Y284254D01*
X329773Y283770D01*
X330047Y283360D01*
X330457Y283086D01*
X330941Y282989D01*
X331425Y283086D01*
X331835Y283360D01*
X332109Y283770D01*
X332205Y284254D01*
X332109Y284738D01*
X331835Y285148D01*
X331425Y285422D01*
X330941Y285518D01*
D02*
G37*
G36*
X186614Y284656D02*
X186130Y284559D01*
X185720Y284285D01*
X185446Y283875D01*
X185350Y283391D01*
X185446Y282907D01*
X185720Y282497D01*
X186130Y282223D01*
X186614Y282127D01*
X187098Y282223D01*
X187508Y282497D01*
X187782Y282907D01*
X187879Y283391D01*
X187782Y283875D01*
X187508Y284285D01*
X187098Y284559D01*
X186614Y284656D01*
D02*
G37*
G36*
X362470Y282203D02*
X361986Y282107D01*
X361576Y281833D01*
X361302Y281422D01*
X361206Y280939D01*
X361302Y280455D01*
X361576Y280044D01*
X361986Y279770D01*
X362470Y279674D01*
X362954Y279770D01*
X363364Y280044D01*
X363638Y280455D01*
X363734Y280939D01*
X363638Y281422D01*
X363364Y281833D01*
X362954Y282107D01*
X362470Y282203D01*
D02*
G37*
G36*
X330941Y281998D02*
X330457Y281902D01*
X330047Y281628D01*
X329773Y281218D01*
X329677Y280734D01*
X329773Y280250D01*
X330047Y279840D01*
X330457Y279566D01*
X330941Y279469D01*
X331425Y279566D01*
X331835Y279840D01*
X332109Y280250D01*
X332205Y280734D01*
X332109Y281218D01*
X331835Y281628D01*
X331425Y281902D01*
X330941Y281998D01*
D02*
G37*
G36*
X539602Y290805D02*
X538406Y290687D01*
X537255Y290338D01*
X536195Y289771D01*
X535265Y289008D01*
X534502Y288079D01*
X533935Y287018D01*
X533586Y285868D01*
X533468Y284671D01*
X533586Y283474D01*
X533935Y282324D01*
X534502Y281263D01*
X535265Y280333D01*
X536195Y279571D01*
X537255Y279004D01*
X538406Y278655D01*
X539602Y278537D01*
X540799Y278655D01*
X541950Y279004D01*
X543010Y279571D01*
X543940Y280333D01*
X544702Y281263D01*
X545269Y282324D01*
X545618Y283474D01*
X545736Y284671D01*
X545618Y285868D01*
X545269Y287018D01*
X544702Y288079D01*
X543940Y289008D01*
X543010Y289771D01*
X541950Y290338D01*
X540799Y290687D01*
X539602Y290805D01*
D02*
G37*
G36*
X225430Y280423D02*
X224947Y280327D01*
X224536Y280053D01*
X224262Y279643D01*
X224166Y279159D01*
X224262Y278675D01*
X224536Y278265D01*
X224947Y277991D01*
X225430Y277894D01*
X225914Y277991D01*
X226325Y278265D01*
X226599Y278675D01*
X226695Y279159D01*
X226599Y279643D01*
X226325Y280053D01*
X225914Y280327D01*
X225430Y280423D01*
D02*
G37*
G36*
X331656Y278913D02*
X331172Y278817D01*
X330762Y278543D01*
X330488Y278133D01*
X330392Y277649D01*
X330488Y277165D01*
X330762Y276754D01*
X331172Y276480D01*
X331656Y276384D01*
X332140Y276480D01*
X332550Y276754D01*
X332824Y277165D01*
X332920Y277649D01*
X332824Y278133D01*
X332550Y278543D01*
X332140Y278817D01*
X331656Y278913D01*
D02*
G37*
G36*
X92772Y276967D02*
X92288Y276871D01*
X91878Y276596D01*
X91604Y276186D01*
X91508Y275702D01*
X91604Y275219D01*
X91878Y274808D01*
X92288Y274534D01*
X92772Y274438D01*
X93256Y274534D01*
X93666Y274808D01*
X93940Y275219D01*
X94037Y275702D01*
X93940Y276186D01*
X93666Y276596D01*
X93256Y276871D01*
X92772Y276967D01*
D02*
G37*
G36*
X454528Y279761D02*
X453652Y279646D01*
X452836Y279308D01*
X452135Y278770D01*
X451598Y278070D01*
X451260Y277254D01*
X451144Y276378D01*
X451260Y275502D01*
X451598Y274686D01*
X452135Y273986D01*
X452836Y273448D01*
X453652Y273110D01*
X454528Y272995D01*
X455403Y273110D01*
X456219Y273448D01*
X456920Y273986D01*
X457458Y274686D01*
X457796Y275502D01*
X457911Y276378D01*
X457796Y277254D01*
X457458Y278070D01*
X456920Y278770D01*
X456219Y279308D01*
X455403Y279646D01*
X454528Y279761D01*
D02*
G37*
G36*
X151181Y276967D02*
X150697Y276871D01*
X150287Y276596D01*
X150013Y276186D01*
X149917Y275702D01*
X150013Y275219D01*
X150233Y274890D01*
X150280Y274567D01*
X150233Y274243D01*
X150013Y273915D01*
X149917Y273431D01*
X150013Y272947D01*
X150287Y272537D01*
X150697Y272263D01*
X151181Y272166D01*
X151665Y272263D01*
X152075Y272537D01*
X152349Y272947D01*
X152446Y273431D01*
X152349Y273915D01*
X152130Y274243D01*
X152082Y274567D01*
X152130Y274890D01*
X152349Y275219D01*
X152446Y275702D01*
X152349Y276186D01*
X152075Y276596D01*
X151665Y276871D01*
X151181Y276967D01*
D02*
G37*
G36*
X519602Y278558D02*
X518596Y278426D01*
X517659Y278038D01*
X516853Y277420D01*
X516235Y276615D01*
X515847Y275677D01*
X515715Y274671D01*
X515847Y273665D01*
X516235Y272727D01*
X516853Y271922D01*
X517659Y271304D01*
X518596Y270916D01*
X519602Y270783D01*
X520609Y270916D01*
X521546Y271304D01*
X522351Y271922D01*
X522969Y272727D01*
X523357Y273665D01*
X523490Y274671D01*
X523357Y275677D01*
X522969Y276615D01*
X522351Y277420D01*
X521546Y278038D01*
X520609Y278426D01*
X519602Y278558D01*
D02*
G37*
G36*
X190097Y269106D02*
X189613Y269010D01*
X189203Y268736D01*
X188929Y268326D01*
X188833Y267842D01*
X188929Y267358D01*
X189203Y266948D01*
X189613Y266673D01*
X190097Y266577D01*
X190581Y266673D01*
X190991Y266948D01*
X191265Y267358D01*
X191362Y267842D01*
X191265Y268326D01*
X190991Y268736D01*
X190581Y269010D01*
X190097Y269106D01*
D02*
G37*
G36*
X396831Y267800D02*
X396347Y267704D01*
X395936Y267429D01*
X395662Y267019D01*
X395566Y266535D01*
X395662Y266052D01*
X395936Y265641D01*
X396347Y265367D01*
X396831Y265271D01*
X397315Y265367D01*
X397725Y265641D01*
X397999Y266052D01*
X398095Y266535D01*
X397999Y267019D01*
X397725Y267429D01*
X397315Y267704D01*
X396831Y267800D01*
D02*
G37*
G36*
X170079Y269392D02*
X169595Y269296D01*
X169185Y269022D01*
X168911Y268612D01*
X168814Y268128D01*
X168911Y267644D01*
X169130Y267315D01*
X169178Y266992D01*
X169130Y266669D01*
X168911Y266340D01*
X168814Y265856D01*
X168911Y265372D01*
X169185Y264962D01*
X169595Y264688D01*
X170079Y264592D01*
X170563Y264688D01*
X170973Y264962D01*
X171247Y265372D01*
X171343Y265856D01*
X171247Y266340D01*
X171027Y266669D01*
X170979Y266992D01*
X171027Y267315D01*
X171247Y267644D01*
X171343Y268128D01*
X171247Y268612D01*
X170973Y269022D01*
X170563Y269296D01*
X170079Y269392D01*
D02*
G37*
G36*
X416339Y266867D02*
X415855Y266771D01*
X415445Y266497D01*
X415170Y266087D01*
X415074Y265603D01*
X415170Y265119D01*
X415445Y264708D01*
X415855Y264434D01*
X416339Y264338D01*
X416822Y264434D01*
X417233Y264708D01*
X417507Y265119D01*
X417603Y265603D01*
X417507Y266087D01*
X417233Y266497D01*
X416822Y266771D01*
X416339Y266867D01*
D02*
G37*
G36*
X451535Y265567D02*
X451052Y265471D01*
X450641Y265197D01*
X450367Y264786D01*
X450271Y264303D01*
X450367Y263819D01*
X450641Y263408D01*
X451052Y263134D01*
X451535Y263038D01*
X452019Y263134D01*
X452429Y263408D01*
X452704Y263819D01*
X452800Y264303D01*
X452704Y264786D01*
X452429Y265197D01*
X452019Y265471D01*
X451535Y265567D01*
D02*
G37*
G36*
X409064Y265317D02*
X408580Y265220D01*
X408170Y264946D01*
X407896Y264536D01*
X407800Y264052D01*
X407896Y263568D01*
X408170Y263158D01*
X408580Y262884D01*
X409064Y262788D01*
X409548Y262884D01*
X409959Y263158D01*
X410233Y263568D01*
X410329Y264052D01*
X410233Y264536D01*
X409959Y264946D01*
X409548Y265220D01*
X409064Y265317D01*
D02*
G37*
G36*
X405905Y265044D02*
X405422Y264948D01*
X405011Y264674D01*
X404737Y264263D01*
X404641Y263779D01*
X404737Y263296D01*
X405011Y262885D01*
X405422Y262611D01*
X405905Y262515D01*
X406389Y262611D01*
X406800Y262885D01*
X407074Y263296D01*
X407170Y263779D01*
X407074Y264263D01*
X406800Y264674D01*
X406389Y264948D01*
X405905Y265044D01*
D02*
G37*
G36*
X519602Y268558D02*
X518596Y268426D01*
X517659Y268038D01*
X516853Y267420D01*
X516235Y266615D01*
X515847Y265677D01*
X515715Y264671D01*
X515847Y263665D01*
X516235Y262727D01*
X516853Y261922D01*
X517659Y261304D01*
X518596Y260916D01*
X519602Y260783D01*
X520609Y260916D01*
X521546Y261304D01*
X522351Y261922D01*
X522969Y262727D01*
X523357Y263665D01*
X523490Y264671D01*
X523357Y265677D01*
X522969Y266615D01*
X522351Y267420D01*
X521546Y268038D01*
X520609Y268426D01*
X519602Y268558D01*
D02*
G37*
G36*
X441886Y265567D02*
X441402Y265471D01*
X440992Y265197D01*
X440718Y264786D01*
X440622Y264303D01*
X440718Y263819D01*
X440938Y263490D01*
X440985Y263167D01*
X440938Y262843D01*
X440718Y262515D01*
X440622Y262031D01*
X440718Y261547D01*
X440992Y261137D01*
X441402Y260863D01*
X441886Y260766D01*
X442370Y260863D01*
X442780Y261137D01*
X443054Y261547D01*
X443151Y262031D01*
X443054Y262515D01*
X442835Y262843D01*
X442787Y263167D01*
X442835Y263490D01*
X443054Y263819D01*
X443151Y264303D01*
X443054Y264786D01*
X442780Y265197D01*
X442370Y265471D01*
X441886Y265567D01*
D02*
G37*
G36*
X268441Y262682D02*
X267957Y262585D01*
X267547Y262311D01*
X267273Y261901D01*
X267177Y261417D01*
X267273Y260933D01*
X267547Y260523D01*
X267957Y260249D01*
X268441Y260153D01*
X268925Y260249D01*
X269335Y260523D01*
X269609Y260933D01*
X269705Y261417D01*
X269609Y261901D01*
X269335Y262311D01*
X268925Y262585D01*
X268441Y262682D01*
D02*
G37*
G36*
X396063Y262288D02*
X395579Y262192D01*
X395169Y261918D01*
X394895Y261508D01*
X394798Y261024D01*
X394895Y260540D01*
X395169Y260129D01*
X395579Y259855D01*
X396063Y259759D01*
X396547Y259855D01*
X396957Y260129D01*
X397231Y260540D01*
X397327Y261024D01*
X397231Y261508D01*
X396957Y261918D01*
X396547Y262192D01*
X396063Y262288D01*
D02*
G37*
G36*
X352913Y262909D02*
X352430Y262813D01*
X352019Y262539D01*
X351745Y262129D01*
X351649Y261645D01*
X351745Y261161D01*
X351965Y260832D01*
X352013Y260509D01*
X351965Y260186D01*
X351745Y259857D01*
X351649Y259373D01*
X351745Y258889D01*
X352019Y258479D01*
X352430Y258205D01*
X352913Y258109D01*
X353397Y258205D01*
X353807Y258479D01*
X354082Y258889D01*
X354178Y259373D01*
X354082Y259857D01*
X353862Y260186D01*
X353814Y260509D01*
X353862Y260832D01*
X354082Y261161D01*
X354178Y261645D01*
X354082Y262129D01*
X353807Y262539D01*
X353397Y262813D01*
X352913Y262909D01*
D02*
G37*
G36*
X235864Y259282D02*
X235380Y259186D01*
X234970Y258911D01*
X234696Y258501D01*
X234599Y258017D01*
X234696Y257533D01*
X234970Y257123D01*
X235380Y256849D01*
X235864Y256753D01*
X236348Y256849D01*
X236758Y257123D01*
X237032Y257533D01*
X237128Y258017D01*
X237032Y258501D01*
X236758Y258911D01*
X236348Y259186D01*
X235864Y259282D01*
D02*
G37*
G36*
X216535Y261445D02*
X216052Y261349D01*
X215641Y261074D01*
X215367Y260664D01*
X215271Y260180D01*
X215367Y259696D01*
X215587Y259368D01*
X215635Y259044D01*
X215587Y258721D01*
X215367Y258393D01*
X215271Y257909D01*
X215367Y257425D01*
X215641Y257014D01*
X216052Y256740D01*
X216535Y256644D01*
X217019Y256740D01*
X217429Y257014D01*
X217704Y257425D01*
X217800Y257909D01*
X217704Y258393D01*
X217484Y258721D01*
X217436Y259044D01*
X217484Y259368D01*
X217704Y259696D01*
X217800Y260180D01*
X217704Y260664D01*
X217429Y261074D01*
X217019Y261349D01*
X216535Y261445D01*
D02*
G37*
G36*
X268441Y258081D02*
X267957Y257985D01*
X267547Y257711D01*
X267273Y257300D01*
X267177Y256817D01*
X267273Y256333D01*
X267547Y255922D01*
X267957Y255648D01*
X268441Y255552D01*
X268925Y255648D01*
X269335Y255922D01*
X269609Y256333D01*
X269705Y256817D01*
X269609Y257300D01*
X269335Y257711D01*
X268925Y257985D01*
X268441Y258081D01*
D02*
G37*
G36*
X254331Y252758D02*
X253847Y252662D01*
X253437Y252388D01*
X253163Y251977D01*
X253066Y251494D01*
X253163Y251010D01*
X253382Y250681D01*
X253430Y250358D01*
X253382Y250035D01*
X253163Y249706D01*
X253066Y249222D01*
X253163Y248738D01*
X253437Y248328D01*
X253847Y248054D01*
X254331Y247957D01*
X254815Y248054D01*
X255225Y248328D01*
X255499Y248738D01*
X255595Y249222D01*
X255499Y249706D01*
X255279Y250035D01*
X255231Y250358D01*
X255279Y250681D01*
X255499Y251010D01*
X255595Y251494D01*
X255499Y251977D01*
X255225Y252388D01*
X254815Y252662D01*
X254331Y252758D01*
D02*
G37*
G36*
X266999Y249881D02*
X266515Y249785D01*
X266105Y249511D01*
X265831Y249100D01*
X265735Y248617D01*
X265831Y248133D01*
X266051Y247804D01*
X266098Y247481D01*
X266051Y247158D01*
X265831Y246829D01*
X265735Y246345D01*
X265831Y245861D01*
X266105Y245451D01*
X266515Y245177D01*
X266999Y245080D01*
X267483Y245177D01*
X267893Y245451D01*
X268167Y245861D01*
X268264Y246345D01*
X268167Y246829D01*
X267948Y247158D01*
X267900Y247481D01*
X267948Y247804D01*
X268167Y248133D01*
X268264Y248617D01*
X268167Y249100D01*
X267893Y249511D01*
X267483Y249785D01*
X266999Y249881D01*
D02*
G37*
G36*
X253322Y243784D02*
X252838Y243688D01*
X252428Y243414D01*
X252154Y243004D01*
X252058Y242520D01*
X252154Y242036D01*
X252428Y241626D01*
X252838Y241352D01*
X253322Y241255D01*
X253806Y241352D01*
X254217Y241626D01*
X254491Y242036D01*
X254587Y242520D01*
X254491Y243004D01*
X254217Y243414D01*
X253806Y243688D01*
X253322Y243784D01*
D02*
G37*
G36*
X539602Y250805D02*
X538406Y250687D01*
X537255Y250338D01*
X536195Y249771D01*
X535265Y249008D01*
X534502Y248079D01*
X533935Y247018D01*
X533586Y245867D01*
X533468Y244671D01*
X533586Y243474D01*
X533935Y242323D01*
X534502Y241263D01*
X535265Y240334D01*
X536195Y239571D01*
X537255Y239004D01*
X538406Y238655D01*
X539602Y238537D01*
X540799Y238655D01*
X541950Y239004D01*
X543010Y239571D01*
X543940Y240334D01*
X544702Y241263D01*
X545269Y242323D01*
X545618Y243474D01*
X545736Y244671D01*
X545618Y245867D01*
X545269Y247018D01*
X544702Y248079D01*
X543940Y249008D01*
X543010Y249771D01*
X541950Y250338D01*
X540799Y250687D01*
X539602Y250805D01*
D02*
G37*
G36*
X332677Y237682D02*
X332193Y237585D01*
X331783Y237311D01*
X331509Y236901D01*
X331413Y236417D01*
X331509Y235933D01*
X331783Y235523D01*
X332193Y235249D01*
X332677Y235153D01*
X333161Y235249D01*
X333571Y235523D01*
X333845Y235933D01*
X333942Y236417D01*
X333845Y236901D01*
X333571Y237311D01*
X333161Y237585D01*
X332677Y237682D01*
D02*
G37*
G36*
X150979Y233829D02*
X150495Y233733D01*
X150085Y233459D01*
X149811Y233048D01*
X149714Y232564D01*
X149811Y232081D01*
X150085Y231670D01*
X150495Y231396D01*
X150979Y231300D01*
X151463Y231396D01*
X151873Y231670D01*
X152147Y232081D01*
X152243Y232564D01*
X152147Y233048D01*
X151873Y233459D01*
X151463Y233733D01*
X150979Y233829D01*
D02*
G37*
G36*
X328677Y230081D02*
X328193Y229985D01*
X327783Y229711D01*
X327509Y229300D01*
X327413Y228817D01*
X327509Y228333D01*
X327783Y227922D01*
X328193Y227648D01*
X328677Y227552D01*
X329161Y227648D01*
X329571Y227922D01*
X329845Y228333D01*
X329942Y228817D01*
X329845Y229300D01*
X329571Y229711D01*
X329161Y229985D01*
X328677Y230081D01*
D02*
G37*
G36*
X330709Y227642D02*
X330225Y227546D01*
X329815Y227272D01*
X329540Y226862D01*
X329444Y226378D01*
X329540Y225894D01*
X329815Y225484D01*
X330225Y225210D01*
X330709Y225114D01*
X331192Y225210D01*
X331603Y225484D01*
X331877Y225894D01*
X331973Y226378D01*
X331877Y226862D01*
X331603Y227272D01*
X331192Y227546D01*
X330709Y227642D01*
D02*
G37*
G36*
X193146Y226880D02*
X192662Y226784D01*
X192252Y226510D01*
X191978Y226099D01*
X191881Y225616D01*
X191978Y225132D01*
X192252Y224722D01*
X192662Y224447D01*
X193146Y224351D01*
X193630Y224447D01*
X194040Y224722D01*
X194314Y225132D01*
X194410Y225616D01*
X194314Y226099D01*
X194040Y226510D01*
X193630Y226784D01*
X193146Y226880D01*
D02*
G37*
G36*
X333465Y225621D02*
X332981Y225524D01*
X332571Y225250D01*
X332296Y224840D01*
X332200Y224356D01*
X332296Y223872D01*
X332571Y223462D01*
X332981Y223188D01*
X333465Y223092D01*
X333948Y223188D01*
X334359Y223462D01*
X334633Y223872D01*
X334729Y224356D01*
X334633Y224840D01*
X334359Y225250D01*
X333948Y225524D01*
X333465Y225621D01*
D02*
G37*
G36*
X110085Y225616D02*
X109601Y225519D01*
X109191Y225245D01*
X108916Y224835D01*
X108820Y224351D01*
X108916Y223867D01*
X109191Y223457D01*
X109601Y223183D01*
X110085Y223087D01*
X110569Y223183D01*
X110979Y223457D01*
X111253Y223867D01*
X111349Y224351D01*
X111253Y224835D01*
X110979Y225245D01*
X110569Y225519D01*
X110085Y225616D01*
D02*
G37*
G36*
X542165Y224453D02*
X541681Y224357D01*
X541271Y224083D01*
X540997Y223673D01*
X540901Y223189D01*
X540997Y222705D01*
X541271Y222295D01*
X541681Y222021D01*
X542165Y221924D01*
X542649Y222021D01*
X543059Y222295D01*
X543334Y222705D01*
X543430Y223189D01*
X543334Y223673D01*
X543059Y224083D01*
X542649Y224357D01*
X542165Y224453D01*
D02*
G37*
G36*
X242126Y224124D02*
X241642Y224028D01*
X241232Y223754D01*
X240958Y223344D01*
X240862Y222860D01*
X240958Y222376D01*
X241232Y221966D01*
X241642Y221692D01*
X242126Y221595D01*
X242610Y221692D01*
X243020Y221966D01*
X243294Y222376D01*
X243390Y222860D01*
X243294Y223344D01*
X243020Y223754D01*
X242610Y224028D01*
X242126Y224124D01*
D02*
G37*
G36*
X168504Y222918D02*
X168171Y222852D01*
X167888Y222663D01*
X167699Y222381D01*
X167633Y222047D01*
Y221967D01*
X167699Y221634D01*
X167888Y221351D01*
X168171Y221162D01*
X168504Y221096D01*
X168837Y221162D01*
X169120Y221351D01*
X169309Y221634D01*
X169375Y221967D01*
Y222047D01*
X169309Y222381D01*
X169120Y222663D01*
X168837Y222852D01*
X168504Y222918D01*
D02*
G37*
G36*
X334780Y222786D02*
X334296Y222690D01*
X333885Y222416D01*
X333611Y222006D01*
X333515Y221522D01*
X333611Y221038D01*
X333885Y220628D01*
X334296Y220354D01*
X334780Y220257D01*
X335263Y220354D01*
X335674Y220628D01*
X335948Y221038D01*
X336044Y221522D01*
X335948Y222006D01*
X335674Y222416D01*
X335263Y222690D01*
X334780Y222786D01*
D02*
G37*
G36*
X268441Y222524D02*
X267957Y222428D01*
X267547Y222154D01*
X267273Y221744D01*
X267177Y221260D01*
X267273Y220776D01*
X267547Y220366D01*
X267957Y220092D01*
X268441Y219995D01*
X268925Y220092D01*
X269335Y220366D01*
X269609Y220776D01*
X269705Y221260D01*
X269609Y221744D01*
X269335Y222154D01*
X268925Y222428D01*
X268441Y222524D01*
D02*
G37*
G36*
X362470Y222303D02*
X361986Y222206D01*
X361576Y221932D01*
X361302Y221522D01*
X361206Y221038D01*
X361302Y220554D01*
X361576Y220144D01*
X361986Y219870D01*
X362470Y219774D01*
X362954Y219870D01*
X363364Y220144D01*
X363638Y220554D01*
X363734Y221038D01*
X363638Y221522D01*
X363364Y221932D01*
X362954Y222206D01*
X362470Y222303D01*
D02*
G37*
G36*
X395508Y219006D02*
X395024Y218910D01*
X394614Y218636D01*
X394340Y218226D01*
X394243Y217742D01*
X394340Y217258D01*
X394614Y216848D01*
X395024Y216574D01*
X395508Y216477D01*
X395992Y216574D01*
X396402Y216848D01*
X396676Y217258D01*
X396772Y217742D01*
X396676Y218226D01*
X396402Y218636D01*
X395992Y218910D01*
X395508Y219006D01*
D02*
G37*
G36*
X507803Y212549D02*
X507319Y212453D01*
X506909Y212179D01*
X506635Y211769D01*
X506539Y211285D01*
X506635Y210801D01*
X506909Y210391D01*
X507319Y210117D01*
X507803Y210020D01*
X508287Y210117D01*
X508697Y210391D01*
X508971Y210801D01*
X509068Y211285D01*
X508971Y211769D01*
X508697Y212179D01*
X508287Y212453D01*
X507803Y212549D01*
D02*
G37*
G36*
X507811Y206545D02*
X507327Y206449D01*
X506917Y206175D01*
X506643Y205765D01*
X506547Y205281D01*
X506643Y204797D01*
X506917Y204387D01*
X507327Y204113D01*
X507811Y204017D01*
X508295Y204113D01*
X508705Y204387D01*
X508979Y204797D01*
X509075Y205281D01*
X508979Y205765D01*
X508705Y206175D01*
X508295Y206449D01*
X507811Y206545D01*
D02*
G37*
G36*
X437448Y205384D02*
X436964Y205288D01*
X436554Y205014D01*
X436280Y204604D01*
X436184Y204120D01*
X436280Y203636D01*
X436554Y203225D01*
X436964Y202951D01*
X437448Y202855D01*
X437932Y202951D01*
X438342Y203225D01*
X438616Y203636D01*
X438712Y204120D01*
X438616Y204604D01*
X438342Y205014D01*
X437932Y205288D01*
X437448Y205384D01*
D02*
G37*
G36*
X207874Y205202D02*
X207390Y205105D01*
X206980Y204831D01*
X206706Y204421D01*
X206610Y203937D01*
X206706Y203453D01*
X206980Y203043D01*
X207390Y202769D01*
X207874Y202673D01*
X208358Y202769D01*
X208768Y203043D01*
X209042Y203453D01*
X209138Y203937D01*
X209042Y204421D01*
X208768Y204831D01*
X208358Y205105D01*
X207874Y205202D01*
D02*
G37*
G36*
X268504Y202839D02*
X268020Y202743D01*
X267610Y202469D01*
X267336Y202059D01*
X267239Y201575D01*
X267336Y201091D01*
X267610Y200681D01*
X268020Y200407D01*
X268504Y200310D01*
X268988Y200407D01*
X269398Y200681D01*
X269672Y201091D01*
X269768Y201575D01*
X269672Y202059D01*
X269398Y202469D01*
X268988Y202743D01*
X268504Y202839D01*
D02*
G37*
G36*
X88976Y201265D02*
X88493Y201168D01*
X88082Y200894D01*
X87808Y200484D01*
X87712Y200000D01*
X87808Y199516D01*
X88082Y199106D01*
X88493Y198832D01*
X88976Y198735D01*
X89460Y198832D01*
X89871Y199106D01*
X90145Y199516D01*
X90241Y200000D01*
X90145Y200484D01*
X89871Y200894D01*
X89460Y201168D01*
X88976Y201265D01*
D02*
G37*
G36*
X354213Y202279D02*
X353729Y202183D01*
X353319Y201909D01*
X353044Y201499D01*
X352948Y201015D01*
X353044Y200531D01*
X353264Y200202D01*
X353312Y199879D01*
X353264Y199556D01*
X353044Y199227D01*
X352948Y198743D01*
X353044Y198259D01*
X353319Y197849D01*
X353729Y197575D01*
X354213Y197479D01*
X354696Y197575D01*
X355107Y197849D01*
X355381Y198259D01*
X355477Y198743D01*
X355381Y199227D01*
X355161Y199556D01*
X355113Y199879D01*
X355161Y200202D01*
X355381Y200531D01*
X355477Y201015D01*
X355381Y201499D01*
X355107Y201909D01*
X354696Y202183D01*
X354213Y202279D01*
D02*
G37*
G36*
X186614Y199419D02*
X186130Y199323D01*
X185720Y199049D01*
X185446Y198639D01*
X185350Y198155D01*
X185446Y197671D01*
X185720Y197261D01*
X186130Y196987D01*
X186614Y196891D01*
X187098Y196987D01*
X187508Y197261D01*
X187782Y197671D01*
X187879Y198155D01*
X187782Y198639D01*
X187508Y199049D01*
X187098Y199323D01*
X186614Y199419D01*
D02*
G37*
G36*
X207087Y198829D02*
X206603Y198733D01*
X206192Y198459D01*
X205918Y198048D01*
X205822Y197564D01*
X205918Y197081D01*
X206192Y196670D01*
X206603Y196396D01*
X207087Y196300D01*
X207571Y196396D01*
X207981Y196670D01*
X208255Y197081D01*
X208351Y197564D01*
X208255Y198048D01*
X207981Y198459D01*
X207571Y198733D01*
X207087Y198829D01*
D02*
G37*
G36*
X268441Y197451D02*
X267957Y197355D01*
X267547Y197081D01*
X267273Y196670D01*
X267177Y196186D01*
X267273Y195703D01*
X267547Y195292D01*
X267957Y195018D01*
X268441Y194922D01*
X268925Y195018D01*
X269335Y195292D01*
X269609Y195703D01*
X269705Y196186D01*
X269609Y196670D01*
X269335Y197081D01*
X268925Y197355D01*
X268441Y197451D01*
D02*
G37*
G36*
X211344Y194105D02*
X211011Y194038D01*
X210728Y193850D01*
X210539Y193567D01*
X210473Y193234D01*
Y193012D01*
X210539Y192678D01*
X210728Y192396D01*
X211011Y192207D01*
X211344Y192141D01*
X211677Y192207D01*
X211960Y192396D01*
X212149Y192678D01*
X212215Y193012D01*
Y193234D01*
X212149Y193567D01*
X211960Y193850D01*
X211677Y194038D01*
X211344Y194105D01*
D02*
G37*
G36*
X386846Y190660D02*
X386363Y190563D01*
X385952Y190289D01*
X385678Y189879D01*
X385582Y189395D01*
X385678Y188911D01*
X385952Y188501D01*
X386363Y188227D01*
X386846Y188131D01*
X387330Y188227D01*
X387741Y188501D01*
X388015Y188911D01*
X388111Y189395D01*
X388015Y189879D01*
X387741Y190289D01*
X387330Y190563D01*
X386846Y190660D01*
D02*
G37*
G36*
X243307Y192153D02*
X242823Y192057D01*
X242413Y191783D01*
X242139Y191373D01*
X242043Y190889D01*
X242139Y190405D01*
X242358Y190076D01*
X242406Y189753D01*
X242358Y189430D01*
X242139Y189101D01*
X242043Y188617D01*
X242139Y188133D01*
X242413Y187723D01*
X242823Y187449D01*
X243307Y187353D01*
X243791Y187449D01*
X244201Y187723D01*
X244475Y188133D01*
X244571Y188617D01*
X244475Y189101D01*
X244256Y189430D01*
X244208Y189753D01*
X244256Y190076D01*
X244475Y190405D01*
X244571Y190889D01*
X244475Y191373D01*
X244201Y191783D01*
X243791Y192057D01*
X243307Y192153D01*
D02*
G37*
G36*
X101075Y189165D02*
X100592Y189069D01*
X100181Y188795D01*
X99907Y188385D01*
X99811Y187901D01*
X99907Y187417D01*
X100181Y187007D01*
X100592Y186733D01*
X101075Y186636D01*
X101559Y186733D01*
X101970Y187007D01*
X102244Y187417D01*
X102340Y187901D01*
X102244Y188385D01*
X101970Y188795D01*
X101559Y189069D01*
X101075Y189165D01*
D02*
G37*
G36*
X266999Y189577D02*
X266515Y189481D01*
X266105Y189207D01*
X265831Y188796D01*
X265735Y188312D01*
X265831Y187829D01*
X266051Y187500D01*
X266098Y187177D01*
X266051Y186854D01*
X265831Y186525D01*
X265735Y186041D01*
X265831Y185557D01*
X266105Y185147D01*
X266515Y184873D01*
X266999Y184776D01*
X267483Y184873D01*
X267893Y185147D01*
X268167Y185557D01*
X268264Y186041D01*
X268167Y186525D01*
X267948Y186854D01*
X267900Y187177D01*
X267948Y187500D01*
X268167Y187829D01*
X268264Y188312D01*
X268167Y188796D01*
X267893Y189207D01*
X267483Y189481D01*
X266999Y189577D01*
D02*
G37*
G36*
X539602Y195372D02*
X538406Y195254D01*
X537255Y194905D01*
X536195Y194338D01*
X535265Y193575D01*
X534502Y192646D01*
X533935Y191585D01*
X533586Y190434D01*
X533468Y189238D01*
X533586Y188041D01*
X533935Y186890D01*
X534502Y185830D01*
X535265Y184900D01*
X536195Y184138D01*
X537255Y183571D01*
X538406Y183222D01*
X539602Y183104D01*
X540799Y183222D01*
X541950Y183571D01*
X543010Y184138D01*
X543940Y184900D01*
X544702Y185830D01*
X545269Y186890D01*
X545618Y188041D01*
X545736Y189238D01*
X545618Y190434D01*
X545269Y191585D01*
X544702Y192646D01*
X543940Y193575D01*
X543010Y194338D01*
X541950Y194905D01*
X540799Y195254D01*
X539602Y195372D01*
D02*
G37*
G36*
X453976Y185903D02*
X453101Y185788D01*
X452285Y185450D01*
X451584Y184912D01*
X451046Y184211D01*
X450708Y183395D01*
X450593Y182520D01*
X450708Y181644D01*
X451046Y180828D01*
X451584Y180127D01*
X452285Y179590D01*
X453101Y179252D01*
X453976Y179136D01*
X454852Y179252D01*
X455668Y179590D01*
X456369Y180127D01*
X456906Y180828D01*
X457244Y181644D01*
X457360Y182520D01*
X457244Y183395D01*
X456906Y184211D01*
X456369Y184912D01*
X455668Y185450D01*
X454852Y185788D01*
X453976Y185903D01*
D02*
G37*
G36*
X347638Y178036D02*
X347154Y177940D01*
X346744Y177666D01*
X346470Y177255D01*
X346373Y176772D01*
X346470Y176288D01*
X346744Y175877D01*
X347154Y175603D01*
X347638Y175507D01*
X348122Y175603D01*
X348532Y175877D01*
X348806Y176288D01*
X348902Y176772D01*
X348806Y177255D01*
X348532Y177666D01*
X348122Y177940D01*
X347638Y178036D01*
D02*
G37*
G36*
X519602Y183125D02*
X518596Y182993D01*
X517659Y182605D01*
X516853Y181987D01*
X516235Y181182D01*
X515847Y180244D01*
X515715Y179238D01*
X515847Y178232D01*
X516235Y177294D01*
X516853Y176489D01*
X517659Y175871D01*
X518596Y175483D01*
X519602Y175350D01*
X520609Y175483D01*
X521546Y175871D01*
X522351Y176489D01*
X522969Y177294D01*
X523357Y178232D01*
X523490Y179238D01*
X523357Y180244D01*
X522969Y181182D01*
X522351Y181987D01*
X521546Y182605D01*
X520609Y182993D01*
X519602Y183125D01*
D02*
G37*
G36*
X451535Y170162D02*
X451052Y170066D01*
X450641Y169792D01*
X450367Y169381D01*
X450271Y168898D01*
X450367Y168414D01*
X450641Y168003D01*
X451052Y167729D01*
X451535Y167633D01*
X452019Y167729D01*
X452429Y168003D01*
X452704Y168414D01*
X452800Y168898D01*
X452704Y169381D01*
X452429Y169792D01*
X452019Y170066D01*
X451535Y170162D01*
D02*
G37*
G36*
X408992D02*
X408508Y170066D01*
X408098Y169792D01*
X407824Y169381D01*
X407728Y168898D01*
X407824Y168414D01*
X408098Y168003D01*
X408508Y167729D01*
X408992Y167633D01*
X409476Y167729D01*
X409886Y168003D01*
X410160Y168414D01*
X410257Y168898D01*
X410160Y169381D01*
X409886Y169792D01*
X409476Y170066D01*
X408992Y170162D01*
D02*
G37*
G36*
X397244D02*
X396760Y170066D01*
X396350Y169792D01*
X396076Y169381D01*
X395980Y168898D01*
X396076Y168414D01*
X396350Y168003D01*
X396760Y167729D01*
X397244Y167633D01*
X397728Y167729D01*
X398138Y168003D01*
X398412Y168414D01*
X398509Y168898D01*
X398412Y169381D01*
X398138Y169792D01*
X397728Y170066D01*
X397244Y170162D01*
D02*
G37*
G36*
X416339Y169392D02*
X415855Y169296D01*
X415445Y169022D01*
X415170Y168611D01*
X415074Y168128D01*
X415170Y167644D01*
X415445Y167234D01*
X415855Y166959D01*
X416339Y166863D01*
X416822Y166959D01*
X417233Y167234D01*
X417507Y167644D01*
X417603Y168128D01*
X417507Y168611D01*
X417233Y169022D01*
X416822Y169296D01*
X416339Y169392D01*
D02*
G37*
G36*
X210274Y168118D02*
X209790Y168022D01*
X209380Y167748D01*
X209105Y167338D01*
X209009Y166854D01*
X209105Y166370D01*
X209380Y165960D01*
X209790Y165686D01*
X210274Y165589D01*
X210758Y165686D01*
X211168Y165960D01*
X211442Y166370D01*
X211538Y166854D01*
X211442Y167338D01*
X211168Y167748D01*
X210758Y168022D01*
X210274Y168118D01*
D02*
G37*
G36*
X519602Y173125D02*
X518596Y172993D01*
X517659Y172605D01*
X516853Y171987D01*
X516235Y171181D01*
X515847Y170244D01*
X515715Y169238D01*
X515847Y168231D01*
X516235Y167294D01*
X516853Y166489D01*
X517659Y165871D01*
X518596Y165483D01*
X519602Y165350D01*
X520609Y165483D01*
X521546Y165871D01*
X522351Y166489D01*
X522969Y167294D01*
X523357Y168231D01*
X523490Y169238D01*
X523357Y170244D01*
X522969Y171181D01*
X522351Y171987D01*
X521546Y172605D01*
X520609Y172993D01*
X519602Y173125D01*
D02*
G37*
G36*
X406433Y167406D02*
X405949Y167310D01*
X405539Y167036D01*
X405265Y166626D01*
X405169Y166142D01*
X405265Y165658D01*
X405539Y165248D01*
X405949Y164973D01*
X406433Y164877D01*
X406917Y164973D01*
X407327Y165248D01*
X407601Y165658D01*
X407697Y166142D01*
X407601Y166626D01*
X407327Y167036D01*
X406917Y167310D01*
X406433Y167406D01*
D02*
G37*
G36*
X441738Y169392D02*
X441255Y169296D01*
X440844Y169022D01*
X440570Y168611D01*
X440474Y168128D01*
X440570Y167644D01*
X440790Y167315D01*
X440838Y166992D01*
X440790Y166668D01*
X440570Y166340D01*
X440474Y165856D01*
X440570Y165372D01*
X440844Y164962D01*
X441255Y164688D01*
X441738Y164592D01*
X442222Y164688D01*
X442632Y164962D01*
X442907Y165372D01*
X443003Y165856D01*
X442907Y166340D01*
X442687Y166668D01*
X442639Y166992D01*
X442687Y167315D01*
X442907Y167644D01*
X443003Y168128D01*
X442907Y168611D01*
X442632Y169022D01*
X442222Y169296D01*
X441738Y169392D01*
D02*
G37*
G36*
X150394Y169154D02*
X149910Y169058D01*
X149500Y168784D01*
X149225Y168374D01*
X149129Y167890D01*
X149225Y167406D01*
X149445Y167077D01*
X149493Y166754D01*
X149445Y166431D01*
X149225Y166102D01*
X149129Y165618D01*
X149225Y165134D01*
X149500Y164724D01*
X149910Y164450D01*
X150394Y164354D01*
X150878Y164450D01*
X151288Y164724D01*
X151562Y165134D01*
X151658Y165618D01*
X151562Y166102D01*
X151342Y166431D01*
X151294Y166754D01*
X151342Y167077D01*
X151562Y167406D01*
X151658Y167890D01*
X151562Y168374D01*
X151288Y168784D01*
X150878Y169058D01*
X150394Y169154D01*
D02*
G37*
G36*
X397154Y166238D02*
X396670Y166142D01*
X396260Y165868D01*
X395986Y165457D01*
X395889Y164973D01*
X395986Y164490D01*
X396260Y164079D01*
X396670Y163805D01*
X397154Y163709D01*
X397638Y163805D01*
X398048Y164079D01*
X398322Y164490D01*
X398418Y164973D01*
X398322Y165457D01*
X398048Y165868D01*
X397638Y166142D01*
X397154Y166238D01*
D02*
G37*
G36*
X338817Y166136D02*
X338333Y166040D01*
X337923Y165766D01*
X337649Y165356D01*
X337552Y164872D01*
X337649Y164388D01*
X337923Y163978D01*
X338333Y163703D01*
X338817Y163607D01*
X339301Y163703D01*
X339711Y163978D01*
X339985Y164388D01*
X340081Y164872D01*
X339985Y165356D01*
X339711Y165766D01*
X339301Y166040D01*
X338817Y166136D01*
D02*
G37*
G36*
X-25022Y166127D02*
X-25506Y166030D01*
X-25916Y165756D01*
X-26190Y165346D01*
X-26286Y164862D01*
X-26190Y164378D01*
X-25916Y163968D01*
X-25506Y163694D01*
X-25022Y163598D01*
X-24538Y163694D01*
X-24128Y163968D01*
X-23854Y164378D01*
X-23757Y164862D01*
X-23854Y165346D01*
X-24128Y165756D01*
X-24538Y166030D01*
X-25022Y166127D01*
D02*
G37*
G36*
Y156678D02*
X-25506Y156581D01*
X-25916Y156307D01*
X-26190Y155897D01*
X-26286Y155413D01*
X-26190Y154929D01*
X-25916Y154519D01*
X-25506Y154245D01*
X-25022Y154149D01*
X-24538Y154245D01*
X-24128Y154519D01*
X-23854Y154929D01*
X-23757Y155413D01*
X-23854Y155897D01*
X-24128Y156307D01*
X-24538Y156581D01*
X-25022Y156678D01*
D02*
G37*
G36*
X539602Y155372D02*
X538406Y155254D01*
X537255Y154905D01*
X536195Y154338D01*
X535265Y153575D01*
X534502Y152646D01*
X533935Y151585D01*
X533586Y150434D01*
X533468Y149238D01*
X533586Y148041D01*
X533935Y146890D01*
X534502Y145830D01*
X535265Y144900D01*
X536195Y144138D01*
X537255Y143571D01*
X538406Y143222D01*
X539602Y143104D01*
X540799Y143222D01*
X541950Y143571D01*
X543010Y144138D01*
X543940Y144900D01*
X544702Y145830D01*
X545269Y146890D01*
X545618Y148041D01*
X545736Y149238D01*
X545618Y150434D01*
X545269Y151585D01*
X544702Y152646D01*
X543940Y153575D01*
X543010Y154338D01*
X541950Y154905D01*
X540799Y155254D01*
X539602Y155372D01*
D02*
G37*
G36*
X125787Y144808D02*
X125303Y144711D01*
X124893Y144437D01*
X124619Y144027D01*
X124523Y143543D01*
X124619Y143059D01*
X124893Y142649D01*
X125303Y142375D01*
X125787Y142279D01*
X126271Y142375D01*
X126681Y142649D01*
X126956Y143059D01*
X127052Y143543D01*
X126956Y144027D01*
X126681Y144437D01*
X126271Y144711D01*
X125787Y144808D01*
D02*
G37*
G36*
X-9449Y144571D02*
X-9933Y144475D01*
X-10343Y144201D01*
X-10617Y143791D01*
X-10713Y143307D01*
X-10617Y142823D01*
X-10343Y142413D01*
X-9933Y142139D01*
X-9449Y142043D01*
X-8965Y142139D01*
X-8555Y142413D01*
X-8281Y142823D01*
X-8184Y143307D01*
X-8281Y143791D01*
X-8555Y144201D01*
X-8965Y144475D01*
X-9449Y144571D01*
D02*
G37*
G36*
X268441Y141422D02*
X267957Y141326D01*
X267547Y141052D01*
X267273Y140641D01*
X267177Y140157D01*
X267273Y139674D01*
X267547Y139263D01*
X267957Y138989D01*
X268441Y138893D01*
X268925Y138989D01*
X269335Y139263D01*
X269609Y139674D01*
X269705Y140157D01*
X269609Y140641D01*
X269335Y141052D01*
X268925Y141326D01*
X268441Y141422D01*
D02*
G37*
G36*
X349541Y141649D02*
X349057Y141553D01*
X348647Y141279D01*
X348373Y140869D01*
X348276Y140385D01*
X348373Y139901D01*
X348592Y139572D01*
X348640Y139249D01*
X348592Y138926D01*
X348373Y138597D01*
X348276Y138113D01*
X348373Y137629D01*
X348647Y137219D01*
X349057Y136945D01*
X349541Y136849D01*
X350025Y136945D01*
X350435Y137219D01*
X350709Y137629D01*
X350805Y138113D01*
X350709Y138597D01*
X350490Y138926D01*
X350442Y139249D01*
X350490Y139572D01*
X350709Y139901D01*
X350805Y140385D01*
X350709Y140869D01*
X350435Y141279D01*
X350025Y141553D01*
X349541Y141649D01*
D02*
G37*
G36*
X254861Y327617D02*
X254137Y327473D01*
X253524Y327063D01*
X253114Y326449D01*
X252970Y325726D01*
Y258130D01*
X247482Y252642D01*
X247072Y252028D01*
X246928Y251305D01*
Y197564D01*
Y136935D01*
X247072Y136211D01*
X247482Y135598D01*
X248095Y135188D01*
X248819Y135044D01*
X249542Y135188D01*
X250156Y135598D01*
X250566Y136211D01*
X250710Y136935D01*
Y195828D01*
X251058Y196349D01*
X251202Y197072D01*
X251058Y197796D01*
X250710Y198317D01*
Y250521D01*
X256553Y256365D01*
X256963Y256979D01*
X257107Y257702D01*
X256963Y258426D01*
X256751Y258743D01*
Y325726D01*
X256608Y326449D01*
X256198Y327063D01*
X255584Y327473D01*
X254861Y327617D01*
D02*
G37*
G36*
X268441Y136821D02*
X267957Y136725D01*
X267547Y136451D01*
X267273Y136040D01*
X267177Y135557D01*
X267273Y135073D01*
X267547Y134662D01*
X267957Y134388D01*
X268441Y134292D01*
X268925Y134388D01*
X269335Y134662D01*
X269609Y135073D01*
X269705Y135557D01*
X269609Y136040D01*
X269335Y136451D01*
X268925Y136725D01*
X268441Y136821D01*
D02*
G37*
G36*
X255118Y133171D02*
X254634Y133075D01*
X254224Y132801D01*
X253950Y132391D01*
X253854Y131907D01*
X253950Y131423D01*
X254170Y131095D01*
X254217Y130771D01*
X254170Y130448D01*
X253950Y130119D01*
X253854Y129635D01*
X253950Y129151D01*
X254224Y128741D01*
X254634Y128467D01*
X255118Y128371D01*
X255602Y128467D01*
X256012Y128741D01*
X256286Y129151D01*
X256383Y129635D01*
X256286Y130119D01*
X256067Y130448D01*
X256019Y130771D01*
X256067Y131095D01*
X256286Y131423D01*
X256383Y131907D01*
X256286Y132391D01*
X256012Y132801D01*
X255602Y133075D01*
X255118Y133171D01*
D02*
G37*
G36*
X543370Y128036D02*
X542887Y127940D01*
X542476Y127666D01*
X542202Y127255D01*
X542106Y126772D01*
X542202Y126288D01*
X542476Y125877D01*
X542887Y125603D01*
X543370Y125507D01*
X543854Y125603D01*
X544265Y125877D01*
X544539Y126288D01*
X544635Y126772D01*
X544539Y127255D01*
X544265Y127666D01*
X543854Y127940D01*
X543370Y128036D01*
D02*
G37*
G36*
X265488Y128621D02*
X265004Y128525D01*
X264594Y128251D01*
X264320Y127841D01*
X264224Y127357D01*
X264320Y126873D01*
X264540Y126544D01*
X264587Y126221D01*
X264540Y125898D01*
X264320Y125569D01*
X264224Y125085D01*
X264320Y124601D01*
X264594Y124191D01*
X265004Y123917D01*
X265488Y123821D01*
X265972Y123917D01*
X266382Y124191D01*
X266656Y124601D01*
X266753Y125085D01*
X266656Y125569D01*
X266437Y125898D01*
X266389Y126221D01*
X266437Y126544D01*
X266656Y126873D01*
X266753Y127357D01*
X266656Y127841D01*
X266382Y128251D01*
X265972Y128525D01*
X265488Y128621D01*
D02*
G37*
G36*
X237078Y125715D02*
X236594Y125619D01*
X236184Y125344D01*
X235910Y124934D01*
X235814Y124450D01*
X235910Y123966D01*
X236184Y123556D01*
X236594Y123282D01*
X237078Y123186D01*
X237562Y123282D01*
X237972Y123556D01*
X238246Y123966D01*
X238343Y124450D01*
X238246Y124934D01*
X237972Y125344D01*
X237562Y125619D01*
X237078Y125715D01*
D02*
G37*
G36*
X395508Y123731D02*
X395024Y123634D01*
X394614Y123360D01*
X394340Y122950D01*
X394243Y122466D01*
X394340Y121982D01*
X394614Y121572D01*
X395024Y121298D01*
X395508Y121202D01*
X395992Y121298D01*
X396402Y121572D01*
X396676Y121982D01*
X396772Y122466D01*
X396676Y122950D01*
X396402Y123360D01*
X395992Y123634D01*
X395508Y123731D01*
D02*
G37*
G36*
X200472Y121215D02*
X199988Y121119D01*
X199578Y120845D01*
X199304Y120435D01*
X199208Y119951D01*
X199068Y119811D01*
X198770Y119590D01*
X198382Y119513D01*
X197972Y119239D01*
X197698Y118828D01*
X197601Y118345D01*
X197698Y117861D01*
X197972Y117450D01*
X198382Y117176D01*
X198866Y117080D01*
X199350Y117176D01*
X199760Y117450D01*
X200034Y117861D01*
X200130Y118345D01*
X200270Y118484D01*
X200568Y118706D01*
X200956Y118783D01*
X201366Y119057D01*
X201640Y119467D01*
X201736Y119951D01*
X201640Y120435D01*
X201366Y120845D01*
X200956Y121119D01*
X200472Y121215D01*
D02*
G37*
G36*
X507803Y117431D02*
X507319Y117335D01*
X506909Y117061D01*
X506635Y116651D01*
X506539Y116167D01*
X506635Y115683D01*
X506909Y115273D01*
X507319Y114999D01*
X507803Y114902D01*
X508287Y114999D01*
X508697Y115273D01*
X508971Y115683D01*
X509068Y116167D01*
X508971Y116651D01*
X508697Y117061D01*
X508287Y117335D01*
X507803Y117431D01*
D02*
G37*
G36*
X287820Y392116D02*
X244488D01*
X244217Y392003D01*
X240674Y388460D01*
X240561Y388189D01*
Y381496D01*
X240674Y381225D01*
X243823Y378075D01*
X244094Y377963D01*
X270314D01*
X275601Y372676D01*
X275601Y222012D01*
X275638Y221923D01*
X275648Y221827D01*
X275692Y221792D01*
X275713Y221741D01*
X275802Y221704D01*
X275877Y221643D01*
X276355Y221505D01*
X276306Y221260D01*
X276355Y221014D01*
X275877Y220876D01*
X275802Y220816D01*
X275713Y220779D01*
X275692Y220728D01*
X275648Y220693D01*
X275638Y220597D01*
X275601Y220508D01*
X275601Y161801D01*
X275638Y161712D01*
X275648Y161616D01*
X275692Y161581D01*
X275713Y161530D01*
X275802Y161493D01*
X275877Y161432D01*
X276355Y161294D01*
X276306Y161049D01*
X276355Y160803D01*
X275877Y160665D01*
X275802Y160605D01*
X275713Y160568D01*
X275692Y160517D01*
X275648Y160482D01*
X275638Y160386D01*
X275601Y160297D01*
Y151306D01*
X275623Y151252D01*
X275617Y151195D01*
X275677Y151122D01*
X275713Y151035D01*
X275810Y150827D01*
X275829Y150387D01*
X275813Y150363D01*
X275716Y149879D01*
X275813Y149395D01*
X275829Y149371D01*
X275810Y148931D01*
X275713Y148723D01*
X275677Y148636D01*
X275617Y148563D01*
X275623Y148506D01*
X275601Y148452D01*
Y115748D01*
X275713Y115477D01*
X278469Y112721D01*
X278740Y112609D01*
X302756Y112609D01*
X303027Y112721D01*
X305389Y115083D01*
X305502Y115354D01*
Y319291D01*
X305389Y319563D01*
X296446Y328505D01*
Y383490D01*
X296334Y383761D01*
X288092Y392003D01*
X287820Y392116D01*
D02*
G37*
G36*
X507811Y111427D02*
X507327Y111331D01*
X506917Y111057D01*
X506643Y110647D01*
X506547Y110163D01*
X506643Y109679D01*
X506917Y109269D01*
X507327Y108995D01*
X507811Y108898D01*
X508295Y108995D01*
X508705Y109269D01*
X508979Y109679D01*
X509075Y110163D01*
X508979Y110647D01*
X508705Y111057D01*
X508295Y111331D01*
X507811Y111427D01*
D02*
G37*
G36*
X340079Y109623D02*
X339595Y109527D01*
X339185Y109253D01*
X338911Y108843D01*
X338814Y108359D01*
X338911Y107875D01*
X339185Y107465D01*
X339595Y107191D01*
X340079Y107094D01*
X340563Y107191D01*
X340973Y107465D01*
X341247Y107875D01*
X341343Y108359D01*
X341247Y108843D01*
X340973Y109253D01*
X340563Y109527D01*
X340079Y109623D01*
D02*
G37*
G36*
X438276Y107165D02*
X437792Y107068D01*
X437382Y106794D01*
X437108Y106384D01*
X437012Y105900D01*
X437108Y105416D01*
X437382Y105006D01*
X437792Y104732D01*
X438276Y104636D01*
X438760Y104732D01*
X439171Y105006D01*
X439445Y105416D01*
X439541Y105900D01*
X439445Y106384D01*
X439171Y106794D01*
X438760Y107068D01*
X438276Y107165D01*
D02*
G37*
G36*
X203298Y103162D02*
X202814Y103066D01*
X202404Y102791D01*
X202130Y102381D01*
X202034Y101897D01*
X202130Y101413D01*
X202404Y101003D01*
X202814Y100729D01*
X203298Y100633D01*
X203782Y100729D01*
X204192Y101003D01*
X204466Y101413D01*
X204563Y101897D01*
X204466Y102381D01*
X204192Y102791D01*
X203782Y103066D01*
X203298Y103162D01*
D02*
G37*
G36*
X414173Y405040D02*
X368504D01*
X367780Y404896D01*
X367167Y404487D01*
X354569Y391888D01*
X354159Y391275D01*
X354015Y390551D01*
Y374927D01*
X354159Y374203D01*
X354569Y373590D01*
X355182Y373180D01*
X355906Y373036D01*
X356629Y373180D01*
X357242Y373590D01*
X357652Y374203D01*
X357796Y374927D01*
Y389768D01*
X369287Y401259D01*
X413390D01*
X424094Y390556D01*
Y386246D01*
Y290920D01*
Y195694D01*
Y100419D01*
X424237Y99695D01*
X424647Y99082D01*
X425261Y98672D01*
X425984Y98528D01*
X426708Y98672D01*
X427321Y99082D01*
X427731Y99695D01*
X427875Y100419D01*
Y195694D01*
Y290920D01*
Y386246D01*
Y391339D01*
X427731Y392062D01*
X427321Y392675D01*
X415510Y404487D01*
X414897Y404896D01*
X414173Y405040D01*
D02*
G37*
G36*
X462992Y406221D02*
X462269Y406077D01*
X461655Y405668D01*
X461245Y405054D01*
X461101Y404331D01*
Y378608D01*
X461101Y290970D01*
Y287427D01*
X461101Y195694D01*
Y97747D01*
X461245Y97023D01*
X461655Y96410D01*
X462268Y96000D01*
X462992Y95856D01*
X463716Y96000D01*
X464329Y96410D01*
X464739Y97023D01*
X464883Y97747D01*
Y195694D01*
X464883Y287427D01*
Y290970D01*
X464883Y378608D01*
Y404331D01*
X464739Y405054D01*
X464329Y405668D01*
X463716Y406077D01*
X462992Y406221D01*
D02*
G37*
G36*
X358268Y97107D02*
X357784Y97011D01*
X357374Y96737D01*
X357100Y96326D01*
X357003Y95842D01*
X357100Y95359D01*
X357374Y94948D01*
X357784Y94674D01*
X358268Y94578D01*
X358752Y94674D01*
X359162Y94948D01*
X359436Y95359D01*
X359532Y95842D01*
X359436Y96326D01*
X359162Y96737D01*
X358752Y97011D01*
X358268Y97107D01*
D02*
G37*
G36*
X386846Y95384D02*
X386363Y95288D01*
X385952Y95014D01*
X385678Y94604D01*
X385582Y94120D01*
X385678Y93636D01*
X385952Y93226D01*
X386363Y92951D01*
X386846Y92855D01*
X387330Y92951D01*
X387741Y93226D01*
X388015Y93636D01*
X388111Y94120D01*
X388015Y94604D01*
X387741Y95014D01*
X387330Y95288D01*
X386846Y95384D01*
D02*
G37*
G36*
X355906Y94398D02*
X355422Y94302D01*
X355011Y94028D01*
X354737Y93618D01*
X354641Y93134D01*
X354737Y92650D01*
X355011Y92240D01*
X355422Y91966D01*
X355906Y91869D01*
X356389Y91966D01*
X356800Y92240D01*
X357074Y92650D01*
X357170Y93134D01*
X357074Y93618D01*
X356800Y94028D01*
X356389Y94302D01*
X355906Y94398D01*
D02*
G37*
G36*
X322835Y288505D02*
X322111Y288361D01*
X321498Y287951D01*
X321088Y287338D01*
X320944Y286614D01*
Y224410D01*
Y101571D01*
X314398Y95025D01*
X202344D01*
X201620Y94881D01*
X201007Y94471D01*
X200597Y93857D01*
X200453Y93134D01*
X200597Y92410D01*
X201007Y91797D01*
X201620Y91387D01*
X202344Y91243D01*
X315181D01*
X315905Y91387D01*
X316518Y91797D01*
X324171Y99450D01*
X324581Y100064D01*
X324725Y100787D01*
X324684Y100997D01*
X324725Y101206D01*
Y224410D01*
Y286614D01*
X324581Y287338D01*
X324171Y287951D01*
X323558Y288361D01*
X322835Y288505D01*
D02*
G37*
G36*
X352756Y92603D02*
X352272Y92507D01*
X351862Y92233D01*
X351588Y91822D01*
X351491Y91339D01*
X351588Y90855D01*
X351862Y90444D01*
X352272Y90170D01*
X352756Y90074D01*
X353240Y90170D01*
X353650Y90444D01*
X353924Y90855D01*
X354020Y91339D01*
X353924Y91822D01*
X353650Y92233D01*
X353240Y92507D01*
X352756Y92603D01*
D02*
G37*
G36*
X404169Y91447D02*
X403685Y91351D01*
X403275Y91077D01*
X403001Y90667D01*
X402905Y90183D01*
X403001Y89699D01*
X403275Y89289D01*
X403685Y89014D01*
X404169Y88918D01*
X404653Y89014D01*
X405063Y89289D01*
X405337Y89699D01*
X405434Y90183D01*
X405337Y90667D01*
X405063Y91077D01*
X404653Y91351D01*
X404169Y91447D01*
D02*
G37*
G36*
X349213Y90635D02*
X348729Y90538D01*
X348319Y90264D01*
X348044Y89854D01*
X347948Y89370D01*
X348044Y88886D01*
X348319Y88476D01*
X348729Y88202D01*
X349213Y88106D01*
X349696Y88202D01*
X350107Y88476D01*
X350381Y88886D01*
X350477Y89370D01*
X350381Y89854D01*
X350107Y90264D01*
X349696Y90538D01*
X349213Y90635D01*
D02*
G37*
G36*
X539602Y100253D02*
X538406Y100136D01*
X537255Y99787D01*
X536195Y99220D01*
X535265Y98457D01*
X534502Y97527D01*
X533935Y96467D01*
X533586Y95316D01*
X533468Y94120D01*
X533586Y92923D01*
X533935Y91772D01*
X534502Y90712D01*
X535265Y89782D01*
X536195Y89020D01*
X537255Y88453D01*
X538406Y88104D01*
X539602Y87986D01*
X540799Y88104D01*
X541950Y88453D01*
X543010Y89020D01*
X543940Y89782D01*
X544702Y90712D01*
X545269Y91772D01*
X545618Y92923D01*
X545736Y94120D01*
X545618Y95316D01*
X545269Y96467D01*
X544702Y97527D01*
X543940Y98457D01*
X543010Y99220D01*
X541950Y99787D01*
X540799Y100136D01*
X539602Y100253D01*
D02*
G37*
G36*
X455512Y89683D02*
X454636Y89567D01*
X453820Y89229D01*
X453120Y88692D01*
X452582Y87991D01*
X452244Y87175D01*
X452129Y86299D01*
X452244Y85424D01*
X452582Y84608D01*
X453120Y83907D01*
X453820Y83369D01*
X454636Y83031D01*
X455512Y82916D01*
X456388Y83031D01*
X457203Y83369D01*
X457904Y83907D01*
X458442Y84608D01*
X458780Y85424D01*
X458895Y86299D01*
X458780Y87175D01*
X458442Y87991D01*
X457904Y88692D01*
X457203Y89229D01*
X456388Y89567D01*
X455512Y89683D01*
D02*
G37*
G36*
X519602Y88007D02*
X518596Y87875D01*
X517659Y87486D01*
X516853Y86869D01*
X516235Y86063D01*
X515847Y85126D01*
X515715Y84120D01*
X515847Y83113D01*
X516235Y82176D01*
X516853Y81371D01*
X517659Y80753D01*
X518596Y80365D01*
X519602Y80232D01*
X520609Y80365D01*
X521546Y80753D01*
X522351Y81371D01*
X522969Y82176D01*
X523357Y83113D01*
X523490Y84120D01*
X523357Y85126D01*
X522969Y86063D01*
X522351Y86869D01*
X521546Y87486D01*
X520609Y87875D01*
X519602Y88007D01*
D02*
G37*
G36*
X351971Y78438D02*
X351487Y78342D01*
X351076Y78068D01*
X350802Y77657D01*
X350706Y77174D01*
X350802Y76690D01*
X351076Y76279D01*
X351487Y76005D01*
X351971Y75909D01*
X352454Y76005D01*
X352865Y76279D01*
X353139Y76690D01*
X353235Y77174D01*
X353139Y77657D01*
X352865Y78068D01*
X352454Y78342D01*
X351971Y78438D01*
D02*
G37*
G36*
X451614Y75831D02*
X451130Y75735D01*
X450720Y75461D01*
X450446Y75051D01*
X450350Y74567D01*
X450446Y74083D01*
X450720Y73673D01*
X451130Y73399D01*
X451614Y73303D01*
X452098Y73399D01*
X452508Y73673D01*
X452782Y74083D01*
X452879Y74567D01*
X452782Y75051D01*
X452508Y75461D01*
X452098Y75735D01*
X451614Y75831D01*
D02*
G37*
G36*
X447258Y77656D02*
X446774Y77560D01*
X446364Y77285D01*
X446090Y76875D01*
X445993Y76391D01*
X446090Y75907D01*
X446309Y75579D01*
X446357Y75255D01*
X446309Y74932D01*
X446090Y74603D01*
X445993Y74120D01*
X446090Y73636D01*
X446364Y73225D01*
X446774Y72951D01*
X447258Y72855D01*
X447742Y72951D01*
X448152Y73225D01*
X448426Y73636D01*
X448522Y74120D01*
X448426Y74603D01*
X448206Y74932D01*
X448159Y75255D01*
X448206Y75579D01*
X448426Y75907D01*
X448522Y76391D01*
X448426Y76875D01*
X448152Y77285D01*
X447742Y77560D01*
X447258Y77656D01*
D02*
G37*
G36*
X409476Y74937D02*
X408992Y74840D01*
X408582Y74566D01*
X408308Y74156D01*
X408212Y73672D01*
X408308Y73188D01*
X408582Y72778D01*
X408992Y72504D01*
X409476Y72408D01*
X409960Y72504D01*
X410370Y72778D01*
X410644Y73188D01*
X410741Y73672D01*
X410644Y74156D01*
X410370Y74566D01*
X409960Y74840D01*
X409476Y74937D01*
D02*
G37*
G36*
X406433Y73261D02*
X405949Y73165D01*
X405539Y72891D01*
X405265Y72481D01*
X405169Y71997D01*
X405265Y71513D01*
X405539Y71103D01*
X405949Y70828D01*
X406433Y70732D01*
X406917Y70828D01*
X407327Y71103D01*
X407601Y71513D01*
X407697Y71997D01*
X407601Y72481D01*
X407327Y72891D01*
X406917Y73165D01*
X406433Y73261D01*
D02*
G37*
G36*
X416339Y72881D02*
X415855Y72784D01*
X415445Y72510D01*
X415170Y72100D01*
X415074Y71616D01*
X415170Y71132D01*
X415445Y70722D01*
X415855Y70448D01*
X416339Y70352D01*
X416822Y70448D01*
X417233Y70722D01*
X417507Y71132D01*
X417603Y71616D01*
X417507Y72100D01*
X417233Y72510D01*
X416822Y72784D01*
X416339Y72881D01*
D02*
G37*
G36*
X519602Y78007D02*
X518596Y77875D01*
X517659Y77486D01*
X516853Y76869D01*
X516235Y76063D01*
X515847Y75126D01*
X515715Y74120D01*
X515847Y73113D01*
X516235Y72176D01*
X516853Y71371D01*
X517659Y70753D01*
X518596Y70364D01*
X519602Y70232D01*
X520609Y70364D01*
X521546Y70753D01*
X522351Y71371D01*
X522969Y72176D01*
X523357Y73113D01*
X523490Y74120D01*
X523357Y75126D01*
X522969Y76063D01*
X522351Y76869D01*
X521546Y77486D01*
X520609Y77875D01*
X519602Y78007D01*
D02*
G37*
G36*
X296184Y72626D02*
X295700Y72530D01*
X295290Y72256D01*
X295016Y71846D01*
X294919Y71362D01*
X295016Y70878D01*
X295290Y70468D01*
X295700Y70194D01*
X296184Y70097D01*
X296668Y70194D01*
X297078Y70468D01*
X297352Y70878D01*
X297448Y71362D01*
X297352Y71846D01*
X297078Y72256D01*
X296668Y72530D01*
X296184Y72626D01*
D02*
G37*
G36*
X403874Y70975D02*
X403390Y70878D01*
X402980Y70604D01*
X402706Y70194D01*
X402610Y69710D01*
X402706Y69226D01*
X402980Y68816D01*
X403390Y68542D01*
X403874Y68446D01*
X404358Y68542D01*
X404768Y68816D01*
X405042Y69226D01*
X405138Y69710D01*
X405042Y70194D01*
X404768Y70604D01*
X404358Y70878D01*
X403874Y70975D01*
D02*
G37*
G36*
X400394Y69375D02*
X399910Y69278D01*
X399500Y69004D01*
X399225Y68594D01*
X399129Y68110D01*
X399225Y67626D01*
X399500Y67216D01*
X399910Y66942D01*
X400394Y66846D01*
X400878Y66942D01*
X401288Y67216D01*
X401562Y67626D01*
X401658Y68110D01*
X401562Y68594D01*
X401288Y69004D01*
X400878Y69278D01*
X400394Y69375D01*
D02*
G37*
G36*
X376353Y363333D02*
X375629Y363189D01*
X375016Y362779D01*
X369529Y357293D01*
X369119Y356679D01*
X368975Y355956D01*
Y271876D01*
X368975Y176698D01*
X368975Y77161D01*
X358506Y66691D01*
X358096Y66078D01*
X357952Y65354D01*
Y62323D01*
Y60075D01*
X355553Y57675D01*
X355143Y57062D01*
X354999Y56339D01*
X355143Y55615D01*
X355553Y55002D01*
X356166Y54592D01*
X356890Y54448D01*
X357613Y54592D01*
X358227Y55002D01*
X361179Y57954D01*
X361589Y58568D01*
X361733Y59291D01*
Y62323D01*
Y64571D01*
X372203Y75041D01*
X372613Y75654D01*
X372757Y76378D01*
X372757Y176698D01*
X372757Y271876D01*
Y355173D01*
X377690Y360105D01*
X378100Y360719D01*
X378243Y361442D01*
X378100Y362166D01*
X377690Y362779D01*
X377076Y363189D01*
X376353Y363333D01*
D02*
G37*
G36*
X539602Y60254D02*
X538406Y60136D01*
X537255Y59787D01*
X536195Y59220D01*
X535265Y58457D01*
X534502Y57527D01*
X533935Y56467D01*
X533586Y55316D01*
X533468Y54120D01*
X533586Y52923D01*
X533935Y51772D01*
X534502Y50712D01*
X535265Y49782D01*
X536195Y49020D01*
X537255Y48453D01*
X538406Y48104D01*
X539602Y47986D01*
X540799Y48104D01*
X541950Y48453D01*
X543010Y49020D01*
X543940Y49782D01*
X544702Y50712D01*
X545269Y51772D01*
X545618Y52923D01*
X545736Y54120D01*
X545618Y55316D01*
X545269Y56467D01*
X544702Y57527D01*
X543940Y58457D01*
X543010Y59220D01*
X541950Y59787D01*
X540799Y60136D01*
X539602Y60254D01*
D02*
G37*
G36*
X524803Y32249D02*
X524319Y32152D01*
X523909Y31878D01*
X523635Y31468D01*
X523539Y30984D01*
X523635Y30500D01*
X523909Y30090D01*
X524319Y29816D01*
X524803Y29720D01*
X525287Y29816D01*
X525697Y30090D01*
X525971Y30500D01*
X526068Y30984D01*
X525971Y31468D01*
X525697Y31878D01*
X525287Y32152D01*
X524803Y32249D01*
D02*
G37*
%LPD*%
G36*
X296063Y383490D02*
Y328346D01*
X305118Y319291D01*
Y115354D01*
X302756Y112992D01*
X278740Y112992D01*
X275984Y115748D01*
Y148452D01*
X276484Y148719D01*
X276497Y148711D01*
X276981Y148615D01*
X277465Y148711D01*
X277875Y148985D01*
X278149Y149395D01*
X278245Y149879D01*
X278149Y150363D01*
X277875Y150773D01*
X277465Y151047D01*
X276981Y151144D01*
X276497Y151047D01*
X276484Y151039D01*
X275984Y151306D01*
Y160297D01*
X276484Y160442D01*
X276676Y160155D01*
X277086Y159880D01*
X277570Y159784D01*
X278054Y159880D01*
X278464Y160155D01*
X278948D01*
X279358Y159880D01*
X279842Y159784D01*
X280326Y159880D01*
X280736Y160155D01*
X281010Y160565D01*
X281106Y161049D01*
X281010Y161533D01*
X280736Y161943D01*
X280326Y162217D01*
X279842Y162313D01*
X279358Y162217D01*
X278948Y161943D01*
X278464D01*
X278054Y162217D01*
X277570Y162313D01*
X277086Y162217D01*
X276676Y161943D01*
X276484Y161656D01*
X275984Y161801D01*
X275984Y220508D01*
X276484Y220653D01*
X276676Y220366D01*
X277086Y220092D01*
X277570Y219995D01*
X278054Y220092D01*
X278383Y220311D01*
X278706Y220359D01*
X279029Y220311D01*
X279358Y220092D01*
X279842Y219995D01*
X280326Y220092D01*
X280736Y220366D01*
X281010Y220776D01*
X281106Y221260D01*
X281010Y221744D01*
X280736Y222154D01*
X280326Y222428D01*
X279842Y222524D01*
X279358Y222428D01*
X279029Y222208D01*
X278706Y222161D01*
X278383Y222208D01*
X278054Y222428D01*
X277570Y222524D01*
X277086Y222428D01*
X276676Y222154D01*
X276484Y221867D01*
X275984Y222012D01*
X275984Y372835D01*
X270472Y378346D01*
X244094D01*
X240945Y381496D01*
Y388189D01*
X244488Y391732D01*
X287820D01*
X296063Y383490D01*
D02*
G37*
%LPC*%
G36*
X285039Y320188D02*
X284517Y320084D01*
X284074Y319788D01*
X283779Y319345D01*
X283675Y318823D01*
X283779Y318301D01*
X284074Y317858D01*
X284517Y317562D01*
X285039Y317458D01*
X285562Y317562D01*
X286004Y317858D01*
X286300Y318301D01*
X286404Y318823D01*
X286300Y319345D01*
X286004Y319788D01*
X285562Y320084D01*
X285039Y320188D01*
D02*
G37*
G36*
X280709D02*
X280186Y320084D01*
X279744Y319788D01*
X279448Y319345D01*
X279344Y318823D01*
X279448Y318301D01*
X279744Y317858D01*
X280186Y317562D01*
X280709Y317458D01*
X281231Y317562D01*
X281674Y317858D01*
X281970Y318301D01*
X282073Y318823D01*
X281970Y319345D01*
X281674Y319788D01*
X281231Y320084D01*
X280709Y320188D01*
D02*
G37*
G36*
X285039Y315857D02*
X284517Y315753D01*
X284074Y315457D01*
X283779Y315014D01*
X283675Y314492D01*
X283779Y313970D01*
X284074Y313527D01*
X284517Y313231D01*
X285039Y313127D01*
X285562Y313231D01*
X286004Y313527D01*
X286300Y313970D01*
X286404Y314492D01*
X286300Y315014D01*
X286004Y315457D01*
X285562Y315753D01*
X285039Y315857D01*
D02*
G37*
G36*
X280709D02*
X280186Y315753D01*
X279744Y315457D01*
X279448Y315014D01*
X279344Y314492D01*
X279448Y313970D01*
X279744Y313527D01*
X280186Y313231D01*
X280709Y313127D01*
X281231Y313231D01*
X281674Y313527D01*
X281970Y313970D01*
X282073Y314492D01*
X281970Y315014D01*
X281674Y315457D01*
X281231Y315753D01*
X280709Y315857D01*
D02*
G37*
G36*
X285039Y311526D02*
X284517Y311422D01*
X284074Y311126D01*
X283779Y310684D01*
X283675Y310161D01*
X283779Y309639D01*
X284074Y309196D01*
X284517Y308900D01*
X285039Y308797D01*
X285562Y308900D01*
X286004Y309196D01*
X286300Y309639D01*
X286404Y310161D01*
X286300Y310684D01*
X286004Y311126D01*
X285562Y311422D01*
X285039Y311526D01*
D02*
G37*
G36*
X280709D02*
X280186Y311422D01*
X279744Y311126D01*
X279448Y310684D01*
X279344Y310161D01*
X279448Y309639D01*
X279744Y309196D01*
X280186Y308900D01*
X280709Y308797D01*
X281231Y308900D01*
X281674Y309196D01*
X281970Y309639D01*
X282073Y310161D01*
X281970Y310684D01*
X281674Y311126D01*
X281231Y311422D01*
X280709Y311526D01*
D02*
G37*
G36*
X280427Y286304D02*
X279943Y286208D01*
X279614Y285988D01*
X279291Y285940D01*
X278968Y285988D01*
X278639Y286208D01*
X278155Y286304D01*
X277671Y286208D01*
X277261Y285933D01*
X276987Y285523D01*
X276891Y285039D01*
X276987Y284556D01*
X277261Y284145D01*
X277671Y283871D01*
X278155Y283775D01*
X278639Y283871D01*
X278968Y284091D01*
X279291Y284139D01*
X279614Y284091D01*
X279943Y283871D01*
X280427Y283775D01*
X280911Y283871D01*
X281321Y284145D01*
X281595Y284556D01*
X281691Y285039D01*
X281595Y285523D01*
X281321Y285933D01*
X280911Y286208D01*
X280427Y286304D01*
D02*
G37*
G36*
X285039Y259558D02*
X284517Y259454D01*
X284074Y259158D01*
X283779Y258715D01*
X283675Y258193D01*
X283779Y257671D01*
X284074Y257228D01*
X284517Y256932D01*
X285039Y256828D01*
X285562Y256932D01*
X286004Y257228D01*
X286300Y257671D01*
X286404Y258193D01*
X286300Y258715D01*
X286004Y259158D01*
X285562Y259454D01*
X285039Y259558D01*
D02*
G37*
G36*
X280709D02*
X280186Y259454D01*
X279744Y259158D01*
X279448Y258715D01*
X279344Y258193D01*
X279448Y257671D01*
X279744Y257228D01*
X280186Y256932D01*
X280709Y256828D01*
X281231Y256932D01*
X281674Y257228D01*
X281970Y257671D01*
X282073Y258193D01*
X281970Y258715D01*
X281674Y259158D01*
X281231Y259454D01*
X280709Y259558D01*
D02*
G37*
G36*
X285039Y255227D02*
X284517Y255123D01*
X284074Y254827D01*
X283779Y254384D01*
X283675Y253862D01*
X283779Y253340D01*
X284074Y252897D01*
X284517Y252601D01*
X285039Y252497D01*
X285562Y252601D01*
X286004Y252897D01*
X286300Y253340D01*
X286404Y253862D01*
X286300Y254384D01*
X286004Y254827D01*
X285562Y255123D01*
X285039Y255227D01*
D02*
G37*
G36*
X280709D02*
X280186Y255123D01*
X279744Y254827D01*
X279448Y254384D01*
X279344Y253862D01*
X279448Y253340D01*
X279744Y252897D01*
X280186Y252601D01*
X280709Y252497D01*
X281231Y252601D01*
X281674Y252897D01*
X281970Y253340D01*
X282073Y253862D01*
X281970Y254384D01*
X281674Y254827D01*
X281231Y255123D01*
X280709Y255227D01*
D02*
G37*
G36*
X285039Y250896D02*
X284517Y250792D01*
X284074Y250497D01*
X283779Y250054D01*
X283675Y249532D01*
X283779Y249009D01*
X284074Y248566D01*
X284517Y248271D01*
X285039Y248167D01*
X285562Y248271D01*
X286004Y248566D01*
X286300Y249009D01*
X286404Y249532D01*
X286300Y250054D01*
X286004Y250497D01*
X285562Y250792D01*
X285039Y250896D01*
D02*
G37*
G36*
X280709D02*
X280186Y250792D01*
X279744Y250497D01*
X279448Y250054D01*
X279344Y249532D01*
X279448Y249009D01*
X279744Y248566D01*
X280186Y248271D01*
X280709Y248167D01*
X281231Y248271D01*
X281674Y248566D01*
X281970Y249009D01*
X282073Y249532D01*
X281970Y250054D01*
X281674Y250497D01*
X281231Y250792D01*
X280709Y250896D01*
D02*
G37*
G36*
X285039Y198928D02*
X284517Y198824D01*
X284074Y198528D01*
X283779Y198085D01*
X283675Y197563D01*
X283779Y197041D01*
X284074Y196598D01*
X284517Y196302D01*
X285039Y196198D01*
X285562Y196302D01*
X286004Y196598D01*
X286300Y197041D01*
X286404Y197563D01*
X286300Y198085D01*
X286004Y198528D01*
X285562Y198824D01*
X285039Y198928D01*
D02*
G37*
G36*
X280709D02*
X280186Y198824D01*
X279744Y198528D01*
X279448Y198085D01*
X279344Y197563D01*
X279448Y197041D01*
X279744Y196598D01*
X280186Y196302D01*
X280709Y196198D01*
X281231Y196302D01*
X281674Y196598D01*
X281970Y197041D01*
X282073Y197563D01*
X281970Y198085D01*
X281674Y198528D01*
X281231Y198824D01*
X280709Y198928D01*
D02*
G37*
G36*
X285039Y194597D02*
X284517Y194493D01*
X284074Y194197D01*
X283779Y193755D01*
X283675Y193232D01*
X283779Y192710D01*
X284074Y192267D01*
X284517Y191971D01*
X285039Y191867D01*
X285562Y191971D01*
X286004Y192267D01*
X286300Y192710D01*
X286404Y193232D01*
X286300Y193755D01*
X286004Y194197D01*
X285562Y194493D01*
X285039Y194597D01*
D02*
G37*
G36*
X280709D02*
X280186Y194493D01*
X279744Y194197D01*
X279448Y193755D01*
X279344Y193232D01*
X279448Y192710D01*
X279744Y192267D01*
X280186Y191971D01*
X280709Y191867D01*
X281231Y191971D01*
X281674Y192267D01*
X281970Y192710D01*
X282073Y193232D01*
X281970Y193755D01*
X281674Y194197D01*
X281231Y194493D01*
X280709Y194597D01*
D02*
G37*
G36*
X285039Y190266D02*
X284517Y190163D01*
X284074Y189867D01*
X283779Y189424D01*
X283675Y188902D01*
X283779Y188379D01*
X284074Y187936D01*
X284517Y187641D01*
X285039Y187537D01*
X285562Y187641D01*
X286004Y187936D01*
X286300Y188379D01*
X286404Y188902D01*
X286300Y189424D01*
X286004Y189867D01*
X285562Y190163D01*
X285039Y190266D01*
D02*
G37*
G36*
X280709D02*
X280186Y190163D01*
X279744Y189867D01*
X279448Y189424D01*
X279344Y188902D01*
X279448Y188379D01*
X279744Y187936D01*
X280186Y187641D01*
X280709Y187537D01*
X281231Y187641D01*
X281674Y187936D01*
X281970Y188379D01*
X282073Y188902D01*
X281970Y189424D01*
X281674Y189867D01*
X281231Y190163D01*
X280709Y190266D01*
D02*
G37*
G36*
X288583Y158745D02*
X288099Y158649D01*
X287689Y158374D01*
X287415Y157964D01*
X287318Y157480D01*
X287415Y156996D01*
X287689Y156586D01*
X288099Y156312D01*
X288583Y156216D01*
X289067Y156312D01*
X289477Y156586D01*
X289751Y156996D01*
X289847Y157480D01*
X289751Y157964D01*
X289477Y158374D01*
X289067Y158649D01*
X288583Y158745D01*
D02*
G37*
G36*
X284646Y156776D02*
X284162Y156680D01*
X283752Y156406D01*
X283477Y155996D01*
X283381Y155512D01*
X283477Y155028D01*
X283752Y154618D01*
X284162Y154344D01*
X284646Y154247D01*
X285130Y154344D01*
X285540Y154618D01*
X285814Y155028D01*
X285910Y155512D01*
X285814Y155996D01*
X285540Y156406D01*
X285130Y156680D01*
X284646Y156776D01*
D02*
G37*
G36*
X280709Y154020D02*
X280225Y153924D01*
X279815Y153650D01*
X279540Y153240D01*
X279444Y152756D01*
X279540Y152272D01*
X279815Y151862D01*
X280225Y151588D01*
X280709Y151491D01*
X281192Y151588D01*
X281603Y151862D01*
X281877Y152272D01*
X281973Y152756D01*
X281877Y153240D01*
X281603Y153650D01*
X281192Y153924D01*
X280709Y154020D01*
D02*
G37*
G36*
X285039Y138298D02*
X284517Y138194D01*
X284074Y137898D01*
X283779Y137455D01*
X283675Y136933D01*
X283779Y136411D01*
X284074Y135968D01*
X284517Y135672D01*
X285039Y135568D01*
X285562Y135672D01*
X286004Y135968D01*
X286300Y136411D01*
X286404Y136933D01*
X286300Y137455D01*
X286004Y137898D01*
X285562Y138194D01*
X285039Y138298D01*
D02*
G37*
G36*
X280709D02*
X280186Y138194D01*
X279744Y137898D01*
X279448Y137455D01*
X279344Y136933D01*
X279448Y136411D01*
X279744Y135968D01*
X280186Y135672D01*
X280709Y135568D01*
X281231Y135672D01*
X281674Y135968D01*
X281970Y136411D01*
X282073Y136933D01*
X281970Y137455D01*
X281674Y137898D01*
X281231Y138194D01*
X280709Y138298D01*
D02*
G37*
G36*
X285039Y133967D02*
X284517Y133863D01*
X284074Y133567D01*
X283779Y133125D01*
X283675Y132602D01*
X283779Y132080D01*
X284074Y131637D01*
X284517Y131342D01*
X285039Y131238D01*
X285562Y131342D01*
X286004Y131637D01*
X286300Y132080D01*
X286404Y132602D01*
X286300Y133125D01*
X286004Y133567D01*
X285562Y133863D01*
X285039Y133967D01*
D02*
G37*
G36*
X280709D02*
X280186Y133863D01*
X279744Y133567D01*
X279448Y133125D01*
X279344Y132602D01*
X279448Y132080D01*
X279744Y131637D01*
X280186Y131342D01*
X280709Y131238D01*
X281231Y131342D01*
X281674Y131637D01*
X281970Y132080D01*
X282073Y132602D01*
X281970Y133125D01*
X281674Y133567D01*
X281231Y133863D01*
X280709Y133967D01*
D02*
G37*
G36*
X285039Y129637D02*
X284517Y129533D01*
X284074Y129237D01*
X283779Y128794D01*
X283675Y128272D01*
X283779Y127749D01*
X284074Y127307D01*
X284517Y127011D01*
X285039Y126907D01*
X285562Y127011D01*
X286004Y127307D01*
X286300Y127749D01*
X286404Y128272D01*
X286300Y128794D01*
X286004Y129237D01*
X285562Y129533D01*
X285039Y129637D01*
D02*
G37*
G36*
X280709D02*
X280186Y129533D01*
X279744Y129237D01*
X279448Y128794D01*
X279344Y128272D01*
X279448Y127749D01*
X279744Y127307D01*
X280186Y127011D01*
X280709Y126907D01*
X281231Y127011D01*
X281674Y127307D01*
X281970Y127749D01*
X282073Y128272D01*
X281970Y128794D01*
X281674Y129237D01*
X281231Y129533D01*
X280709Y129637D01*
D02*
G37*
%LPD*%
D16*
X322829Y224410D02*
X322835D01*
X382386Y290970D02*
X382436Y290920D01*
X383424Y385418D02*
X384252Y386246D01*
X425984Y290920D02*
X426353Y290551D01*
X425934Y290970D02*
X425984Y290920D01*
Y195694D02*
X426353Y196063D01*
X168504Y221967D02*
Y222047D01*
X211344Y193012D02*
Y193234D01*
D81*
X376220Y361310D02*
X376353Y361442D01*
X370866Y355956D02*
X376220Y361310D01*
X370866Y271876D02*
Y355956D01*
X370866Y176698D02*
X370866Y76378D01*
X370866Y271876D02*
X370866Y176698D01*
X359842Y62323D02*
Y65354D01*
Y59291D02*
Y62323D01*
X356890Y56339D02*
X359842Y59291D01*
X498032Y402362D02*
X498032Y311024D01*
Y215379D02*
Y311024D01*
X498032Y38350D02*
Y120866D01*
X498032Y215379D02*
X498032Y120866D01*
X389799Y395990D02*
X397126D01*
X397199Y396063D01*
X397273Y395990D01*
X401315D01*
X161811Y62205D02*
Y97244D01*
X191890Y32126D02*
X194803D01*
X491850Y32205D02*
X497835Y38189D01*
X497870D01*
X462992Y378608D02*
Y404331D01*
X462992Y290970D02*
X462992Y378608D01*
X462992Y287427D02*
Y290970D01*
X462992Y195694D02*
X462992Y287427D01*
X401284Y200921D02*
Y385386D01*
X382386Y247296D02*
Y290970D01*
Y152020D02*
Y195694D01*
Y65987D02*
Y117182D01*
X369677Y65945D02*
X376010Y59612D01*
X369449Y65945D02*
X369677D01*
X425984Y386246D02*
Y391339D01*
Y290920D02*
Y386246D01*
Y100419D02*
Y195694D01*
X254861Y257347D02*
Y325726D01*
X248819Y136935D02*
Y197564D01*
X161811Y62205D02*
X191890Y32126D01*
X322835Y224410D02*
Y286614D01*
Y101206D02*
Y224410D01*
X202885Y93134D02*
X315181D01*
X202344D02*
X202885D01*
X497870Y38189D02*
X498032Y38350D01*
X359842Y65354D02*
X370866Y76378D01*
X376010Y59612D02*
X382386Y65987D01*
Y117182D02*
X384614Y119411D01*
X462992Y97747D02*
Y195694D01*
X384614Y304953D02*
Y340343D01*
X382386Y302724D02*
X384614Y304953D01*
X382386Y342571D02*
X384614Y340343D01*
X382386Y290970D02*
Y302724D01*
X384614Y209677D02*
Y245067D01*
X382386Y207449D02*
X384614Y209677D01*
X382386Y196186D02*
Y207449D01*
X384614Y119411D02*
Y149792D01*
X382386Y152020D02*
X384614Y149792D01*
X315181Y93134D02*
X322835Y100787D01*
X382386Y384379D02*
X383424Y385418D01*
X382386Y342571D02*
Y384379D01*
Y247296D02*
X384614Y245067D01*
X425984Y195694D02*
Y290920D01*
X414173Y403150D02*
X425984Y391339D01*
X368504Y403150D02*
X414173D01*
X355906Y390551D02*
X368504Y403150D01*
X355906Y374927D02*
Y390551D01*
X248819Y197564D02*
X249311Y197072D01*
X401284Y107635D02*
Y200921D01*
X248819Y197564D02*
Y251305D01*
X254861Y257347D01*
X255217Y257702D01*
X401284Y385386D02*
X401315Y385418D01*
Y395990D01*
D88*
X273780Y386850D02*
D03*
X268047Y386693D02*
D03*
X262559D02*
D03*
X256890Y387165D02*
D03*
X251102D02*
D03*
X390433Y395827D02*
D03*
X397199Y396063D02*
D03*
X161811Y97244D02*
D03*
X194803Y32126D02*
D03*
X491850Y32205D02*
D03*
X373299Y62323D02*
D03*
X369449Y65945D02*
D03*
X359842Y62323D02*
D03*
X356890Y56339D02*
D03*
X355906Y381496D02*
D03*
Y378346D02*
D03*
X-24170Y276109D02*
D03*
X-17189D02*
D03*
X-23228Y279805D02*
D03*
X462968Y378608D02*
D03*
X463105Y192101D02*
D03*
X462789Y287427D02*
D03*
X462979Y97747D02*
D03*
X438772Y59612D02*
D03*
X359842Y59055D02*
D03*
X376010Y59612D02*
D03*
X470372Y61836D02*
D03*
X474409Y52249D02*
D03*
X477398Y49080D02*
D03*
Y54677D02*
D03*
Y149795D02*
D03*
Y144198D02*
D03*
X474409Y147368D02*
D03*
X470372Y156954D02*
D03*
X477398Y245228D02*
D03*
Y239631D02*
D03*
X474409Y242801D02*
D03*
X470372Y252387D02*
D03*
Y347663D02*
D03*
X474409Y338076D02*
D03*
X477398Y334907D02*
D03*
Y340503D02*
D03*
X78575Y130635D02*
D03*
X30512Y134985D02*
D03*
X25169D02*
D03*
X27988Y138214D02*
D03*
X30512Y141757D02*
D03*
X25169Y141732D02*
D03*
X-20879Y277442D02*
D03*
X-17903Y279528D02*
D03*
X36092Y291464D02*
D03*
X30187D02*
D03*
X32943Y294220D02*
D03*
X36092Y297370D02*
D03*
X29793D02*
D03*
X497870Y120866D02*
D03*
Y215379D02*
D03*
Y311024D02*
D03*
X497476Y402362D02*
D03*
X370965Y76378D02*
D03*
X389799Y331987D02*
D03*
X375604Y261551D02*
D03*
X389654Y242444D02*
D03*
X376010Y150363D02*
D03*
X389732Y148293D02*
D03*
X389448Y51248D02*
D03*
X376010Y65773D02*
D03*
X420668Y50984D02*
D03*
X438772Y153006D02*
D03*
X433122Y138352D02*
D03*
X412968Y139706D02*
D03*
X405107Y134843D02*
D03*
X438772Y248450D02*
D03*
X434646Y233720D02*
D03*
X413141Y236417D02*
D03*
X406917Y231299D02*
D03*
X439764Y334646D02*
D03*
X431693Y326575D02*
D03*
X422142Y318332D02*
D03*
X408661Y309530D02*
D03*
X299024Y378372D02*
D03*
X376477Y351600D02*
D03*
X370965Y271876D02*
D03*
X370866Y176698D02*
D03*
X376088Y361442D02*
D03*
X462598Y404331D02*
D03*
X298819Y177165D02*
D03*
Y298031D02*
D03*
Y237402D02*
D03*
Y116535D02*
D03*
X322829Y101206D02*
D03*
Y164159D02*
D03*
Y224410D02*
D03*
X322835Y286626D02*
D03*
X202885Y93134D02*
D03*
X248819Y136935D02*
D03*
X382221Y100419D02*
D03*
Y195694D02*
D03*
X382436Y290920D02*
D03*
X384252Y386246D02*
D03*
X425934D02*
D03*
Y290970D02*
D03*
X425984Y195694D02*
D03*
X426353Y100419D02*
D03*
X355906Y374927D02*
D03*
X168504Y221967D02*
D03*
X168923Y246088D02*
D03*
X169035Y238214D02*
D03*
X168923Y230340D02*
D03*
X184091Y217027D02*
D03*
X201575Y217189D02*
D03*
X211344Y193012D02*
D03*
X243697Y345272D02*
D03*
X401315Y296850D02*
D03*
X401284Y200921D02*
D03*
Y107635D02*
D03*
X401315Y395990D02*
D03*
X255217Y257702D02*
D03*
X249311Y197072D02*
D03*
X254861Y325726D02*
D03*
M02*
