M48
;Layer_Color=9474304
;FILE_FORMAT=2:4
INCH,TZ
;TYPE=PLATED
T1F00S00C0.0079
T2F00S00C0.0400
T3F00S00C0.0850
%
T01
X5072Y3189
X16630Y2988
X19480Y3213
X39551Y2719
X49185Y3220
X52480Y3098
X54337Y12677
X50780Y11617
X50781Y11016
X49787Y12087
X48108Y12778
X47740Y14420
Y14979
X47441Y14737
X47037Y15695
X45154Y16890
X44174Y16813
Y16586
X43877Y15301
X43312Y13835
X41297Y13971
X40511Y13484
X39551Y12247
X40128Y10764
X40417Y9018
X40643Y7200
X40948Y7367
X41634Y7162
X40387Y6971
X40039Y6811
X40417Y4409
X42281Y4094
X42067Y5098
X43877Y5961
X44726Y7412
Y7639
X45161Y7457
X47037Y6184
X47441Y5225
X47740Y5468
Y4908
X47356Y10722
X46298Y9775
X43828Y10590
X42635Y10042
X38685Y9412
X38945Y5125
X38662Y3773
X38973Y14829
X39715Y16497
X39724Y16890
X40899
X40643Y16614
X41634Y16813
X40417Y18546
X38685Y18940
X38527Y17325
X37087Y17670
X34764Y17677
X33882Y16487
X32283Y16416
X29882Y17717
X28504Y18890
X28071
X26700Y18831
Y18604
X24331Y18862
X24882Y13693
X25512Y13191
Y12964
X26549Y12736
Y12509
X26844Y13556
Y14016
X28071Y13693
X28504
Y13260
Y12827
X28071
Y13260
Y15276
X27698Y14988
X27757Y16105
X27984
X28465Y15551
X28858Y15748
X29882Y11654
X32283Y10121
X34008Y10836
X34921Y8937
X35276Y9134
X35591Y9313
X35827Y9584
X35197Y7717
X37096Y7638
X36945Y6594
X37601Y6577
X37330Y6232
X37601Y5961
X38173Y5332
X35984Y5906
Y6232
X35689Y5634
X31634Y4547
X29999Y4153
X29618Y7136
X23708Y12445
X34954Y13811
Y14038
X37601Y15036
X38173Y14860
X38222Y10042
X20330Y10190
X20289Y9313
X21028Y7550
X21382
X21205Y7314
X21028Y7078
X21382
X19921Y6376
X19921Y3856
X21067Y4449
X21421
X21244Y4685
X21067Y4922
X21421
X20047Y11995
X19887Y11834
X16181Y9724
X10433Y11104
X7857Y13064
X8242Y13585
X12579Y14354
X15039Y16562
Y16789
X21027Y16685
X10108Y18790
X5515Y18399
X5161
X5338Y18163
X5161Y17926
X5515
X3336Y18003
X3051Y14176
X2517Y14173
X2799Y13821
X3051Y13499
X2517
X-945Y14331
X-2502Y15541
Y16486
Y17431
Y18376
X-1719Y18546
X7120Y14609
X6204Y10772
X5417
X3110Y9370
X2149Y6695
X-1102Y19370
X-2502Y19321
Y20266
Y22470
Y23415
Y24360
Y25305
X-2414Y26250
X-2314Y26604
X-2502Y26880
X-2618Y27201
X-2417Y27611
X-2088Y27744
X-2323Y27980
X-1790Y27953
X-1719Y27611
Y26736
X-542Y27744
X-596Y28861
X-2502Y28455
X2812Y27851
X3019Y29146
X3294Y29422
X3609Y29146
Y29737
X2979
X5522Y32180
X5906Y20417
X-685Y20751
X8898Y20000
X11008Y22435
X15098Y23256
X16892Y23034
X16904Y23821
X16892Y24609
X17008Y26586
Y26813
X19010Y26784
X18661Y28339
X20945Y29764
X20354Y30994
X19898Y33270
X18420Y32210
X14570Y32006
X15118Y27570
Y27343
X11913Y29146
X9277Y27570
X9836Y31516
X8368Y32270
X22543Y28546
Y27916
X21654Y26018
Y25791
X20157Y21719
X19315Y22562
X18409Y21703
X16850Y22197
X18661Y19815
X20709Y19756
X20787Y20394
X21134Y19301
X24331Y19089
X24931Y19707
X26844Y19619
X26850Y20157
X28071Y19756
X28504
Y19323
X28071
X27984Y22126
X27757
X26844
X26700Y24634
Y24862
X26844Y25682
Y26142
X28071Y25819
X28504
Y25386
Y24953
X28071
Y25386
X25433Y25149
Y24922
X25332Y24252
X25522Y25770
X23586Y25802
X24213Y22286
X29882Y23740
X33268Y23642
X32868Y22882
X33071Y22638
X33346Y22436
X33478Y22152
X32283Y22441
X36247Y22104
X35421Y20101
Y19874
X38222Y19569
X38173Y24387
X37560Y26155
X37096Y27188
X36247Y28094
X35291Y26164
Y25937
X33166Y27765
X33094Y28073
Y28425
X32904Y28663
X32868Y29077
X32283Y28663
X32751Y30050
X29882Y29803
X28504Y31016
Y31449
Y31882
X28071
Y31449
Y31016
X26844Y31745
Y32205
X26063Y31380
Y31153
X26378Y29665
Y29438
X27816Y28504
X28043
X24476Y30569
X25486Y32573
X24370Y34527
X31913Y34461
X35150Y32227
Y32000
X38173Y33915
X38244Y29092
X38685Y28467
X38527Y26853
X39683Y26654
X39606Y26102
X40591Y26378
X40906Y26405
X41634Y26560
X44189Y26430
Y26203
X45154Y26430
X43877Y24845
X43465Y23372
X41314Y23642
X40692Y23130
X39551Y21774
X40128Y20092
X42598Y19569
X43745Y20412
X46311Y19210
X47356Y20234
X47653Y22302
X47740Y23963
Y24523
X47441Y24280
X47037Y25239
X46279Y28743
X47356Y29777
X47901Y32009
X47740Y33491
Y34050
X47441Y33808
X43976Y33465
X43169Y32657
X42214Y31833
X40866Y30953
X39551Y31302
X40132Y29685
X40417Y28073
X42593Y29097
X44341Y29697
X50781Y30071
X50780Y30672
X49787Y31102
X53481Y32002
X50780Y21128
X50781Y20528
X49787Y21538
X38965Y24244
X38980Y33199
X54217Y22319
X47037Y34766
X45236Y36012
X44201Y36029
Y35802
X44093Y38605
X42593Y38625
X40417Y37601
X38685Y37995
X38527Y36380
X39521Y35967
X39606Y35630
X40588Y35475
X40906
X41500Y36144
X40132Y39599
X39720Y39606
X39043Y39583
X46260Y40433
X47317Y38911
X46297Y37861
X50742Y39205
X50741Y39806
X49748Y40236
X38425Y38625
X36909Y38197
X35591Y38150
Y37835
Y37493
X33094Y37837
Y39018
Y40199
Y36656
Y35475
X29921Y36656
X29902Y37837
X27378Y38685
X26805Y38669
X26256
X25689Y38717
X25110
X26832Y40062
X37609Y36144
X37648Y35160
X19157Y36420
X19082Y39178
X20854Y40163
X4945Y40288
X4184Y35409
X3790Y34700
T02
X45551Y8630
X49137Y7520
X48386Y6457
X49142Y10205
X51960Y8412
Y7412
Y16924
Y17924
X49086Y16890
X48386Y15969
X45398Y18252
X49043Y19717
X48386Y25512
X49189Y26560
X49000Y29213
X51960Y27467
Y26467
X45453Y27638
X45378Y37343
X49039Y38386
X49255Y36014
X48434Y35049
X51960Y35995
Y36995
T03
X53960Y5412
Y9412
Y14924
Y18924
Y24467
Y28467
Y33995
Y37995
M30
