M48
;Layer_Color=9474304
;FILE_FORMAT=2:5
INCH,TZ
;TYPE=PLATED
T1F00S00C0.00787
T2F00S00C0.01181
T3F00S00C0.03150
T4F00S00C0.03543
T5F00S00C0.04000
T6F00S00C0.06299
;TYPE=NON_PLATED
T7F00S00C0.12795
T8F00S00C0.13386
%
T01
X498000Y101650
X500141
X500100Y105000
X498000
X221315Y78976
Y74646
Y70315
X216984
Y74646
Y78976
Y144280
Y148610
Y152941
X221315
Y148610
Y144280
X156815Y115441
X152484
Y111110
Y106780
X156815
Y111110
Y174779
Y179110
Y183441
X152484
Y179110
Y174779
Y224279
Y228610
Y232941
X156815
Y228610
Y224279
X155815Y293280
Y297610
X151484
Y293280
Y301941
X155815
X213484Y330780
Y335110
X217815
Y330780
Y339441
X213484
X214984Y273961
Y269630
Y265299
X219315
Y269630
Y273961
X458000Y365000
X473000
X488000
T02
X11500Y33000
X26500
X31500
X56500Y28000
Y8000
X76500
X86500
X91500Y18000
X96500Y28000
X101500Y13000
X104000
X136500Y28000
X421000Y95000
Y120500
X403000Y116000
X404000Y112000
Y137500
X403000Y141500
X421000Y145500
Y171000
X403000Y167000
X404000Y163000
Y189000
X522500Y183000
X521542Y163458
X511500Y160000
X507000Y77000
X504500
X502000
Y73500
X504500
X507000
Y47000
X504500
X502000
Y43500
X504500
X507000
X337500Y112200
X338500Y115400
X337500Y122000
X338500Y125100
X337500Y132200
X338500Y135200
X337500Y142000
X338500Y145200
X293500Y144000
X294500Y141000
X293500Y134000
X294500Y131000
X293500Y124000
X294500Y121000
X293500Y114000
X294500Y111000
X299000Y104500
X270500Y89000
X262500Y89500
X264500Y81500
X262500Y72000
X241551Y68500
X235500Y62500
X232000Y59500
Y133500
X235400Y136600
X241600Y142700
X263000Y146000
X268000Y148000
X274000Y141500
X263000Y163000
X258500Y180000
X253000Y186000
X228500Y158000
Y139500
X227500Y129600
X207500Y118800
X199500Y114000
X198500Y108000
Y126000
Y151500
X195320Y152819
X205800Y151600
X209000Y158000
X198500Y176500
X177000Y173000
X171000Y167000
X167500Y164000
X163000Y160000
X164000Y170500
Y188500
X145000
X140500Y188000
X141000Y182500
X133000
Y125500
Y114000
X141000Y114500
X140500Y120000
X145000Y120500
X164000
Y102000
X167500Y96000
X171000Y99000
X177000Y105000
X162700Y92200
X196320Y83819
X198500Y77500
X205500
X210000Y83500
X228500Y84000
Y65000
X227400Y55700
X197500Y71300
X191000Y75800
X136500Y68000
X126500
X121500Y78000
X111500
X106500Y68000
X91500Y78000
X96500Y108000
X86500
X81500Y122500
X82500Y145300
X78300Y150100
X105500Y114000
X113400Y107858
X118500Y49500
Y47000
X111500Y38000
X91500
X96500Y48000
X66500Y68000
X71500Y98000
X61500
X51500
X46500Y88000
X26500
X16500
X6500
X11500Y98000
X21500
X26500Y108000
X16500
X6500
X-9000Y122000
X-18000Y119000
X-28000Y122500
X-42000Y134500
Y144000
Y153500
Y163000
Y172500
Y182000
X-28000Y159000
X44000Y160000
X59000Y175700
X54000Y181000
X40000Y113500
X37500
X31500Y78000
X21500
X11500
Y53000
X16500
X21500
X26500
X31500
X29000Y48000
X24000
X19000
X14000
X16500Y43000
X21500
X26500
X31500
X29000Y38000
X24000
X11500Y43000
X22000Y226638
Y229500
X28476Y225476
X30500Y227500
X16500Y234719
Y237581
X10500Y242219
Y245081
X12500Y269000
X15000
X6500Y288000
Y308000
Y328000
X13000Y328500
X15500
X27000Y312500
Y310000
X-18000Y254781
Y251919
X-42200Y254300
X-42000Y257500
Y260800
X-42200Y247900
Y241700
Y232200
Y222600
Y213300
Y203900
X133500Y231500
X141000Y232000
X140500Y238000
X145500
X164000
Y219500
X167500Y213500
X171000Y216500
X177000Y222500
X198500Y226000
Y243500
X196000Y272500
X203500Y273000
X203000Y281000
X207500Y278500
X226500Y279000
Y260500
X225500Y250500
X224000Y316000
X228500Y320000
X225000Y326000
Y344500
X206000
X202425Y338425
X195000Y338500
X197500Y312500
Y294500
X176000Y291500
X170000Y285500
X166500Y282500
X162000Y278500
X163000Y288500
Y307000
X144000
X139500
X140000Y301000
X133000Y300500
X163000Y209669
X198500Y194000
X231000Y233500
X236500Y238500
X233500Y257500
X230000Y254500
X239500Y263500
X261000Y266500
Y285000
X260800Y298700
X258000Y304500
X260000Y332500
X266900Y336100
X265600Y341300
X238000Y329000
X232000Y323000
X273500Y276000
X276900Y270100
X293209Y269791
X294500Y267000
X293209Y260000
X294500Y257000
X298500Y250000
X294500Y277000
X293209Y280000
X294500Y287000
X293500Y290000
X338500Y291000
X337500Y287500
X338500Y281000
X337500Y277500
X338500Y271000
X337500Y267500
X338500Y261000
X337500Y257500
X403000Y249500
X404000Y245500
X403000Y224000
X404000Y220500
X421000Y228000
Y253500
Y279000
X403000Y275000
X404000Y271500
Y297000
X403000Y300500
X458000Y341000
X485000Y344500
X519500Y242000
X523000
X529500Y245000
X421000Y202500
X403000Y192500
X473000Y347000
X260000Y349500
X198500Y347000
X30500Y371500
Y374000
X6500Y368000
Y348000
T03
X18000Y23110
X479500Y38610
Y52390
X18000Y36890
T04
X529500Y152000
Y160000
Y168000
Y176000
X536500Y172000
Y164000
Y156000
Y180000
Y218000
Y226000
Y234000
Y242000
X529500Y238000
Y230000
Y222000
Y214000
T05
X521256Y39000
X531256
Y49000
Y59000
Y69000
Y79000
Y89000
Y99000
Y109000
X521256
Y99000
Y89000
Y79000
Y69000
Y59000
Y49000
T06
X533000Y134000
Y260000
T07
X546500Y141000
Y253000
T08
X543307Y21654
Y372047
M30
